<svg width="396" height="156" viewBox="0 0 396 156" fill="none" xmlns="http://www.w3.org/2000/svg">
<rect width="395.551" height="155" transform="translate(0.296875 0.438477)" fill="black"/>
<path d="M140.032 54.2122C140.032 54.4719 140.032 54.746 140.032 55.0057C140.061 61.6717 140.09 68.3522 140.133 75.0182C140.133 75.3645 140.046 75.5665 139.757 75.754C139.252 76.0715 138.775 76.4466 138.211 76.8506V76.2302C138.211 68.3377 138.211 60.4309 138.211 52.5385C138.211 52.1777 138.11 51.918 137.864 51.6583C136.954 50.6772 136.058 49.6672 135.162 48.6716C135.061 48.5562 134.974 48.4407 134.815 48.2532C135.047 48.2532 135.191 48.2532 135.336 48.2532C137.474 48.2532 139.598 48.2676 141.737 48.2532C142.228 48.2532 142.532 48.3975 142.85 48.7582C152.184 59.1612 161.533 69.5497 170.868 79.9383C170.998 80.0826 171.128 80.2269 171.316 80.4433C171.316 80.2125 171.345 80.097 171.331 79.9672C171.215 70.3289 171.099 60.705 170.969 51.0667C170.969 50.4896 170.796 49.9125 170.709 49.292H174.278C173.715 52.9857 173.96 56.7227 173.83 60.4453C173.7 64.1535 173.686 67.876 173.614 71.5842C173.513 76.5476 173.426 81.511 173.325 86.4889C173.325 86.6332 173.31 86.7775 173.296 86.965C172.096 86.965 170.926 86.965 169.77 86.965C169.625 86.965 169.467 86.7919 169.351 86.6765C165.926 82.8817 162.516 79.087 159.091 75.2923C152.849 68.3666 146.621 61.4409 140.379 54.5152C140.292 54.4142 140.234 54.2987 140.162 54.1833C140.119 54.2122 140.075 54.241 140.032 54.2555V54.2122Z" fill="white"/>
<path d="M217.456 86.0129C216.661 86.2438 216.184 85.7099 215.664 85.0174C214.046 82.8675 212.774 80.5734 212.052 77.9762C212.008 77.8319 211.95 77.6876 211.878 77.5578C208.092 70.1415 203.873 62.9849 199.625 55.8428C199.09 54.9338 198.786 54.0248 198.815 52.9859C198.844 52.0914 198.844 51.2112 198.945 50.3311C199.032 49.5808 199.495 49.0181 200.26 48.8305C200.492 48.7728 200.809 48.8305 201.012 48.9459C201.33 49.1335 201.604 49.4221 201.85 49.6962C202.977 50.9226 203.974 52.2356 204.639 53.7939C204.957 54.5586 205.318 55.3089 205.694 56.0448C205.867 56.3911 206.127 56.6941 206.358 56.9971C206.763 57.5165 207.24 57.9926 207.601 58.5409C208.641 60.1281 209.624 61.7585 210.679 63.3456C212.037 65.3656 213.078 67.5155 213.814 69.8385C214.176 70.9495 214.638 72.0461 215.115 73.1138C215.606 74.2248 216.271 75.2204 217.124 76.1005C218.453 77.4712 219.06 79.1594 219.334 81.0062C219.508 82.1894 219.681 83.3581 219.436 84.5556C219.132 85.9696 219.06 86.0562 217.456 86.0129Z" fill="white"/>
<path d="M188.613 63.9371C189.553 63.461 190.449 63.0137 191.33 62.5664C191.373 62.5953 191.402 62.6241 191.402 62.6386C192.038 65.0193 193.266 67.1403 194.307 69.3478C196.792 74.5998 199.292 79.8374 201.821 85.0606C202.298 86.0706 202.876 87.0228 203.41 88.004C203.482 88.1483 203.569 88.2926 203.685 88.509H201.806C201.301 88.509 200.809 88.4946 200.303 88.509C199.986 88.5234 199.827 88.4224 199.697 88.1194C198.714 85.9407 197.717 83.7908 196.734 81.6121C196.59 81.3091 196.431 81.1937 196.099 81.1937C192.833 81.1937 189.567 81.1937 186.301 81.1937C185.984 81.1937 185.825 81.2947 185.709 81.5833C184.654 84.1227 183.57 86.6333 182.516 89.1727C182.385 89.5045 182.227 89.6344 181.865 89.62C180.579 89.5911 179.293 89.62 178.007 89.62C177.877 89.62 177.733 89.519 177.603 89.4613C177.718 89.3891 177.834 89.2737 177.964 89.2593C178.917 89.0861 179.871 88.9274 180.825 88.7831C181.157 88.7254 181.331 88.5667 181.475 88.2493C183.686 83.2137 185.911 78.1781 188.137 73.1425C188.845 71.5265 189.582 69.925 190.319 68.3234C190.434 68.0637 190.434 67.8617 190.319 67.602C189.755 66.39 189.191 65.1635 188.613 63.8938V63.9371ZM196.2 80.5011C194.451 76.7064 192.746 72.9694 190.983 69.1458C189.365 72.9838 187.775 76.7208 186.186 80.5011H196.2Z" fill="white"/>
<path d="M243.321 63.9371C244.246 63.4754 245.142 63.0137 246.038 62.5664C246.081 62.6097 246.11 62.6241 246.11 62.653C246.789 65.1924 248.119 67.4577 249.231 69.8095C251.673 74.9894 254.159 80.1548 256.644 85.3203C257.121 86.3014 257.685 87.2248 258.205 88.1771C258.248 88.2637 258.291 88.3647 258.364 88.5234C257.554 88.5234 256.803 88.4368 256.066 88.5378C254.925 88.6966 254.376 88.2781 253.956 87.196C253.205 85.2914 252.266 83.459 251.428 81.5833C251.298 81.3091 251.153 81.2081 250.85 81.2081C247.57 81.2081 244.289 81.2081 241.009 81.2081C240.691 81.2081 240.532 81.3091 240.417 81.5977C239.362 84.1227 238.293 86.6188 237.238 89.1438C237.093 89.5045 236.92 89.6488 236.515 89.6344C235.244 89.6055 233.972 89.6344 232.7 89.6344C232.57 89.6344 232.426 89.5334 232.296 89.4757C232.426 89.4035 232.527 89.2881 232.672 89.2737C233.669 89.0861 234.666 88.9418 235.663 88.7398C235.836 88.711 236.038 88.5378 236.111 88.3791C239.102 81.6843 242.064 74.9894 245.026 68.2801C245.099 68.107 245.084 67.8328 245.026 67.6597C244.477 66.4188 243.914 65.1924 243.321 63.9227V63.9371ZM250.908 80.4867C249.174 76.7064 247.454 72.955 245.705 69.1458C244.087 72.9838 242.498 76.7208 240.908 80.4867H250.908Z" fill="white"/>
<path d="M234.246 51.9903C235.286 52.1201 236.544 51.8893 237.801 51.5863C238.624 51.3843 238.928 51.5863 239.202 52.3943C239.419 53.0436 239.462 53.6929 239.304 54.3566C239.231 54.6451 239.101 54.8183 238.769 54.7894C237.786 54.6884 237.15 55.1501 236.587 55.9293C235.474 57.5164 234.275 59.0314 233.148 60.6041C232.801 61.0947 232.555 61.6574 232.31 62.2057C231.486 64.0526 230.677 65.8994 229.853 67.7463C229.738 68.006 229.579 68.2513 229.42 68.4821C228.09 70.228 226.79 71.9883 225.417 73.6764C224.984 74.2103 224.348 74.5999 223.77 75.0183C223.452 75.2491 223.293 74.9894 223.235 74.7153C223.047 73.8929 223.076 73.0993 223.437 72.3201C223.625 71.9306 223.813 71.5266 224.059 71.1659C225.359 69.3334 226.226 67.2701 227.093 65.2069C228.553 61.7584 229.983 58.31 231.053 54.7173C231.226 54.1546 231.24 53.5341 231.298 52.9426C231.37 52.0913 231.443 51.9903 232.295 51.9759C232.859 51.9759 233.408 51.9759 234.232 51.9759L234.246 51.9903Z" fill="white"/>
<path d="M223.683 104.828C223.683 102.635 223.683 100.456 223.683 98.2627C223.683 98.1328 223.64 97.9597 223.698 97.8587C223.799 97.7 223.958 97.5124 224.117 97.498C224.233 97.4835 224.406 97.7 224.507 97.8442C224.565 97.9308 224.522 98.0751 224.522 98.205C224.522 100.802 224.522 103.399 224.522 105.996C224.522 106.299 224.565 106.631 224.16 106.732C223.756 106.833 223.597 106.545 223.438 106.256C222.282 104.106 221.111 101.956 219.941 99.8065C219.869 99.6622 219.782 99.5324 219.609 99.4025V99.821C219.609 101.87 219.609 103.933 219.609 105.982C219.609 106.097 219.652 106.256 219.609 106.343C219.507 106.501 219.348 106.718 219.204 106.718C219.059 106.718 218.901 106.501 218.785 106.343C218.727 106.271 218.77 106.141 218.77 106.025C218.77 103.414 218.77 100.802 218.77 98.1905C218.77 98.1328 218.756 98.0607 218.77 98.0174C218.886 97.8298 218.987 97.5268 219.146 97.498C219.32 97.4547 219.594 97.6278 219.724 97.7865C219.955 98.0751 220.1 98.4358 220.273 98.7677C221.299 100.672 222.325 102.562 223.351 104.467C223.423 104.597 223.496 104.712 223.568 104.842C223.597 104.842 223.626 104.828 223.655 104.813L223.683 104.828Z" fill="white"/>
<path d="M209.624 102.577C209.624 103.731 209.624 104.813 209.624 105.895C209.624 106.025 209.667 106.198 209.624 106.299C209.523 106.472 209.364 106.689 209.191 106.718C209.075 106.732 208.887 106.501 208.771 106.343C208.714 106.242 208.743 106.083 208.743 105.939C208.743 103.442 208.743 100.961 208.743 98.4646C208.743 97.7288 208.887 97.5845 209.61 97.5845C210.39 97.5845 211.185 97.5845 211.965 97.6133C213.309 97.6855 214.104 98.4358 214.277 99.7199C214.45 101.062 213.858 102.014 212.586 102.447C212.485 102.476 212.398 102.519 212.268 102.562C212.919 103.63 213.554 104.669 214.19 105.708C214.262 105.838 214.407 105.967 214.393 106.097C214.393 106.285 214.32 106.573 214.205 106.617C214.046 106.674 213.742 106.617 213.627 106.501C213.381 106.213 213.222 105.866 213.034 105.549C212.514 104.669 211.979 103.789 211.474 102.894C211.329 102.649 211.17 102.562 210.896 102.577C210.491 102.591 210.086 102.577 209.61 102.577H209.624ZM209.638 101.682C210.52 101.682 211.372 101.74 212.196 101.668C212.948 101.596 213.395 101.018 213.439 100.283C213.482 99.3448 213.135 98.6955 212.341 98.5656C211.459 98.4213 210.563 98.4502 209.653 98.4069V101.697L209.638 101.682Z" fill="white"/>
<path d="M140.437 102.562C141.072 103.616 141.708 104.655 142.344 105.708C142.517 106.011 142.85 106.357 142.387 106.646C141.925 106.934 141.766 106.487 141.578 106.184C140.928 105.087 140.278 104.005 139.656 102.909C139.526 102.678 139.367 102.562 139.093 102.577C138.674 102.606 138.255 102.577 137.792 102.577C137.792 103.717 137.792 104.799 137.792 105.881C137.792 106.04 137.836 106.242 137.778 106.372C137.706 106.53 137.532 106.718 137.388 106.718C137.243 106.718 137.07 106.545 136.969 106.4C136.896 106.299 136.94 106.141 136.94 105.996C136.94 103.471 136.94 100.961 136.94 98.4358C136.94 97.7 137.055 97.5846 137.778 97.599C138.544 97.599 139.324 97.5846 140.09 97.6278C141.463 97.7 142.315 98.4503 142.474 99.72C142.647 101.062 142.041 102.029 140.74 102.461C140.653 102.49 140.567 102.534 140.451 102.577L140.437 102.562ZM137.807 98.4503V101.711C138.601 101.711 139.367 101.754 140.133 101.711C141.087 101.653 141.578 101.091 141.593 100.153C141.593 99.1573 141.116 98.5513 140.148 98.4647C139.382 98.407 138.616 98.4647 137.807 98.4647V98.4503Z" fill="white"/>
<path d="M152.575 102.086C152.575 102.75 152.618 103.414 152.575 104.077C152.459 105.679 151.332 106.732 149.757 106.761C148.211 106.79 146.997 105.809 146.867 104.222C146.751 102.793 146.751 101.35 146.867 99.9365C146.983 98.3349 148.124 97.4547 149.786 97.4692C151.346 97.4836 152.416 98.4359 152.56 100.009C152.618 100.701 152.56 101.394 152.56 102.086H152.575ZM147.604 102.072C147.604 102.072 147.647 102.072 147.662 102.072C147.662 102.692 147.633 103.313 147.662 103.933C147.734 105.145 148.456 105.867 149.598 105.924C150.725 105.982 151.477 105.362 151.664 104.15C151.751 103.572 151.737 102.981 151.722 102.389C151.722 101.538 151.722 100.658 151.621 99.821C151.491 98.8399 150.768 98.3205 149.728 98.2916C148.673 98.2627 147.922 98.7822 147.748 99.7777C147.618 100.528 147.633 101.307 147.589 102.072H147.604Z" fill="white"/>
<path d="M178.686 106.4C178.585 106.487 178.44 106.718 178.296 106.718C178.122 106.718 177.862 106.545 177.79 106.386C177.588 105.91 177.458 105.419 177.313 104.929C177.241 104.654 177.125 104.539 176.822 104.539C175.912 104.553 175.001 104.553 174.105 104.539C173.845 104.539 173.73 104.611 173.657 104.871C173.542 105.333 173.383 105.794 173.238 106.256C173.152 106.545 172.993 106.819 172.631 106.718C172.256 106.617 172.285 106.314 172.371 106.025C173.209 103.37 174.048 100.701 174.9 98.0462C174.972 97.8153 175.232 97.5556 175.449 97.4979C175.782 97.4113 175.941 97.7288 176.027 98.0173C176.88 100.701 177.732 103.399 178.585 106.083C178.614 106.155 178.614 106.227 178.657 106.415L178.686 106.4ZM174.033 103.688H176.952C176.475 102.101 175.998 100.571 175.493 98.9119C174.987 100.586 174.51 102.115 174.033 103.688Z" fill="white"/>
<path d="M235.099 106.372C234.984 106.487 234.853 106.704 234.738 106.704C234.55 106.704 234.29 106.559 234.218 106.415C234.001 105.924 233.856 105.391 233.712 104.871C233.64 104.626 233.524 104.539 233.278 104.539C232.354 104.539 231.429 104.554 230.518 104.539C230.244 104.539 230.143 104.655 230.085 104.886C229.955 105.347 229.825 105.809 229.666 106.271C229.579 106.559 229.42 106.819 229.059 106.718C228.669 106.603 228.727 106.3 228.813 106.011C229.651 103.371 230.49 100.716 231.328 98.0752C231.414 97.7722 231.53 97.4692 231.906 97.4692C232.31 97.4692 232.426 97.7867 232.527 98.0897C233.307 100.543 234.088 103.01 234.868 105.463C234.955 105.737 235.027 106.011 235.128 106.372H235.099ZM231.891 98.8977C231.386 100.571 230.909 102.115 230.417 103.688H233.336C232.859 102.115 232.397 100.571 231.877 98.8977H231.891Z" fill="white"/>
<path d="M128.212 103.226C128.212 104.178 128.212 105.087 128.212 105.982C128.212 106.314 128.27 106.732 127.793 106.732C127.33 106.732 127.345 106.328 127.345 105.996C127.345 103.471 127.345 100.961 127.345 98.4358C127.345 97.7288 127.489 97.5989 128.197 97.5989C128.775 97.5989 129.339 97.5845 129.917 97.5989C131.665 97.6567 132.619 98.6234 132.648 100.355C132.677 102.144 131.68 103.168 129.874 103.212C129.339 103.212 128.79 103.212 128.212 103.212V103.226ZM128.241 102.433C129.007 102.404 129.743 102.418 130.48 102.317C131.131 102.231 131.608 101.812 131.694 101.148C131.766 100.643 131.752 100.095 131.665 99.5901C131.564 99.0418 131.16 98.6234 130.596 98.5512C129.83 98.4502 129.05 98.4502 128.241 98.4069V102.433Z" fill="white"/>
<path d="M263.898 102.519V105.751C264.057 105.751 264.216 105.765 264.375 105.765C265.271 105.765 266.152 105.765 267.048 105.765C267.337 105.765 267.641 105.809 267.655 106.155C267.655 106.53 267.381 106.588 267.048 106.588C265.964 106.588 264.866 106.588 263.782 106.588C263.147 106.588 263.017 106.444 263.017 105.809C263.017 103.341 263.017 100.86 263.017 98.3925C263.017 97.7288 263.161 97.5845 263.811 97.5845C264.837 97.5845 265.863 97.5845 266.889 97.5845C267.193 97.5845 267.496 97.6133 267.496 98.0029C267.496 98.4069 267.178 98.4213 266.875 98.4213C265.892 98.4213 264.91 98.4213 263.898 98.4213V101.668C264.606 101.668 265.314 101.668 266.022 101.668C266.239 101.668 266.441 101.668 266.658 101.668C266.947 101.668 267.222 101.697 267.236 102.072C267.236 102.447 266.976 102.49 266.672 102.49C265.907 102.49 265.126 102.49 264.36 102.49C264.216 102.49 264.071 102.49 263.884 102.505L263.898 102.519Z" fill="white"/>
<path d="M200.607 98.436V101.682C201.199 101.682 201.792 101.682 202.37 101.682C202.731 101.682 203.092 101.682 203.454 101.682C203.757 101.682 203.974 101.798 203.959 102.115C203.959 102.418 203.728 102.505 203.454 102.505C202.514 102.505 201.575 102.505 200.607 102.505V105.78C200.78 105.78 200.939 105.78 201.098 105.78C202.023 105.78 202.948 105.78 203.858 105.78C204.133 105.78 204.378 105.896 204.335 106.199C204.306 106.357 204.089 106.588 203.945 106.588C202.702 106.617 201.46 106.603 200.231 106.588C199.899 106.588 199.726 106.372 199.726 106.025C199.726 103.414 199.726 100.802 199.726 98.1907C199.726 97.8011 199.928 97.5991 200.318 97.5991C201.445 97.5991 202.587 97.5991 203.714 97.5991C204.003 97.5991 204.191 97.7146 204.205 98.0176C204.205 98.335 204.003 98.436 203.728 98.436C202.876 98.436 202.038 98.436 201.185 98.436C201.012 98.436 200.824 98.436 200.593 98.436H200.607Z" fill="white"/>
<path d="M255.791 105.16C256.47 102.923 257.15 100.687 257.829 98.4504C257.901 98.2051 257.944 97.931 258.089 97.729C258.19 97.5991 258.45 97.4837 258.609 97.5125C258.739 97.5414 258.84 97.7722 258.898 97.9454C258.927 98.0464 258.869 98.1763 258.826 98.2917C258.017 100.846 257.207 103.414 256.398 105.968C256.369 106.04 256.369 106.126 256.326 106.184C256.138 106.386 255.965 106.675 255.748 106.732C255.401 106.805 255.257 106.473 255.155 106.17C254.534 104.179 253.898 102.202 253.277 100.225C253.075 99.5758 252.872 98.9265 252.656 98.2917C252.554 97.9743 252.468 97.628 252.901 97.5125C253.291 97.4115 253.421 97.729 253.508 98.032C254.129 100.066 254.751 102.101 255.358 104.135C255.459 104.496 255.574 104.842 255.69 105.203H255.791V105.16Z" fill="white"/>
<path d="M157.965 98.4359V101.682C158.485 101.682 158.991 101.682 159.496 101.682C159.915 101.682 160.349 101.682 160.768 101.682C161.071 101.682 161.332 101.755 161.317 102.115C161.317 102.447 161.057 102.519 160.768 102.519C159.843 102.519 158.933 102.519 157.936 102.519C157.936 102.793 157.936 103.053 157.936 103.298C157.936 104.265 157.936 105.232 157.936 106.198C157.936 106.501 157.864 106.776 157.517 106.761C157.184 106.761 157.098 106.487 157.098 106.184C157.098 103.558 157.098 100.932 157.098 98.3061C157.098 97.7866 157.257 97.6279 157.777 97.6279C158.846 97.6279 159.93 97.6279 160.999 97.6279C161.303 97.6279 161.563 97.6712 161.577 98.0464C161.577 98.4215 161.303 98.4648 161.014 98.4648C160.017 98.4648 159.02 98.4648 157.965 98.4648V98.4359Z" fill="white"/>
<path d="M240.056 98.436C239.463 98.436 238.928 98.436 238.379 98.436C238.09 98.436 237.787 98.4071 237.772 98.0464C237.772 97.6713 238.047 97.5991 238.365 97.5991C239.781 97.5991 241.197 97.5991 242.628 97.5991C242.917 97.5991 243.206 97.628 243.206 98.0031C243.206 98.4071 242.902 98.436 242.599 98.436C242.064 98.436 241.515 98.436 240.908 98.436V98.9987C240.908 101.336 240.908 103.674 240.908 106.011C240.908 106.141 240.951 106.314 240.879 106.415C240.793 106.559 240.648 106.732 240.503 106.732C240.373 106.732 240.171 106.603 240.099 106.473C240.012 106.328 240.041 106.126 240.041 105.939C240.041 103.616 240.041 101.293 240.041 98.9698V98.436H240.056Z" fill="white"/>
<path d="M192.385 98.436C191.778 98.436 191.243 98.436 190.694 98.436C190.405 98.436 190.102 98.4071 190.102 98.0464C190.102 97.6568 190.391 97.5991 190.708 97.5991C192.125 97.5991 193.555 97.5991 194.971 97.5991C195.26 97.5991 195.549 97.6568 195.549 98.0176C195.549 98.3783 195.26 98.436 194.971 98.436C194.408 98.436 193.859 98.436 193.223 98.436C193.223 98.638 193.223 98.8256 193.223 98.9987C193.223 101.394 193.223 103.803 193.223 106.199C193.223 106.487 193.165 106.732 192.833 106.747C192.5 106.747 192.37 106.53 192.37 106.213C192.37 106.098 192.37 105.968 192.37 105.852C192.37 103.573 192.37 101.293 192.37 99.0131C192.37 98.8544 192.37 98.6813 192.37 98.4504L192.385 98.436Z" fill="white"/>
<path d="M183.686 105.794C184.726 105.794 185.694 105.794 186.677 105.794C186.807 105.794 186.98 105.751 187.081 105.823C187.226 105.924 187.399 106.097 187.399 106.227C187.399 106.357 187.183 106.588 187.053 106.588C185.795 106.617 184.538 106.617 183.296 106.588C183.151 106.588 182.992 106.328 182.862 106.155C182.804 106.083 182.848 105.953 182.848 105.838C182.848 103.284 182.848 100.744 182.848 98.1905C182.848 98.0607 182.819 97.8875 182.877 97.7865C182.978 97.6422 183.166 97.4691 183.296 97.4835C183.426 97.4835 183.585 97.6855 183.671 97.8442C183.729 97.9308 183.686 98.0751 183.686 98.2049C183.686 100.542 183.686 102.88 183.686 105.217V105.794Z" fill="white"/>
<path d="M248.364 102.13C248.364 103.457 248.364 104.785 248.364 106.112C248.364 106.429 248.321 106.732 247.945 106.732C247.555 106.732 247.482 106.429 247.482 106.098C247.482 103.428 247.482 100.759 247.482 98.0897C247.482 97.7722 247.54 97.4837 247.916 97.4692C248.321 97.4692 248.364 97.7722 248.364 98.1041C248.364 99.446 248.364 100.788 248.364 102.13Z" fill="white"/>
</svg>
