<svg width="690.000000" height="99.000000" viewBox="0 0 690 99" fill="none" xmlns="http://www.w3.org/2000/svg" xmlns:xlink="http://www.w3.org/1999/xlink">
	<desc>
			Created with Pixso.
	</desc>
	<defs/>
	<path id="path" d="M64.25 42.12C64.25 40.34 63.18 39.44 61.04 39.44C57.84 39.44 54.79 40.6 51.89 42.93C48.99 45.26 45.23 48.92 40.6 53.92L38.47 56.34C49.33 59.56 58.93 64.66 67.26 71.63C75.58 78.6 81.08 87.1 83.76 97.11L65.19 97.11C61.98 90.5 57.35 84.49 51.3 79.07C45.24 73.66 38.83 69.67 32.06 67.07L31.93 97.11L15.5 97.11L15.5 72.96C13.36 73.32 11.66 73.5 10.42 73.5C7.12 73.5 4.56 72.69 2.73 71.08C0.91 69.47 0 67.28 0 64.51C0 60.85 1.44 57.99 4.34 55.93C7.23 53.87 11.09 52.84 15.9 52.84C16.43 34.33 17.99 17.79 20.57 3.21L37.94 0C35.44 14.03 33.75 28.07 32.86 42.11C42.93 31.29 52.63 25.88 61.98 25.88C68.13 25.88 72.78 27.31 75.94 30.18C79.11 33.04 80.69 36.84 80.69 41.58C80.69 49.35 76.59 56.37 68.4 62.63L57.85 52.31C62.11 48.65 64.25 45.25 64.25 42.12ZM206.39 41.85L181 41.85L181 27.77L248.07 27.77L248.07 41.85L222.56 41.85L222.56 97.11L206.39 97.11L206.39 41.85ZM260.76 94.7L260.76 80.62C265.57 82.4 270.49 83.72 275.52 84.57C280.55 85.43 285.25 85.85 289.62 85.85C294.51 85.85 298.34 85.04 301.11 83.43C303.87 81.82 305.25 79.59 305.25 76.72C305.25 73.68 303.98 71.43 301.44 69.95C298.91 68.47 294.87 67.74 289.35 67.74L269.71 67.74L269.71 56.47L288.95 56.47C293.85 56.47 297.66 55.67 300.37 54.06C303.08 52.45 304.44 50.08 304.44 46.95C304.44 44.26 303.29 42.27 300.97 40.98C298.65 39.68 294.96 39.03 289.88 39.03C285.78 39.03 281.24 39.48 276.26 40.37C271.27 41.27 266.46 42.47 261.83 43.99L261.83 29.91C272.87 27.22 282.71 25.88 291.35 25.88C300.79 25.88 308.04 27.58 313.12 30.98C318.2 34.38 320.74 38.94 320.74 44.66C320.74 49.22 319.14 52.87 315.93 55.59C312.72 58.33 308.72 60.18 303.91 61.16L303.91 61.29C309.52 61.83 313.9 63.56 317.07 66.46C320.23 69.37 321.81 73.19 321.81 77.92C321.81 82.13 320.48 85.81 317.8 88.99C315.13 92.16 311.44 94.62 306.72 96.36C301.99 98.1 296.57 98.98 290.42 98.98C279.9 98.99 270.02 97.56 260.76 94.7ZM346.79 90.87C341.98 85.46 339.57 77.57 339.57 67.2L339.57 27.76L355.74 27.76L355.74 65.19C355.74 71.62 357.31 76.52 360.48 79.87C363.64 83.22 368.21 84.9 374.17 84.9C380.59 84.9 385.7 82.93 389.53 78.99C393.37 75.06 395.28 69.87 395.28 63.44L395.28 27.76L411.44 27.76L411.44 97.11L395.28 97.11L397.15 76.99L396.88 76.99C395.01 83.96 391.51 89.38 386.39 93.22C381.27 97.06 374.97 98.98 367.49 98.98C358.5 98.99 351.6 96.29 346.79 90.87ZM426.01 97.65L426.01 83.56C429.12 84.19 431.3 84.5 432.55 84.5C435.84 84.5 438.25 82.83 439.77 79.47C441.28 76.12 442.04 70.33 442.04 62.11L442.04 27.77L504.83 27.77L504.83 97.11L488.67 97.11L488.67 41.85L457.67 41.85L457.67 64.52C457.67 76.95 455.8 85.8 452.06 91.08C448.32 96.36 442.84 99 435.63 99C433.05 98.99 429.84 98.54 426.01 97.65ZM519.39 97.65L519.39 83.56C522.5 84.19 524.69 84.5 525.93 84.5C529.23 84.5 531.63 82.83 533.15 79.47C534.66 76.12 535.42 70.33 535.42 62.11L535.42 27.77L598.21 27.77L598.21 97.11L582.05 97.11L582.05 41.85L551.05 41.85L551.05 64.52C551.05 76.95 549.18 85.8 545.44 91.08C541.7 96.36 536.22 99 529.01 99C526.42 98.99 523.21 98.54 519.39 97.65ZM620.52 93.69C616.51 90.16 614.51 85.09 614.51 78.47C614.51 72.03 616.86 67 621.59 63.38C626.31 59.76 633.03 57.95 641.76 57.95C651.03 57.95 659.13 59.69 666.07 63.18C666.43 61.66 666.6 59.91 666.6 57.95C666.6 51.96 664.95 47.37 661.66 44.2C658.36 41.03 653.38 39.44 646.7 39.44C642.07 39.44 638.51 40.47 636.01 42.53C633.51 44.58 632.27 47.31 632.27 50.71C632.27 51.24 632.36 52.04 632.54 53.12L617.98 55C617.71 53.39 617.58 51.78 617.58 50.17C617.58 42.66 620.25 36.74 625.6 32.4C630.94 28.06 638.33 25.89 647.77 25.89C659.08 25.89 667.79 28.6 673.89 34.01C679.99 39.42 683.04 47.27 683.04 57.55C683.04 62.82 681.8 68.06 679.31 73.24C684.2 79.05 687.77 86.12 690 94.43L676.9 98.99C675.65 94.07 673.65 89.46 670.89 85.17C666.61 89.47 661.72 92.84 656.2 95.3C650.67 97.76 644.93 98.99 638.96 98.99C630.67 98.99 624.53 97.23 620.52 93.69ZM633.27 83.5C634.83 84.8 637.08 85.45 640.02 85.45C644.3 85.45 648.21 84.55 651.77 82.76C655.34 80.97 658.27 78.51 660.59 75.38C654.98 72.17 648.57 70.56 641.35 70.56C637.88 70.56 635.28 71.25 633.54 72.63C631.81 74.02 630.93 75.92 630.93 78.33C630.93 80.48 631.71 82.21 633.27 83.5ZM166.04 46.05C162.61 40.51 157.84 36.17 151.74 33.05C145.63 29.92 138.75 28.35 131.1 28.35C123.35 28.35 116.43 29.91 110.32 33.05C104.22 36.18 99.43 40.51 95.96 46.05C92.48 51.6 90.75 57.9 90.75 64.97C90.75 72.03 92.48 78.33 95.96 83.88C98.4 87.78 101.51 91.06 105.26 93.74C108.15 91.19 110.58 88.04 110.75 84.05C110.81 82.65 110.84 80.58 110.86 77.81C110.86 77.35 110.99 76.67 111.23 75.77C112.22 72.13 114.32 68.93 114.48 65.02C114.53 63.66 114.18 62.22 113.92 60.82C113.66 59.41 113.77 57.82 114.23 56.03C114.63 54.51 115.48 52.14 116.79 48.94C118.37 45.07 120.64 41.85 122.41 38.05C123.65 35.37 126.93 29.88 126.97 29.95C127.79 31.15 130.51 40.79 132.12 44.42C132.14 44.46 132.19 44.46 132.22 44.43L136.49 39.03L140.38 34.1C140.44 34.02 143.16 47.7 143.16 47.7C143.19 47.84 143.29 47.94 143.42 47.96C147.04 48.56 150.01 50.28 152.33 53.13C152.81 53.73 154.76 58.31 155.61 59.31C156.21 60.03 156.95 60.57 157.81 60.96C158.56 61.28 159.45 61.25 160.29 61.36C162.2 61.6 160.39 64.59 159.75 65.27C159.69 65.34 159.66 65.41 159.64 65.5C159.24 67.46 159.14 68.87 157.79 70.48C155.52 73.19 152.6 74.05 149.19 74.99C148.03 75.31 147.05 75.92 146.24 76.82C143.1 80.35 147.07 85.19 148.93 88.17C150.11 90.06 150.74 92 150.8 93.97C150.84 95.1 150.57 96.28 150.36 97.46C150.82 97.25 151.28 97.04 151.73 96.82C157.83 93.73 162.6 89.42 166.03 83.88C169.46 78.33 171.17 72.03 171.17 64.96C171.18 57.9 169.46 51.6 166.04 46.05Z" fill="#FFFFFF" fill-opacity="1.000000" fill-rule="nonzero"/>
</svg>
