<svg width="208" height="41" viewBox="0 0 208 41" fill="none" xmlns="http://www.w3.org/2000/svg">
<path d="M44.7675 3.444C41.398 1.804 37.8681 0.656 34.0173 0C33.536 0.82 33.0546 1.968 32.5733 2.952C28.562 2.296 24.7112 2.296 20.7 2.952C20.3791 1.968 19.7373 0.984 19.2559 0C15.726 0.656 12.1961 1.968 8.82665 3.444C2.08774 13.94 0.32279 24.108 1.12504 34.112C5.61765 37.556 9.9498 39.524 14.282 41C15.4051 39.524 16.2074 37.884 17.0096 36.244C15.4051 35.588 13.9611 34.932 12.517 34.112C12.8379 33.784 13.3193 33.62 13.6402 33.292C22.144 37.392 31.4501 37.392 39.7935 33.292C40.1144 33.62 40.4353 33.948 40.9167 34.112C39.4726 34.932 38.0286 35.752 36.4241 36.244C37.2263 37.884 38.189 39.524 39.1517 41C43.4839 39.688 47.816 37.556 52.3087 34.112C53.5923 22.468 50.7041 12.464 44.7675 3.444ZM18.2932 27.88C15.726 27.88 13.6402 25.42 13.6402 22.468C13.6402 19.516 15.726 17.056 18.2932 17.056C20.8604 17.056 22.9463 19.516 22.9463 22.468C22.9463 25.42 20.8604 27.88 18.2932 27.88ZM35.4614 27.88C32.8942 27.88 30.8083 25.42 30.8083 22.468C30.8083 19.516 32.8942 17.056 35.4614 17.056C38.0286 17.056 40.1144 19.516 40.1144 22.468C40.1144 25.42 38.0286 27.88 35.4614 27.88ZM70.4395 10.496H81.5106C84.2382 10.496 86.4845 10.988 88.2495 11.808C90.1749 12.628 91.4585 13.94 92.4212 15.416C93.3839 16.892 93.8652 18.696 93.8652 20.828C93.8652 22.796 93.3839 24.6 92.4212 26.076C91.4585 27.716 90.0144 28.864 88.089 29.848C86.1636 30.832 83.7569 31.324 80.7083 31.324H70.4395V10.496ZM80.7083 25.912C82.4733 25.912 83.9173 25.42 84.88 24.436C85.8427 23.452 86.3241 22.14 86.3241 20.664C86.3241 19.188 85.8427 17.876 85.0405 17.056C84.2382 16.236 82.7942 15.744 81.1897 15.744H77.6598V25.912H80.7083ZM110.552 31.324C108.948 30.832 107.664 30.34 106.38 29.52V24.6C107.343 25.42 108.627 25.912 110.071 26.404C111.675 26.896 113.119 27.06 114.563 27.06C115.205 27.06 115.686 26.896 116.168 26.732C116.489 26.568 116.649 26.24 116.649 26.076C116.649 25.748 116.489 25.584 116.328 25.256C116.168 25.092 115.686 24.928 115.205 24.764L111.836 23.944C109.91 23.452 108.466 22.796 107.664 21.976C106.862 21.156 106.38 20.008 106.38 18.696C106.38 17.548 106.701 16.564 107.504 15.744C108.145 14.924 109.268 14.268 110.552 13.776C111.836 13.284 113.44 13.12 115.205 13.12C116.81 13.12 118.254 13.284 119.537 13.612C120.821 13.94 121.944 14.432 122.907 14.924V19.516C121.944 19.024 120.981 18.532 119.858 18.204C118.735 17.876 117.451 17.712 116.328 17.712C114.563 17.712 113.601 18.04 113.601 18.696C113.601 19.024 113.761 19.188 114.082 19.352C114.403 19.516 114.884 19.68 115.526 19.844L118.414 20.336C120.34 20.664 121.623 21.32 122.586 22.14C123.549 22.96 124.03 24.272 124.03 25.912C124.03 27.716 123.228 29.192 121.784 30.176C120.34 31.16 118.093 31.816 115.366 31.816C113.761 31.816 112.157 31.652 110.552 31.324ZM130.769 30.668C129.164 29.848 127.881 28.7 127.078 27.224C126.276 25.748 125.795 24.272 125.795 22.468C125.795 20.664 126.276 19.024 127.078 17.712C127.881 16.236 129.164 15.252 130.769 14.432C132.373 13.612 134.459 13.284 136.705 13.284C139.594 13.284 141.84 13.94 143.765 15.088V20.5C143.123 20.008 142.321 19.68 141.519 19.352C140.556 19.024 139.754 18.86 138.631 18.86C136.866 18.86 135.422 19.188 134.459 19.844C133.496 20.5 133.015 21.32 133.015 22.468C133.015 23.616 133.496 24.436 134.459 25.092C135.422 25.748 136.866 26.076 138.631 26.076C139.594 26.076 140.556 25.912 141.519 25.584C142.482 25.256 143.284 24.928 143.926 24.6V29.848C141.84 31.16 139.433 31.816 136.705 31.816C134.459 31.816 132.373 31.488 130.769 30.668ZM150.986 30.668C149.381 29.848 148.097 28.7 147.295 27.224C146.493 25.748 146.012 24.108 146.012 22.304C146.012 20.5 146.493 18.86 147.295 17.548C148.097 16.236 149.381 15.088 150.986 14.268C152.59 13.448 154.515 13.12 156.762 13.12C159.008 13.12 160.933 13.448 162.538 14.268C164.142 15.088 165.426 16.072 166.228 17.548C167.031 18.86 167.512 20.5 167.512 22.304C167.512 24.108 167.031 25.748 166.228 27.224C165.426 28.7 164.142 29.848 162.538 30.668C160.933 31.488 159.008 31.98 156.762 31.98C154.676 31.816 152.59 31.488 150.986 30.668ZM159.65 25.42C160.292 24.764 160.613 23.78 160.613 22.632C160.613 21.484 160.292 20.5 159.65 19.844C159.008 19.188 158.045 18.86 156.762 18.86C155.478 18.86 154.515 19.188 153.874 19.844C153.232 20.5 152.911 21.484 152.911 22.632C152.911 23.78 153.232 24.764 153.874 25.42C154.515 26.076 155.478 26.568 156.762 26.568C158.045 26.404 159.008 26.076 159.65 25.42ZM184.84 14.268V20.664C184.038 20.172 183.236 19.844 181.952 19.844C180.508 19.844 179.225 20.336 178.423 21.32C177.62 22.304 177.139 23.78 177.139 25.748V31.16H170.079V13.94H176.978V19.516C177.299 17.548 177.941 16.072 178.743 15.088C179.546 14.104 180.669 13.612 181.952 13.612C183.236 13.448 184.038 13.776 184.84 14.268ZM207.945 9.84V31.16H200.886V27.224C200.244 28.7 199.441 29.848 198.158 30.504C196.874 31.324 195.43 31.652 193.665 31.652C192.061 31.652 190.777 31.324 189.494 30.504C188.37 29.684 187.408 28.536 186.766 27.224C186.124 25.748 185.803 24.272 185.803 22.468C185.803 20.664 186.124 19.024 186.766 17.548C187.408 16.072 188.37 14.924 189.654 14.104C190.938 13.284 192.382 12.956 193.986 12.956C197.356 12.956 199.602 14.432 200.725 17.548V9.84H207.945ZM199.923 25.256C200.565 24.6 201.046 23.616 201.046 22.468C201.046 21.32 200.725 20.5 200.083 19.844C199.441 19.188 198.479 18.86 197.195 18.86C196.072 18.86 195.109 19.188 194.307 19.844C193.665 20.5 193.184 21.484 193.184 22.632C193.184 23.78 193.505 24.6 194.307 25.42C194.949 26.076 195.912 26.568 197.035 26.568C198.318 26.24 199.281 25.912 199.923 25.256ZM99.8019 15.744C101.727 15.744 103.332 14.268 103.332 12.464C103.332 10.66 101.727 9.184 99.8019 9.184C97.8765 9.184 96.272 10.66 96.272 12.464C96.4325 14.268 97.8765 15.744 99.8019 15.744ZM96.4324 18.04C98.5183 19.024 101.246 19.024 103.332 18.04V31.488H96.4324V18.04Z" fill="white"/>
</svg>
