<svg width="511.000000" height="413.000000" viewBox="0 0 511 413" fill="none" xmlns="http://www.w3.org/2000/svg" xmlns:xlink="http://www.w3.org/1999/xlink">
	<desc>
			Created with Pixso.
	</desc>
	<defs/>
	<path id="path" d="M159.82 321.97L153.76 321.97L153.76 344.86L159.82 344.86C167.55 344.86 171.57 340.75 171.57 333.38C171.57 326 167.55 321.97 159.82 321.97ZM159.82 317.1C171.34 317.1 176.87 323.95 176.87 333.38C176.87 342.81 171.26 349.65 159.82 349.65L148.45 349.65L148.45 317.03L159.82 317.1Z" fill="#FFFFFF" fill-opacity="1.000000" fill-rule="nonzero"/>
	<path id="polygon" d="M189.22 349.73L189.22 345.47L206.58 322.04L189.83 322.04L189.83 317.1L213.32 317.1L213.32 321.36L195.97 344.78L213.93 344.78L213.93 349.73L189.22 349.73Z" fill="#FFFFFF" fill-opacity="1.000000" fill-rule="nonzero"/>
	<path id="polygon" d="M234.09 349.73L228.78 349.73L228.78 317.1L234.09 317.1L234.09 349.73Z" fill="#FFFFFF" fill-opacity="1.000000" fill-rule="nonzero"/>
	<path id="path" d="M278.65 317.1L278.65 337.63C278.65 347.06 271.98 350.33 264.78 350.33C257.58 350.33 250.83 347.14 250.83 337.63L250.83 317.1L256.14 317.1L256.14 337.41C256.14 343.34 259.7 345.39 264.78 345.39C269.86 345.39 273.34 343.26 273.34 337.41L273.34 317.1L278.65 317.1Z" fill="#FFFFFF" fill-opacity="1.000000" fill-rule="nonzero"/>
	<path id="path" d="M309.64 335.13L300.85 335.13L300.85 345.01L308.88 345.01C312.52 345.01 316.39 344.56 316.39 340.07C316.39 335.58 312.6 335.13 309.64 335.13ZM308.73 321.74L300.85 321.74L300.85 330.64L309.49 330.64C312.52 330.64 315.1 329.35 315.1 326.23C315.1 323.11 312.6 321.74 308.73 321.74ZM309.26 317.1C316.01 317.1 320.4 319.84 320.4 325.32C320.4 329.27 318.05 331.63 315.32 332.46C318.28 333.3 321.77 335.51 321.77 340.6C321.77 347.98 314.57 349.65 309.41 349.65L295.55 349.65L295.55 317.03L309.26 317.1Z" fill="#FFFFFF" fill-opacity="1.000000" fill-rule="nonzero"/>
	<path id="path" d="M342.61 338.02L355.26 338.02L349.58 324.1C349.43 323.57 349.2 323.03 348.97 322.27C348.75 323.03 348.52 323.57 348.37 324.1L342.61 338.02ZM332.3 349.73L346.02 317.1L351.85 317.1L365.57 349.73L359.96 349.73L357.08 342.65L340.79 342.65L337.91 349.73L332.3 349.73Z" fill="#FFFFFF" fill-opacity="1.000000" fill-rule="nonzero"/>
	<path id="polygon" d="M5.3 412.39L0 412.39L0 379.76L5.3 379.76L5.3 412.39Z" fill="#FFFFFF" fill-opacity="1.000000" fill-rule="nonzero"/>
	<path id="polygon" d="M56.76 379.76L56.76 412.39L51.45 412.39L51.45 389.57L41.22 405.09L38.04 405.09L27.81 389.5L27.81 412.39L22.5 412.39L22.5 379.76L27.28 379.76L39.63 398.47L51.98 379.76L56.76 379.76Z" fill="#FFFFFF" fill-opacity="1.000000" fill-rule="nonzero"/>
	<path id="path" d="M85.86 384.63L79.26 384.63L79.26 396.34L85.86 396.34C90.33 396.34 94.04 395.2 94.04 390.49C94.04 385.77 90.33 384.63 85.86 384.63ZM85.55 379.76C93.28 379.76 99.42 382.2 99.42 390.49C99.42 398.78 93.28 401.21 85.55 401.21L79.26 401.21L79.26 412.39L73.96 412.39L73.96 379.76L85.55 379.76Z" fill="#FFFFFF" fill-opacity="1.000000" fill-rule="nonzero"/>
	<path id="polygon" d="M119.35 379.76L119.35 407.44L136.4 407.44L136.4 412.39L114.05 412.39L114.05 379.76L119.35 379.76Z" fill="#FFFFFF" fill-opacity="1.000000" fill-rule="nonzero"/>
	<path id="path" d="M156.94 400.75L169.6 400.75L163.91 386.84C163.76 386.3 163.53 385.85 163.31 385.01C163.08 385.77 162.85 386.3 162.7 386.84L156.94 400.75ZM146.63 412.46L160.35 379.84L166.19 379.84L179.9 412.46L174.29 412.46L171.42 405.47L155.12 405.47L152.24 412.46L146.63 412.46Z" fill="#FFFFFF" fill-opacity="1.000000" fill-rule="nonzero"/>
	<path id="path" d="M193.39 412.39L193.39 379.76L198.39 379.76L215.9 403.64C215.9 402.5 215.9 401.28 215.9 400.07L215.9 379.76L221.2 379.76L221.2 412.39L216.2 412.39L198.7 388.51C198.7 389.65 198.7 390.87 198.7 392.08L198.7 412.39L193.39 412.39Z" fill="#FFFFFF" fill-opacity="1.000000" fill-rule="nonzero"/>
	<path id="polygon" d="M261.82 379.76L261.82 384.71L251.06 384.71L251.06 412.39L245.83 412.39L245.83 384.71L235 384.71L235 379.76L261.82 379.76Z" fill="#FFFFFF" fill-opacity="1.000000" fill-rule="nonzero"/>
	<path id="path" d="M304.26 379.16C307.97 379.16 311.76 380.07 314.42 381.59L314.42 386.68C311.76 384.93 308.13 383.95 304.64 383.95C300.7 383.95 298.2 385.09 298.2 387.9C298.2 394.97 316.76 392.08 316.76 403.72C316.76 410.56 310.93 412.92 304.49 412.92C300.09 412.92 296.15 411.93 292.97 410.11L292.97 404.86C296.53 407.14 300.4 408.05 304.11 408.05C308.28 408.05 311.38 407.06 311.38 404.02C311.38 396.49 292.82 399.54 292.82 387.98C292.82 381.97 298.12 379.16 304.26 379.16Z" fill="#FFFFFF" fill-opacity="1.000000" fill-rule="nonzero"/>
	<path id="polygon" d="M354.58 379.76L354.58 384.71L343.82 384.71L343.82 412.39L338.59 412.39L338.59 384.71L327.75 384.71L327.75 379.76L354.58 379.76Z" fill="#FFFFFF" fill-opacity="1.000000" fill-rule="nonzero"/>
	<path id="path" d="M395.88 379.76L395.88 400.3C395.88 409.73 389.21 413 382.01 413C374.81 413 368.07 409.8 368.07 400.3L368.07 379.76L373.37 379.76L373.37 400.07C373.37 406 376.94 408.05 382.01 408.05C387.09 408.05 390.58 405.92 390.58 400.07L390.58 379.76L395.88 379.76Z" fill="#FFFFFF" fill-opacity="1.000000" fill-rule="nonzero"/>
	<path id="path" d="M424.07 384.63L418.01 384.63L418.01 407.52L424.07 407.52C431.8 407.52 435.82 403.41 435.82 396.04C435.82 388.66 431.8 384.63 424.07 384.63ZM424.07 379.76C435.59 379.76 441.12 386.61 441.12 396.04C441.12 405.47 435.52 412.31 424.07 412.31L412.71 412.31L412.71 379.69L424.07 379.76Z" fill="#FFFFFF" fill-opacity="1.000000" fill-rule="nonzero"/>
	<path id="polygon" d="M461.74 412.39L456.51 412.39L456.51 379.76L461.74 379.76L461.74 412.39Z" fill="#FFFFFF" fill-opacity="1.000000" fill-rule="nonzero"/>
	<path id="path" d="M493.94 384.17C486.06 384.17 482.27 389.88 482.27 396.11C482.27 402.35 486.14 408.05 493.94 408.05C501.75 408.05 505.61 402.35 505.61 396.11C505.61 389.88 501.83 384.17 493.94 384.17ZM493.94 379.16C505.39 379.16 511 387.44 511 396.04C511 404.63 505.31 412.92 493.94 412.92C482.58 412.92 476.89 404.63 476.89 396.04C476.89 387.44 482.5 379.16 493.94 379.16Z" fill="#FFFFFF" fill-opacity="1.000000" fill-rule="nonzero"/>
	<path id="path" d="M259.17 5.7C200.89 5.7 153.53 53.23 153.53 111.71C153.53 170.18 200.89 217.71 259.17 217.71C317.45 217.71 364.81 170.18 364.81 111.71C364.81 53.23 317.45 5.7 259.17 5.7ZM259.17 223.42C197.79 223.42 147.85 173.3 147.85 111.71C147.85 50.11 197.79 0 259.17 0C320.55 0 370.5 50.11 370.5 111.71C370.5 173.3 320.55 223.42 259.17 223.42Z" fill="#FFFFFF" fill-opacity="1.000000" fill-rule="nonzero"/>
	<path id="path" d="M210.22 80.75L280.62 115.13L230.3 62.43L210.22 80.75ZM293.58 127.52C293.12 127.52 292.74 127.45 292.36 127.22L204 84.02C203.17 83.64 202.56 82.81 202.41 81.9C202.26 80.98 202.64 79.99 203.32 79.39L228.48 56.34C229.62 55.28 231.36 55.36 232.42 56.5L295.39 122.43C296.08 122.96 296.46 123.72 296.46 124.63C296.46 126.23 295.09 127.52 293.58 127.52Z" fill="#FFFFFF" fill-opacity="1.000000" fill-rule="nonzero"/>
	<path id="path" d="M288.04 62.43L237.72 115.13L308.13 80.75L288.04 62.43ZM224.69 127.52C223.78 127.52 222.95 127.14 222.42 126.38C221.58 125.24 221.73 123.72 222.64 122.73L285.92 56.5C286.98 55.36 288.73 55.36 289.86 56.34L315.02 79.39C315.7 79.99 316.08 80.98 315.93 81.9C315.78 82.81 315.17 83.64 314.34 84.02L225.98 127.22C225.6 127.45 225.07 127.52 224.69 127.52Z" fill="#FFFFFF" fill-opacity="1.000000" fill-rule="nonzero"/>
	<path id="path" d="M279.25 68.97C278.65 68.97 278.12 68.82 277.59 68.44L259.09 55.05L240.6 68.44C239.32 69.35 237.57 69.04 236.66 67.83C235.75 66.53 236.06 64.79 237.27 63.87L257.35 49.27C258.34 48.59 259.7 48.59 260.69 49.27L280.77 63.87C282.06 64.79 282.28 66.53 281.38 67.83C280.84 68.59 280.09 68.97 279.25 68.97Z" fill="#FFFFFF" fill-opacity="1.000000" fill-rule="nonzero"/>
	<path id="path" d="M284.41 174.75C283.27 174.75 282.21 174.06 281.75 172.92L256.44 108.74C255.84 107.29 256.59 105.62 258.03 105.01C259.47 104.41 261.14 105.17 261.67 106.61L283.42 161.74L290.7 124.1C291 122.58 292.51 121.52 294.03 121.82C295.55 122.12 296.61 123.64 296.3 125.17L287.13 172.39C286.91 173.61 285.62 174.67 284.41 174.75Z" fill="#FFFFFF" fill-opacity="1.000000" fill-rule="nonzero"/>
	<path id="path" d="M233.86 174.75C232.57 174.59 231.36 173.68 231.13 172.47L221.96 125.24C221.66 123.72 222.64 122.2 224.24 121.9C225.75 121.59 227.27 122.58 227.57 124.18L234.84 161.82L256.59 106.69C257.2 105.24 258.79 104.48 260.23 105.09C261.67 105.7 262.43 107.29 261.82 108.82L236.51 173C236.06 174.06 235 174.75 233.86 174.75Z" fill="#FFFFFF" fill-opacity="1.000000" fill-rule="nonzero"/>
	<path id="path" d="M293.58 127.52C293.2 127.52 292.82 127.45 292.44 127.29C291 126.61 290.39 124.94 291 123.57L310.48 80.37C311.16 78.93 312.82 78.32 314.19 78.93C315.55 79.54 316.23 81.29 315.63 82.66L296.15 125.85C295.7 126.91 294.64 127.52 293.58 127.52Z" fill="#FFFFFF" fill-opacity="1.000000" fill-rule="nonzero"/>
	<path id="path" d="M224.69 127.52C223.63 127.52 222.57 126.91 222.11 125.85L202.64 82.66C201.96 81.21 202.64 79.54 204.08 78.93C205.52 78.25 207.18 78.93 207.79 80.37L227.27 123.57C227.95 125.01 227.27 126.69 225.83 127.29C225.45 127.45 225.07 127.52 224.69 127.52Z" fill="#FFFFFF" fill-opacity="1.000000" fill-rule="nonzero"/>
</svg>
