<svg width="395" height="157" viewBox="0 0 395 157" fill="none" xmlns="http://www.w3.org/2000/svg">
<rect width="394.544" height="156.006" transform="translate(0 0.810547)" fill="black"/>
<path d="M52 24H68.7773V118.035C59.536 118.035 52 110.527 52 101.258V24ZM119.082 133.685V118.008H68.7773V133.685H119.082ZM135.831 24H119.054V118.035H119.219C128.46 118.035 135.831 110.527 135.831 101.258V24Z" fill="white"/>
<path d="M154.645 24H171.422V71.004C162.181 71.004 154.645 63.4954 154.645 54.2267V24ZM171.422 71.004H221.726V86.5161C230.967 86.5161 238.504 94.0246 238.504 103.293V133.685H221.726V86.6811H171.422V133.685H154.645V103.293C154.645 94.0521 162.153 86.5161 171.422 86.5161V71.004ZM238.476 54.2267C238.476 63.4679 230.967 71.004 221.699 71.004V24H238.476V54.2267Z" fill="white"/>
<path d="M257.289 24H274.066V118.035C264.825 118.035 257.289 110.527 257.289 101.258V24ZM324.343 133.685V118.008H274.039V133.685H324.343ZM341.121 24H324.343V118.035H324.508C333.75 118.035 341.121 110.527 341.121 101.258V24Z" fill="white"/>
</svg>
