<svg width="510.000000" height="247.000015" viewBox="0 0 510 247" fill="none" xmlns="http://www.w3.org/2000/svg" xmlns:xlink="http://www.w3.org/1999/xlink">
	<desc>
			Created with Pixso.
	</desc>
	<defs/>
	<path id="path" d="M301.6 7.62e-6L214.38 7.62e-6C206.05 7.62e-6 199.32 6.71 199.32 15.01L199.32 50.75C199.32 59.05 206.05 65.76 214.38 65.76L240.91 65.76L256.19 80.25C257.3 81.31 259 81.31 260.12 80.25L275.08 66.08L301.6 65.76C309.93 65.76 316.67 59.05 316.67 50.75L316.67 15.01C316.67 6.71 309.93 7.62e-6 301.6 7.62e-6ZM279.59 23.89C279.8 32.19 273.59 36.74 273.59 36.74L260.27 49.32C259.64 49.9 258.84 50.17 258.05 50.06C257.25 50.11 256.45 49.9 255.82 49.32L242.5 36.74C242.5 36.74 236.29 32.19 236.51 23.89C236.51 23.42 236.56 22.57 236.61 22.09C237.57 16.81 242.24 12.47 247.81 12.47C252.26 12.47 256.08 15.01 257.99 18.71C259.9 15.01 263.72 12.47 268.18 12.47C273.8 12.47 278.42 16.49 279.37 21.83C279.43 22.25 279.59 23.42 279.59 23.89Z" fill="#FFFFFF" fill-opacity="1.000000" fill-rule="nonzero"/>
	<path id="path" d="M0 185.4L0 98.75L42.38 98.75L42.38 185.4L36.6 185.4L36.6 103.25L5.78 103.25L5.78 185.4L0 185.4ZM71.35 185.4L100.96 111.6L100.96 185.4L106.21 185.4L106.21 98.75L101.38 98.75L71.67 172.56L71.67 98.75L66.42 98.75L66.42 185.4L71.35 185.4ZM179 199.73L179 180.91L173 180.91L173 98.75L167.11 98.75L167.11 180.91L136.18 180.91L136.18 98.75L130.29 98.75L130.29 185.4L173.64 185.4L174.28 199.73L179 199.73ZM246.64 199.73L246.64 180.91L240.64 180.91L240.64 98.75L234.76 98.75L234.76 180.91L203.83 180.91L203.83 98.75L197.94 98.75L197.94 185.4L241.28 185.4L241.92 199.73L246.64 199.73ZM318.53 185.62C321.97 185.56 324.79 185.14 327.01 184.45C329.24 183.77 330.99 182.39 332.32 180.33C333.65 178.32 334.71 175.31 335.56 171.29C336.35 167.32 337.1 162.04 337.73 155.53C338.37 149.03 339.11 140.89 339.85 131.11L341.98 103.3L361.71 103.3L361.71 185.46L367.6 185.46L367.6 98.81L336.46 98.81L334.07 131.11C333.28 140.89 332.59 148.87 332 155.06C331.42 161.24 330.78 166.11 330.15 169.6C329.51 173.09 328.71 175.62 327.76 177.21C326.8 178.8 325.64 179.8 324.1 180.22C322.61 180.65 320.7 180.96 318.42 181.07L318.53 185.62ZM427.76 186.62C433.33 186.62 437.68 185.51 440.76 183.24C443.84 181.02 445.96 177.95 447.18 174.09C448.4 170.23 448.98 165.84 448.98 160.93L448.98 123.18C448.98 118.26 448.35 113.87 447.07 110.07C445.8 106.26 443.63 103.25 440.55 101.08C437.47 98.91 433.23 97.8 427.76 97.8C422.3 97.8 418.05 98.86 414.92 101.03C411.79 103.14 409.62 106.1 408.35 109.91C407.07 113.72 406.44 118.05 406.44 123.07L406.44 139.36L397.2 139.36L397.2 98.81L391.63 98.81L391.63 185.46L397.2 185.46L397.2 144.17L406.44 144.17L406.44 160.77C406.44 165.68 407.07 170.13 408.29 174.04C409.57 177.95 411.69 181.07 414.77 183.29C417.84 185.51 422.19 186.62 427.76 186.62ZM427.87 181.86C423.62 181.86 420.39 181.07 418.05 179.38C415.72 177.74 414.13 175.41 413.23 172.5C412.32 169.54 411.9 166.11 411.9 162.2L411.9 122.17C411.9 118.26 412.38 114.83 413.28 111.92C414.18 109.01 415.83 106.74 418.11 105.15C420.39 103.56 423.62 102.72 427.76 102.72C431.9 102.72 435.14 103.51 437.37 105.15C439.59 106.74 441.19 109.01 442.14 111.92C443.1 114.83 443.52 118.26 443.52 122.17L443.52 162.2C443.52 166.11 443.1 169.54 442.19 172.5C441.29 175.47 439.7 177.74 437.47 179.38C435.24 181.02 432.01 181.86 427.87 181.86ZM486.92 185.51C491.16 185.51 494.72 184.93 497.63 183.71C500.55 182.5 502.94 180.8 504.8 178.64C506.6 176.47 507.93 173.88 508.78 170.87C509.57 167.85 510 164.57 510 161.03C510 155.32 509.15 150.56 507.5 146.81C505.86 143.06 503.31 140.2 499.86 138.3C496.41 136.39 492.01 135.44 486.65 135.44L477.1 135.44L477.1 103.35L504.69 103.35L504.69 98.86L471.21 98.86L471.21 185.51L486.92 185.51ZM477.16 140.15L487.02 140.15C493.39 140.15 497.79 142 500.29 145.65C502.78 149.3 504 154.42 504 160.87C504 165.16 503.47 168.75 502.41 171.71C501.35 174.67 499.54 176.89 497.1 178.43C494.61 179.96 491.27 180.7 487.08 180.7L477.21 180.7L477.16 140.15ZM266.69 185.51L271.31 161.56L293.86 161.56L298.37 185.51L304.26 185.51L285.9 98.86L279.16 98.86L260.91 185.51L266.69 185.51ZM282.56 105.94L293.06 157.28L272.16 157.28L282.56 105.94Z" fill="#FFFFFF" fill-opacity="1.000000" fill-rule="nonzero"/>
	<path id="path" d="M136.61 246.63L135.6 246.63L135.6 231.51L136.61 231.51L136.61 246.63ZM136.24 238.22L141.86 238.22L141.86 239.22L136.24 239.22L136.24 238.22ZM142.13 234.99C142.81 233.83 143.72 232.88 144.94 232.19C146.1 231.51 147.43 231.19 148.86 231.19C150.3 231.19 151.62 231.51 152.79 232.19C153.96 232.88 154.86 233.78 155.6 234.99C156.29 236.16 156.66 237.53 156.66 239.07C156.66 240.6 156.29 241.92 155.6 243.14C154.91 244.35 153.96 245.25 152.79 245.94C151.62 246.63 150.3 246.94 148.86 246.94C147.43 246.94 146.1 246.63 144.94 245.94C143.77 245.25 142.81 244.3 142.13 243.14C141.44 241.92 141.12 240.6 141.12 239.07C141.12 237.53 141.44 236.16 142.13 234.99ZM143.03 242.61C143.61 243.66 144.41 244.46 145.41 245.09C146.42 245.67 147.54 245.99 148.81 245.99C150.08 245.99 151.14 245.67 152.21 245.09C153.21 244.51 154.06 243.66 154.64 242.61C155.23 241.55 155.55 240.39 155.55 239.07C155.55 237.74 155.23 236.53 154.64 235.52C154.06 234.47 153.27 233.67 152.21 233.09C151.2 232.51 150.03 232.19 148.81 232.19C147.59 232.19 146.42 232.51 145.41 233.09C144.41 233.67 143.61 234.52 143.03 235.52C142.44 236.58 141.86 237.9 141.86 239.22C141.86 240.55 142.44 241.55 143.03 242.61ZM196.98 246.63L195.97 246.63L195.97 231.51L196.98 231.51L196.98 246.63ZM196.61 238.22L202.23 238.22L202.23 239.22L196.61 239.22L196.61 238.22ZM202.5 234.99C203.19 233.83 204.09 232.88 205.31 232.19C206.48 231.51 207.8 231.19 209.24 231.19C210.67 231.19 212 231.51 213.16 232.19C214.33 232.88 215.23 233.78 215.97 234.99C216.66 236.16 217.04 237.53 217.04 239.07C217.04 240.6 216.66 241.92 215.97 243.14C215.29 244.35 214.33 245.25 213.16 245.94C212 246.63 210.67 246.94 209.24 246.94C207.8 246.94 206.48 246.63 205.31 245.94C204.14 245.25 203.19 244.3 202.5 243.14C201.81 241.92 201.49 240.6 201.49 239.07C201.49 237.53 201.81 236.16 202.5 234.99ZM203.4 242.61C203.99 243.66 204.78 244.46 205.79 245.09C206.8 245.67 207.91 245.99 209.18 245.99C210.46 245.99 211.52 245.67 212.58 245.09C213.59 244.51 214.44 243.66 215.02 242.61C215.6 241.55 215.92 240.39 215.92 239.07C215.92 237.74 215.6 236.53 215.02 235.52C214.44 234.47 213.64 233.67 212.58 233.09C211.57 232.51 210.4 232.19 209.18 232.19C207.96 232.19 206.8 232.51 205.79 233.09C204.78 233.67 203.99 234.52 203.4 235.52C202.82 236.58 202.23 237.9 202.23 239.22C202.23 240.55 202.82 241.55 203.4 242.61ZM301.97 234.99C302.66 233.83 303.57 232.88 304.79 232.19C305.95 231.51 307.28 231.19 308.71 231.19C310.14 231.19 311.47 231.51 312.64 232.19C313.81 232.88 314.71 233.78 315.45 234.99C316.14 236.16 316.51 237.53 316.51 239.07C316.51 240.6 316.14 241.92 315.45 243.14C314.76 244.35 313.81 245.25 312.64 245.94C311.47 246.63 310.14 246.94 308.71 246.94C307.28 246.94 305.95 246.63 304.79 245.94C303.62 245.25 302.66 244.3 301.97 243.14C301.28 241.92 300.97 240.6 300.97 239.07C300.97 237.53 301.28 236.16 301.97 234.99ZM302.93 242.66C303.51 243.72 304.36 244.51 305.32 245.09C306.32 245.67 307.44 245.99 308.66 245.99C309.88 245.99 311.05 245.67 312.05 245.09C313.06 244.51 313.91 243.66 314.49 242.61C315.08 241.55 315.4 240.39 315.4 239.07C315.4 237.74 315.08 236.53 314.49 235.52C313.91 234.47 313.12 233.67 312.05 233.09C311.05 232.51 309.88 232.19 308.66 232.19C307.44 232.19 306.32 232.51 305.32 233.09C304.31 233.67 303.51 234.52 302.93 235.52C302.35 236.58 302.03 237.74 302.03 239.07C302.03 240.39 302.35 241.66 302.93 242.66ZM243.56 234.94C244.25 233.78 245.15 232.83 246.37 232.14C247.54 231.45 248.87 231.14 250.3 231.14C251.73 231.14 253.06 231.45 254.23 232.14C255.39 232.83 256.29 233.73 257.04 234.94C257.73 236.1 258.1 237.48 258.1 239.01C258.1 240.55 257.73 241.87 257.04 243.08C256.35 244.3 255.39 245.2 254.23 245.89C253.06 246.57 251.73 246.89 250.3 246.89C248.87 246.89 247.54 246.57 246.37 245.89C245.21 245.2 244.25 244.25 243.56 243.08C242.87 241.87 242.55 240.55 242.55 239.01C242.55 237.48 242.87 236.1 243.56 234.94ZM244.52 242.61C245.1 243.66 245.95 244.46 246.9 245.04C247.91 245.62 249.03 245.94 250.25 245.94C251.47 245.94 252.63 245.62 253.64 245.04C254.65 244.46 255.5 243.61 256.08 242.55C256.67 241.5 256.99 240.33 256.99 239.01C256.99 237.69 256.67 236.47 256.08 235.47C255.5 234.41 254.7 233.62 253.64 233.04C252.63 232.46 251.47 232.14 250.25 232.14C249.03 232.14 247.91 232.46 246.9 233.04C245.9 233.62 245.1 234.47 244.52 235.47C243.93 236.53 243.62 237.69 243.62 239.01C243.62 240.33 243.93 241.6 244.52 242.61ZM296.14 231.77L294.81 231.77L288.92 238.85L288.92 231.77L287.91 231.77L287.91 246.89L288.92 246.89L288.92 240.55L294.71 246.89L296.03 246.89L289.51 239.75L296.14 231.77ZM394.39 245.62C394.39 245.62 394.13 245.99 394.13 246.2C394.13 246.41 394.23 246.63 394.39 246.78C394.6 246.78 395.35 246.94 395.51 246.78C395.67 246.63 395.77 246.41 395.77 246.2C395.77 245.99 395.67 245.78 395.51 245.62C395.35 245.46 394.6 245.62 394.39 245.62ZM355.72 241.71C355.61 242.03 355.45 242.4 355.24 242.66C354.66 243.72 353.81 244.51 352.8 245.09C351.79 245.67 350.62 245.94 349.35 245.94C348.13 245.94 347.02 245.62 346.01 244.99C345 244.4 344.2 243.56 343.62 242.5C343.04 241.5 342.77 240.28 342.77 239.01L357.2 239.01C357.2 237.53 356.88 236.16 356.19 234.99C355.5 233.78 354.6 232.88 353.44 232.19C352.27 231.51 351 231.13 349.51 231.13C348.08 231.13 346.75 231.45 345.53 232.09C344.36 232.77 343.41 233.67 342.72 234.84C342.03 236 341.66 237.37 341.66 238.91C341.66 240.44 341.98 241.76 342.61 242.98C343.3 244.19 344.2 245.15 345.37 245.83C346.54 246.52 347.87 246.89 349.3 246.89C350.73 246.89 352.06 246.57 353.22 245.94C354.39 245.25 355.35 244.35 356.04 243.14C356.25 242.77 356.41 242.4 356.57 241.97L355.72 241.71ZM343.73 235.42C344.36 234.36 345.16 233.57 346.17 232.99C347.18 232.4 348.29 232.14 349.51 232.14C350.78 232.14 351.9 232.46 352.91 233.09C353.91 233.67 354.71 234.52 355.29 235.58C355.72 236.32 355.98 237.16 356.09 238.06L342.83 238.06C342.93 237.11 343.25 236.21 343.73 235.42ZM331.68 231.82L331.68 232.83L333.81 232.83L333.81 246.94L334.87 246.94L334.87 232.83L336.99 232.83L336.99 231.82L331.68 231.82ZM231.36 231.82L231.36 232.83L233.48 232.83L233.48 246.94L234.54 246.94L234.54 232.83L236.67 232.83L236.67 231.82L231.36 231.82ZM124.83 231.82L123.82 231.82L123.82 241.71C123.82 243.14 123.61 244.19 123.13 244.88C122.65 245.62 122.07 245.94 121.43 245.94L121.43 246.94C122.12 246.94 122.71 246.73 123.24 246.36C123.77 245.99 124.14 245.41 124.46 244.62C124.72 243.82 124.88 242.87 124.88 241.66L124.88 232.77L131.51 232.77L131.51 246.89L132.52 246.89L132.52 231.77L124.83 231.82ZM184.78 231.82L183.77 231.82L183.77 241.71C183.77 243.14 183.56 244.19 183.08 244.88C182.6 245.62 182.02 245.94 181.38 245.94L181.38 246.94C182.07 246.94 182.66 246.73 183.19 246.36C183.72 245.99 184.09 245.41 184.41 244.62C184.67 243.82 184.83 242.87 184.83 241.66L184.83 232.77L191.46 232.77L191.46 246.89L192.47 246.89L192.47 231.77L184.78 231.82ZM264.41 231.82L263.4 231.82L263.4 241.71C263.4 243.14 263.19 244.19 262.71 244.88C262.24 245.62 261.65 245.94 261.02 245.94L261.02 246.94C261.71 246.94 262.29 246.73 262.82 246.36C263.35 245.99 263.72 245.41 264.04 244.62C264.31 243.82 264.47 242.87 264.47 241.66L264.47 232.77L271.1 232.77L271.1 246.89L272.1 246.89L272.1 231.77L264.41 231.82ZM284.1 239.54C283.62 238.85 282.93 238.33 282.13 238.01C281.34 237.69 280.33 237.53 279.32 237.53L277.36 237.53L277.36 231.82L276.35 231.82L276.35 246.94L279.32 246.94C280.38 246.94 281.34 246.78 282.13 246.47C282.93 246.15 283.62 245.62 284.1 244.93C284.57 244.25 284.84 243.35 284.84 242.29C284.84 241.23 284.57 240.23 284.1 239.54ZM283.25 244.4C282.87 244.99 282.34 245.36 281.65 245.62C280.96 245.89 280.17 245.99 279.32 245.99L277.36 245.99L277.36 238.43L279.32 238.43C280.22 238.43 280.96 238.59 281.65 238.85C282.34 239.12 282.87 239.54 283.25 240.12C283.62 240.7 283.83 241.39 283.83 242.24C283.83 243.08 283.62 243.82 283.25 244.4ZM394.45 222.41L394.45 243.51L395.51 243.51L395.51 222.41L394.45 222.41ZM390.47 231.82L388.19 231.82C387.12 231.82 386.22 231.98 385.37 232.3C384.52 232.62 383.84 233.09 383.36 233.73C382.88 234.36 382.61 235.26 382.61 236.37C382.61 237.48 382.88 238.33 383.36 238.96C383.84 239.65 384.52 240.12 385.37 240.44C386.12 240.7 386.97 240.86 387.92 240.86L383.46 246.94L384.63 246.94L389.14 240.92L390.52 240.92L390.52 246.94L391.53 246.94L391.53 231.82L390.47 231.82ZM390.47 239.96L388.19 239.96C387.34 239.96 386.54 239.86 385.9 239.59C385.21 239.33 384.68 238.96 384.31 238.43C383.89 237.9 383.68 237.21 383.68 236.37C383.68 235.47 383.89 234.78 384.31 234.25C384.74 233.73 385.27 233.36 385.9 233.09C386.59 232.83 387.34 232.72 388.19 232.72L390.47 232.72L390.47 239.96ZM175.87 234.94C175.18 233.78 174.22 232.83 173.05 232.14C171.89 231.45 170.56 231.14 169.02 231.14C168.12 231.14 167.22 231.29 166.37 231.66C165.52 232.03 164.73 232.56 164.09 233.25C163.45 233.88 162.92 234.68 162.55 235.58C162.39 235.89 162.28 236.37 162.18 236.69C162.18 236.32 162.55 235.95 162.55 235.58C162.55 234.62 162.34 233.73 162.5 232.88C162.71 231.88 162.97 231.03 163.35 230.18C164.19 228.6 166.64 228.49 169.29 228.44C169.98 228.44 170.72 228.44 171.41 228.44C175.44 228.23 175.39 224.9 175.39 224.9L174.54 224.9C174.54 224.9 174.54 227.43 171.41 227.59C170.72 227.59 170.03 227.59 169.34 227.59C167.75 227.59 166.16 227.59 164.83 228.02C163.88 228.28 163.08 228.81 162.6 229.6C162.28 230.39 161.75 231.82 161.6 232.77C161.44 233.62 161.33 234.57 161.33 235.52C161.33 236 161.33 236.47 161.33 237C161.33 238.22 161.44 239.33 161.65 240.28C161.81 241.07 162.07 241.81 162.34 242.45C163.03 243.93 163.98 245.04 165.15 245.73C166.32 246.47 167.64 246.84 169.13 246.84C170.61 246.84 171.94 246.52 173.16 245.83C174.33 245.15 175.28 244.19 175.97 243.03C176.66 241.81 177.03 240.49 177.03 238.96C177.03 237.43 176.56 236.1 175.87 234.94ZM175.07 242.55C174.43 243.61 173.64 244.4 172.58 244.99C171.52 245.57 170.4 245.83 169.18 245.83C167.96 245.83 166.85 245.57 165.89 244.99C164.88 244.4 164.09 243.61 163.5 242.55C163.08 241.87 162.87 241.13 162.71 240.28C162.66 239.86 162.6 239.44 162.6 238.96C162.6 238.17 162.71 237.43 162.92 236.74C162.97 236.47 163.08 236.26 163.19 236.05C163.61 235.21 164.14 234.47 164.78 233.88C165.42 233.3 166.16 232.83 166.95 232.51C167.75 232.19 168.49 232.03 169.24 232.03C170.51 232.03 171.68 232.3 172.68 232.88C173.69 233.46 174.54 234.25 175.12 235.31C175.71 236.37 176.03 237.53 176.03 238.91C176.03 240.28 175.71 241.5 175.07 242.55ZM376.2 234.84C375.51 233.67 374.55 232.72 373.38 232.03C372.22 231.35 370.89 231.03 369.35 231.03C368.45 231.03 367.55 231.19 366.7 231.56C365.85 231.93 365.05 232.46 364.42 233.14C363.78 233.78 363.25 234.57 362.88 235.47C362.72 235.79 362.61 236.26 362.51 236.58C362.51 236.21 362.88 235.84 362.88 235.47C362.88 234.52 362.67 233.62 362.83 232.77C363.04 231.77 363.3 230.92 363.67 230.08C364.52 228.49 366.96 228.39 369.62 228.33C370.31 228.33 371.05 228.33 371.74 228.33C375.77 228.12 375.72 224.79 375.72 224.79L374.87 224.79C374.87 224.79 374.87 227.33 371.74 227.49C371.05 227.49 370.36 227.49 369.67 227.49C368.08 227.49 366.49 227.49 365.16 227.91C364.21 228.17 363.41 228.7 362.93 229.5C362.61 230.29 362.08 231.72 361.92 232.67C361.77 233.51 361.66 234.47 361.66 235.42C361.66 235.89 361.66 236.37 361.66 236.9C361.66 238.11 361.77 239.22 361.98 240.18C362.14 240.97 362.4 241.71 362.67 242.34C363.36 243.82 364.31 244.93 365.48 245.62C366.65 246.36 367.97 246.73 369.46 246.73C370.94 246.73 372.27 246.41 373.49 245.73C374.66 245.04 375.61 244.09 376.3 242.92C376.99 241.71 377.36 240.39 377.36 238.85C377.36 237.32 376.89 236 376.2 234.84ZM375.4 242.45C374.76 243.51 373.97 244.3 372.91 244.88C371.85 245.46 370.73 245.73 369.51 245.73C368.29 245.73 367.18 245.46 366.22 244.88C365.21 244.3 364.42 243.51 363.83 242.45C363.41 241.76 363.2 241.02 363.04 240.18C362.99 239.75 362.93 239.33 362.93 238.85C362.93 238.06 363.04 237.32 363.25 236.63C363.3 236.37 363.41 236.16 363.52 235.95C363.94 235.1 364.47 234.36 365.11 233.78C365.74 233.2 366.49 232.72 367.28 232.4C368.08 232.09 368.82 231.93 369.56 231.93C370.84 231.93 372 232.19 373.01 232.77C374.02 233.36 374.87 234.15 375.45 235.21C376.04 236.26 376.35 237.43 376.35 238.8C376.35 240.18 376.04 241.39 375.4 242.45Z" fill="#FFFFFF" fill-opacity="1.000000" fill-rule="nonzero"/>
</svg>
