<svg width="204" height="42" viewBox="0 0 204 42" fill="none" xmlns="http://www.w3.org/2000/svg">
<path d="M24.5369 7.82328L12.7611 15.5557L24.5369 23.2882L12.7611 31.0206L0.985352 23.2882L12.7611 15.5557L0.985352 7.82328L12.7611 0.0908203L24.5369 7.82328ZM12.5854 33.3584L24.3611 25.6259L36.1369 33.3584L24.3611 41.0908L12.5854 33.3584ZM24.5369 23.1084L36.3126 15.3759L24.5369 7.82328L36.3126 0.0908203L48.0884 7.82328L36.3126 15.5557L48.0884 23.2882L36.3126 31.0206L24.5369 23.1084ZM57.2278 7.82328H66.7187C72.8702 7.82328 77.7914 11.4198 77.7914 19.6917V21.4899C77.7914 29.7619 73.046 33.5382 66.8944 33.5382H57.2278V7.82328ZM62.5005 12.4987V28.6829H66.5429C70.0581 28.6829 72.3429 26.3452 72.3429 21.3101V20.0513C72.3429 15.0163 69.8823 12.6785 66.3672 12.6785H62.5005V12.4987ZM80.6035 12.6785H84.8217L85.5247 17.5338C86.4035 14.297 88.3369 12.4987 92.2035 12.4987H93.6096V18.0733H91.5005C87.1066 18.0733 86.052 19.6917 86.052 24.0075V33.5382H80.7793L80.6035 12.6785ZM94.4884 23.468V22.9285C94.4884 16.0952 98.8823 12.3189 104.682 12.3189C110.658 12.3189 114.876 16.0952 114.876 22.9285V23.468C114.876 30.3013 110.834 33.8978 104.682 33.8978C98.1793 33.8978 94.4884 30.3013 94.4884 23.468ZM109.604 23.468V22.9285C109.604 19.1522 107.67 16.8145 104.682 16.8145C101.694 16.8145 99.7611 18.9724 99.7611 22.9285V23.468C99.7611 27.2443 101.694 29.2224 104.682 29.2224C107.67 29.2224 109.604 27.0645 109.604 23.468ZM117.688 12.6785H122.082L122.61 16.6347C123.664 13.9373 125.949 12.1391 129.288 12.1391C134.385 12.1391 137.725 15.9154 137.725 22.9285V23.468C137.725 30.3013 134.034 33.8978 129.288 33.8978C126.125 33.8978 123.84 32.4592 122.785 30.1215V40.5513H117.688V12.6785ZM132.452 23.468V22.9285C132.452 18.7926 130.343 16.8145 127.707 16.8145C124.719 16.8145 122.785 19.1522 122.785 22.9285V23.2882C122.785 26.8847 124.719 29.2224 127.531 29.2224C130.519 29.2224 132.452 27.2443 132.452 23.468ZM145.634 29.582L145.107 33.3584H140.537V5.84521H145.634V16.4549C146.688 13.7575 148.973 12.3189 152.137 12.3189C156.882 12.3189 160.573 15.7356 160.573 22.5689V23.2882C160.573 30.1215 157.234 34.0777 152.137 34.0777C148.797 33.8978 146.688 32.2794 145.634 29.582ZM155.301 23.1084V22.5689C155.301 18.7926 153.367 16.6347 150.555 16.6347C147.743 16.6347 145.634 18.9724 145.634 22.5689V23.1084C145.634 26.8847 147.567 29.2224 150.379 29.2224C153.543 29.2224 155.301 27.2443 155.301 23.1084ZM163.034 23.468V22.9285C163.034 16.0952 167.428 12.3189 173.228 12.3189C179.204 12.3189 183.422 16.0952 183.422 22.9285V23.468C183.422 30.3013 179.204 33.8978 173.228 33.8978C166.725 33.8978 163.034 30.3013 163.034 23.468ZM177.973 23.468V22.9285C177.973 19.1522 176.04 16.8145 173.052 16.8145C170.064 16.8145 168.131 18.9724 168.131 22.9285V23.468C168.131 27.2443 170.064 29.2224 173.052 29.2224C176.216 29.2224 177.973 27.0645 177.973 23.468ZM190.276 22.5689L183.246 12.6785H189.397L193.44 18.7926L197.658 12.6785H203.634L196.428 22.5689L203.985 33.3584H198.01L193.44 26.525L188.87 33.3584H182.719L190.276 22.5689Z" fill="white"/>
</svg>
