<svg width="396" height="157" viewBox="0 0 396 157" fill="none" xmlns="http://www.w3.org/2000/svg">
<g clip-path="url(#clip0_840_271)">
<rect width="395.551" height="156.006" transform="translate(0.214844 0.719727)" fill="black"/>
<path d="M284.033 61.62C284.165 61.829 284.108 62.057 284.108 62.285C284.108 64.983 284.108 67.681 284.108 70.379C284.108 71.69 284.108 73.001 284.108 74.312C284.108 74.521 284.108 74.711 284.108 74.901C284.335 75.053 284.543 74.996 284.751 74.996C286.301 74.996 287.85 74.996 289.381 74.996C289.589 74.996 289.778 74.996 290.005 75.015C290.081 75.376 290.043 75.699 290.005 76.06C289.325 76.136 288.682 76.079 288.021 76.098C287.378 76.098 286.754 76.098 286.112 76.098H284.203C284.014 76.25 284.07 76.402 284.07 76.554C284.07 77.371 284.07 78.207 284.07 79.024C284.07 80.525 284.07 82.026 284.07 83.527C284.07 84.458 284.259 85.351 284.637 86.187C284.921 86.795 285.28 87.327 285.79 87.764C286.433 88.334 287.17 88.638 288.021 88.638C290.1 88.638 292.084 88.22 294.031 87.555C295.694 86.985 297.282 86.244 298.831 85.427C300.646 84.458 302.422 83.451 304.237 82.482C305.805 81.627 307.412 80.81 309.056 80.126C310.89 79.366 312.761 78.758 314.726 78.435C315.709 78.283 316.692 78.188 317.675 78.169C317.788 78.169 317.901 78.169 318.034 78.188C318.128 78.53 318.09 78.853 318.053 79.214C317.958 79.233 317.864 79.271 317.788 79.271C314.594 79.309 311.627 80.183 308.735 81.475C306.939 82.273 305.238 83.204 303.519 84.154C301.836 85.066 300.154 85.997 298.453 86.871C296.771 87.726 295.032 88.448 293.218 88.98C291.007 89.626 288.758 89.873 286.471 89.702C284.089 89.512 281.821 88.904 279.723 87.688C278.589 87.023 277.569 86.225 276.737 85.18C275.962 84.211 275.414 83.147 275.225 81.912C275.169 81.551 275.15 81.171 275.15 80.791C275.15 78.511 275.15 76.212 275.15 73.932C275.15 73.723 275.187 73.514 275.074 73.286C274.923 73.267 274.734 73.229 274.545 73.21C271.842 73.115 269.234 73.571 266.796 74.768C266.021 75.148 265.303 75.623 264.641 76.155C264.396 76.345 264.301 76.554 264.301 76.877C264.301 78.321 264.301 79.765 264.301 81.209C264.301 82.976 264.301 84.724 264.301 86.491C264.301 86.624 264.301 86.757 264.301 86.89C264.32 87.84 264.944 88.505 265.87 88.619C266.002 88.619 266.115 88.638 266.229 88.657C266.323 89.132 266.323 89.208 266.229 89.702C266.134 89.702 266.021 89.74 265.926 89.74C263.375 89.74 260.823 89.74 258.272 89.74C257.894 89.74 257.535 89.683 257.176 89.55C256.306 89.246 255.739 88.619 255.494 87.726C255.418 87.422 255.361 87.099 255.361 86.776C255.361 84.553 255.361 82.311 255.361 80.088C255.361 79.423 255.494 78.758 255.569 78.074C255.588 77.884 255.664 77.732 255.853 77.618C256.552 77.219 256.93 76.611 257.043 75.813C257.043 75.775 257.081 75.756 257.1 75.68C257.516 75.604 257.951 75.528 258.385 75.433C259.406 75.205 260.389 74.863 261.296 74.312C262.165 73.799 262.884 73.134 263.375 72.241C263.394 72.184 263.432 72.146 263.488 72.089H264.225C264.225 72.222 264.282 72.336 264.282 72.469C264.282 73.077 264.282 73.666 264.282 74.274C264.282 74.464 264.282 74.635 264.282 74.806C264.49 74.92 264.585 74.768 264.698 74.692C266.078 73.742 267.609 73.096 269.215 72.659C270.878 72.222 272.579 72.032 274.299 72.07C274.545 72.07 274.772 72.127 275.036 72.032C275.036 71.956 275.093 71.861 275.093 71.766C275.15 70.721 275.093 66.123 275.036 65.667C274.431 65.553 273.789 65.724 273.184 65.61C273.052 65.211 273.052 65.021 273.184 64.546C273.316 64.546 273.468 64.527 273.619 64.527C274.564 64.527 275.528 64.527 276.473 64.394C278.363 64.166 280.177 63.729 281.821 62.741C282.369 62.418 282.899 62.076 283.296 61.582H283.957L284.033 61.62ZM196.337 72.887C194.806 73.989 193.105 74.635 191.271 75.015C190.119 75.262 188.947 75.376 187.775 75.357C187.586 75.357 187.378 75.319 187.189 75.395C187.095 75.908 187.095 76.022 187.208 76.44C187.832 76.497 188.455 76.44 189.06 76.44C189.192 76.687 189.155 76.915 189.155 77.143C189.155 80.734 189.155 84.344 189.155 87.935C189.155 88.049 189.155 88.163 189.155 88.277C189.155 88.391 189.117 88.486 189.079 88.619C188.739 88.619 188.436 88.619 188.115 88.619C187.813 88.619 187.491 88.581 187.132 88.657C187.132 88.999 187.057 89.341 187.17 89.664C187.397 89.74 187.624 89.721 187.851 89.721C191.687 89.721 195.524 89.721 199.361 89.721C199.493 89.721 199.625 89.721 199.758 89.721C199.871 89.721 199.965 89.683 200.098 89.664C200.117 89.303 200.173 88.98 200.06 88.638C199.455 88.638 198.907 88.486 198.491 88.011C198.057 87.517 198.038 86.947 198.151 86.32C198.718 86.244 199.247 86.32 199.776 86.453C201.137 86.814 202.196 87.574 202.782 88.904C203.519 90.576 203.254 92.742 201.874 94.186C201.364 94.718 200.778 95.136 200.117 95.459C199.096 95.953 198.019 96.219 196.904 96.352C195.108 96.561 193.332 96.39 191.574 95.972C189.93 95.573 188.38 94.965 186.868 94.224C183.9 92.799 181.16 90.994 178.344 89.303C178.287 89.265 178.268 89.208 178.212 89.113C178.344 89.075 178.438 89.037 178.514 89.018C179.081 88.828 179.648 88.676 180.215 88.467C181.67 87.935 183.031 87.213 184.241 86.206C185.167 85.446 185.942 84.572 186.471 83.508C187.246 81.931 187.302 80.297 186.622 78.663C186.32 77.922 185.885 77.276 185.356 76.687C184.43 75.661 183.333 74.863 182.124 74.217C181.954 74.122 181.765 74.027 181.576 73.913C181.519 73.609 181.481 73.305 181.406 73.02C181.33 72.716 181.406 72.374 181.217 72.07C181.009 72.07 180.782 72.07 180.555 72.07C178.212 72.07 175.868 72.07 173.505 72.07C172.655 72.07 171.786 72.07 170.935 72.146C169.423 72.26 167.949 72.526 166.494 72.982C164.774 73.514 163.148 74.255 161.712 75.357C160.748 76.098 159.916 76.934 159.33 77.998C158.593 79.309 158.367 80.696 158.688 82.178C158.877 83.052 159.274 83.831 159.803 84.553C160.427 85.389 161.183 86.073 162.014 86.681C162.165 86.795 162.354 86.852 162.411 87.08C162.279 87.194 162.147 87.327 161.995 87.441C159.822 89.436 159.463 92.59 161.145 94.984C161.958 96.143 163.054 96.903 164.396 97.34C166.172 97.91 167.949 98.48 169.725 99.031C173.619 100.266 177.493 101.501 181.368 102.755C181.803 102.888 182.256 103.078 182.653 103.287C184.997 104.56 186.225 107.334 185.129 110.07C184.241 112.35 182.823 114.212 180.839 115.637C177.739 117.86 174.28 118.677 170.519 118.05C167.59 117.575 165.095 116.264 163.035 114.117C161.901 112.939 161.05 111.59 160.464 110.07C160.408 109.937 160.389 109.804 160.351 109.652C160.408 109.652 160.427 109.652 160.446 109.652C160.597 109.747 160.729 109.823 160.88 109.918C162.903 111.077 164.906 111.077 166.834 109.785C169.442 108.018 169.782 104.427 167.457 102.204C165.624 100.437 162.732 100.228 160.653 101.71C159.255 102.717 158.518 104.066 158.518 105.814C158.518 106.745 158.612 107.638 158.82 108.55C159.69 112.255 161.769 115.105 164.944 117.119C167.968 119.038 171.313 119.703 174.847 119.228C177.569 118.867 180.026 117.822 182.124 116.036C185.242 113.395 186.962 110.051 187.038 105.928C187.095 103.287 186.376 100.855 184.959 98.632C183.163 95.839 180.65 93.939 177.531 92.875C174.545 91.868 171.559 90.899 168.554 89.93C167.495 89.588 166.418 89.246 165.36 88.904C165.076 88.809 164.811 88.676 164.547 88.524C164.377 88.429 164.282 88.277 164.263 88.068C164.226 87.631 164.528 87.099 164.944 86.947C165.511 86.738 166.078 86.605 166.683 86.529C167.968 86.358 169.215 86.529 170.444 86.833C171.899 87.213 173.26 87.802 174.583 88.486C176.17 89.303 177.701 90.234 179.232 91.165C180.763 92.096 182.294 93.027 183.844 93.92C185.412 94.813 187.038 95.611 188.739 96.257C190.213 96.808 191.725 97.207 193.275 97.416C194.825 97.625 196.356 97.587 197.886 97.302C198.964 97.112 200.022 96.77 200.986 96.219C201.799 95.744 202.536 95.174 203.084 94.395C203.897 93.293 204.237 92.039 204.218 90.652C204.161 88.163 202.649 86.149 200.287 85.446C199.72 85.275 199.115 85.199 198.529 85.161C198.378 85.161 198.189 85.199 198.038 85.028C198.038 84.914 198.019 84.781 198.019 84.667C198.019 81.399 198.019 78.15 198.019 74.882C198.019 74.73 198.038 74.597 198.057 74.445C198.246 74.369 198.416 74.274 198.586 74.217C200.419 73.533 202.328 73.21 204.275 73.191C205.257 73.191 206.089 73.571 206.769 74.274C207.771 75.319 208.244 76.611 208.263 78.055C208.3 81 208.263 83.945 208.263 86.871C208.263 87.061 208.263 87.251 208.187 87.422C207.96 88.106 207.45 88.486 206.751 88.6C206.599 88.619 206.41 88.562 206.24 88.733C206.278 89.037 206.165 89.36 206.335 89.721C206.562 89.721 206.788 89.721 206.996 89.721C210.814 89.721 214.632 89.721 218.45 89.721C218.582 89.721 218.714 89.721 218.847 89.721C218.96 89.721 219.054 89.683 219.168 89.664C219.206 89.303 219.243 88.98 219.149 88.638C218.487 88.562 217.864 88.676 217.202 88.562C217.202 88.334 217.183 88.125 217.183 87.916C217.183 85.655 217.183 83.375 217.183 81.114C217.183 80.715 217.183 80.335 217.108 79.936C216.938 78.815 216.484 77.827 215.823 76.915C214.859 75.604 213.611 74.654 212.194 73.894C210.02 72.735 207.658 72.203 205.22 72.07C202.933 71.956 200.684 72.279 198.51 73.039C198.378 73.096 198.227 73.115 198.075 73.153C197.905 72.792 198.075 72.412 197.924 72.07H197.244C196.904 72.336 196.582 72.602 196.242 72.849L196.337 72.887ZM171.993 86.149C170.803 85.731 169.593 85.484 168.327 85.389C168.232 85.199 168.138 85.028 168.081 84.857C167.722 83.926 167.514 82.957 167.495 81.95C167.495 81.228 167.476 80.487 167.495 79.765C167.552 78.397 167.911 77.105 168.61 75.927C169.007 75.262 169.499 74.673 170.103 74.198C171.993 72.735 174.261 72.963 175.906 74.521C176.926 75.49 177.55 76.687 177.89 78.036C178.06 78.72 178.155 79.423 178.155 80.145C178.155 80.772 178.155 81.38 178.155 82.007C178.098 83.641 177.645 85.142 176.7 86.472C176.378 86.928 176 87.346 175.49 87.707C174.337 87.137 173.184 86.586 171.993 86.168V86.149ZM129.903 85.921C131.151 87.023 132.568 87.821 134.118 88.429C136.216 89.246 138.408 89.664 140.657 89.74C143.076 89.835 145.458 89.607 147.783 88.942C149.559 88.429 151.241 87.669 152.734 86.548C153.66 85.845 154.492 85.028 155.078 84.021C156.25 82.007 156.269 79.974 155.116 77.941C154.7 77.219 154.171 76.592 153.547 76.041C152.583 75.148 151.468 74.464 150.277 73.894C147.82 72.754 145.231 72.241 142.547 72.127C141.64 72.089 140.733 72.127 139.807 72.203C138.049 72.336 136.348 72.678 134.685 73.248C133.211 73.761 131.831 74.445 130.584 75.395C129.62 76.136 128.788 76.972 128.202 78.036C127.427 79.423 127.182 80.886 127.616 82.425C127.805 83.128 128.127 83.793 128.542 84.401C128.637 84.553 128.788 84.667 128.807 84.895C128.694 84.952 128.58 85.009 128.448 85.066C127.9 85.313 127.352 85.56 126.804 85.788C124.951 86.586 123.08 87.327 121.152 87.897C119.092 88.505 116.994 88.904 114.84 88.98C114.216 88.999 113.611 88.885 113.044 88.638C112.647 88.448 112.232 88.258 111.854 88.011C110.644 87.213 109.756 86.111 109.056 84.857C108.074 83.071 107.582 81.133 107.507 79.1C107.469 77.998 107.488 76.896 107.488 75.794C107.488 74.73 107.62 73.666 107.866 72.621C108.282 70.93 108.962 69.353 110.115 68.042C111.117 66.883 112.345 66.066 113.857 65.743C114.764 65.553 115.671 65.553 116.579 65.61C117.675 65.686 118.771 65.819 119.848 66.028C122.343 66.503 124.687 67.358 126.841 68.707C126.974 68.783 127.087 68.878 127.219 68.973C127.219 69.163 127.219 69.353 127.219 69.543C127.219 70.246 127.219 70.968 127.219 71.671C127.219 71.804 127.257 71.918 127.276 72.051C127.635 72.089 127.956 72.089 128.334 72.051C128.334 71.861 128.372 71.69 128.372 71.538C128.372 71.006 128.372 70.493 128.372 69.961C128.372 68.555 128.372 67.149 128.372 65.743C128.372 65.534 128.41 65.325 128.278 65.135C127.938 65.078 127.597 65.04 127.238 65.192C127.238 66.028 127.03 66.712 126.199 67.035C126.066 66.978 125.934 66.921 125.821 66.864C123.08 65.496 120.17 64.736 117.146 64.508C115.199 64.356 113.233 64.413 111.287 64.679C109.245 64.964 107.28 65.496 105.371 66.275C102.99 67.282 100.854 68.669 99.115 70.588C98.0755 71.728 97.2439 73.02 96.7714 74.502C96.3556 75.813 96.2422 77.143 96.4501 78.492C96.6769 79.993 97.2817 81.323 98.1511 82.539C98.6614 83.261 99.2473 83.907 99.8899 84.515C99.9844 84.61 100.117 84.686 100.136 84.895C99.8899 84.8 99.682 84.705 99.4741 84.629C97.6975 83.831 95.9209 83.071 94.1254 82.387C90.6478 81.076 87.0946 80.202 83.3713 80.031C81.7081 79.955 80.0638 80.05 78.4006 80.202C78.2116 80.202 78.0226 80.221 77.8525 80.373C77.9281 80.677 77.8903 81 78.0604 81.304C78.2872 81.304 78.514 81.285 78.7219 81.266C79.3645 81.209 80.026 81.133 80.6686 81.095C82.672 81 84.6565 81.114 86.6221 81.437C88.8334 81.798 90.988 82.387 93.0859 83.147C95.2594 83.945 97.3762 84.876 99.4741 85.807C101.194 86.567 102.914 87.346 104.672 87.992C106.996 88.866 109.378 89.531 111.835 89.854C113.725 90.101 115.596 90.063 117.467 89.778C119.357 89.493 121.19 89.018 122.986 88.391C124.932 87.707 126.841 86.89 128.731 86.054C128.996 85.94 129.279 85.826 129.582 85.693C129.695 85.788 129.771 85.845 129.846 85.902L129.903 85.921ZM143.417 80.221C142.207 80.335 141.016 80.544 139.845 80.848C138.654 81.152 137.482 81.475 136.272 81.817C136.254 81.722 136.216 81.646 136.216 81.551C136.216 80.715 136.178 79.86 136.291 79.024C136.499 77.599 136.991 76.307 137.879 75.186C138.522 74.388 139.315 73.761 140.298 73.438C141.716 72.963 143.058 73.21 144.286 74.046C145.023 74.54 145.59 75.205 146.044 75.965C146.705 77.067 147.045 78.283 147.159 79.575C147.159 79.651 147.159 79.727 147.159 79.803C147.159 79.841 147.14 79.879 147.102 79.936C145.855 80.012 144.626 80.069 143.417 80.202V80.221ZM140.525 81.76C142.887 81.247 145.968 80.981 147.083 81.114C147.102 81.171 147.159 81.228 147.159 81.304C147.216 83.261 146.743 85.047 145.552 86.624C145.08 87.232 144.513 87.745 143.814 88.106C142.396 88.847 140.997 88.847 139.58 88.106C138.937 87.783 138.408 87.308 137.955 86.757C137.066 85.674 136.556 84.439 136.329 83.033C136.896 82.71 138.994 82.083 140.525 81.76ZM242.623 74.654C242.283 74.445 241.961 74.236 241.621 74.046C239.372 72.811 236.934 72.26 234.401 72.127C232.795 72.051 231.207 72.203 229.638 72.564C227.748 73.001 225.972 73.704 224.403 74.844C223.288 75.642 222.324 76.611 221.663 77.827C220.869 79.271 220.642 80.791 221.02 82.387C221.247 83.394 221.719 84.287 222.343 85.085C223.156 86.111 224.139 86.928 225.254 87.593C227.427 88.885 229.809 89.531 232.303 89.721C233.778 89.816 235.233 89.778 236.707 89.531C238.824 89.17 240.808 88.486 242.623 87.289C242.736 87.213 242.85 87.175 242.982 87.099C242.982 87.194 243.02 87.251 243.02 87.289C242.868 88.011 242.301 88.543 241.564 88.638C241.413 88.657 241.243 88.676 241.073 88.695C241.035 89.056 240.997 89.379 241.092 89.74C241.281 89.74 241.451 89.759 241.621 89.759C244.04 89.759 246.459 89.759 248.879 89.759C249.068 89.759 249.257 89.759 249.446 89.74C250.844 89.588 251.714 88.714 251.903 87.517C251.94 87.232 251.978 86.966 251.978 86.681C251.978 84.705 251.978 82.71 251.978 80.734C251.978 79.917 251.903 79.081 251.77 78.283C251.733 77.979 251.638 77.77 251.355 77.618C250.769 77.276 250.447 76.744 250.315 76.079C250.296 75.965 250.277 75.87 250.239 75.737C249.975 75.699 249.748 75.661 249.502 75.604C248.293 75.395 247.159 75.034 246.1 74.407C245.193 73.875 244.437 73.191 243.946 72.26C243.927 72.222 243.87 72.184 243.832 72.127C243.587 72.127 243.322 72.07 243.076 72.184C243.001 73.058 243.095 73.913 243.02 74.825C242.868 74.749 242.774 74.711 242.679 74.673L242.623 74.654ZM242.528 85.94C241.243 86.928 239.788 87.593 238.238 88.049C236.802 88.467 235.327 88.657 233.834 88.676C233.078 88.676 232.455 88.41 231.925 87.897C231.377 87.384 230.999 86.776 230.678 86.111C230.168 85.009 229.865 83.85 229.809 82.653C229.752 81.532 229.752 80.411 229.809 79.29C229.865 78.074 230.168 76.896 230.697 75.775C230.961 75.186 231.302 74.654 231.755 74.198C232.36 73.552 233.078 73.21 233.985 73.248C236.329 73.343 238.559 73.78 240.676 74.825C241.413 75.186 242.112 75.623 242.755 76.155C242.944 76.307 243.02 76.497 243.02 76.725C243.02 79.594 243.02 82.463 243.02 85.332C243.02 85.408 243.02 85.484 243.001 85.598C242.868 85.712 242.717 85.845 242.547 85.978L242.528 85.94Z" fill="white"/>
</g>
<defs>
<clipPath id="clip0_840_271">
<rect width="395.551" height="156.006" fill="white" transform="translate(0.214844 0.719727)"/>
</clipPath>
</defs>
</svg>
