<svg width="396" height="156" viewBox="0 0 396 156" fill="none" xmlns="http://www.w3.org/2000/svg">
<rect width="395.551" height="155" transform="translate(0 0.810547)" fill="black"/>
<path d="M129.904 86.5407C128.749 84.3147 127.852 81.4376 126.986 78.6513C126.18 76.0467 125.344 73.3513 124.356 71.4736C123.915 70.6407 123.079 69.2324 122.258 69.2324C121.438 69.2324 120.586 70.6407 120.161 71.4736C119.188 73.3513 118.352 76.0467 117.531 78.6513C116.665 81.4376 115.768 84.3147 114.613 86.5407C114.02 87.6764 112.226 91.1441 108.609 91.1441C104.991 91.1441 103.198 87.6764 102.605 86.5407C101.45 84.3147 100.553 81.4376 99.6864 78.6513C98.8808 76.0467 98.0448 73.3513 97.0568 71.4736C96.616 70.6407 95.78 69.2324 94.9592 69.2324C94.1384 69.2324 93.2872 70.6407 92.8616 71.4736C91.8888 73.3513 91.0528 76.0467 90.232 78.6513C89.3656 81.4376 88.4688 84.3147 87.3136 86.5407C86.7208 87.6764 84.9272 91.1441 81.3096 91.1441V93.2793C81.3096 99.8664 86.66 105.197 93.272 105.197H123.961C130.573 105.197 135.923 99.8664 135.923 93.2793V91.1441C132.306 91.1441 130.512 87.6764 129.919 86.5407H129.904Z" fill="white"/>
<path d="M123.961 50.8035H93.272C86.66 50.8035 81.3096 56.1338 81.3096 62.7209V86.7678C82.1304 86.7678 82.9816 85.3595 83.4072 84.5266C84.38 82.6489 85.216 79.9535 86.0368 77.3489C86.9032 74.5626 87.8 71.6855 88.9552 69.4595C89.548 68.3238 91.3416 64.856 94.9592 64.856C98.5768 64.856 100.37 68.3238 100.963 69.4595C102.118 71.6855 103.015 74.5626 103.882 77.3489C104.687 79.9535 105.523 82.6489 106.511 84.5266C106.952 85.3595 107.788 86.7678 108.609 86.7678C109.43 86.7678 110.281 85.3595 110.706 84.5266C111.679 82.6489 112.515 79.9535 113.336 77.3489C114.202 74.5626 115.099 71.6855 116.254 69.4595C116.847 68.3238 118.641 64.856 122.258 64.856C125.876 64.856 127.67 68.3238 128.262 69.4595C129.418 71.6855 130.314 74.5626 131.181 77.3489C131.986 79.9535 132.822 82.6489 133.81 84.5266C134.251 85.3595 135.087 86.7678 135.908 86.7678V62.7209C135.908 56.1338 130.558 50.8035 123.946 50.8035H123.961Z" fill="white"/>
<path d="M167.965 90.0084H165.624V86.2378H152.872V90.0084H150.516V83.8906H163.116V69.9592H162.052C160.912 69.9592 160.016 70.0501 159.362 70.2166C157.371 70.7315 156.124 72.0944 155.608 74.2749C155.456 74.9109 155.38 75.6681 155.38 76.5464V82.9215H152.872V76.5464C152.872 75.2592 152.948 74.2598 153.1 73.5329C153.373 72.3064 153.905 71.2312 154.696 70.2924C155.623 69.1869 156.869 68.4298 158.435 68.0058C159.423 67.7332 160.776 67.5969 162.493 67.5969H165.624V83.8755H167.965V89.9932V90.0084Z" fill="white"/>
<path d="M182.253 79.8474C182.253 81.71 181.614 83.2848 180.322 84.572C179.03 85.8591 177.45 86.4951 175.58 86.4951C173.71 86.4951 172.145 85.844 170.853 84.5569C169.561 83.2697 168.907 81.6949 168.907 79.8474C168.907 78 169.561 76.4403 170.853 75.138C172.145 73.8357 173.726 73.1997 175.58 73.1997C177.434 73.1997 179.015 73.8509 180.307 75.138C181.599 76.4251 182.253 78 182.253 79.8474ZM179.851 79.8474C179.851 78.5754 179.456 77.5306 178.681 76.6977C177.906 75.8648 176.872 75.456 175.58 75.456C174.288 75.456 173.27 75.8648 172.494 76.6977C171.719 77.5306 171.324 78.5754 171.324 79.8626C171.324 81.1497 171.704 82.2248 172.464 83.0274C173.239 83.8603 174.273 84.2691 175.58 84.2691C176.887 84.2691 177.921 83.8603 178.711 83.0274C179.471 82.2248 179.851 81.1648 179.851 79.8626V79.8474Z" fill="white"/>
<path d="M194.778 86.2227H192.437V80.3927H186.357V86.2227H184.017V73.4724H186.357V78.1667H192.437V73.4724H194.778V86.2227Z" fill="white"/>
<path d="M212.881 86.2226H210.373L208.716 76.2889L208.564 76.7734L208.458 77.1974L206.163 84.2843C205.935 85.0111 205.752 85.4806 205.615 85.7077C205.311 86.2226 204.916 86.48 204.415 86.48C204.019 86.48 203.7 86.3286 203.457 86.0409C203.153 85.6623 202.879 85.0717 202.621 84.2691L200.25 76.6977C200.219 76.5917 200.174 76.4403 200.113 76.2737L200.083 76.198L200.037 76.41L198.456 86.2226H195.948L198.091 75.138C198.35 73.8357 198.927 73.1846 199.855 73.1846C200.417 73.1846 200.843 73.3663 201.147 73.7146C201.359 73.9569 201.542 74.3506 201.709 74.8957L204.415 83.7391L204.536 83.4666L205.129 81.2103L207.151 74.8957C207.348 74.3051 207.546 73.8963 207.759 73.654C208.047 73.336 208.458 73.1846 208.99 73.1846C209.522 73.1846 209.947 73.4117 210.297 73.8811C210.495 74.1537 210.647 74.5626 210.753 75.1229L212.896 86.2074L212.881 86.2226Z" fill="white"/>
<path d="M227.017 79.8474C227.017 81.71 226.379 83.2848 225.087 84.572C223.795 85.8591 222.214 86.4951 220.345 86.4951C218.475 86.4951 216.909 85.844 215.617 84.5569C214.325 83.2697 213.672 81.6949 213.672 79.8474C213.672 78 214.325 76.4403 215.617 75.138C216.909 73.8509 218.49 73.1997 220.345 73.1997C222.199 73.1997 223.78 73.8509 225.072 75.138C226.364 76.4251 227.017 78 227.017 79.8474ZM224.616 79.8474C224.616 78.5754 224.221 77.5306 223.445 76.6977C222.67 75.8648 221.637 75.456 220.345 75.456C219.053 75.456 218.034 75.8648 217.259 76.6977C216.484 77.5306 216.089 78.5754 216.089 79.8626C216.089 81.1497 216.469 82.2248 217.229 83.0274C218.004 83.8603 219.037 84.2691 220.345 84.2691C221.652 84.2691 222.685 83.8603 223.476 83.0274C224.236 82.2248 224.616 81.1648 224.616 79.8626V79.8474Z" fill="white"/>
<path d="M239.101 86.2227H236.76V75.6984H236.396C235.59 75.6984 235.043 75.7287 234.708 75.8044C233.036 76.1678 231.988 77.1673 231.562 78.7876C231.425 79.3176 231.349 80.0747 231.349 81.0438V86.2227H227.458V83.9967H229.1V81.0438C229.1 79.7416 229.221 78.6967 229.449 77.9093C229.844 76.607 230.604 75.5621 231.744 74.7898C232.717 74.1387 234.1 73.7147 235.909 73.5481C236.456 73.5027 237.019 73.4724 237.612 73.4724H239.101V86.2227Z" fill="white"/>
<path d="M254.18 79.8474C254.18 81.71 253.541 83.2848 252.249 84.572C250.957 85.8591 249.376 86.4951 247.507 86.4951C245.637 86.4951 244.072 85.844 242.78 84.5569C241.488 83.2697 240.834 81.6949 240.834 79.8474C240.834 78 241.488 76.4403 242.78 75.138C244.072 73.8509 245.652 73.1997 247.507 73.1997C249.361 73.1997 250.942 73.8509 252.234 75.138C253.526 76.4251 254.18 78 254.18 79.8474ZM251.778 79.8474C251.778 78.5754 251.383 77.5306 250.608 76.6977C249.832 75.8648 248.799 75.456 247.507 75.456C246.215 75.456 245.196 75.8648 244.421 76.6977C243.646 77.5306 243.251 78.5754 243.251 79.8626C243.251 81.1497 243.631 82.2248 244.391 83.0274C245.166 83.8603 246.2 84.2691 247.507 84.2691C248.814 84.2691 249.848 83.8603 250.638 83.0274C251.398 82.2248 251.778 81.1648 251.778 79.8626V79.8474Z" fill="white"/>
<path d="M269.091 84.9809C269.091 86.1772 268.985 87.1614 268.772 87.9489C268.498 88.9332 267.981 89.8114 267.191 90.5534C266.72 91.0229 266.127 91.4166 265.428 91.7194C264.607 92.098 263.604 92.2797 262.418 92.2797C261.157 92.2797 259.743 92.0374 258.177 91.5377L258.74 89.4026L260.685 89.8569C260.761 89.872 261.05 89.9174 261.552 89.9932C261.81 90.0234 262.053 90.0386 262.297 90.0386C265.261 90.0386 266.75 88.5394 266.75 85.526V81.1346C266.75 79.908 266.659 78.9994 266.461 78.3937C266.081 77.1823 265.352 76.3192 264.303 75.8043C263.771 75.5469 263.148 75.4106 262.464 75.4106C261.157 75.4106 260.077 75.8346 259.257 76.6826C258.421 77.5306 258.01 78.6057 258.01 79.9232C258.01 81.1649 258.375 82.1946 259.105 82.982C259.865 83.7997 260.853 84.2086 262.084 84.2086C263.513 84.2086 264.744 83.7392 265.793 82.7852V85.2232C264.713 86.0409 263.543 86.4497 262.281 86.4497C260.564 86.4497 259.074 85.95 257.797 84.9506C256.323 83.7846 255.578 82.1037 255.578 79.9232C255.578 78 256.232 76.3797 257.554 75.0926C258.877 73.8054 260.503 73.1543 262.449 73.1543C264.82 73.1543 266.583 74.0174 267.753 75.7589C268.65 77.1066 269.091 78.8783 269.091 81.1043V84.9354V84.9809Z" fill="white"/>
<path d="M284.139 80.5744C284.139 81.7556 283.698 82.9216 282.816 84.0573C282.3 84.7084 281.676 85.2536 280.916 85.6473C280.4 85.935 279.852 86.147 279.29 86.2833C278.728 86.4196 278.12 86.4953 277.466 86.4953C276.432 86.4953 275.444 86.2681 274.487 85.8139C273.332 85.2536 272.435 84.451 271.796 83.391C271.158 82.331 270.839 81.1499 270.839 79.8627C270.839 77.9699 271.477 76.395 272.739 75.123C274 73.851 275.581 73.215 277.481 73.215C278.849 73.215 280.05 73.5482 281.114 74.1993C282.178 74.8504 283.029 75.8801 283.668 77.2581L275.034 82.0281L274.076 80.1656L280.4 76.6524C279.959 76.183 279.503 75.865 278.986 75.6984C278.454 75.5319 277.937 75.441 277.436 75.441C276.174 75.441 275.156 75.8499 274.396 76.6827C273.636 77.5156 273.256 78.5604 273.256 79.8324C273.256 81.5587 273.894 82.8156 275.171 83.6333C275.809 84.0422 276.569 84.239 277.436 84.239C278.135 84.239 278.697 84.1633 279.123 84.027C279.32 83.9664 279.564 83.8453 279.868 83.6787C281.16 82.967 281.798 81.8162 281.798 80.2564L284.169 80.5593L284.139 80.5744ZM276.265 70.0047C276.265 70.5044 276.052 70.8981 275.612 71.1859C275.399 71.3373 275.14 71.413 274.836 71.413C274.441 71.413 274.107 71.2767 273.833 71.0041C273.56 70.7316 273.423 70.3984 273.423 70.0047C273.423 69.611 273.56 69.2779 273.833 69.0053C274.107 68.7327 274.441 68.5964 274.836 68.5964C275.232 68.5964 275.566 68.7327 275.84 69.0053C276.113 69.2779 276.25 69.611 276.25 70.0047H276.265ZM281.585 70.0047C281.585 70.3984 281.448 70.7316 281.175 71.0041C280.901 71.2767 280.567 71.413 280.172 71.413C279.776 71.413 279.442 71.2767 279.168 71.0041C278.895 70.7316 278.758 70.3984 278.758 70.0047C278.758 69.611 278.895 69.2779 279.168 69.0053C279.442 68.7327 279.776 68.5964 280.172 68.5964C280.567 68.5964 280.901 68.7327 281.175 69.0053C281.448 69.2779 281.585 69.611 281.585 70.0047Z" fill="white"/>
<path d="M302.059 73.4724L299.445 78.2576C299.171 78.6059 298.791 78.9693 298.32 79.3176C299.445 79.4236 300.326 79.8779 300.965 80.6956C301.466 81.3164 301.71 82.3613 301.71 83.8301V86.2227H299.369V84.2693C299.369 83.0881 299.262 82.2856 299.034 81.8767C298.624 81.1347 297.727 80.7561 296.359 80.7561H295.022V86.2076H292.681V80.7561H291.358C289.99 80.7561 289.094 81.1196 288.683 81.8464C288.455 82.2704 288.334 83.073 288.334 84.2541V86.2076H285.993V83.7696C285.993 82.9973 286.038 82.3613 286.145 81.8464C286.312 81.0136 286.89 80.317 287.847 79.7719C288.303 79.5144 288.805 79.363 289.367 79.3024C288.972 79.0299 288.607 78.6816 288.273 78.2576L287.224 76.4101L285.628 73.4421H288.136L289.413 75.9104C290.325 77.6519 291.222 78.515 292.134 78.515H292.666V73.4421H295.006V78.515H295.538C295.949 78.515 296.374 78.3333 296.8 77.9547C297.286 77.5307 297.773 76.8493 298.259 75.9104L299.536 73.4421H302.044L302.059 73.4724Z" fill="white"/>
<path d="M314.691 81.4073C314.691 82.331 314.463 83.1941 313.992 83.9967C313.521 84.7993 312.897 85.4201 312.077 85.8744C311.332 86.2833 310.389 86.4801 309.204 86.4801C308.413 86.4801 307.699 86.3741 307.076 86.147C305.723 85.6624 304.796 84.7538 304.294 83.4061C304.021 82.6793 303.884 81.695 303.884 80.4533V73.4573H306.225V80.9227C306.225 81.6647 306.285 82.1947 306.407 82.5127C306.62 83.0578 307.015 83.497 307.593 83.815C308.094 84.1027 308.687 84.2238 309.356 84.2087H310.101C310.8 84.1027 311.362 83.7847 311.788 83.285C312.137 82.861 312.32 82.3613 312.32 81.7707C312.32 81.1801 312.213 80.741 312.001 80.3624C311.788 79.9838 311.453 79.6658 310.982 79.4084C310.526 79.1813 310.04 79.0601 309.508 79.0601C309.189 79.0601 308.961 79.0601 308.824 79.0904C308.201 79.1661 307.653 79.469 307.197 79.9687V77.5156C307.957 77.0613 308.809 76.8341 309.751 76.8341C310.405 76.8341 311.058 76.9553 311.727 77.2127C312.396 77.4701 312.897 77.7578 313.262 78.1061C313.657 78.4998 313.992 78.9996 314.265 79.6053C314.539 80.2261 314.676 80.8167 314.676 81.3921L314.691 81.4073Z" fill="white"/>
</svg>
