<svg width="397" height="157" viewBox="0 0 397 157" fill="none" xmlns="http://www.w3.org/2000/svg">
<rect width="396.557" height="156.006" transform="translate(0.417969 0.719727)" fill="black"/>
<path d="M55 59.7061C60.0913 59.024 65.1827 58.3419 70.3715 57.6355C70.4202 58.0739 70.4689 58.4637 70.4689 58.8778C70.4689 65.4308 70.4933 71.9838 70.4445 78.5368C70.3958 83.2627 69.4945 87.7207 66.2789 91.4965C67.1802 92.3248 68.0085 93.1287 68.8611 93.9082C77.3873 86.6244 86.0353 85.3821 93.4652 90.4003C94.3178 89.4259 95.1704 88.4271 96.1205 87.3065C92.369 83.7499 91.9305 79.1458 91.9305 74.3955C91.9305 67.8425 91.9305 61.2895 91.9305 54.566C96.9488 53.8596 101.918 53.1531 107.131 52.3979C107.131 53.0313 107.131 53.5916 107.131 54.1519C107.156 79.3163 107.156 104.505 107.205 129.669C107.205 131.131 106.839 131.667 105.329 131.837C100.92 132.349 96.5346 133.056 91.9305 133.713C91.9305 131.74 91.9305 129.937 91.9305 128.135C91.9305 122.751 91.9549 117.367 91.9549 111.984C91.9549 107.039 92.71 102.313 96.1449 98.1957C95.2679 97.3674 94.4153 96.5879 93.4652 95.7109C90.3958 99.4868 86.3763 101.265 81.7478 101.898C77.2411 102.507 72.8319 102.727 69.0804 99.1945C68.1547 100.266 67.302 101.289 66.3276 102.41C70.2497 106.162 70.5176 111.058 70.542 116.028C70.5664 122.41 70.542 128.792 70.6151 135.175C70.6394 136.442 70.274 136.88 68.9829 137.026C64.525 137.562 60.067 138.269 55.2923 138.951C55.2923 138.098 55.2923 137.416 55.2923 136.758C55.2923 127.282 55.2923 117.781 55.2923 108.305C55.2923 107.696 55.1462 107.063 55.0487 106.454C55 90.8632 55 75.2968 55 59.7061Z" fill="white"/>
<path d="M171.495 122.361C165.965 123.141 160.655 123.896 155.174 124.7C154.029 118.244 150.984 111.935 155.539 105.577C155.052 105.163 154.613 104.797 154.175 104.481C153.712 104.14 153.225 103.847 152.738 103.531C146.428 110.668 138.95 111.764 132.665 106.454C131.739 107.38 130.813 108.305 129.79 109.328C132.835 112.934 132.348 117.148 131.495 121.411C131.105 123.36 130.789 125.309 130.326 127.258C130.228 127.696 129.693 128.281 129.303 128.33C124.236 129.109 119.144 129.84 113.785 130.595C114.54 127.136 115.247 123.92 115.953 120.705C119.924 102.873 123.919 85.041 127.914 67.2091C129.205 61.46 130.496 55.7109 131.788 49.9619C131.982 49.0605 132.348 48.5977 133.371 48.4759C139.875 47.6233 146.355 46.6732 153.127 45.7231C159.217 71.1555 165.332 96.6365 171.495 122.361ZM152.932 94.9313C150.107 92.9094 147.963 90.5221 147.305 87.3308C146.282 82.4831 145.381 77.611 144.772 72.6902C144.333 69.0605 144.455 65.382 144.309 61.6305C143.066 61.8011 141.995 61.9472 140.46 62.1665C140.46 65.8449 140.777 69.499 140.387 73.08C139.778 78.4636 138.828 83.8229 137.732 89.1335C137.025 92.6414 134.76 95.3942 132.275 97.9033C132.738 98.4879 133.079 98.9508 133.444 99.4136C133.809 99.8521 134.175 100.242 134.565 100.68C141.093 94.2736 144.504 94.2005 150.594 98.4392C151.349 97.2943 152.08 96.1737 152.932 94.9313Z" fill="white"/>
<path d="M249.007 78.464C248.032 79.6089 247.204 80.5833 246.278 81.7039C250.517 85.6503 250.42 90.8635 250.468 96.0279C250.517 100.535 250.517 105.041 250.444 109.548C250.444 110.133 249.908 111.131 249.494 111.18C244.939 111.911 240.334 112.496 235.755 113.129C235.657 113.153 235.535 113.056 235.219 112.934C235.219 112.276 235.219 111.521 235.219 110.79C235.219 86.2106 235.219 61.6065 235.219 37.0268C235.219 34.3715 235.219 34.2984 237.777 33.9574C246.595 32.7637 255.389 31.4239 264.256 30.5469C267.326 30.2546 270.615 30.7174 273.587 31.5457C278.946 33.0073 282.137 36.9781 283.526 42.2156C285.353 49.0609 285.304 56.028 283.647 62.8976C281.138 73.2265 273.976 78.6101 263.964 80.7782C262.356 81.1193 260.724 81.3385 259.116 81.4847C255.389 81.8257 251.93 81.3142 249.007 78.464ZM248.982 73.3239C252.149 69.2557 256.412 67.721 261.211 66.9415C265.523 66.2594 268.227 63.4823 268.885 59.1461C269.275 56.6857 269.348 54.1279 269.129 51.6431C268.666 46.6492 266.01 44.5298 260.992 44.8952C257.679 45.1388 254.561 44.5298 251.711 42.922C249.445 41.6309 247.277 40.1693 244.987 38.732C244.256 39.5847 243.428 40.5834 242.551 41.6553C246.644 45.4068 249.762 49.6699 250.274 55.3702C250.761 60.9488 250.225 66.235 246.327 70.7661C247.18 71.643 248.032 72.4469 248.982 73.3239Z" fill="white"/>
<path d="M191.809 86.6006C190.883 87.6968 190.055 88.6712 189.129 89.7918C193.489 94.1523 193.27 99.7065 193.27 105.212C193.27 109.84 193.27 114.445 193.27 119.244C188.228 119.974 183.258 120.681 178.069 121.412C178.069 120.657 178.069 120.023 178.069 119.39C178.069 94.3959 178.094 69.4021 178.045 44.3839C178.045 42.7761 178.435 42.2401 180.116 42.0209C187.838 41.0465 195.511 39.731 203.258 38.854C206.668 38.4643 210.176 38.4399 213.563 38.9028C220.335 39.8041 224.768 43.8479 226.425 50.4496C228.471 58.6835 228.422 66.966 225.207 74.9319C221.943 83.0439 215.243 86.9903 207.034 88.8174C205.67 89.1341 204.281 89.3533 202.868 89.4995C198.824 89.9867 194.975 89.7187 191.809 86.6006ZM187.594 46.9904C186.961 47.77 186.181 48.7444 185.304 49.8162C189.543 53.6165 192.539 57.9526 193.051 63.6774C193.563 69.2072 192.88 74.4203 189.08 78.9514C189.957 79.7796 190.81 80.5835 191.784 81.5092C194.975 77.2461 199.482 75.7845 204.427 74.9806C207.935 74.4203 210.323 72.1548 211.37 68.7443C212.442 65.3339 212.466 61.826 211.687 58.3424C211.151 55.9307 209.933 53.9332 207.326 53.3485C205.986 53.0562 204.549 53.2023 203.161 53.0318C200.919 52.7395 198.532 52.7395 196.486 51.8869C193.489 50.6201 190.712 48.7444 187.594 46.9904Z" fill="white"/>
<path d="M322.406 100.851C317.266 101.582 312.345 102.289 307.229 103.019C307.229 102.264 307.229 101.631 307.229 100.997C307.229 94.7855 307.181 88.5979 307.278 82.386C307.327 79.9256 306.84 77.7088 305.914 75.4433C299.385 59.4384 292.93 43.4092 286.328 27.0877C291.907 26.2838 297.363 25.5286 302.942 24.7247C307.741 38.7807 314.854 52.1059 312.711 67.8671C314.318 67.6723 315.439 67.5504 316.754 67.3799C316.754 66.1132 316.779 64.8952 316.754 63.6771C316.633 55.6625 317.778 47.8672 320.53 40.2667C322.65 34.4446 324.428 28.5006 326.425 22.6541C326.62 22.0694 327.278 21.2899 327.814 21.2168C332.905 20.4129 337.997 19.7552 343.38 19C342.552 21.363 341.797 23.5798 340.993 25.7722C335.049 42.1181 329.081 58.464 323.161 74.8099C322.723 76.0523 322.479 77.4164 322.479 78.7319C322.406 85.4067 322.455 92.0815 322.455 98.7562C322.406 99.3896 322.406 100.023 322.406 100.851Z" fill="white"/>
</svg>
