<svg width="396" height="156" viewBox="0 0 396 156" fill="none" xmlns="http://www.w3.org/2000/svg">
<rect width="394.544" height="155" transform="translate(0.509766 0.438477)" fill="black"/>
<path d="M166.756 82.7638C166.756 84.6618 167.12 86.4818 167.848 88.1978C168.576 89.9398 169.616 91.4738 170.968 92.8258C172.32 94.1778 173.854 95.2178 175.596 95.9458C177.338 96.6738 179.132 97.0378 181.03 97.0378V106.606C176.714 106.606 172.71 105.54 169.07 103.408C165.43 101.276 162.544 98.3638 160.438 94.6978C158.28 91.0838 157.188 87.1058 157.188 82.7638V35.5996H166.756V58.8177H181.03V68.4637H166.756V82.7638Z" fill="white"/>
<path d="M222.317 68.3072H210.227C206.431 68.3072 203.051 69.7112 200.087 72.5192C198.735 73.8712 197.695 75.4312 196.993 77.1732C196.291 78.9412 195.927 80.7612 195.927 82.6592V106.605H186.281V82.0872C186.385 77.8752 187.529 73.9492 189.687 70.3612C191.845 66.7732 194.757 63.9131 198.371 61.8071C202.037 59.7531 205.989 58.7131 210.227 58.7131H222.317V68.3072Z" fill="white"/>
<path d="M271.095 58.7391V106.605H246.681C242.469 106.501 238.543 105.357 234.955 103.199C231.367 101.041 228.507 98.1293 226.401 94.5152C224.295 90.8492 223.229 86.8972 223.229 82.6592C223.229 78.3432 224.295 74.3392 226.427 70.6472C228.559 66.9812 231.471 64.0432 235.163 61.8851C238.829 59.7791 242.833 58.7131 247.175 58.7131C249.827 58.7131 252.375 59.1291 254.845 59.9351C257.315 60.7411 259.525 61.9111 261.527 63.4191V58.7131H271.095V58.7391ZM261.527 82.6592C261.527 80.7612 261.163 78.9412 260.435 77.1732C259.707 75.4052 258.667 73.8712 257.315 72.5192C255.963 71.1672 254.403 70.1272 252.661 69.3992C250.893 68.6712 249.073 68.3072 247.175 68.3072C243.379 68.3072 239.999 69.7112 237.035 72.5192C235.683 73.8712 234.643 75.4312 233.941 77.1732C233.239 78.9412 232.875 80.7612 232.875 82.6592C232.875 86.5072 234.253 89.8872 237.009 92.7993C239.921 95.5553 243.301 96.9333 247.149 96.9333H261.501V82.6592H261.527Z" fill="white"/>
<path d="M323.768 82.5816C323.768 86.9756 322.702 91.0056 320.57 94.6716C318.438 98.3636 315.526 101.25 311.86 103.356C308.246 105.514 304.216 106.606 299.77 106.606H276.006V58.7395H285.652V96.9596H299.77C301.72 96.9596 303.566 96.5956 305.282 95.8676C307.024 95.1396 308.558 94.0996 309.91 92.7476C311.262 91.3956 312.302 89.8616 313.03 88.1196C313.758 86.3776 314.122 84.5576 314.122 82.6076V58.7395H323.768V82.5816Z" fill="white"/>
<path d="M375.278 58.7391V106.605H350.864C346.652 106.501 342.726 105.357 339.138 103.199C335.55 101.041 332.69 98.1293 330.584 94.5152C328.478 90.8492 327.412 86.8972 327.412 82.6592C327.412 78.3432 328.478 74.3392 330.61 70.6472C332.742 66.9812 335.654 64.0432 339.32 61.8851C342.986 59.7791 346.99 58.7131 351.332 58.7131C353.984 58.7131 356.532 59.1291 359.002 59.9351C361.472 60.7411 363.682 61.9111 365.684 63.4191V58.7131H375.278V58.7391ZM365.71 82.6592C365.71 80.7612 365.346 78.9412 364.618 77.1732C363.89 75.4052 362.85 73.8712 361.498 72.5192C360.146 71.1672 358.586 70.1272 356.844 69.3992C355.076 68.6712 353.256 68.3072 351.358 68.3072C347.562 68.3072 344.182 69.7112 341.218 72.5192C339.866 73.8712 338.826 75.4312 338.124 77.1732C337.422 78.9412 337.058 80.7612 337.058 82.6592C337.058 86.5072 338.436 89.8872 341.192 92.7993C344.104 95.5553 347.484 96.9333 351.332 96.9333H365.684V82.6592H365.71Z" fill="white"/>
<path d="M280.197 112.924H280.587V121.686H280.197V112.924Z" fill="white"/>
<path d="M284.879 118.618C284.879 116.798 286.179 115.524 287.895 115.524C289.637 115.524 290.911 116.824 290.911 118.618C290.911 120.412 289.637 121.712 287.895 121.712C286.153 121.712 284.879 120.438 284.879 118.618ZM290.495 118.618C290.495 116.98 289.377 115.888 287.869 115.888C286.361 115.888 285.243 117.006 285.243 118.618C285.243 120.256 286.361 121.374 287.869 121.374C289.377 121.374 290.495 120.23 290.495 118.618Z" fill="white"/>
<path d="M300.428 115.549V121.685H300.038V120.203C299.648 121.139 298.816 121.737 297.646 121.737C296.086 121.737 295.098 120.853 295.098 119.163V115.549H295.488V119.137C295.488 120.593 296.268 121.373 297.646 121.373C299.128 121.373 300.012 120.385 300.012 118.877V115.575H300.428V115.549Z" fill="white"/>
<path d="M310.77 118.072V121.686H310.38V118.098C310.38 116.642 309.6 115.862 308.274 115.862C306.74 115.862 305.804 116.85 305.804 118.358V121.66H305.414V115.524H305.804V117.032C306.194 116.096 307.078 115.472 308.326 115.472C309.808 115.498 310.77 116.382 310.77 118.072Z" fill="white"/>
<path d="M321.098 115.55V121.088C321.098 123.09 320.136 124 318.212 124C317.094 124 316.054 123.636 315.456 123.012L315.69 122.726C316.314 123.324 317.198 123.662 318.212 123.662C319.928 123.662 320.734 122.882 320.734 121.14V119.84C320.266 120.854 319.278 121.478 318.056 121.478C316.314 121.478 315.014 120.23 315.014 118.488C315.014 116.746 316.314 115.524 318.056 115.524C319.278 115.524 320.266 116.148 320.734 117.162V115.576H321.098V115.55ZM320.708 118.488C320.708 116.928 319.564 115.888 318.03 115.888C316.496 115.888 315.378 116.954 315.378 118.488C315.378 120.022 316.496 121.114 318.03 121.114C319.59 121.114 320.708 120.022 320.708 118.488Z" fill="white"/>
<path d="M331.133 118.669H325.751C325.777 120.255 326.921 121.373 328.481 121.373C329.287 121.373 330.041 121.087 330.509 120.463L330.769 120.723C330.223 121.373 329.391 121.737 328.481 121.737C326.661 121.737 325.387 120.437 325.387 118.643C325.387 116.849 326.609 115.549 328.273 115.549C329.911 115.549 331.133 116.823 331.133 118.617V118.669ZM325.777 118.357H330.769C330.665 116.927 329.651 115.861 328.273 115.861C326.869 115.861 325.855 116.901 325.777 118.357Z" fill="white"/>
<path d="M334.98 118.358H337.97V118.722H334.98V118.358Z" fill="white"/>
<path d="M346.241 121.348V121.686H341.457V121.426L345.669 115.914H341.535V115.576H346.189V115.836L341.977 121.348H346.241Z" fill="white"/>
<path d="M349.648 118.618C349.648 116.798 350.948 115.524 352.664 115.524C354.406 115.524 355.68 116.824 355.68 118.618C355.68 120.412 354.406 121.712 352.664 121.712C350.922 121.712 349.648 120.438 349.648 118.618ZM355.264 118.618C355.264 116.98 354.146 115.888 352.638 115.888C351.13 115.888 350.012 117.006 350.012 118.618C350.012 120.256 351.13 121.374 352.638 121.374C354.146 121.374 355.264 120.23 355.264 118.618Z" fill="white"/>
<path d="M365.295 118.072V121.686H364.905V118.098C364.905 116.642 364.125 115.862 362.799 115.862C361.265 115.862 360.329 116.85 360.329 118.358V121.66H359.939V115.524H360.329V117.032C360.719 116.096 361.603 115.472 362.851 115.472C364.333 115.498 365.295 116.382 365.295 118.072Z" fill="white"/>
<path d="M375.277 118.669H369.895C369.921 120.255 371.065 121.373 372.625 121.373C373.431 121.373 374.185 121.087 374.653 120.463L374.913 120.723C374.367 121.373 373.535 121.737 372.625 121.737C370.805 121.737 369.531 120.437 369.531 118.643C369.531 116.849 370.753 115.549 372.417 115.549C374.055 115.549 375.277 116.823 375.277 118.617V118.669ZM369.921 118.357H374.913C374.809 116.927 373.795 115.861 372.417 115.861C371.013 115.861 369.999 116.901 369.921 118.357Z" fill="white"/>
<path d="M30.23 63.4981C30.178 63.7061 30.1 63.8881 30.048 64.0961C29.684 63.6281 29.32 63.1341 28.904 62.6141C28.982 62.5621 29.06 62.4841 29.164 62.4321C29.268 62.4841 29.32 62.5101 29.372 62.5621C29.658 62.8481 29.944 63.1861 30.23 63.4981ZM121.36 63.9141C121.438 63.8101 121.49 63.6801 121.594 63.4981C121.464 63.5501 121.386 63.5761 121.36 63.6021C121.126 63.8101 120.892 64.0181 120.684 64.2521C118.864 66.3581 117.148 68.5681 115.666 70.9081C115.822 72.0521 115.926 73.1961 116.004 74.3661C117.512 70.8041 119.306 67.2941 121.36 63.9141ZM26.33 89.0562C24.614 88.3542 22.846 87.8082 21 87.4442C21.026 87.4962 21.026 87.5482 21.052 87.5482C21.494 87.7822 21.936 88.0422 22.378 88.2762C25.654 90.1222 28.722 92.2282 31.4 94.8802C31.842 95.2962 32.232 95.7382 32.648 96.1802C31.842 94.5682 31.166 92.8782 30.568 91.1622C29.19 90.3822 27.812 89.6802 26.33 89.0562ZM37.2241 103.616C36.1321 100.86 34.598 98.4162 32.622 96.2062C33.922 98.8322 35.456 101.302 37.2241 103.616ZM108.308 100.834C108.23 101.25 108.178 101.666 108.1 102.082C113.092 94.9582 116.03 86.2742 116.03 76.8881C116.03 76.0561 116.004 75.2241 115.952 74.4181C114.418 77.9542 113.118 81.5942 111.974 85.3122C110.44 90.4082 109.27 95.5822 108.308 100.834ZM78.4342 79.2542C78.2782 78.4222 78.0962 77.5901 77.9142 76.7581C77.7842 76.8621 77.7322 76.9661 77.7062 77.0701C77.5502 77.8241 77.4202 78.5782 77.2902 79.3322C76.5622 83.6482 76.2242 87.9902 76.1462 92.3322C76.0682 95.6602 76.0942 98.9622 76.0682 102.29C76.0682 104.084 76.0942 105.904 76.0942 107.698C76.0942 109.778 76.0942 111.858 76.0942 113.964C76.0942 114.146 76.0942 114.302 76.0942 114.484C76.0942 114.536 76.1202 114.588 76.1462 114.64C76.2762 114.64 76.4062 114.64 76.5882 114.64C76.6662 114.458 76.7182 114.302 76.7702 114.172C78.4862 109.154 79.4482 104.006 79.7602 98.7282C79.9682 95.5042 79.9422 92.2802 79.7082 89.0562C79.5002 85.7542 79.0582 82.5042 78.4342 79.2542ZM92.6562 106.45C92.4742 103.72 92.2662 100.99 91.9022 98.2602C91.5122 95.4262 90.9662 92.6442 90.1082 89.9142C90.0562 89.7582 89.9782 89.6022 89.9262 89.4462C89.9002 89.4462 89.8482 89.4462 89.8222 89.4462C89.7962 89.4982 89.7962 89.5762 89.7702 89.6282C89.2242 93.1382 88.8342 96.6482 88.6522 100.184C88.4182 104.682 88.5742 109.18 89.2762 113.626C89.3282 113.964 89.4062 114.302 89.4842 114.666C90.7582 114.64 91.9802 114.692 93.2282 114.64C93.2282 114.51 93.2542 114.458 93.2542 114.38C93.0462 111.754 92.8122 109.102 92.6562 106.45ZM41.1761 83.2062C41.6181 85.3902 41.9301 87.6262 42.2421 89.8362C42.6841 93.1642 43.0741 96.5182 43.5161 99.8722C43.6461 100.782 43.8021 101.692 43.9321 102.602C43.9581 102.732 44.0101 102.862 44.1401 102.992C44.2441 102.29 44.3481 101.588 44.4521 100.886C44.7901 98.5722 45.1281 96.2582 45.4661 93.9182C45.7521 91.8382 46.0381 89.7582 46.3501 87.6782C47.0781 82.6862 47.9101 77.7461 49.2361 72.8581C49.4181 72.2081 49.3921 71.5841 49.2101 70.9601C48.7941 69.4521 48.3781 67.9441 47.9881 66.4361C47.9361 66.2541 47.9101 66.0461 47.9101 65.8381C48.5601 67.1381 49.2101 68.4121 49.9381 69.8161C50.0681 69.5041 50.1461 69.3221 50.2241 69.1401C51.4721 66.0201 52.7201 62.8741 53.9681 59.7541C54.0201 59.5981 54.0981 59.4681 54.1501 59.3121C54.2281 59.0781 54.3841 59.1561 54.5921 59.2601C54.5401 59.4941 54.4881 59.7541 54.4101 59.9881C53.8121 62.2501 53.1881 64.4861 52.6421 66.7481C52.2261 68.4901 51.9141 70.2581 51.5501 72.0001C51.3681 72.8061 51.4981 73.5601 51.7841 74.2881C52.7721 76.8881 53.6041 79.5402 54.3061 82.2182C55.2161 85.7022 55.9181 89.2122 56.3601 92.8002C56.5421 94.2042 56.6981 95.6342 56.8801 97.0382C56.8801 97.1162 56.9061 97.1942 56.9321 97.3242C57.1661 97.2202 57.1661 97.0122 57.2181 96.8562C57.8941 94.8542 58.5181 92.8262 59.2201 90.8242C60.5981 86.9242 62.2881 83.1542 64.4981 79.6182C66.5001 76.4202 68.8662 73.5341 71.7002 71.0121C71.8302 70.8821 71.9862 70.7781 72.1942 70.7001C72.0382 70.9341 71.9342 71.1681 71.7522 71.3761C67.4102 76.8101 64.7841 83.0242 63.5621 89.8362C63.0161 92.8002 62.6261 95.7642 62.2101 98.7282C61.6901 102.316 61.2481 105.93 60.7281 109.518C60.4941 111.13 60.1561 112.742 59.8701 114.328C59.8441 114.406 59.8441 114.51 59.8441 114.588C60.2341 114.718 61.7941 114.744 62.3141 114.614C61.8981 107.75 62.8861 101.042 64.2641 94.3602C64.2901 94.2562 64.3681 94.1522 64.4981 94.0482C64.4981 94.1782 64.5241 94.3342 64.5241 94.4642C64.4201 96.2582 64.2901 98.0782 64.1601 99.8722C63.9261 103.59 63.7441 107.334 64.0821 111.052C64.1861 112.092 64.3161 113.132 64.4201 114.146C64.4461 114.302 64.4721 114.458 64.5241 114.666C66.3182 114.666 68.1122 114.666 69.9582 114.666C69.9062 114.068 69.8802 113.574 69.8282 113.054C69.6722 111.39 69.5162 109.7 69.3342 108.036C68.9702 104.188 68.5282 100.34 67.4622 96.5962C66.8642 94.4382 66.0062 92.3582 64.9921 90.3562C64.7841 89.9662 64.6281 89.5762 64.4461 89.1862C64.4461 89.1602 64.4461 89.1082 64.4461 89.0042C64.6801 89.1862 64.9141 89.2902 65.0701 89.4722C65.6681 90.1222 66.2661 90.7462 66.7862 91.4222C68.0082 93.0862 68.9442 94.9062 69.8542 96.7522C70.3742 97.7922 70.8422 98.8582 71.3362 99.9242C71.4142 100.08 71.4922 100.236 71.6222 100.496C71.7002 100.288 71.7522 100.184 71.7522 100.054C72.0902 97.7142 72.4282 95.3482 72.7922 93.0082C73.7282 87.1322 75.1582 81.3862 77.2122 75.7961C77.4722 75.0941 77.5242 74.4181 77.3422 73.7161C76.9262 72.0781 76.5102 70.4141 76.1202 68.7761C76.0942 68.6461 76.0682 68.5161 76.1462 68.3601C76.3542 68.6461 76.5622 68.9061 76.7442 69.1921C77.5242 70.4661 78.0962 71.8181 78.6422 73.1961C80.1762 77.1741 81.3722 81.2562 82.1522 85.4422C82.1782 85.6242 82.2042 85.8322 82.2302 86.0142C82.2562 86.1962 82.2822 86.3782 82.3342 86.5862C82.5942 86.5602 82.6202 86.3262 82.6722 86.1702C83.6082 84.2982 84.5182 82.4002 85.4542 80.5022C87.0142 77.4081 88.5222 74.2621 90.1602 71.1941C92.3182 67.1121 95.2042 63.6021 98.7663 60.6381C98.8443 60.5601 98.9483 60.4821 99.1043 60.4561C99.0523 60.5601 98.9743 60.6901 98.9223 60.7941C93.5662 69.2441 89.8222 78.3701 87.4302 88.0942C86.4422 92.0462 85.6882 96.0502 85.1162 100.106C84.6742 103.2 84.3102 106.294 84.0762 109.414C83.9462 111.052 83.8422 112.716 83.7122 114.354C83.7122 114.432 83.7122 114.536 83.7122 114.692C84.4922 114.744 85.2722 114.718 86.0522 114.718C86.0782 114.588 86.1042 114.484 86.1042 114.38C86.2082 112.04 86.2602 109.7 86.4422 107.36C86.6242 104.838 86.9102 102.316 87.2222 99.7942C87.6642 95.9982 88.3662 92.2542 89.1982 88.5102C89.3802 87.7042 89.1202 86.9762 88.8602 86.2222C88.7562 85.9622 88.6782 85.6762 88.5742 85.4162C88.6002 85.3902 88.6522 85.3902 88.6782 85.3642C88.9642 85.7282 89.2502 86.0922 89.5882 86.5082C89.6662 86.3522 89.7182 86.2482 89.7442 86.1442C89.9782 85.3122 90.2122 84.4802 90.4462 83.6222C90.4982 83.4662 90.4982 83.3102 90.7842 83.4402C90.6802 84.0642 90.5762 84.7142 90.4722 85.3642C90.3942 85.8582 90.3162 86.3522 90.2382 86.8462C90.1862 87.1582 90.2382 87.4702 90.4202 87.7302C92.8642 91.4482 94.4502 95.5562 95.8283 99.7682C96.3743 101.406 96.8942 103.07 97.4142 104.734C97.4663 104.916 97.5443 105.072 97.5963 105.254C97.6223 105.254 97.6743 105.254 97.7003 105.228C97.7263 105.124 97.7263 105.046 97.7263 104.942C97.8563 101.042 98.0383 97.1422 98.1423 93.2162C98.2203 90.0962 98.1683 86.9502 97.9343 83.8302C97.7783 81.6982 97.5443 79.5662 97.1543 77.4862C97.1283 77.4082 97.1283 77.3041 97.1283 77.1741C97.3623 77.3041 97.4403 77.5121 97.4923 77.6941C97.8563 78.8381 98.2723 80.0082 98.5583 81.1782C99.3903 84.5062 99.9883 87.9122 100.456 91.3182C100.638 92.7222 100.82 94.1002 100.976 95.5042C101.002 95.6862 101.028 95.8422 101.08 96.1282C101.184 95.9202 101.236 95.8162 101.262 95.6862C101.782 93.7622 102.146 91.8382 102.328 89.8622C102.51 87.7822 102.614 85.7022 102.744 83.6222C103.342 85.7802 103.628 87.9902 103.732 90.2262C103.836 92.4622 103.81 94.6982 103.836 96.9602C104.018 96.8822 104.018 96.6742 104.096 96.5182C105.344 93.5282 106.592 90.5122 107.866 87.5482C109.478 83.8042 111.064 80.0342 112.78 76.3421C113.638 74.4701 114.652 72.7021 115.744 70.9861C112.832 49.5361 94.4502 33 72.1942 33C52.5901 33 36.002 45.844 30.334 63.5501C31.374 64.6941 32.44 65.8381 33.454 67.0081C37.3541 71.6881 39.9281 77.1481 41.1761 83.2062ZM53.5261 114.666C53.5261 114.406 53.5261 114.198 53.5261 114.016C53.4481 112.274 53.3701 110.506 53.3181 108.764C53.2401 107.022 53.1881 105.254 53.0841 103.512C52.9021 100.21 52.7201 96.8822 52.5121 93.5802C52.3821 91.7342 52.2521 89.9142 52.0441 88.0682C51.7841 85.5722 51.4461 83.1022 51.1341 80.6322C51.0561 79.9562 50.9261 79.3062 50.8221 78.6562C50.6921 78.9422 50.6401 79.2022 50.6141 79.4882C50.4061 82.0362 50.1461 84.5842 50.0161 87.1062C49.8341 90.2002 49.7041 93.2682 49.5741 96.3622C49.4441 99.6642 49.3401 102.992 49.2101 106.294C49.1841 107.152 49.1321 108.036 49.0801 108.894C48.9761 110.636 48.8461 112.352 48.7421 114.094C49.0541 114.276 49.3661 114.484 49.6521 114.666C50.9261 114.666 52.2001 114.666 53.5261 114.666ZM38.7581 97.6882C38.8881 97.8182 39.0441 97.9482 39.2001 98.1042C39.3821 97.6362 39.3301 97.2202 39.3041 96.8302C39.1221 94.3862 38.9401 91.9422 38.7321 89.4982C38.4461 86.3782 38.2121 83.2582 37.5361 80.2162C36.288 74.3921 33.818 69.1401 30.282 64.3821C30.204 64.2781 30.126 64.2001 30.074 64.0961C28.852 68.1521 28.176 72.4421 28.176 76.8881C28.176 81.9062 29.008 86.7162 30.568 91.1882C32.284 92.2282 33.922 93.4242 35.482 94.7502C36.574 95.6862 37.6661 96.7002 38.7581 97.6882Z" fill="white"/>
</svg>
