<svg width="201" height="46" viewBox="0 0 201 46" fill="none" xmlns="http://www.w3.org/2000/svg">
<path d="M17.7335 17.2286C17.7335 19.2361 16.8292 20.8785 15.5631 22.3385C14.1162 23.7984 11.9459 24.1634 11.9459 25.4408C11.9459 27.2658 14.6588 26.7183 17.3717 29.2732C19.1804 31.0982 20.2655 33.4706 20.2655 36.208C20.2655 41.5003 15.9249 45.8801 10.499 45.8801C5.07312 45.8801 0.732422 41.6828 0.732422 36.208C0.732422 33.4706 1.8176 31.0982 3.62622 29.2732C6.33915 26.5358 9.05209 27.0833 9.05209 25.4408C9.05209 24.1634 6.88174 23.7984 5.43484 22.3385C3.98794 21.061 3.26449 19.2361 3.26449 17.2286C3.26449 13.2138 6.52001 10.1114 10.3181 10.1114C11.0416 10.1114 11.765 10.2939 12.3076 10.2939C13.3928 10.2939 13.9354 9.92888 13.9354 9.19891C13.9354 8.83392 13.7545 8.28644 13.7545 7.73896C13.7545 6.27901 14.8397 5.18405 16.1057 5.18405C17.3717 5.18405 18.4569 6.27901 18.4569 7.55647C18.4569 9.01642 17.3717 9.5639 16.4674 9.92888C15.9249 10.1114 15.3823 10.4764 15.3823 11.2063C15.3823 12.4838 17.7335 13.7613 17.7335 17.2286ZM17.01 36.3905C17.01 32.5581 14.2971 29.6382 10.499 29.6382C6.70088 29.6382 3.98794 32.7406 3.98794 36.3905C3.98794 40.0403 6.70088 43.1427 10.499 43.1427C14.2971 43.1427 17.01 40.0403 17.01 36.3905ZM14.8397 17.2286C14.8397 14.8562 12.8502 12.8488 10.499 12.8488C8.14777 12.8488 6.15829 14.8562 6.15829 17.2286C6.15829 19.601 8.14777 21.6085 10.499 21.6085C12.8502 21.6085 14.8397 19.601 14.8397 17.2286ZM31.2981 10.4764C32.5642 10.4764 33.4685 11.3888 33.4685 12.4838C33.4685 13.5788 32.5642 14.4912 31.479 14.4912C30.213 14.4912 29.4895 13.7612 28.2235 13.7612C26.9574 13.7612 26.0531 14.6737 26.0531 16.1337V27.9958C26.0531 28.9082 25.3297 29.6382 24.4254 29.6382C23.5211 29.6382 22.7976 28.9082 22.7976 27.9958V11.9363C22.7976 11.0238 23.5211 10.2939 24.4254 10.2939C26.0531 10.2939 25.6914 11.9363 27.3192 11.9363C28.9469 11.9363 29.4895 10.4764 31.2981 10.4764ZM34.7345 19.966C34.7345 14.3087 38.7135 10.1114 43.9585 10.1114C48.8418 10.1114 52.8208 13.7612 52.8208 18.6886C52.8208 19.7835 52.0973 20.696 51.0121 20.696H38.7135C38.1709 20.696 37.99 20.8785 37.99 21.2435C37.99 22.156 38.7135 23.9809 39.7987 25.0759C40.8838 26.1708 42.5116 26.9008 44.6819 26.9008C46.3097 26.9008 47.7566 26.3533 48.8418 25.4408C49.3844 25.2584 49.7461 25.2584 50.1078 25.2584C50.8313 25.2584 51.5547 25.9883 51.5547 26.7183C51.5547 27.0833 51.3739 27.6308 51.0121 27.8133C49.3844 29.0907 47.214 29.8207 44.8628 29.8207C39.0752 29.8207 34.7345 25.6233 34.7345 19.966ZM48.1183 14.4912C47.0332 13.3963 45.7671 12.8488 44.1394 12.8488C42.5116 12.8488 41.0647 13.5788 39.9795 14.6737C39.0752 15.5862 38.5326 16.6811 38.5326 17.4111C38.5326 17.7761 38.7135 17.9586 39.2561 17.9586H49.0226C49.5652 17.9586 49.7461 17.7761 49.7461 17.4111C49.5652 16.4987 48.8418 15.4037 48.1183 14.4912ZM56.2571 19.966C56.2571 14.3087 60.2361 10.1114 65.4811 10.1114C70.3644 10.1114 74.3434 13.7612 74.3434 18.6886C74.3434 19.7835 73.6199 20.696 72.5347 20.696H60.2361C59.6935 20.696 59.5127 20.8785 59.5127 21.2435C59.5127 22.156 60.2361 23.9809 61.3213 25.0759C62.4065 26.1708 64.0342 26.9008 66.2046 26.9008C67.8323 26.9008 69.2792 26.3533 70.3644 25.4408C70.7261 25.2584 71.0878 25.0759 71.4496 25.0759C72.173 25.0759 72.8965 25.8058 72.8965 26.5358C72.8965 26.9008 72.7156 27.4483 72.3539 27.6308C70.7261 28.9082 68.5558 29.6382 66.2046 29.6382C60.417 29.8207 56.2571 25.6233 56.2571 19.966ZM69.6409 14.4912C68.5558 13.3963 67.2897 12.8488 65.662 12.8488C64.0342 12.8488 62.5873 13.5788 61.5021 14.6737C60.5978 15.5862 60.0552 16.6811 60.0552 17.4111C60.0552 17.7761 60.2361 17.9586 60.7787 17.9586H70.5453C71.0878 17.9586 71.2687 17.7761 71.2687 17.4111C71.0878 16.4987 70.3644 15.4037 69.6409 14.4912ZM93.3339 29.6382C92.4296 29.6382 91.7061 28.9082 91.7061 27.9958V17.7761C91.7061 15.0387 89.5358 13.0313 86.8229 13.0313C84.1099 13.0313 81.9396 15.0387 81.9396 17.7761V27.9958C81.9396 28.9082 81.2161 29.6382 80.3118 29.6382C79.4075 29.6382 78.6841 28.9082 78.6841 27.9958V11.9363C78.6841 11.0238 79.4075 10.2939 80.3118 10.2939C81.9396 10.2939 81.7587 11.7538 82.663 11.7538C83.5673 11.7538 84.6525 10.1114 87.5463 10.1114C91.7061 10.1114 94.7808 13.5788 94.7808 17.7761V27.9958C94.7808 28.9082 94.0574 29.6382 93.3339 29.6382ZM114.857 29.6382C113.952 29.6382 113.229 28.9082 113.229 27.9958V17.7761C113.229 15.0387 111.058 13.0313 108.345 13.0313C105.633 13.0313 103.462 15.0387 103.462 17.7761V27.9958C103.462 28.9082 102.739 29.6382 101.834 29.6382C100.93 29.6382 100.207 28.9082 100.207 27.9958V2.44664C100.207 1.53417 100.93 0.804199 101.834 0.804199C102.92 0.804199 103.643 1.53417 103.643 2.44664V10.8414C103.643 11.2063 103.824 11.5713 104.367 11.5713C105.271 11.5713 106.356 10.1114 109.25 10.1114C113.41 10.1114 116.484 13.5788 116.484 17.7761V27.9958C116.484 28.9082 115.761 29.6382 114.857 29.6382ZM120.825 19.966C120.825 14.4912 125.166 10.1114 130.772 10.1114C136.198 10.1114 140.72 14.4912 140.72 19.966C140.72 25.4408 136.379 29.8207 130.772 29.8207C125.347 29.8207 120.825 25.4408 120.825 19.966ZM137.464 19.966C137.464 16.1337 134.57 13.0313 130.772 13.0313C126.974 13.0313 124.08 16.1337 124.08 19.966C124.08 23.7984 126.974 26.9008 130.772 26.9008C134.57 27.0833 137.464 23.7984 137.464 19.966ZM146.688 10.2939C147.593 10.2939 148.316 11.0238 148.316 11.9363V22.156C148.316 24.8934 150.486 26.9008 153.199 26.9008C155.912 26.9008 158.083 24.8934 158.083 22.156V11.9363C158.083 11.0238 158.806 10.2939 159.71 10.2939C160.615 10.2939 161.338 11.0238 161.338 11.9363V27.9958C161.338 28.9082 160.615 29.6382 159.71 29.6382C158.083 29.6382 158.263 28.1783 157.359 28.1783C156.455 28.1783 155.37 29.8207 152.476 29.8207C148.316 29.8207 145.241 26.3533 145.241 22.156V11.9363C145.061 11.0238 145.784 10.2939 146.688 10.2939ZM166.945 28.5432C166.221 28.1782 165.679 27.6308 165.679 26.7183C165.679 25.8058 166.402 25.2584 167.126 25.2584C168.03 25.2584 168.573 25.8058 169.296 26.1708C170.2 26.7183 171.466 27.0833 172.732 27.0833C175.264 27.0833 176.531 25.9883 176.531 24.5284C176.531 22.5209 174.722 22.156 172.009 21.426C168.753 20.5135 165.86 19.601 165.86 15.9512C165.86 12.6663 168.392 10.2939 172.732 10.2939C174.541 10.2939 176.169 10.6589 177.435 11.5713C177.977 11.7538 178.339 12.4838 178.339 13.0313C178.339 13.9437 177.616 14.6737 176.711 14.6737C176.169 14.6737 175.626 14.3087 175.084 13.9437C174.541 13.5788 173.637 13.2138 172.552 13.2138C170.02 13.2138 168.934 14.3087 168.934 15.7687C168.934 17.7761 170.743 18.1411 173.456 18.8711C176.531 19.601 179.605 20.696 179.605 24.3459C179.605 27.6308 177.254 30.1857 172.552 30.1857C170.381 29.8207 168.392 29.4557 166.945 28.5432ZM182.68 19.966C182.68 14.3087 186.659 10.1114 191.904 10.1114C196.787 10.1114 200.766 13.7612 200.766 18.6886C200.766 19.7835 200.043 20.696 198.957 20.696H186.84C186.297 20.696 186.116 20.8785 186.116 21.2435C186.116 22.156 186.84 23.9809 187.925 25.0759C189.01 26.1708 190.638 26.9008 192.808 26.9008C194.436 26.9008 195.883 26.3533 196.968 25.4408C197.33 25.2584 197.691 25.0759 198.053 25.0759C198.777 25.0759 199.5 25.8058 199.5 26.5358C199.5 26.9008 199.319 27.4483 198.957 27.6308C197.33 28.9082 195.159 29.6382 192.808 29.6382C186.84 29.8207 182.68 25.6233 182.68 19.966ZM196.064 14.4912C194.978 13.3963 193.712 12.8488 192.085 12.8488C190.457 12.8488 189.01 13.5788 187.925 14.6737C187.021 15.5862 186.478 16.6811 186.478 17.4111C186.478 17.7761 186.659 17.9586 187.201 17.9586H196.968C197.511 17.9586 197.691 17.7761 197.691 17.4111C197.511 16.4987 196.787 15.4037 196.064 14.4912Z" fill="white"/>
</svg>
