<svg width="663.000000" height="75.000000" viewBox="0 0 663 75" fill="none" xmlns="http://www.w3.org/2000/svg" xmlns:xlink="http://www.w3.org/1999/xlink">
	<desc>
			Created with Pixso.
	</desc>
	<defs/>
	<path id="path" d="M0 30C0 21.75 6.81 15.02 15.16 15.02L15.16 30L106.19 30L106.19 44.99L15.16 44.99L15.16 75L0 75L0 30ZM15.16 15.02L15.16 0.03L106.19 0.03L106.19 15.02L15.16 15.02Z" fill="#FFFFFF" fill-opacity="1.000000" fill-rule="nonzero"/>
	<path id="path" d="M202.4 14.98L126.54 14.98L126.54 29.97L202.4 29.97L202.4 44.95L126.54 44.95L126.54 74.96L111.37 74.96L111.37 0L187.23 0C195.58 0 202.4 6.73 202.4 14.98ZM202.4 14.98L217.56 14.98L217.56 29.97L202.4 29.97L202.4 14.98ZM202.4 44.95C210.74 44.95 217.56 51.69 217.56 59.94L217.56 74.92L202.4 74.92L202.4 44.95Z" fill="#FFFFFF" fill-opacity="1.000000" fill-rule="nonzero"/>
	<path id="path" d="M222.75 30C222.75 21.75 229.57 15.02 237.91 15.02L237.91 30L328.94 30L328.94 44.99L237.91 44.99L237.91 59.97C229.57 59.97 222.75 53.24 222.75 44.99L222.75 30ZM237.91 15.02L237.91 0.03L328.94 0.03L328.94 15.02L237.91 15.02ZM237.91 59.97L328.94 60.01L328.94 74.99L237.91 74.99L237.91 59.97Z" fill="#FFFFFF" fill-opacity="1.000000" fill-rule="nonzero"/>
	<path id="path" d="M334.09 14.98L349.11 14.98C349.11 6.73 355.93 0 364.28 0L440.14 0L440.14 14.98L349.11 14.98L349.25 29.97L425.11 29.97C433.46 29.97 440.28 36.71 440.28 44.95L440.28 59.94L425.11 59.94L425.11 44.95L349.25 44.95C340.91 44.95 334.09 38.21 334.09 29.97L334.09 14.98ZM409.95 74.96L334.09 74.96L334.09 59.97L425.11 59.94C425.11 68.19 418.3 74.96 409.95 74.96Z" fill="#FFFFFF" fill-opacity="1.000000" fill-rule="nonzero"/>
	<path id="path" d="M445.46 30C445.46 21.75 452.28 15.02 460.63 15.02L460.63 60.01C452.28 60.01 445.46 53.27 445.46 45.02L445.46 30ZM460.63 15.02L460.63 0.03L551.65 0.03L551.65 15.02L460.63 15.02ZM460.63 60.01L551.65 60.01L551.65 75L460.63 75L460.63 60.01Z" fill="#FFFFFF" fill-opacity="1.000000" fill-rule="nonzero"/>
	<path id="path" d="M556.8 30C556.8 21.75 563.62 15.02 571.97 15.02L571.97 60.01C563.62 60.01 556.8 53.27 556.8 45.02L556.8 30ZM571.97 15.02L571.97 0.03L647.83 0.03L647.83 15.02L571.97 15.02ZM571.97 60.01L647.83 60.01L647.83 75L571.97 75L571.97 60.01ZM647.83 15.02C656.18 15.02 663 21.75 663 30L663 44.99C663 53.24 656.18 60.01 647.83 60.01L647.83 15.02Z" fill="#FFFFFF" fill-opacity="1.000000" fill-rule="nonzero"/>
</svg>
