<svg width="397" height="157" viewBox="0 0 397 157" fill="none" xmlns="http://www.w3.org/2000/svg">
<rect width="396.557" height="156.006" transform="translate(0.417969 0.719727)" fill="black"/>
<path d="M60.5418 93.9785L33.4523 76.3338V93.9785H28V65H33.4523V68.6277H56.9356C64.9423 68.6277 71.4678 75.1532 71.4678 83.1599H66.0155C66.0155 78.1369 61.9585 74.037 56.9356 74.037H39.8919L70.5233 93.9785H60.5418Z" fill="white"/>
<path d="M88.5751 93.9785C80.5255 93.9785 74 87.4101 74 79.4034V65H79.4093V79.4034C79.4093 84.4263 83.5092 88.5263 88.5751 88.5263H112.016V79.2746C112.016 74.4234 108.044 70.4093 103.15 70.4093V65C111.028 65 117.425 71.3967 117.425 79.2746V93.9785H88.5751Z" fill="white"/>
<path d="M140.802 93.9785V85.8431H134.534C126.527 85.8431 119.959 79.2746 119.959 71.2679V65H125.411V71.2679C125.411 76.2909 129.511 80.3908 134.534 80.3908H157.975C157.975 74.8098 154.948 70.4308 149.152 70.4308V65.0215C157.03 65.0215 163.427 71.4182 163.427 79.2961V85.8645H146.211V94H140.802V93.9785Z" fill="white"/>
<path d="M203.975 93.9785V88.5263H171.39V93.9785H165.98V65H194.658C202.794 65 209.405 71.6114 209.405 79.7469V93.9785H203.975ZM203.975 79.7469C203.975 74.5951 199.81 70.4093 194.637 70.4093H171.39V83.0955H203.975V79.7469Z" fill="white"/>
<path d="M264.419 93.9785V79.2746C264.419 74.4234 260.405 70.4093 255.554 70.4093H243.576V93.9785H238.166V70.4093H217.345V93.9785H211.936V65H255.554C263.431 65 269.828 71.3967 269.828 79.2746V93.9785H264.419Z" fill="white"/>
<path d="M272.385 93.9785V65H277.837V93.9785H272.385Z" fill="white"/>
<path d="M299.409 93.8927V70.4093H280.412V65H309.562C317.44 65 323.837 71.3967 323.837 79.2746H318.428C318.428 74.4234 314.414 70.4093 309.562 70.4093H304.84V93.8927H299.409Z" fill="white"/>
<path d="M340.946 93.9785C332.94 93.9785 326.371 87.4101 326.371 79.4034V65H355.543C363.378 65 369.817 71.3967 369.817 79.2746V93.9785H340.946ZM364.365 79.2746C364.365 74.4234 360.394 70.4093 355.543 70.4093H331.823V79.4034C331.823 84.4263 335.923 88.5263 340.946 88.5263H364.387V79.2746H364.365Z" fill="white"/>
<path d="M352.325 85.0488L341.613 78.0725V85.0488H339.467V73.6077H341.613V75.0459H350.887C354.042 75.0459 356.639 77.6217 356.639 80.7986H354.493C354.493 78.8023 352.883 77.1924 350.908 77.1924H344.168L356.274 85.0703H352.325V85.0488Z" fill="white"/>
</svg>
