<svg width="395" height="155" viewBox="0 0 395 155" fill="none" xmlns="http://www.w3.org/2000/svg">
<rect width="394.544" height="155" transform="translate(0.253906)" fill="black"/>
<path d="M156.06 103.18C152.71 103.18 149.94 102.23 147.79 100.32C145.62 98.41 144.54 95.79 144.54 92.47C144.54 89.15 145.62 86.53 147.79 84.59C149.94 82.65 152.71 81.68 156.06 81.68H179.59C179.54 80.26 179.51 78.83 179.51 77.38C179.51 75.88 179.54 74.39 179.59 72.93H156.06C152.71 72.93 149.94 71.98 147.79 70.07C145.62 68.16 144.54 65.56 144.54 62.24C144.54 58.92 145.62 56.3 147.79 54.39C149.94 52.48 152.71 51.53 156.06 51.53H182.55C183.38 48.33 184.35 45.4 185.45 42.79H157.71C151.38 42.79 146.25 44.41 142.34 47.66C138.12 51.14 136 56.01 136 62.24C136 68.4 138.54 73.44 143.59 77.37C138.54 81.19 136 86.22 136 92.48C136 98.76 138.1 103.63 142.29 107.11C146.17 110.36 151.32 111.98 157.71 111.98H185.44C184.34 109.36 183.35 106.41 182.53 103.19H156.06V103.18Z" fill="white"/>
<path d="M253.09 77.35C258.15 73.42 260.68 68.39 260.68 62.22C260.68 55.99 258.58 51.12 254.35 47.64C250.42 44.39 245.31 42.77 238.96 42.77H211.24C212.32 45.38 213.31 48.3 214.14 51.51H240.63C243.98 51.51 246.73 52.46 248.9 54.37C251.05 56.28 252.14 58.9 252.14 62.22C252.14 65.54 251.06 68.14 248.9 70.05C246.73 71.96 243.98 72.91 240.63 72.91H217.1C217.15 74.37 217.18 75.85 217.18 77.36C217.18 78.82 217.15 80.24 217.1 81.66H240.63C243.98 81.66 246.73 82.63 248.9 84.57C251.05 86.51 252.14 89.13 252.14 92.45C252.14 95.77 251.06 98.39 248.9 100.3C246.73 102.21 243.98 103.16 240.63 103.16H214.14C213.31 106.38 212.34 109.32 211.24 111.95H238.96C245.37 111.95 250.51 110.33 254.4 107.08C258.59 103.6 260.68 98.73 260.68 92.45C260.68 86.2 258.16 81.17 253.09 77.35Z" fill="white"/>
<path d="M213.65 70.8C213.1 63.39 210.77 56.51 206.69 50.3C206.2 49.54 205.69 48.8 205.17 48.07C203.2 45.17 201.08 42.37 199.02 39.51C198.53 38.83 198.16 38.83 197.68 39.51C195.75 42.16 193.85 44.82 191.9 47.45C191.77 47.63 191.62 47.82 191.51 48C187.5 53.63 184.78 59.81 183.57 66.64C182.55 72.46 182.65 78.26 184.18 83.99C185.62 89.3 188.1 94.04 191.51 98.26C192.04 98.92 192.59 99.57 193.18 100.2C194.67 101.83 196.09 103.53 197.16 105.51C197.55 106.24 197.79 106.98 197.74 107.84C197.69 108.91 197.72 109.99 197.72 111.06C197.72 112.39 197.74 113.73 197.72 115.06C197.72 115.46 197.88 115.72 198.3 115.76C198.67 115.79 198.91 115.52 198.93 115.06V114.8C198.93 112.63 198.99 110.46 198.91 108.3C198.86 107.05 199.2 105.95 199.85 104.93C200.08 104.57 200.25 104.22 200.51 103.89C201.69 102.43 202.86 100.96 204.09 99.55C204.46 99.13 204.82 98.69 205.16 98.26C211.56 90.29 214.44 81.13 213.65 70.8ZM197.71 41.54V46.14C197 45.53 196.33 44.96 195.66 44.36C196.32 43.43 196.98 42.54 197.71 41.54ZM194.93 45.36C195.85 46.15 196.74 46.91 197.62 47.69C197.7 47.75 197.73 47.87 197.73 47.97C197.75 49.3 197.75 50.61 197.75 52.08C196.1 50.66 194.58 49.33 193.03 47.99C193.67 47.09 194.28 46.25 194.93 45.36ZM191.52 50.15C191.78 49.76 192.04 49.37 192.3 48.97C193.53 50.04 194.71 51.06 195.89 52.08C196.42 52.55 196.96 52.99 197.48 53.47C197.59 53.58 197.74 53.76 197.74 53.91C197.76 55.22 197.76 56.53 197.76 57.97C195.64 56.14 193.6 54.38 191.53 52.58C191.19 52.29 190.85 52 190.51 51.71C190.84 51.19 191.18 50.67 191.52 50.15ZM188.57 55.23C189.02 54.44 189.41 53.63 189.86 52.77C190.41 53.26 190.96 53.72 191.51 54.19C192.8 55.31 194.07 56.41 195.34 57.51C196.04 58.12 196.75 58.74 197.46 59.35C197.57 59.46 197.72 59.61 197.72 59.75C197.74 61.08 197.74 62.39 197.74 63.81C197.53 63.66 197.4 63.57 197.27 63.47C195.34 61.8 193.44 60.14 191.51 58.49C190.59 57.68 189.67 56.87 188.73 56.08C188.41 55.8 188.38 55.59 188.57 55.23ZM197.73 103.98C197.6 103.8 197.55 103.74 197.5 103.67C196.35 102.23 195.25 100.71 194.02 99.33C193.13 98.33 192.29 97.31 191.51 96.24C190.25 94.52 189.1 92.73 188.13 90.82C188.05 90.67 187.98 90.54 187.94 90.4C187.92 90.38 187.94 90.34 187.96 90.27C189.16 91.31 190.34 92.31 191.52 93.33L191.57 93.38C193.51 95.08 195.45 96.75 197.39 98.46C197.57 98.62 197.71 98.93 197.71 99.17C197.75 100.73 197.73 102.28 197.73 103.98ZM197.73 97.07C197.54 96.92 197.41 96.83 197.28 96.73C195.37 95.06 193.45 93.4 191.52 91.73C189.98 90.4 188.46 89.08 186.92 87.75C186.76 87.6 186.58 87.39 186.52 87.18C185.92 85.13 185.34 83.07 184.76 81C184.76 80.95 184.78 80.9 184.78 80.79C184.94 80.92 185.07 81.02 185.2 81.13C187.3 82.96 189.41 84.77 191.53 86.6C193.46 88.28 195.4 89.97 197.34 91.63C197.63 91.89 197.76 92.15 197.76 92.54C197.73 94.03 197.73 95.5 197.73 97.07ZM197.73 89.77C197.73 89.93 197.71 90.09 197.71 90.35C197.4 90.09 197.16 89.88 196.92 89.69C195.12 88.12 193.31 86.57 191.52 85C189.27 83.06 187.04 81.12 184.81 79.18C184.63 79.02 184.44 78.78 184.41 78.57C184.26 76.94 184.17 75.29 184.05 73.63C184.11 73.61 184.16 73.6 184.23 73.57C184.76 74.02 185.28 74.48 185.8 74.93C188.44 77.21 191.07 79.51 193.71 81.77C194.92 82.84 196.14 83.87 197.35 84.93C197.64 85.19 197.75 85.43 197.75 85.8C197.73 87.12 197.73 88.45 197.73 89.77ZM197.73 81.77V83.08C197.73 83.23 197.73 83.37 197.71 83.6C197.55 83.47 197.42 83.39 197.31 83.29C196.73 82.79 196.15 82.27 195.55 81.77C191.91 78.6 188.27 75.44 184.6 72.29C184.31 72.03 184.18 71.77 184.21 71.38C184.37 70.04 184.5 68.71 184.65 67.21C185.04 67.55 185.3 67.76 185.56 67.99C189.51 71.4 193.44 74.82 197.39 78.22C197.65 78.45 197.76 78.66 197.76 79C197.73 79.92 197.73 80.84 197.73 81.77ZM197.75 72.96C197.73 74.09 197.73 75.23 197.73 76.34C197.73 76.49 197.71 76.63 197.71 76.86C197.5 76.71 197.37 76.6 197.22 76.49C195.86 75.31 194.52 74.14 193.16 72.96C192.61 72.49 192.06 72.01 191.51 71.54C189.46 69.74 187.38 67.96 185.31 66.18C185.02 65.92 184.94 65.69 185.03 65.34C185.35 64.14 185.64 62.95 185.97 61.62C187.35 62.8 188.61 63.89 189.85 64.99C190.4 65.46 190.95 65.94 191.5 66.41C193.46 68.11 195.4 69.79 197.36 71.47C197.62 71.7 197.73 71.91 197.73 72.25V72.96H197.75ZM197.75 70.18C197.35 69.84 197.05 69.6 196.76 69.34C195.01 67.84 193.26 66.31 191.52 64.81C189.95 63.43 188.36 62.08 186.78 60.72C186.5 60.46 186.46 60.27 186.59 59.93C186.99 58.94 187.38 57.94 187.79 56.89C187.98 57.05 188.13 57.16 188.28 57.28C189.36 58.22 190.45 59.17 191.53 60.11C193.49 61.81 195.46 63.51 197.42 65.22C197.58 65.35 197.74 65.56 197.74 65.75C197.76 67.17 197.75 68.6 197.75 70.18ZM212.02 67.3C212.08 67.77 212.17 68.22 212.21 68.68C212.31 69.62 212.4 70.57 212.47 71.53C212.49 71.72 212.41 71.98 212.28 72.1C208.57 75.34 204.85 78.56 201.13 81.78C200.47 82.36 199.8 82.93 199.14 83.51C199.11 83.53 199.08 83.54 198.96 83.59V78.74C198.96 78.61 199.07 78.45 199.19 78.37C203.4 74.71 207.6 71.06 211.83 67.42C211.85 67.37 211.9 67.35 212.02 67.3ZM208.93 56.9C209.35 58 209.79 59.08 210.18 60.2C210.23 60.31 210.07 60.56 209.94 60.67C208.35 62.05 206.77 63.42 205.18 64.81C204.5 65.39 203.82 65.97 203.14 66.57C201.78 67.73 200.42 68.92 198.97 70.18C198.97 68.58 198.97 67.09 198.99 65.62C198.99 65.51 199.1 65.38 199.18 65.3C201.19 63.57 203.18 61.84 205.18 60.11C206.38 59.07 207.57 58.04 208.77 57C208.78 56.96 208.81 56.96 208.93 56.9ZM205.17 50.15C205.51 50.65 205.85 51.17 206.19 51.69C205.85 51.98 205.51 52.29 205.17 52.56C203.12 54.36 201.08 56.12 198.96 57.96V53.85C198.98 53.74 199.07 53.58 199.19 53.48C200.89 51.99 202.6 50.52 204.4 48.97C204.65 49.36 204.91 49.74 205.17 50.15ZM199.01 41.56C199.71 42.53 200.37 43.42 201.05 44.36C200.35 44.96 199.71 45.51 199.01 46.12V41.56ZM198.96 48.16C198.96 48 198.99 47.77 199.11 47.66C199.97 46.88 200.86 46.14 201.76 45.35C202.41 46.24 203.02 47.1 203.67 47.99C202.13 49.33 200.6 50.64 199.01 52.04C198.99 51.85 198.96 51.73 198.96 51.6C198.96 50.46 198.94 49.31 198.96 48.16ZM198.96 59.95C198.98 59.76 199.06 59.5 199.2 59.38C201.17 57.63 203.16 55.92 205.17 54.19C205.67 53.75 206.19 53.32 206.69 52.88C206.71 52.86 206.75 52.85 206.85 52.8C207.32 53.71 207.76 54.58 208.23 55.45C208.41 55.77 208.17 55.87 207.99 56.02C207.05 56.83 206.11 57.65 205.17 58.46C203.44 59.98 201.69 61.49 199.94 62.99C199.65 63.25 199.36 63.51 198.95 63.86V63.21C198.96 62.14 198.94 61.04 198.96 59.95ZM198.96 72.96V72.05C198.96 71.9 199.06 71.73 199.15 71.63C201.16 69.88 203.16 68.15 205.17 66.42C206.97 64.85 208.76 63.3 210.56 61.74C210.58 61.72 210.59 61.72 210.67 61.71C210.78 62.07 210.91 62.42 211.01 62.79C211.2 63.55 211.35 64.33 211.59 65.07C211.75 65.6 211.64 65.94 211.19 66.32C209.17 68.05 207.18 69.78 205.17 71.51C204.62 72 204.07 72.46 203.52 72.95C202.19 74.1 200.87 75.25 199.54 76.4C199.38 76.55 199.22 76.68 198.96 76.9C198.96 75.52 198.94 74.24 198.96 72.96ZM208.55 90.86C207.56 92.77 206.43 94.57 205.17 96.28C204.51 97.17 203.81 98.03 203.08 98.87C201.67 100.49 200.31 102.15 198.94 103.79C198.94 102.22 198.94 100.57 198.96 98.92C198.96 98.81 199.06 98.66 199.14 98.58C201.15 96.83 203.17 95.1 205.18 93.35C206.35 92.35 207.49 91.34 208.66 90.34C208.69 90.32 208.72 90.32 208.84 90.28C208.72 90.5 208.63 90.68 208.55 90.86ZM210.14 87.3C210.08 87.45 209.98 87.58 209.86 87.67C208.29 89.03 206.74 90.39 205.17 91.75C203.2 93.45 201.22 95.16 199.25 96.88C199.19 96.93 199.1 96.98 198.99 97.06C198.97 96.9 198.94 96.77 198.94 96.64C198.94 95.23 198.94 93.81 198.96 92.4C198.96 92.19 199.07 91.93 199.22 91.8C201.21 90.07 203.18 88.34 205.17 86.64C207.34 84.73 209.52 82.85 211.69 80.98C211.75 80.92 211.82 80.88 211.98 80.77C211.55 83.08 210.95 85.23 210.14 87.3ZM212.45 77.41C212.45 78.45 212 79.13 211.2 79.8C209.18 81.52 207.17 83.25 205.16 84.99C203.27 86.62 201.37 88.27 199.46 89.93C199.33 90.04 199.18 90.17 198.99 90.33C198.96 90.17 198.93 90.07 198.93 89.96C198.93 88.52 198.93 87.06 198.95 85.62C198.97 85.43 199.06 85.17 199.21 85.05C200.47 83.95 201.73 82.85 203.01 81.75C206.13 79.03 209.26 76.33 212.38 73.61C212.4 73.59 212.43 73.58 212.62 73.5C212.57 74.87 212.45 76.13 212.45 77.41Z" fill="white"/>
</svg>
