<svg width="396" height="156" viewBox="0 0 396 156" fill="none" xmlns="http://www.w3.org/2000/svg">
<g clip-path="url(#clip0_960_7008)">
<rect width="395.551" height="155" transform="translate(0 0.810547)" fill="black"/>
<path d="M85.0532 32.3468C85.0532 32.8559 85.0532 33.3934 85.0532 33.9025C85.11 46.9705 85.1668 60.0668 85.252 73.1348C85.252 73.8137 85.0816 74.2097 84.5136 74.5774C83.5196 75.1997 82.5824 75.9351 81.4748 76.7271V75.5108C81.4748 60.0385 81.4748 44.5379 81.4748 29.0657C81.4748 28.3585 81.276 27.8494 80.7932 27.3402C79.004 25.4168 77.2432 23.4368 75.4824 21.4851C75.2836 21.2588 75.1132 21.0325 74.8008 20.6648C75.2552 20.6648 75.5392 20.6648 75.8232 20.6648C80.0264 20.6648 84.2012 20.6931 88.4044 20.6648C89.37 20.6648 89.9664 20.9477 90.5912 21.6548C108.938 42.0488 127.312 62.4145 145.659 82.7802C145.914 83.0631 146.17 83.3459 146.539 83.7702C146.539 83.3177 146.596 83.0914 146.568 82.8368C146.34 63.9419 146.113 45.0754 145.858 26.1805C145.858 25.0491 145.517 23.9177 145.346 22.7014H152.361C151.254 29.9425 151.736 37.2685 151.481 44.5662C151.225 51.8357 151.197 59.1334 151.055 66.4028C150.856 76.1331 150.686 85.8634 150.487 95.6219C150.487 95.9048 150.458 96.1877 150.43 96.5554C148.073 96.5554 145.772 96.5554 143.5 96.5554C143.216 96.5554 142.904 96.2159 142.677 95.9897C135.946 88.5505 129.244 81.1114 122.513 73.6722C110.244 60.0951 98.0036 46.5179 85.7348 32.9408C85.5644 32.7428 85.4508 32.5165 85.3088 32.2902C85.2236 32.3468 85.1384 32.4034 85.0532 32.4317V32.3468Z" fill="white"/>
<path d="M237.22 94.6886C235.658 95.1412 234.721 94.0946 233.698 92.7369C230.517 88.5223 228.018 84.0249 226.598 78.9335C226.513 78.6506 226.399 78.3678 226.257 78.1132C218.817 63.5743 210.524 49.5446 202.174 35.5432C201.123 33.7612 200.527 31.9792 200.584 29.9426C200.641 28.1889 200.641 26.4635 200.839 24.7381C201.01 23.2672 201.919 22.1641 203.424 21.7963C203.878 21.6832 204.503 21.7963 204.901 22.0226C205.525 22.3903 206.065 22.9561 206.548 23.4935C208.763 25.8978 210.723 28.4718 212.029 31.5266C212.654 33.0258 213.364 34.4966 214.102 35.9392C214.443 36.6181 214.954 37.2121 215.409 37.8061C216.204 38.8243 217.141 39.7578 217.851 40.8326C219.896 43.9441 221.827 47.1403 223.9 50.2518C226.57 54.2118 228.615 58.4263 230.063 62.9803C230.773 65.1583 231.682 67.3081 232.619 69.4012C233.585 71.5792 234.891 73.5309 236.567 75.2563C239.179 77.9435 240.372 81.2529 240.912 84.8735C241.253 87.1929 241.593 89.4841 241.111 91.8318C240.514 94.6038 240.372 94.7735 237.22 94.6886Z" fill="white"/>
<path d="M180.533 51.4114C182.379 50.478 184.14 49.6011 185.873 48.7242C185.958 48.7808 186.015 48.8374 186.015 48.8657C187.264 53.5328 189.678 57.6908 191.723 62.0185C196.608 72.3145 201.521 82.5822 206.491 92.8217C207.428 94.8017 208.564 96.6685 209.615 98.592C209.757 98.8748 209.927 99.1577 210.155 99.582H206.463C205.469 99.582 204.503 99.5537 203.509 99.582C202.884 99.6102 202.572 99.4122 202.316 98.8182C200.385 94.5471 198.425 90.3325 196.494 86.0614C196.21 85.4674 195.898 85.2411 195.245 85.2411C188.826 85.2411 182.408 85.2411 175.989 85.2411C175.365 85.2411 175.052 85.4391 174.825 86.0048C172.752 90.9831 170.622 95.9048 168.549 100.883C168.293 101.534 167.981 101.788 167.271 101.76C164.743 101.703 162.215 101.76 159.688 101.76C159.432 101.76 159.148 101.562 158.893 101.449C159.12 101.307 159.347 101.081 159.603 101.053C161.477 100.713 163.351 100.402 165.226 100.119C165.879 100.006 166.22 99.6951 166.504 99.0728C170.849 89.2011 175.223 79.3294 179.596 69.4577C180.988 66.2897 182.436 63.15 183.885 60.0102C184.112 59.5011 184.112 59.1051 183.885 58.596C182.777 56.22 181.669 53.8157 180.533 51.3265V51.4114ZM195.443 83.8834C192.007 76.4442 188.656 69.1182 185.191 61.6225C182.01 69.1465 178.886 76.4725 175.762 83.8834H195.443Z" fill="white"/>
<path d="M288.056 51.4114C289.874 50.5062 291.634 49.6011 293.395 48.7242C293.48 48.8091 293.537 48.8374 293.537 48.894C294.872 53.8722 297.485 58.3131 299.672 62.9237C304.471 73.0782 309.356 83.2045 314.241 93.3308C315.178 95.2542 316.286 97.0645 317.308 98.9314C317.393 99.1011 317.478 99.2991 317.62 99.6102C316.03 99.6102 314.553 99.4405 313.105 99.6385C310.861 99.9497 309.782 99.1294 308.958 97.008C307.482 93.2742 305.636 89.682 303.988 86.0048C303.733 85.4674 303.449 85.2694 302.852 85.2694C296.406 85.2694 289.959 85.2694 283.512 85.2694C282.887 85.2694 282.575 85.4674 282.348 86.0331C280.274 90.9831 278.173 95.8765 276.1 100.827C275.816 101.534 275.475 101.817 274.68 101.788C272.18 101.732 269.681 101.788 267.182 101.788C266.926 101.788 266.642 101.59 266.387 101.477C266.642 101.336 266.841 101.109 267.125 101.081C269.085 100.713 271.044 100.431 273.004 100.035C273.345 99.978 273.742 99.6385 273.884 99.3274C279.763 86.2028 285.585 73.0782 291.407 59.9254C291.549 59.586 291.521 59.0485 291.407 58.7091C290.328 56.2765 289.22 53.8722 288.056 51.3831V51.4114ZM302.966 83.8551C299.558 76.4442 296.178 69.09 292.742 61.6225C289.561 69.1465 286.437 76.4725 283.313 83.8551H302.966Z" fill="white"/>
<path d="M270.22 27.9909C272.265 28.2454 274.736 27.7929 277.207 27.1989C278.826 26.8029 279.422 27.1989 279.962 28.7829C280.388 30.0557 280.473 31.3286 280.16 32.6297C280.018 33.1954 279.763 33.5349 279.11 33.4783C277.178 33.2803 275.929 34.1854 274.821 35.7129C272.634 38.8243 270.277 41.7943 268.062 44.8774C267.38 45.8391 266.898 46.9423 266.415 48.0171C264.796 51.6377 263.206 55.2583 261.587 58.8789C261.36 59.388 261.047 59.8689 260.735 60.3214C258.122 63.744 255.566 67.1949 252.868 70.5043C252.016 71.5509 250.766 72.3146 249.63 73.1349C249.006 73.5874 248.693 73.0783 248.58 72.5409C248.21 70.9286 248.267 69.3729 248.977 67.8454C249.346 67.0817 249.716 66.2897 250.198 65.5826C252.754 61.9903 254.458 57.9454 256.162 53.9006C259.031 47.1403 261.842 40.38 263.944 33.3369C264.285 32.2337 264.313 31.0174 264.427 29.8577C264.569 28.1889 264.711 27.9909 266.386 27.9626C267.494 27.9626 268.573 27.9626 270.192 27.9626L270.22 27.9909Z" fill="white"/>
<path d="M249.46 131.573C249.46 127.274 249.46 123.003 249.46 118.703C249.46 118.449 249.375 118.109 249.488 117.911C249.687 117.6 250 117.232 250.312 117.204C250.539 117.176 250.88 117.6 251.079 117.883C251.193 118.053 251.107 118.335 251.107 118.59C251.107 123.681 251.107 128.773 251.107 133.864C251.107 134.458 251.192 135.109 250.397 135.307C249.602 135.505 249.29 134.939 248.977 134.373C246.705 130.159 244.405 125.944 242.104 121.73C241.962 121.447 241.792 121.192 241.451 120.938V121.758C241.451 125.775 241.451 129.819 241.451 133.836C241.451 134.062 241.537 134.373 241.451 134.543C241.253 134.854 240.94 135.279 240.656 135.279C240.372 135.279 240.06 134.854 239.833 134.543C239.719 134.402 239.804 134.147 239.804 133.921C239.804 128.801 239.804 123.681 239.804 118.562C239.804 118.449 239.776 118.307 239.804 118.222C240.031 117.855 240.23 117.261 240.543 117.204C240.883 117.119 241.423 117.459 241.678 117.77C242.133 118.335 242.417 119.043 242.758 119.693C244.774 123.427 246.791 127.132 248.807 130.866C248.949 131.121 249.091 131.347 249.233 131.601C249.29 131.601 249.346 131.573 249.403 131.545L249.46 131.573Z" fill="white"/>
<path d="M221.827 127.161C221.827 129.424 221.827 131.545 221.827 133.666C221.827 133.921 221.912 134.26 221.827 134.458C221.628 134.798 221.315 135.222 220.975 135.279C220.747 135.307 220.378 134.854 220.151 134.543C220.037 134.345 220.094 134.034 220.094 133.751C220.094 128.858 220.094 123.993 220.094 119.099C220.094 117.657 220.378 117.374 221.798 117.374C223.332 117.374 224.894 117.374 226.427 117.43C229.069 117.572 230.631 119.043 230.971 121.56C231.312 124.191 230.148 126.058 227.649 126.906C227.45 126.963 227.279 127.047 227.024 127.132C228.302 129.225 229.551 131.262 230.801 133.299C230.943 133.553 231.227 133.808 231.199 134.062C231.199 134.43 231.057 134.996 230.829 135.081C230.517 135.194 229.921 135.081 229.693 134.854C229.211 134.289 228.898 133.61 228.529 132.987C227.507 131.262 226.456 129.537 225.462 127.783C225.178 127.302 224.865 127.132 224.326 127.161C223.531 127.189 222.735 127.161 221.798 127.161H221.827ZM221.855 125.407C223.587 125.407 225.263 125.52 226.882 125.379C228.359 125.237 229.239 124.106 229.324 122.663C229.409 120.825 228.728 119.552 227.166 119.297C225.433 119.014 223.673 119.071 221.883 118.986V125.435L221.855 125.407Z" fill="white"/>
<path d="M85.8493 127.132C87.0989 129.197 88.3485 131.234 89.5981 133.299C89.9389 133.893 90.5921 134.571 89.6833 135.137C88.7745 135.703 88.4621 134.826 88.0929 134.232C86.8149 132.082 85.5369 129.961 84.3157 127.811C84.0601 127.359 83.7477 127.132 83.2081 127.161C82.3845 127.217 81.5609 127.161 80.6521 127.161C80.6521 129.395 80.6521 131.517 80.6521 133.638C80.6521 133.949 80.7373 134.345 80.6237 134.6C80.4817 134.911 80.1409 135.279 79.8569 135.279C79.5729 135.279 79.2321 134.939 79.0333 134.656C78.8913 134.458 78.9765 134.147 78.9765 133.864C78.9765 128.914 78.9765 123.993 78.9765 119.043C78.9765 117.6 79.2037 117.374 80.6237 117.402C82.1289 117.402 83.6625 117.374 85.1677 117.459C87.8657 117.6 89.5413 119.071 89.8537 121.56C90.1945 124.191 89.0017 126.086 86.4457 126.934C86.2753 126.991 86.1049 127.076 85.8777 127.161L85.8493 127.132ZM80.6805 119.071V125.463C82.2425 125.463 83.7477 125.548 85.2529 125.463C87.1273 125.35 88.0929 124.247 88.1213 122.409C88.1213 120.457 87.1841 119.269 85.2813 119.099C83.7761 118.986 82.2709 119.099 80.6805 119.099V119.071Z" fill="white"/>
<path d="M109.705 126.199C109.705 127.5 109.79 128.801 109.705 130.102C109.478 133.242 107.262 135.307 104.167 135.363C101.128 135.42 98.7424 133.497 98.4868 130.385C98.2596 127.585 98.2596 124.756 98.4868 121.984C98.714 118.845 100.958 117.119 104.224 117.147C107.291 117.176 109.392 119.043 109.676 122.126C109.79 123.483 109.676 124.841 109.676 126.199H109.705ZM99.9352 126.171C99.9352 126.171 100.02 126.171 100.049 126.171C100.049 127.387 99.992 128.603 100.049 129.819C100.191 132.195 101.611 133.61 103.854 133.723C106.07 133.836 107.546 132.62 107.916 130.244C108.086 129.112 108.058 127.953 108.029 126.793C108.029 125.124 108.029 123.399 107.83 121.758C107.575 119.835 106.155 118.816 104.11 118.76C102.037 118.703 100.56 119.721 100.219 121.673C99.9636 123.144 99.992 124.671 99.9068 126.171H99.9352Z" fill="white"/>
<path d="M161.023 134.656C160.824 134.826 160.54 135.279 160.256 135.279C159.915 135.279 159.404 134.939 159.262 134.628C158.864 133.695 158.609 132.733 158.325 131.771C158.183 131.234 157.956 131.007 157.359 131.007C155.57 131.036 153.781 131.036 152.02 131.007C151.509 131.007 151.282 131.149 151.14 131.658C150.912 132.563 150.6 133.468 150.316 134.373C150.146 134.939 149.833 135.477 149.123 135.279C148.385 135.081 148.442 134.487 148.612 133.921C150.259 128.716 151.906 123.483 153.582 118.279C153.724 117.826 154.235 117.317 154.661 117.204C155.314 117.034 155.627 117.657 155.797 118.222C157.473 123.483 159.148 128.773 160.824 134.034C160.881 134.175 160.881 134.317 160.966 134.685L161.023 134.656ZM151.878 129.339H157.615C156.678 126.227 155.74 123.229 154.746 119.976C153.752 123.257 152.815 126.255 151.878 129.339Z" fill="white"/>
<path d="M271.897 134.6C271.669 134.826 271.414 135.25 271.187 135.25C270.817 135.25 270.306 134.967 270.164 134.685C269.738 133.723 269.454 132.676 269.17 131.658C269.028 131.177 268.801 131.007 268.318 131.007C266.501 131.007 264.683 131.036 262.894 131.007C262.354 131.007 262.155 131.234 262.042 131.686C261.786 132.591 261.531 133.497 261.218 134.402C261.048 134.967 260.735 135.477 260.025 135.279C259.259 135.052 259.372 134.458 259.543 133.893C261.19 128.716 262.837 123.512 264.484 118.335C264.655 117.741 264.882 117.147 265.62 117.147C266.415 117.147 266.643 117.77 266.841 118.364C268.375 123.172 269.909 128.009 271.442 132.818C271.613 133.355 271.755 133.893 271.953 134.6H271.897ZM265.592 119.948C264.598 123.229 263.661 126.255 262.695 129.339H268.432C267.495 126.255 266.586 123.229 265.563 119.948H265.592Z" fill="white"/>
<path d="M61.8213 128.433C61.8213 130.3 61.8213 132.082 61.8213 133.836C61.8213 134.487 61.9349 135.307 60.9977 135.307C60.0889 135.307 60.1173 134.515 60.1173 133.864C60.1173 128.914 60.1173 123.993 60.1173 119.043C60.1173 117.657 60.4013 117.402 61.7929 117.402C62.9289 117.402 64.0365 117.374 65.1725 117.402C68.6089 117.515 70.4833 119.41 70.5401 122.805C70.5969 126.312 68.6373 128.32 65.0873 128.405C64.0365 128.405 62.9573 128.405 61.8213 128.405V128.433ZM61.8781 126.878C63.3833 126.821 64.8317 126.849 66.2801 126.651C67.5581 126.482 68.4953 125.661 68.6657 124.36C68.8077 123.37 68.7793 122.295 68.6089 121.305C68.4101 120.231 67.6149 119.41 66.5073 119.269C65.0021 119.071 63.4685 119.071 61.8781 118.986V126.878Z" fill="white"/>
<path d="M328.498 127.047V133.384C328.81 133.384 329.123 133.412 329.435 133.412C331.196 133.412 332.928 133.412 334.689 133.412C335.257 133.412 335.854 133.497 335.882 134.176C335.882 134.911 335.342 135.024 334.689 135.024C332.559 135.024 330.401 135.024 328.271 135.024C327.021 135.024 326.766 134.741 326.766 133.497C326.766 128.66 326.766 123.795 326.766 118.958C326.766 117.657 327.05 117.374 328.328 117.374C330.344 117.374 332.36 117.374 334.377 117.374C334.973 117.374 335.57 117.43 335.57 118.194C335.57 118.986 334.945 119.014 334.348 119.014C332.417 119.014 330.486 119.014 328.498 119.014V125.379C329.89 125.379 331.281 125.379 332.673 125.379C333.099 125.379 333.496 125.379 333.922 125.379C334.49 125.379 335.03 125.435 335.058 126.171C335.058 126.906 334.547 126.991 333.951 126.991C332.446 126.991 330.912 126.991 329.407 126.991C329.123 126.991 328.839 126.991 328.47 127.019L328.498 127.047Z" fill="white"/>
<path d="M204.105 119.043V125.407C205.27 125.407 206.434 125.407 207.57 125.407C208.28 125.407 208.99 125.407 209.7 125.407C210.297 125.407 210.723 125.633 210.694 126.255C210.694 126.849 210.24 127.019 209.7 127.019C207.854 127.019 206.008 127.019 204.105 127.019V133.44C204.446 133.44 204.759 133.44 205.071 133.44C206.889 133.44 208.706 133.44 210.495 133.44C211.035 133.44 211.518 133.666 211.433 134.26C211.376 134.571 210.95 135.024 210.666 135.024C208.223 135.081 205.781 135.052 203.367 135.024C202.714 135.024 202.373 134.6 202.373 133.921C202.373 128.801 202.373 123.681 202.373 118.562C202.373 117.798 202.771 117.402 203.537 117.402C205.753 117.402 207.996 117.402 210.211 117.402C210.779 117.402 211.149 117.628 211.177 118.222C211.177 118.845 210.779 119.043 210.24 119.043C208.564 119.043 206.917 119.043 205.241 119.043C204.901 119.043 204.531 119.043 204.077 119.043H204.105Z" fill="white"/>
<path d="M312.565 132.224C313.9 127.839 315.234 123.455 316.569 119.071C316.711 118.59 316.796 118.053 317.08 117.657C317.279 117.402 317.79 117.176 318.103 117.232C318.358 117.289 318.557 117.741 318.671 118.081C318.728 118.279 318.614 118.533 318.529 118.76C316.938 123.766 315.348 128.801 313.758 133.808C313.701 133.949 313.701 134.119 313.616 134.232C313.246 134.628 312.906 135.194 312.48 135.307C311.798 135.448 311.514 134.798 311.315 134.204C310.094 130.3 308.844 126.425 307.623 122.55C307.226 121.277 306.828 120.004 306.402 118.76C306.203 118.137 306.033 117.459 306.885 117.232C307.652 117.034 307.907 117.657 308.078 118.251C309.299 122.239 310.52 126.227 311.713 130.215C311.912 130.923 312.139 131.601 312.366 132.309H312.565V132.224Z" fill="white"/>
<path d="M120.298 119.043V125.407C121.32 125.407 122.314 125.407 123.308 125.407C124.132 125.407 124.984 125.407 125.807 125.407C126.404 125.407 126.915 125.548 126.887 126.255C126.887 126.906 126.375 127.047 125.807 127.047C123.99 127.047 122.201 127.047 120.241 127.047C120.241 127.585 120.241 128.094 120.241 128.575C120.241 130.47 120.241 132.365 120.241 134.26C120.241 134.854 120.099 135.392 119.417 135.363C118.764 135.363 118.594 134.826 118.594 134.232C118.594 129.084 118.594 123.936 118.594 118.788C118.594 117.77 118.906 117.459 119.929 117.459C122.03 117.459 124.16 117.459 126.262 117.459C126.858 117.459 127.369 117.543 127.398 118.279C127.398 119.014 126.858 119.099 126.29 119.099C124.331 119.099 122.371 119.099 120.298 119.099V119.043Z" fill="white"/>
<path d="M281.638 119.043C280.473 119.043 279.422 119.043 278.343 119.043C277.775 119.043 277.179 118.986 277.15 118.279C277.15 117.543 277.69 117.402 278.315 117.402C281.098 117.402 283.881 117.402 286.693 117.402C287.261 117.402 287.829 117.459 287.829 118.194C287.829 118.986 287.232 119.043 286.636 119.043C285.585 119.043 284.506 119.043 283.313 119.043V120.146C283.313 124.728 283.313 129.31 283.313 133.893C283.313 134.147 283.398 134.487 283.256 134.685C283.086 134.967 282.802 135.307 282.518 135.307C282.262 135.307 281.865 135.052 281.723 134.798C281.552 134.515 281.609 134.119 281.609 133.751C281.609 129.197 281.609 124.643 281.609 120.089V119.043H281.638Z" fill="white"/>
<path d="M187.946 119.043C186.753 119.043 185.703 119.043 184.623 119.043C184.055 119.043 183.459 118.986 183.459 118.279C183.459 117.515 184.027 117.402 184.652 117.402C187.435 117.402 190.247 117.402 193.03 117.402C193.598 117.402 194.166 117.515 194.166 118.222C194.166 118.929 193.598 119.043 193.03 119.043C191.922 119.043 190.843 119.043 189.593 119.043C189.593 119.439 189.593 119.806 189.593 120.146C189.593 124.841 189.593 129.565 189.593 134.26C189.593 134.826 189.48 135.307 188.827 135.335C188.173 135.335 187.918 134.911 187.918 134.289C187.918 134.062 187.918 133.808 187.918 133.581C187.918 129.112 187.918 124.643 187.918 120.174C187.918 119.863 187.918 119.523 187.918 119.071L187.946 119.043Z" fill="white"/>
<path d="M170.85 133.468C172.895 133.468 174.797 133.468 176.729 133.468C176.984 133.468 177.325 133.383 177.524 133.525C177.808 133.723 178.149 134.062 178.149 134.317C178.149 134.571 177.723 135.024 177.467 135.024C174.996 135.081 172.525 135.081 170.083 135.024C169.799 135.024 169.487 134.515 169.231 134.175C169.117 134.034 169.203 133.779 169.203 133.553C169.203 128.547 169.203 123.568 169.203 118.562C169.203 118.307 169.146 117.968 169.259 117.77C169.458 117.487 169.827 117.147 170.083 117.176C170.339 117.176 170.651 117.572 170.821 117.883C170.935 118.053 170.85 118.335 170.85 118.59C170.85 123.172 170.85 127.755 170.85 132.337V133.468Z" fill="white"/>
<path d="M297.969 126.284C297.969 128.886 297.969 131.488 297.969 134.091C297.969 134.713 297.884 135.307 297.145 135.307C296.378 135.307 296.236 134.713 296.236 134.062C296.236 128.829 296.236 123.597 296.236 118.364C296.236 117.741 296.35 117.176 297.088 117.147C297.884 117.147 297.969 117.741 297.969 118.392C297.969 121.023 297.969 123.653 297.969 126.284Z" fill="white"/>
</g>
<defs>
<clipPath id="clip0_960_7008">
<rect width="395.551" height="155" fill="white" transform="translate(0 0.810547)"/>
</clipPath>
</defs>
</svg>
