<svg width="457.000000" height="285.000000" viewBox="0 0 457 285" fill="none" xmlns="http://www.w3.org/2000/svg" xmlns:xlink="http://www.w3.org/1999/xlink">
	<desc>
			Created with Pixso.
	</desc>
	<defs/>
	<path id="path" d="M34.01 285C22.64 285 14.13 282.6 8.48 277.81C2.82 273.03 0 265.76 0 256.03C0 249.66 1.42 244.33 4.26 240.03C7.1 235.73 11.21 232.49 16.6 230.28C21.98 228.08 28.39 226.98 35.82 226.98C40.85 226.98 45.39 227.39 49.43 228.21C53.48 229.02 56.93 230.28 59.8 231.96C62.67 233.65 64.85 235.77 66.36 238.32C67.87 240.88 68.61 243.93 68.61 247.47L59.93 247.47C59.93 244.85 59.28 242.71 57.96 241.02C56.65 239.33 54.87 238.01 52.63 237.06C50.39 236.11 47.85 235.46 45.01 235.1C42.17 234.74 39.22 234.57 36.15 234.57C32.43 234.57 28.95 234.92 25.7 235.63C22.46 236.33 19.58 237.5 17.09 239.13C14.61 240.77 12.65 242.89 11.24 245.5C9.81 248.11 9.1 251.26 9.1 254.96L9.1 256.92C9.1 261.87 10.18 265.86 12.34 268.88C14.5 271.9 17.46 274.09 21.24 275.45C25.01 276.81 29.4 277.49 34.43 277.49C40.66 277.49 45.63 276.87 49.35 275.61C53.06 274.36 55.76 272.57 57.42 270.23C59.09 267.89 59.92 265.2 59.92 262.15L59.92 261.01L34.59 261.01L34.59 253.83L68.7 253.83L68.7 284.02L62.72 284.02L61.65 275.78C59.68 278.01 57.25 279.81 54.36 281.16C51.46 282.53 48.27 283.5 44.81 284.1C41.32 284.7 37.73 285 34.01 285Z" fill="#FFFFFF" fill-opacity="1.000000" fill-rule="nonzero"/>
	<path id="path" d="M85.65 284.02L85.65 227.96L127.95 227.96C131.66 227.96 134.78 228.71 137.3 230.21C139.81 231.71 141.7 233.73 142.95 236.29C144.2 238.85 144.84 241.7 144.84 244.85C144.84 248.33 143.94 251.49 142.13 254.32C140.33 257.15 137.65 259.24 134.1 260.6L146.32 284.03L136.32 284.03L125.16 262.16L94.51 262.16L94.51 284.03L85.65 284.02ZM94.51 254.65L125.82 254.65C128.99 254.65 131.45 253.75 133.2 251.95C134.95 250.16 135.83 247.82 135.83 244.94C135.83 243.03 135.43 241.38 134.64 239.96C133.85 238.54 132.71 237.46 131.24 236.7C129.76 235.94 127.96 235.55 125.83 235.55L94.52 235.55L94.51 254.65Z" fill="#FFFFFF" fill-opacity="1.000000" fill-rule="nonzero"/>
	<path id="path" d="M153.37 284.02L181.98 227.96L192.31 227.96L221 284.02L211.16 284.02L204.44 270.8L169.35 270.8L162.63 284.02L153.37 284.02ZM172.96 263.46L200.75 263.46L192.47 246.9C192.14 246.24 191.73 245.38 191.24 244.33C190.75 243.27 190.23 242.15 189.72 240.98C189.2 239.82 188.7 238.75 188.24 237.8C187.78 236.85 187.43 236.18 187.22 235.8L186.56 235.8C186.02 236.94 185.4 238.25 184.72 239.72C184.04 241.19 183.39 242.57 182.79 243.88C182.19 245.18 181.69 246.19 181.31 246.9L172.96 263.46Z" fill="#FFFFFF" fill-opacity="1.000000" fill-rule="nonzero"/>
	<path id="path" d="M232.38 284.02L232.38 227.96L240.99 227.96L276.32 263.62C276.92 264.16 277.63 264.88 278.45 265.78C279.27 266.67 280.11 267.56 280.95 268.43C281.8 269.3 282.53 270.09 283.13 270.8L283.78 270.8C283.73 269.77 283.69 268.47 283.66 266.92C283.63 265.37 283.62 264 283.62 262.8L283.62 227.96L292.23 227.96L292.23 284.01L284.03 284.01L248.54 248.03C247.28 246.78 245.99 245.43 244.64 243.99C243.3 242.55 242.25 241.39 241.49 240.52L240.92 240.52C240.92 241.44 240.93 242.77 240.96 244.48C240.99 246.2 241 247.92 241 249.66L241 284.01L232.38 284.02Z" fill="#FFFFFF" fill-opacity="1.000000" fill-rule="nonzero"/>
	<path id="path" d="M309.93 284.02L309.93 227.96L318.78 227.96L318.78 284.02L309.93 284.02Z" fill="#FFFFFF" fill-opacity="1.000000" fill-rule="nonzero"/>
	<path id="path" d="M355.34 284.02L355.34 235.8L329.93 235.8L329.93 227.96L389.77 227.96L389.77 235.8L364.28 235.8L364.28 284.02L355.34 284.02Z" fill="#FFFFFF" fill-opacity="1.000000" fill-rule="nonzero"/>
	<path id="path" d="M400.92 284.02L400.92 227.96L456.34 227.96L456.34 235.55L409.78 235.55L409.78 251.63L451.67 251.63L451.67 259.13L409.78 259.13L409.78 276.51L457 276.51L457 284.02L400.92 284.02Z" fill="#FFFFFF" fill-opacity="1.000000" fill-rule="nonzero"/>
	<path id="path" d="M171.08 121.95C163.48 131.4 157.56 138.77 151.63 146.15C157.56 153.53 163.48 160.9 171.08 170.35L221.65 170.35L221.65 121.95L171.08 121.95Z" fill="#FFFFFF" fill-opacity="1.000000" fill-rule="nonzero"/>
	<path id="path" d="M221.65 109.37L221.65 60.97L171.08 60.97C163.48 70.42 157.56 77.8 151.63 85.17C157.56 92.55 163.48 99.92 171.08 109.37L221.65 109.37Z" fill="#FFFFFF" fill-opacity="1.000000" fill-rule="nonzero"/>
	<path id="path" d="M260.54 3.05e-5C245.35 18.89 236.83 29.49 221.64 48.39L305.27 48.39L305.27 3.05e-5L260.54 3.05e-5Z" fill="#FFFFFF" fill-opacity="1.000000" fill-rule="nonzero"/>
	<path id="path" d="M171.08 0C163.48 9.45 157.56 16.82 151.63 24.19C157.56 31.57 163.48 38.94 171.08 48.39L221.65 48.39L221.65 0L171.08 0Z" fill="#FFFFFF" fill-opacity="1.000000" fill-rule="nonzero"/>
	<path id="path" d="M260.54 121.95C245.35 140.85 236.83 151.45 221.64 170.34L305.27 170.34L305.27 129.69L305.27 121.95L305.27 106.91C287.8 99.17 278 94.84 260.54 87.1L260.54 121.95Z" fill="#FFFFFF" fill-opacity="1.000000" fill-rule="nonzero"/>
</svg>
