<svg width="698.000000" height="170.000000" viewBox="0 0 698 170" fill="none" xmlns="http://www.w3.org/2000/svg" xmlns:xlink="http://www.w3.org/1999/xlink">
	<desc>
			Created with Pixso.
	</desc>
	<defs/>
	<path id="path" d="M522.75 0L568.72 0C568.83 0 568.89 0.05 568.89 0.16L568.89 7.13C568.89 7.24 568.83 7.3 568.72 7.3L549.39 7.3L549.39 70.39C549.39 70.5 549.34 70.56 549.23 70.56L542.24 70.56C542.13 70.56 542.07 70.51 542.07 70.39L542.07 7.3L522.74 7.3C522.63 7.3 522.58 7.25 522.58 7.13L522.58 0.16C522.58 0.05 522.64 0 522.75 0ZM570.36 0L577.69 0C577.8 0.05 578.43 2.21 579.58 6.47L586.24 31.58L613.05 31.58C609.32 17.79 606.49 7.29 604.58 0.07L604.74 0L612.06 0C612.17 0.05 612.74 2.02 613.79 5.9C624.81 46.87 630.59 68.42 631.14 70.55L623.66 70.55C623.55 70.55 622.92 68.31 621.77 63.82C620.4 59.01 618.15 50.72 615.03 38.97L588.3 38.97C593.4 57.73 596.22 68.26 596.77 70.56L589.29 70.56C589.18 70.56 588.52 68.21 587.31 63.5C586 59.01 580.29 37.87 570.2 0.08L570.36 0ZM676.53 0C676.64 0 676.7 0.05 676.7 0.16L676.7 7.13C676.7 7.24 676.64 7.3 676.53 7.3L656.47 7.3L650.06 31.42L676.53 31.42C676.64 31.47 676.7 31.53 676.7 31.58L676.7 38.64C676.7 38.75 676.64 38.81 676.53 38.81L648.16 38.81C648.05 38.81 647.31 41.43 645.94 46.69L641.41 63.26L676.52 63.26C676.63 63.26 676.69 63.32 676.69 63.43L676.69 70.4C676.69 70.51 676.63 70.56 676.52 70.56L631.87 70.56L631.87 70.48C637.41 49.81 643.74 26.32 650.87 0.01L676.53 0ZM28.52 169.99C5.74 169.99 0.06 164.57 0.06 142.75L0.06 105.01L17.33 105.01L17.33 142.75C17.33 154.73 18.49 156.04 28.52 156.04C38.55 156.04 39.71 154.73 39.71 142.75L39.71 105.01L56.98 105.01L56.98 142.75C56.98 164.57 51.31 169.99 28.52 169.99ZM64.37 105.01L80.74 105.01L109.11 139.96L109.6 139.96L109.6 105.01L126.88 105.01L126.88 169L110.59 169L82.13 134.13L81.64 134.13L81.64 169L64.37 169L64.37 105.01ZM176.38 150.87C176.38 147.18 173.17 145.62 161.08 143.24C140.11 139.06 134.85 135.12 134.85 123.22C134.85 107.88 140.93 104.02 164.37 104.02C187.98 104.02 194.06 108.7 194.06 127.41L175.97 127.41C175.97 118.88 174.73 117.97 164.37 117.97C154.17 117.97 152.94 118.54 152.94 123.38C152.94 126.75 155.32 127.98 164.04 129.78C188.05 134.46 194.47 138.89 194.47 151.77C194.47 166.37 188.3 169.99 164.37 169.99C139.78 169.99 133.44 165.47 133.44 147.51L151.54 147.51C151.54 155.22 152.85 156.05 163.87 156.05C175.07 156.04 176.38 155.55 176.38 150.87ZM217 119.78L197.34 119.78L197.34 105.01L254.09 105.01L254.09 119.78L234.27 119.78L234.27 169L216.99 169L217 119.78ZM290.28 104.02C316.92 104.02 323.59 110.59 323.59 137.01C323.59 163.43 316.93 170 290.28 170C263.62 170 256.96 163.43 256.96 137.01C256.96 110.59 263.62 104.02 290.28 104.02ZM275.06 137C275.06 154.15 276.54 156.04 290.28 156.04C304.01 156.04 305.49 154.15 305.49 137C305.49 119.86 304.01 117.96 290.28 117.96C276.54 117.96 275.06 119.86 275.06 137ZM366.84 105.01C383.94 105.01 388.22 109.28 388.22 126.34C388.22 142.91 384.28 147.26 368.32 148.08L347.43 148.08L347.43 169L330.15 169L330.15 105.01L366.84 105.01ZM362.4 133.31C370.13 133.31 370.95 132.65 370.95 126.42C370.95 119.7 370.13 118.96 362.4 118.96L347.43 118.96L347.43 133.31L362.4 133.31ZM431.47 105.01C448.58 105.01 452.86 109.28 452.86 126.34C452.86 142.91 448.92 147.26 432.96 148.08L412.07 148.08L412.07 169L394.79 169L394.79 105.01L431.47 105.01ZM427.03 133.31C434.76 133.31 435.59 132.65 435.59 126.42C435.59 119.7 434.77 118.96 427.03 118.96L412.06 118.96L412.06 133.31L427.03 133.31ZM521.11 169L501.37 169L497.92 156.53L473.24 156.53L469.38 169L450.79 169L471.93 105.01L500.55 105.01L521.11 169ZM493.65 142.58L486 118.95L485.5 118.95L477.69 142.58L493.65 142.58ZM564.36 105.01C578.26 105.01 582.46 108.37 582.46 121.67C582.46 130.86 578.51 135.53 570.62 136.68C580.16 137.67 584.76 142.51 584.76 152.19C584.76 165.65 580.08 169.01 564.36 169.01L525.63 169.01L525.63 105.01L564.36 105.01ZM557.46 129.95C562.39 129.95 564.44 128.23 564.44 124.12C564.44 118.71 563.78 118.13 557.46 118.13L542.9 118.13L542.9 129.94L557.46 129.95ZM559.1 155.87C566.01 155.87 566.75 155.21 566.75 149.55C566.75 145.04 564.44 143.07 559.1 143.07L542.9 143.07L542.9 155.87L559.1 155.87ZM609.43 105.01L609.43 154.23L640.68 154.23L640.68 169L592.15 169L592.15 105.01L609.43 105.01ZM697.83 105.01L697.83 119.78L662.47 119.78L662.47 129.62L694.55 129.62L694.55 143.57L662.47 143.57L662.47 154.24L698 154.24L698 169.01L645.2 169.01L645.2 105.01L697.83 105.01ZM27.98 71.31C12.55 71.31 0 58.79 0 43.4C0 28 12.55 15.48 27.98 15.48C43.4 15.48 55.95 28 55.95 43.4C55.95 58.79 43.41 71.31 27.98 71.31ZM27.98 17.76C13.8 17.76 2.28 29.26 2.28 43.4C2.28 57.53 13.8 69.03 27.98 69.03C42.15 69.03 53.67 57.53 53.67 43.4C53.67 29.26 42.15 17.76 27.98 17.76ZM35.48 37.53L33.87 35.92L19.53 50.21L21.15 51.82L35.48 37.53ZM22.71 35.47L22.79 37.75L34.05 37.34L33.63 48.57L35.92 48.65L36.42 34.97L22.71 35.47ZM24.79 57.06L26.4 55.45L15.9 44.98L14.29 46.58L24.79 57.06Z" fill="#FFFFFF" fill-opacity="1.000000" fill-rule="nonzero"/>
</svg>
