<svg width="186" height="56" viewBox="0 0 186 56" fill="none" xmlns="http://www.w3.org/2000/svg">
<path d="M113.257 31.6882C113.257 31.6882 112.878 30.3102 112.878 29.1291V12.7899H119.137V44.484L98.8415 26.9636C97.7034 25.9794 97.1344 24.9951 97.1344 24.9951C97.1344 24.9951 97.5138 26.1762 97.5138 27.1605V43.6966H91.2543V12.1993L111.36 29.3259C112.498 30.3102 113.257 31.6882 113.257 31.6882ZM170.73 12.7899C180.783 12.7899 183.439 16.9239 183.439 22.8296C183.439 27.1605 180.404 31.2945 174.334 31.8851H173.575C173.575 31.8851 174.144 32.0819 174.713 32.6725L185.905 43.8934H177.369L161.815 27.5542H169.592C176.61 27.5542 176.8 23.8139 176.8 22.8296C176.99 20.4673 176.231 18.4988 170.92 18.4988H162.005V44.0903H155.366V12.7899H170.73ZM122.172 28.7354C122.172 15.7428 132.605 12.3962 141.33 12.3962C144.934 12.3962 147.969 12.7899 151.193 13.3805V19.8768C149.296 19.2862 145.503 17.9082 141.33 17.9082C132.984 17.9082 129.001 21.2548 129.001 28.5385C129.001 34.4442 133.363 38.3814 141.33 38.3814C145.503 38.3814 149.865 37.3971 151.952 36.6097V42.9091C148.727 43.6966 144.934 44.0903 141.33 44.0903C132.035 44.2871 122.172 39.5625 122.172 28.7354ZM50.8525 13.5773L57.112 19.6799C56.9223 19.6799 56.7326 19.8768 56.5429 20.0736C56.1636 20.2705 55.7842 20.4673 55.2152 20.8611C54.2668 21.6485 52.939 22.8296 51.2319 24.6014L39.0924 37.7908C37.0059 40.1531 34.9194 41.9248 33.0226 42.9091L26.7632 36.8065C26.9529 36.8065 27.1425 36.6097 27.3322 36.4128C27.7116 36.216 28.0909 36.0191 28.66 35.6254C29.6084 34.838 30.9361 33.6568 32.6433 31.8851L44.7828 18.6956C46.6796 16.5302 48.766 14.5616 50.8525 13.5773ZM26.7632 45.862C29.4187 45.862 32.0742 45.2714 33.7813 44.2871C34.5401 43.8934 35.6781 43.106 36.6265 42.3186C37.5749 41.5311 38.9027 40.35 40.0408 39.1688L52.1803 25.9794C55.2152 22.6328 57.112 21.6485 58.25 21.2548L64.5095 27.3574C63.1817 28.7354 47.8176 45.862 47.8176 45.862C46.6796 47.0431 45.7312 48.2243 44.9725 48.8149C44.2137 49.6023 43.0757 50.5866 42.3169 50.9803C38.713 53.7363 33.7813 55.9017 27.3322 55.9017C12.3475 55.9017 0.208008 43.4997 0.208008 29.1291C0.208008 11.215 13.6753 0.781572 26.0045 0.781572C29.7981 0.584714 32.8329 1.37214 35.1091 2.15958C37.3853 2.94701 38.9027 3.9313 40.2305 4.52187C38.713 5.50616 37.3853 6.6873 35.1091 9.24645L32.6433 12.0025C32.0742 11.8056 29.6084 10.8213 26.1941 11.0182C18.4173 11.215 9.692 17.9082 10.0714 28.7354C10.4507 38.972 18.4173 45.862 26.7632 45.862ZM49.7144 12.3962C48.9557 12.7899 47.8176 13.5773 46.8692 14.3648C45.9208 15.1522 44.5931 16.3333 43.455 17.5145L31.3155 30.7039C28.2806 34.0505 26.3838 35.0348 25.2457 35.4285L19.176 29.5228C20.5037 28.1448 35.8678 11.0182 35.8678 11.0182C37.0059 9.83703 37.9543 8.65588 38.713 8.06531C39.4717 7.27788 40.6098 6.29359 41.3685 5.89987C44.9725 2.94701 49.9041 0.781572 56.3532 0.781572C71.1483 0.781572 83.0981 13.3805 83.0981 27.7511C83.0981 45.6651 69.6308 55.9017 57.3016 55.9017C53.508 56.0986 50.4732 55.3112 48.197 54.5237C45.9208 53.7363 44.4034 52.752 43.0757 52.1614C44.5931 51.1771 45.9208 49.996 48.197 47.4369L50.6628 44.6808C51.2319 44.8777 53.6977 45.862 57.112 45.6651C64.8888 45.4683 73.6141 38.7751 73.2347 27.9479C72.8554 17.7113 64.8888 11.0182 56.5429 11.0182C53.8874 10.8213 51.4216 11.4119 49.7144 12.3962Z" fill="white"/>
</svg>
