<svg width="171" height="49" viewBox="0 0 171 49" fill="none" xmlns="http://www.w3.org/2000/svg">
<path d="M163.647 7.15021C159.236 2.73391 152.934 0 145.581 0C138.439 0 131.926 2.73391 127.515 7.15021C124.784 9.88412 122.683 13.2489 121.423 17.2446C120.372 13.4592 118.271 10.3047 115.541 7.57082C111.129 3.36481 104.827 0.841201 97.4742 0.841201H78.7776V29.0215C77.5172 26.4979 75.4165 24.6052 72.6855 23.3433C75.4165 21.4506 77.5172 18.2961 77.3071 13.8798V13.6695C77.3071 9.88412 75.8366 6.51931 72.8956 4.20601C70.1646 1.8927 66.1732 0.841201 61.3415 0.841201H39.4939V29.0215C38.2334 26.4979 36.1327 24.6052 33.4017 23.3433C36.1327 21.4506 38.2334 18.2961 38.2334 13.6695V13.4592C38.2334 9.67382 36.5528 6.30901 33.8219 3.99571C31.0909 1.6824 27.0995 0.630901 22.2678 0.630901H0V48.1588H22.688C27.9398 48.1588 32.3513 47.1073 35.5025 44.794C37.183 43.5322 38.4435 42.0601 39.4939 40.1674V48.1588H62.1818C67.4337 48.1588 71.8452 47.1073 74.9963 44.794C76.6769 43.5322 77.9373 42.0601 78.9877 40.1674V48.1588H97.6843C105.037 48.1588 111.339 45.6352 115.751 41.2189C118.482 38.485 120.582 35.3305 121.633 31.7554C122.893 35.5408 124.784 39.1159 127.725 41.8498C132.136 46.2661 138.439 49 145.791 49C152.934 49 159.446 46.2661 163.857 41.8498C168.269 37.4335 171 31.3348 171 24.6052V24.3948C170.79 17.6652 168.269 11.5665 163.647 7.15021ZM11.7641 11.7768H20.5872C22.4779 11.7768 23.9484 12.1974 24.7887 12.8283C25.629 13.4592 26.0491 14.0901 26.0491 15.3519V15.5622C26.0491 17.0343 25.629 17.6652 24.5786 18.2961C23.5283 18.927 22.0577 19.3476 19.957 19.3476H11.7641V11.7768ZM28.57 33.6481C28.57 35.1202 28.1499 35.7511 27.0995 36.382C26.2592 37.0129 24.5786 37.4335 22.4779 37.4335H11.7641V29.6524H22.2678C24.7887 29.6524 26.2592 30.073 27.3096 30.7039C28.1499 31.3348 28.57 32.176 28.57 33.6481ZM51.258 11.7768H60.0811C61.9717 11.7768 63.4423 12.1974 64.2826 12.8283C65.1228 13.4592 65.543 14.0901 65.543 15.3519V15.5622C65.543 17.0343 65.1228 17.6652 64.0725 18.2961C63.0221 18.927 61.5516 19.3476 59.4509 19.3476H51.258V11.7768ZM68.0639 33.6481C68.0639 35.1202 67.6437 35.7511 66.5934 36.382C65.7531 37.0129 64.0725 37.4335 61.9717 37.4335H51.258V29.6524H61.7617C64.2826 29.6524 65.7531 30.073 66.8034 30.7039C67.6437 31.3348 68.0639 32.176 68.0639 33.6481ZM110.079 24.8155C110.079 32.3863 105.247 37.2232 97.4742 37.2232H90.7518V11.9871H97.4742C105.247 11.9871 110.079 17.0343 110.079 24.8155ZM158.186 24.8155C158.186 31.9657 153.144 37.8541 145.581 37.8541C138.229 37.8541 132.977 31.9657 132.977 24.6052V24.3948C132.977 17.0343 138.018 11.3562 145.371 11.3562C152.934 11.3562 158.186 17.4549 158.186 24.8155Z" fill="white"/>
</svg>
