<svg width="470.000000" height="212.000000" viewBox="0 0 470 212" fill="none" xmlns="http://www.w3.org/2000/svg" xmlns:xlink="http://www.w3.org/1999/xlink">
	<desc>
			Created with Pixso.
	</desc>
	<defs/>
	<path id="path" d="M268.36 185.12L270.01 185.12L270.01 187.8L268.36 187.8C266.81 187.8 266.19 187.39 266.19 186.46C266.19 185.54 266.81 185.12 268.36 185.12ZM246.05 184.91C244.29 184.91 243.46 186.48 243.46 188.42C243.46 190.35 244.29 191.92 246.05 191.92C247.8 191.92 248.63 190.35 248.63 188.42C248.63 186.48 247.8 184.91 246.05 184.91ZM213.41 184.91C211.98 184.91 211.28 185.86 211.03 187.18L215.59 187.18C215.41 185.86 214.83 184.91 213.41 184.91ZM232.76 190.89C232.76 191.71 233.34 192.23 234.27 192.23C236.24 192.23 236.75 189.97 236.75 188.38C236.27 188.81 235.3 189.04 234.48 189.24C233.55 189.47 232.76 189.95 232.76 190.89ZM186.1 82.12C170.61 82.12 160.2 92.68 160.2 108.4C160.2 109.84 160.25 111.21 160.36 112.52C175.67 106.25 197.31 101.52 212.31 99.83C208.89 89.27 198.51 82.12 186.1 82.12ZM406.27 153.48L430.76 153.48C414.37 162.64 392.79 171.41 365.9 179.86C357.57 182.48 349.04 185.47 340.03 188.63C308.82 199.58 273.45 212 235 212C196.54 212 161.17 199.58 129.97 188.63C120.95 185.46 112.43 182.47 104.09 179.86C77.88 171.62 57.2 163.35 41.21 154.68C102.19 150.17 123.07 140.61 123.07 118.06C123.07 95.71 101.85 82.39 59.98 78.46L59.9 77.57C79.85 77.21 96.04 76.97 109.69 76.97L112.27 76.97L112.27 54.69L109.69 54.69C94.31 54.69 68.43 55.41 43.27 56.21C58.97 47.94 78.99 40.02 104.09 32.13C112.42 29.51 120.94 26.52 129.96 23.36C161.16 12.41 196.53 0 234.99 0C273.45 0 308.82 12.41 340.03 23.36C349.04 26.52 357.56 29.51 365.89 32.13C392.44 40.47 413.35 48.87 429.43 57.67L424.52 57.64C411.12 57.58 397.81 57.52 392.15 57.52L389.57 57.52L389.57 83.03L405.23 83.03C405.92 96.06 406.27 118.86 406.27 150.91L406.27 153.48ZM172.34 149.83L170.32 145.85C169.03 143.33 167.88 141.09 167.23 138.6C179.92 132.83 196.37 128.08 210.7 126.03C207.64 135.55 205.1 142.71 202.97 147.86L201.71 150.89L237.43 156.48L238.19 154.57C249.96 124.89 249.96 115.36 249.96 108.41C249.96 79.37 221.91 56.63 186.1 56.63C150.12 56.63 124 78.4 124 108.41C124 123.46 128.16 139.54 135.7 153.67L136.56 155.28L172.34 149.83ZM191.1 188.4C191.1 186.5 189.55 184.97 187.65 184.97C185.75 184.97 184.21 186.51 184.21 188.4C184.21 190.3 185.76 191.84 187.65 191.84C189.55 191.84 191.1 190.3 191.1 188.4ZM207.1 187.18C207.1 184.71 206.27 182.75 203.28 182.75C200.91 182.75 199.98 184.81 199.98 184.81L199.88 184.81L199.88 183.06L197.09 183.06L197.09 193.78L199.98 193.78L199.98 188.21C199.98 186.05 200.8 185.12 202.36 185.12C203.7 185.12 204.21 185.94 204.21 187.8L204.21 193.78L207.11 193.78L207.1 187.18ZM218.57 188.42C218.57 185.28 216.94 182.75 213.41 182.75C209.88 182.75 208.04 185.28 208.04 188.42C208.04 191.55 209.79 194.08 213.41 194.08C217.85 194.08 218.46 190.27 218.46 190.27L215.57 190.27C215.57 190.27 215.26 191.92 213.51 191.92C211.77 191.92 211.07 190.68 210.95 189.04L218.55 189.04C218.55 189.04 218.57 188.66 218.57 188.42ZM229.83 193.78L225.58 187.24L229.62 183.06L226.21 183.06L222.4 187.39L222.4 183.06L219.51 183.06L219.51 193.78L222.4 193.78L222.4 190.52L223.57 189.3L226.3 193.78L229.83 193.78ZM239.64 186.46C239.64 183.68 237.57 182.75 235 182.75C232.52 182.75 230.31 183.62 230.14 186.36L233.03 186.36C233.07 185.21 233.76 184.71 235 184.71C236.13 184.71 236.75 185.21 236.75 186.06C236.75 187.25 235.06 187.4 233.26 187.85C231.49 188.3 229.83 189.21 229.83 191.21C229.83 193.19 231.28 194.09 233.24 194.09C235.99 194.09 236.65 191.72 236.65 191.72L236.75 191.72L236.75 193.78L239.64 193.78L239.64 186.46ZM251.52 188.42C251.52 185.43 249.97 182.75 246.88 182.75C244.5 182.75 243.57 184.5 243.57 184.5L243.47 184.5L243.47 183.06L240.68 183.06L240.68 197.49L243.57 197.49L243.57 192.64L243.67 192.64C243.67 192.64 244.6 194.08 246.87 194.08C249.97 194.09 251.52 191.41 251.52 188.42ZM262.26 183.06L259.37 183.06L259.37 187.28L255.34 187.28L255.34 183.06L252.45 183.06L252.45 193.78L255.34 193.78L255.34 189.55L259.37 189.55L259.37 193.78L262.26 193.78L262.26 183.06ZM272.9 183.06L267.95 183.06C264.95 183.06 263.3 184.4 263.3 186.46C263.3 187.76 263.94 188.77 265.18 189.35L262.99 193.78L266.24 193.78L267.95 189.86L270.01 189.86L270.01 193.78L272.91 193.78L272.9 183.06ZM285.78 188.4C285.78 186.5 284.24 184.97 282.34 184.97C280.44 184.97 278.9 186.51 278.9 188.4C278.9 190.3 280.44 191.84 282.34 191.84C284.24 191.84 285.78 190.3 285.78 188.4ZM301.67 158.91L299.99 155.45C296.13 147.47 287.68 111.65 287.68 97.83C287.68 87.39 291.95 81.35 313.78 81.35L316.36 81.35L316.36 55.71L313.78 55.71C274.06 55.71 251.28 71.06 251.28 97.83C251.28 113.14 260.57 152.08 264.1 159.6L264.84 161.19L301.67 158.91ZM391.26 158.12L387.07 132.61L384.88 132.61C368.1 132.61 357.53 128.58 352.73 120.32C362.74 120.16 370.22 119.85 377.21 119.34L380.02 119.14L375.83 93.45L373.39 93.73C366.47 94.5 359.31 94.7 351.82 94.81C354.99 85.76 360.94 81.35 369.95 81.35C370.92 81.35 373.86 81.35 375.04 81.73L377.8 82.64L383.09 56.23L380.08 56.1C379.06 56.06 378.09 56 377.13 55.94C375.35 55.83 373.51 55.71 371.52 55.71C336.73 55.71 313.35 76.63 313.35 107.75C313.35 139.29 341.34 158.12 388.21 158.12L391.26 158.12ZM0 106C0 120.17 8.56 133.1 26.14 145.45C26.56 140.3 26.77 134.67 26.77 128.62C26.77 111.13 25.17 91.3 22 69.61C7.2 81.07 0 93 0 106ZM61.48 104.49C61.82 108.85 61.98 113.79 61.98 119.73C61.98 122.44 61.98 125.22 61.9 128.03C78.34 126.59 87.06 121.6 87.06 118.31C87.07 109.35 72.23 105.85 61.48 104.49ZM442.46 127.47L442.46 146.28C460.91 133.67 470 120.3 470 106C470 97.36 466.83 89.26 460.34 81.37L460.34 83.28L441.59 83.28C442.18 96.95 442.46 111.44 442.46 127.47Z" fill="#FFFFFF" fill-opacity="1.000000" fill-rule="nonzero"/>
</svg>
