<svg width="508.000000" height="295.000000" viewBox="0 0 508 295" fill="none" xmlns="http://www.w3.org/2000/svg" xmlns:xlink="http://www.w3.org/1999/xlink">
	<desc>
			Created with Pixso.
	</desc>
	<defs/>
	<path id="path" d="M0.3 163.12C4.63 159.02 8.97 154.88 13.25 150.78C14.41 149.67 14.56 148.25 14.61 146.74C14.61 145.42 15.11 144.46 16.48 144.01C20.1 142.74 23.78 142.19 27.56 142.69C27.97 142.74 28.37 142.94 29.02 143.15C26.66 145.17 23.78 145.47 21.21 146.64C23.98 146.28 26.81 145.93 29.68 145.52C30.43 147.6 31.14 149.52 31.95 151.59C32.55 151.29 33.06 151.09 33.51 150.73C37.59 147.75 41.67 144.76 45.65 141.68C50.44 137.99 55.73 135.61 61.58 134.3C62.08 134.2 62.54 134.05 63.24 133.89C62.79 132.93 62.44 132.07 61.98 131.06C62.89 129.34 63.85 127.47 64.91 125.35C63.5 125.09 62.39 124.89 61.23 124.64C57.4 123.73 55.83 120.54 57.55 117C59.97 112.1 62.44 107.19 65.06 102.34C65.96 100.67 65.86 99.46 64.86 97.84C63.8 96.12 63.14 94.15 62.39 92.23C61.73 90.66 62.08 89.34 63.09 87.93C65.76 84.19 66.47 79.79 67.22 75.24C66.17 74.93 65.26 74.63 64.4 74.38C59.46 72.96 55.03 70.69 51.5 66.84C50.64 65.88 49.84 64.87 49.23 63.76C47.97 61.53 48.53 59.66 50.9 58.75C53.11 57.84 55.43 57.18 57.75 56.63C66.97 54.56 76.25 54.4 85.57 55.67C100.18 57.69 114.45 61.03 128.2 66.44C128.51 66.54 128.86 66.59 129.16 66.69C112.03 58.6 94.04 55.26 75.84 50.97C75.84 50.51 75.84 50.16 75.94 49.9C80.03 39.84 82.34 29.27 84.51 18.7C85.42 14.1 86.27 9.45 87.08 4.8C87.38 2.93 88.24 1.92 90.16 1.56C92.73 1.11 95.3 0.55 98.17 0C96.61 15.22 94.59 30.03 92.07 45.2C93.78 42.82 96.25 34.28 98.42 23.26C99.88 15.87 101.24 8.44 102.65 0.85L105.83 0.85C104.97 11.57 102.91 21.94 101.14 32.36C104.47 22.14 106.58 11.68 108.5 0.91C109.36 1.06 110.06 1.16 110.77 1.31C120.34 3.43 129.92 5.66 139.19 9.05C147.96 12.23 156.02 16.63 162.98 22.95C164.34 24.22 165.4 25.78 166.51 27.3C167.41 28.56 167.01 29.93 166.61 31.24C164.84 37.06 162.88 42.82 161.37 48.74C159.25 57.03 157.43 65.43 155.42 73.77C154.76 76.55 155.42 78.62 157.38 80.75C160.51 84.04 163.38 87.57 166.25 91.06C168.02 93.19 169.18 95.67 169.78 98.4C170.59 102.09 168.88 104.51 165.15 104.82C161.21 105.17 157.28 105.27 153.15 105.53C153.96 108.31 156.28 109.82 158.44 111.59C156.83 112.66 155.42 111.69 153.76 111.34C154.51 113.92 156.78 114.78 158.44 116.55C156.58 117.21 154.92 117.76 153.15 118.42C152.8 120.95 152.95 123.58 150.88 125.75C150.43 124.74 150.03 123.83 149.62 122.92C149.47 124.29 148.87 125.6 148.72 126.97C148.46 128.84 148.21 130.71 148.01 132.58C147.71 135.26 146.3 136.57 143.68 137.23C138.49 138.6 133.24 139.96 128.2 141.78C120.6 144.56 113.09 147.65 105.58 150.83C99.38 153.46 93.23 156.29 86.53 157.51C86.07 157.61 85.62 157.91 84.86 158.32C88.14 168.43 91.47 178.49 94.74 188.55C94.74 178.54 92.17 169.19 87.64 160.29C88.19 159.93 88.49 159.68 88.89 159.53C103.61 153.11 118.38 146.74 133.85 142.24C138.94 140.77 144.08 139.46 149.37 139.05C149.77 139.05 150.23 138.95 150.63 138.95C152.39 138.95 152.9 139.41 152.35 141.07C151.03 145.12 151.54 149.01 153 152.91C153.91 155.23 154.71 157.56 155.57 159.88C156.14 161.37 155.77 162.65 154.46 163.73C154.46 163.73 154.11 164.08 153.76 164.49C154.16 165.4 154.61 166.41 155.12 167.37C157.23 171.41 160.06 174.95 163.08 178.39C165.75 181.43 168.42 184.46 171.04 187.49C171.75 188.3 172.35 189.21 173.21 190.38C151.24 195.89 130.22 203.07 110.97 214.6C105.68 217.78 100.74 221.42 95.6 224.86C95.3 225.06 95.04 225.37 94.89 225.87C118.98 209.59 146 201.3 174.57 196.75C175.17 198.57 175.93 200.18 176.33 201.9C178.95 213.08 181.68 224.25 183.94 235.48C185.91 245.14 187.37 254.9 188.93 264.66C189.39 267.59 189.54 270.62 189.79 273.61C189.84 274.26 189.74 274.92 189.69 275.78C189.03 275.58 188.53 275.48 188.08 275.27C179.36 271.13 170.03 268.9 160.56 267.29C148.46 265.26 136.27 264.45 124.02 264.71C112.78 264.91 101.7 266.53 90.71 268.8C76.2 271.74 61.88 275.32 47.97 280.58C38.75 284.07 29.93 288.37 21.41 293.38C20.46 293.93 19.5 294.39 18.29 295C16.93 283.57 13.9 272.75 10.68 261.93C20.81 255.05 30.18 247.77 36.94 237.65C29.07 246.15 20.31 253.53 10.43 260.26C7.55 253.33 5.03 246.45 2.21 239.32C17.68 236.59 31.24 230.17 42.98 219.15C43.79 224.1 44.65 228.65 43.54 233.2C41.17 242.46 39.71 251.86 38.95 261.37C38.8 262.99 38.95 264.6 39 266.27C43.03 229.87 54.93 195.89 70.15 162.31C71.86 164.69 73.32 166.66 74.68 168.68C78.82 175 83.35 181.02 88.59 186.48C90.31 188.25 92.17 189.92 94.04 191.74C91.16 194.47 88.34 197.05 85.57 199.73C73.62 211.41 63.55 224.61 55.33 239.17C55.03 239.73 54.88 240.44 54.63 241.04C54.17 241.65 53.67 242.26 53.21 242.86C53.52 242.15 54.32 241.75 54.63 241.04C55.13 240.49 55.63 239.98 56.04 239.37C76.95 206.96 104.67 182.03 138.79 164.28C139.49 163.93 140.2 163.47 140.65 162.67C137.43 164.18 134.2 165.6 130.98 167.22C119.08 173.18 107.95 180.31 97.61 188.76C96.71 189.52 95.7 190.07 94.54 190.83C88.04 183.7 81.94 176.57 76.65 168.53C77.76 167.47 78.76 166.41 79.87 165.45C80.93 164.54 81.23 163.58 80.63 162.31C80.18 161.4 79.87 160.39 79.42 159.18C78.66 159.18 77.81 159.23 77 159.33C75.79 159.43 74.58 159.48 73.42 159.63C68.28 160.44 64.6 153.97 66.32 150.02C66.77 149.01 67.22 148 67.78 147.04C68.99 144.82 68.69 143.45 66.57 142.08C64.99 141.04 64.27 139.57 64.4 137.69C62.59 137.99 60.98 138.55 59.41 139.46C52.06 143.85 45.65 149.32 40.01 155.74C42.63 158.92 42.28 160.24 38.6 162.41C37.19 163.22 35.73 163.98 34.27 164.69C33.21 165.19 32.5 165.9 32.3 167.17C32 168.94 31.59 170.65 31.19 172.58C31.64 172.68 31.95 172.83 32.25 172.83C35.27 172.73 37.44 174.24 39.1 176.67C39.76 177.63 40.31 178.64 41.72 178.9C42.43 179.05 43.13 180.11 43.44 180.92C44.19 182.84 44.75 184.81 45.25 186.79C45.81 188.86 44.85 189.87 42.68 189.52C42.33 189.46 41.98 189.36 41.72 189.21C39.86 188 38.5 188.96 37.24 190.22C35.68 191.74 35.02 193.71 35.07 195.84C35.17 200.79 36.13 205.6 39.35 209.54C41.07 211.61 41.67 213.84 40.87 216.47C40.67 217.17 41.07 218.03 41.72 218.94C41.27 219.45 40.92 220.01 40.41 220.41C39.56 221.12 38.65 221.78 37.64 222.28C27.91 227.59 17.68 231.64 6.85 234.01C5.69 234.27 4.53 234.27 2.92 234.47C5.89 227.14 10.07 221.22 15.87 215.96C17.73 218.49 19.55 220.92 21.31 223.34C21.11 222.74 21.21 221.98 20.96 221.37C16.02 211.11 11.03 200.84 6.04 190.58C5.49 189.41 4.88 188.25 4.08 187.29C2.72 185.62 2.52 183.8 2.67 181.73C2.82 179.71 2.82 177.63 2.52 175.61C2.16 172.83 1.51 170.05 0.9 167.27C0.75 166.56 0.3 165.9 0 165.19C0 164.49 0.3 163.83 0.3 163.12ZM16.12 160.24C14.06 163.12 12.24 165.55 10.43 168.08C11.03 169.29 11.54 170.4 12.14 171.62C13.9 169.79 16.48 164.74 16.68 162.61C16.73 162.01 16.37 161.4 16.12 160.24Z" fill="#FFFFFF" fill-opacity="1.000000" fill-rule="nonzero"/>
	<path id="path" d="M369.66 165.75L375.75 165.75L375.75 184.05C373.28 184.61 370.87 184.26 368.09 184.31L368.09 172.07L343.4 172.07L343.4 184.16L335.99 184.16C335.49 182.34 335.34 169.19 335.84 165.85C336.44 165.8 337.1 165.7 337.75 165.65C341.28 165.4 342.85 163.98 343.1 160.39C343.3 157.91 343.3 155.43 343.35 152.96C343.85 123.98 344.31 94.96 344.81 65.98C344.81 65.22 344.91 64.47 344.96 63.51L369.66 63.51C369.66 72 369.66 80.44 369.66 88.89C369.66 97.38 369.66 105.88 369.66 114.38L369.66 165.75ZM361.64 165.6L361.64 69.78C358.52 69.78 355.6 69.57 352.57 69.88C352.57 70.74 352.47 71.34 352.47 71.9C352.32 80.65 352.17 89.4 352.02 98.14C351.77 115.89 351.56 133.64 351.21 151.44C351.11 156.04 351.41 160.74 349.55 165.14L361.64 165.6Z" fill="#FFFFFF" fill-opacity="1.000000" fill-rule="nonzero"/>
	<path id="path" d="M486.33 63.35C489.6 63.35 492.52 63.35 495.45 63.35C495.95 63.35 496.45 63.45 497.21 63.51C500.79 99.56 504.42 135.56 508 171.72L499.93 171.72C498.97 160.03 497.97 148.3 496.96 136.42L486.53 136.42C485.52 148.15 484.56 159.93 483.55 171.72L475.49 171.72C479.12 135.56 482.75 99.66 486.33 63.35ZM496.35 129.95C494.89 112.3 493.43 94.91 491.97 77.51C490.05 94.91 488.59 112.35 487.23 129.95L496.35 129.95Z" fill="#FFFFFF" fill-opacity="1.000000" fill-rule="nonzero"/>
	<path id="path" d="M322.43 171.82L314.37 171.82C313.41 160.03 312.41 148.35 311.45 136.52L301.07 136.52C299.86 148.15 299.2 159.88 297.99 171.77L289.98 171.77C293.61 135.61 297.19 99.61 300.76 63.51L311.65 63.51C315.23 99.61 318.86 135.51 322.43 171.82ZM305.95 77.87C304.49 95.31 303.08 112.55 301.62 130.05C304.39 130.05 306.76 130.05 309.13 130.05C309.63 130.05 310.14 129.95 310.59 129.85C310.79 125.65 306.71 79.74 305.95 77.87Z" fill="#FFFFFF" fill-opacity="1.000000" fill-rule="nonzero"/>
	<path id="path" d="M391.53 171.82L391.53 63.51L399.04 63.51L399.04 95.92C400.3 95.92 401.31 95.92 402.26 96.02C404.23 96.12 406.24 96.02 408.11 96.37C413.9 97.59 418.09 102.64 418.34 108.61C418.44 110.43 418.34 112.2 418.34 114.02C418.34 128.53 418.34 143 418.34 157.51C418.34 158.77 418.34 160.09 418.19 161.35C417.58 167.42 414.06 171.31 408.06 171.72C402.62 172.12 397.22 171.82 391.53 171.82ZM399.24 165.75C400.45 165.75 401.41 165.75 402.31 165.75C403.32 165.75 404.38 165.75 405.39 165.75C407.66 165.55 409.82 163.93 410.33 161.91C410.58 161 410.58 160.04 410.58 159.08C410.58 142.34 410.58 125.65 410.58 108.91C410.58 108.41 410.58 107.9 410.58 107.4C410.38 105.02 408.66 102.9 406.35 102.54C404.03 102.19 401.66 102.29 399.29 102.49L399.24 165.75Z" fill="#FFFFFF" fill-opacity="1.000000" fill-rule="nonzero"/>
	<path id="path" d="M434.67 63.51L458.25 63.51L458.25 69.67L442.23 69.67C442.23 83.68 442.23 97.43 442.23 111.54C444.5 111.54 446.51 111.54 448.58 111.54C452.86 111.64 456.29 113.52 458.96 116.85C460.72 119.08 461.53 121.66 461.53 124.49C461.53 136.07 461.53 147.65 461.53 159.23C461.08 167.22 456.89 171.77 448.93 171.87C444.24 171.92 439.56 171.87 434.67 171.87L434.67 63.51ZM442.43 117.81L442.43 165.7C444.65 165.7 446.71 165.8 448.73 165.7C451.55 165.5 453.52 163.27 453.72 160.44C453.72 159.68 453.72 158.92 453.72 158.11C453.72 147.5 453.72 136.88 453.72 126.26C453.72 125.3 453.72 124.39 453.72 123.43C453.57 120.29 451.55 118.07 448.48 117.86C446.51 117.71 444.6 117.81 442.43 117.81Z" fill="#FFFFFF" fill-opacity="1.000000" fill-rule="nonzero"/>
	<path id="path" d="M225.57 63.51L233.33 63.51C232.93 66.34 232.63 68.92 232.22 71.55C229.15 92.18 226.13 112.76 223 133.34C221.69 141.98 220.38 150.63 218.97 159.28C218.72 160.95 218.11 162.61 217.51 164.18C215.14 170 210.76 172.63 204.2 172.27L204.2 166.41C209.04 165.19 210.86 161.4 211.66 157C212.47 152.8 212.97 148.51 213.53 144.26C213.63 143.5 213.53 142.74 213.43 141.98C211.61 130.56 209.8 119.13 207.98 107.7C205.72 93.49 203.4 79.28 201.13 65.02C201.08 64.62 201.13 64.16 201.03 63.61C203.55 62.95 205.97 63.45 208.64 63.25C211.56 82.97 214.43 102.44 217.26 121.91C220.03 102.49 222.8 83.02 225.57 63.51Z" fill="#FFFFFF" fill-opacity="1.000000" fill-rule="nonzero"/>
	<path id="path" d="M268.41 145.37L275.82 145.37C275.92 145.78 276.07 146.18 276.07 146.58C276.07 151.29 276.17 156.04 275.97 160.74C275.67 168.02 271.58 172.12 264.28 172.37C261.91 172.47 259.44 172.32 257.17 171.77C252.74 170.76 250.12 167.77 249.21 163.32C248.96 161.91 248.8 160.44 248.8 158.97C248.8 131.42 248.8 103.86 248.8 76.3C248.8 67.65 252.74 63.45 261.3 63C263.32 62.9 265.44 63.05 267.4 63.51C272.34 64.62 275.46 67.9 275.77 72.96C276.12 78.52 275.87 84.09 275.87 89.85L268.41 89.85C268.41 89.09 268.26 88.33 268.26 87.62C268.26 83.53 268.06 79.38 268.26 75.29C268.46 71.8 265.28 69.22 262.61 69.22C259.04 69.22 256.67 71.39 256.51 75.08C256.51 75.69 256.51 76.3 256.51 76.91C256.51 104.11 256.51 131.31 256.51 158.52C256.51 159.28 256.51 160.09 256.51 160.84C256.82 164.13 259.29 166.26 262.61 166.2C265.69 166.2 268.36 163.32 268.26 160.39C268.06 156.29 268.21 152.15 268.26 148.05C268.26 147.24 268.36 146.33 268.41 145.37Z" fill="#FFFFFF" fill-opacity="1.000000" fill-rule="nonzero"/>
	<path id="path" d="M362.75 231.33C362.75 227.03 362.75 222.79 362.75 218.49C362.75 215.3 364.21 213.99 367.34 214.04C370.01 214.09 371.32 215.3 371.42 217.93C371.52 219.91 371.42 221.88 371.42 223.85C371.42 230.17 371.42 236.54 371.42 242.86C371.42 243.37 371.42 243.87 371.42 244.43C371.32 248.22 367.94 250.19 364.62 248.37C363.05 247.51 362.7 246.05 362.7 244.43C362.7 240.08 362.75 235.68 362.75 231.33ZM368.9 231.48C368.9 227.44 368.9 223.44 368.9 219.4C368.9 218.79 369.05 218.08 368.8 217.63C368.5 217.02 367.89 216.37 367.34 216.16C366.43 215.86 365.68 216.47 365.42 217.38C365.27 217.93 365.32 218.54 365.32 219.15C365.32 227.39 365.32 235.58 365.32 243.82C365.32 244.33 365.32 244.88 365.42 245.34C365.68 246.3 366.38 246.91 367.29 246.65C367.89 246.5 368.55 245.85 368.85 245.29C369.1 244.83 368.95 244.13 368.95 243.52C368.95 239.47 368.9 235.53 368.9 231.48Z" fill="#FFFFFF" fill-opacity="1.000000" fill-rule="nonzero"/>
	<path id="path" d="M461.88 248.58L459.61 248.58L459.61 231.74L455.94 231.74L455.94 248.47C455.03 248.58 454.37 248.63 453.57 248.68L453.57 214.29L455.84 214.29L455.84 229.26C456.59 229.36 457.1 229.46 457.55 229.46C458.05 229.46 458.56 229.46 459.36 229.36C459.77 224.36 459.26 219.35 459.61 214.24L461.83 214.24L461.88 248.58Z" fill="#FFFFFF" fill-opacity="1.000000" fill-rule="nonzero"/>
	<path id="path" d="M432.45 248.53C431.54 248.58 430.89 248.63 429.93 248.73C429.58 245.04 429.23 241.4 428.87 237.6L425.7 237.6C425.4 241.19 425.04 244.73 424.69 248.53C423.93 248.63 423.23 248.68 422.17 248.78C423.18 237.15 424.39 225.82 425.55 214.34L429.02 214.34C430.18 225.67 431.29 236.9 432.45 248.53ZM428.67 235.23C428.27 230.37 427.86 225.77 427.46 221.17C427.06 225.82 426.25 230.42 425.85 235.13C426.35 235.23 426.71 235.33 427.01 235.38C427.41 235.38 427.86 235.28 428.67 235.23Z" fill="#FFFFFF" fill-opacity="1.000000" fill-rule="nonzero"/>
	<path id="path" d="M395.56 235.18L395.56 248.47L393.14 248.47L393.14 214.19C394.96 214.19 396.72 214.04 398.48 214.19C400.45 214.39 401.61 215.66 401.66 217.63C401.76 222.18 401.76 226.73 401.66 231.23C401.61 233.41 400.45 234.42 398.28 234.72C397.42 234.87 396.62 235.07 395.56 235.18ZM395.71 232.65C398.68 233 399.19 232.65 399.19 230.07C399.19 226.38 399.19 222.74 399.19 219.05C399.19 216.47 398.68 216.11 395.71 216.47L395.71 232.65Z" fill="#FFFFFF" fill-opacity="1.000000" fill-rule="nonzero"/>
	<path id="path" d="M249.56 235.13L249.56 248.48C248.7 248.53 248.05 248.58 247.24 248.63L247.24 214.14C248.96 214.14 250.57 214.04 252.18 214.14C254.35 214.34 255.56 215.46 255.61 217.63C255.76 222.18 255.76 226.73 255.61 231.28C255.56 233.51 254.5 234.47 252.28 234.82C251.53 234.92 250.77 234.97 249.56 235.13ZM249.71 232.5C252.53 233 253.19 232.55 253.24 230.02C253.29 226.33 253.29 222.64 253.24 218.94C253.24 216.47 252.53 216.01 249.71 216.47L249.71 232.5Z" fill="#FFFFFF" fill-opacity="1.000000" fill-rule="nonzero"/>
	<path id="path" d="M310.39 240.38L312.66 240.38C312.76 240.69 312.91 240.89 312.91 241.14C312.91 242.61 313.01 244.08 312.91 245.49C312.71 247.72 311.25 248.83 308.83 248.88C306.31 248.93 304.69 247.77 304.34 245.59C304.24 244.99 304.29 244.38 304.29 243.77C304.29 235.53 304.29 227.29 304.29 219.05C304.29 218.69 304.29 218.34 304.29 218.03C304.44 215.2 305.8 213.94 308.78 213.99C311.55 213.99 312.86 215.25 313.01 218.03C313.06 219.45 313.01 220.92 313.01 222.53C312.15 222.59 311.5 222.64 310.54 222.69C310.54 221.12 310.54 219.7 310.44 218.29C310.39 217.63 310.19 216.87 309.79 216.47C308.88 215.56 307.32 216.11 306.96 217.38C306.81 217.93 306.86 218.59 306.86 219.15C306.86 227.29 306.86 235.43 306.86 243.57C306.86 244.08 306.86 244.58 306.86 245.09C307.01 246.1 307.67 246.65 308.63 246.65C309.68 246.65 310.44 246.1 310.44 244.94C310.44 243.47 310.39 242.15 310.39 240.38Z" fill="#FFFFFF" fill-opacity="1.000000" fill-rule="nonzero"/>
	<path id="path" d="M277.03 214.24L283.02 214.24C283.02 214.85 283.07 215.3 283.12 216.01C281.97 216.11 280.91 216.21 279.85 216.32C279.19 218.03 279.04 226.28 279.65 229.36C280.66 229.46 281.76 229.56 282.97 229.66L282.97 231.43C281.76 231.54 280.71 231.59 279.45 231.69L279.45 246.5C280.6 246.65 281.76 246.76 282.97 246.91C282.97 247.46 283.02 247.97 283.07 248.58L276.98 248.58L277.03 214.24Z" fill="#FFFFFF" fill-opacity="1.000000" fill-rule="nonzero"/>
	<path id="path" d="M338.86 248.58L336.44 248.58L336.44 216.47C335.34 216.32 334.53 216.21 333.52 216.06C333.52 215.56 333.42 215 333.37 214.29L341.59 214.29C341.69 214.75 341.79 215.25 341.89 215.96C340.93 216.11 340.12 216.21 338.91 216.37C338.71 221.68 338.86 227.04 338.81 232.4C338.81 237.7 338.86 243.01 338.86 248.58Z" fill="#FFFFFF" fill-opacity="1.000000" fill-rule="nonzero"/>
</svg>
