<svg width="509.000000" height="166.000000" viewBox="0 0 509 166" fill="none" xmlns="http://www.w3.org/2000/svg" xmlns:xlink="http://www.w3.org/1999/xlink">
	<desc>
			Created with Pixso.
	</desc>
	<defs/>
	<path id="path" d="M448.29 102.79L482.94 102.79C480.38 111.58 472.28 115.98 458.64 115.98L429.42 115.98C421.41 115.98 417.39 113.04 417.39 107.16C417.39 105.79 417.64 104.33 418.15 102.79L429.25 69.9L385.67 108.23C379.77 113.39 372.98 115.97 365.3 115.97L351.27 115.97L385.33 20.77L338.66 20.77L351.43 0L403.45 0C412.97 0 417.73 3.55 417.73 10.64C417.73 13.05 417.17 15.85 416.06 19.04L395.78 78.47L482.94 0L509 0L440.7 59.93L447.04 59.93C454.83 59.93 458.73 63.32 458.73 70.07C458.73 72.33 458.2 74.91 457.14 77.82L448.29 102.79ZM340.17 38.5C340.17 48.56 336.63 59.19 329.56 70.4C320.2 85.18 306.62 96.64 288.81 104.77C272.39 112.24 254.75 115.98 235.87 115.98L208.32 115.98L208.35 115.88L167.57 115.88L151.87 158.74L121.98 158.74L137.68 115.88L112.05 115.88C83.99 149.29 56.57 166 29.8 166C22.01 166 15.44 164.57 10.1 161.71C3.36 158.09 0 152.76 0 145.72C0 139.73 2.5 133.88 7.51 128.17C15.58 118.99 27.8 112.2 44.17 107.81C56.97 104.4 71.11 102.7 86.58 102.7L102.78 102.7L153.38 42.77L193.62 42.77L172.09 102.7L213.08 102.7L238.56 31.41L268.7 31.41L263.14 46.88C263.13 46.65 263.01 45.73 262.93 45.26C262.77 44.4 262.37 43.59 261.44 43.24C260.43 42.85 259.43 42.47 258.41 42.12C257.35 41.75 256.26 41.43 255.19 41.08C255.02 41.02 254.86 40.89 254.73 40.76C254.33 40.35 253.83 40.27 253.31 40.37C252.85 40.45 252.67 40.8 252.61 41.23C252.5 41.98 253.4 42.69 254.18 42.49C254.37 42.44 254.59 42.42 254.79 42.46C255.28 42.55 255.76 42.74 256.25 42.78C257 42.85 257.26 43.5 257.75 43.88C257.8 43.92 257.81 44.03 257.83 44.1C257.95 44.51 258.07 44.91 258.21 45.35C257.73 46.15 257.67 47.11 257.77 48.07C257.82 48.51 257.78 48.84 257.36 49.07C257.27 49.13 257.21 49.23 257.13 49.32C256.35 50.1 256 51.19 255.11 51.91C254.63 52.29 254.31 52.87 253.91 53.37C253.79 53.34 253.61 53.26 253.42 53.26C252.96 53.24 252.76 53.01 252.63 52.6C252.56 52.39 252.33 52.23 252.19 52.04C251.92 51.65 251.57 51.27 251.39 50.83C251.18 50.29 251.12 49.69 250.98 49.11C250.97 49.04 250.88 48.99 250.82 48.93C250.65 48.74 250.46 48.57 250.31 48.35C249.8 47.64 249.53 46.73 248.62 46.35C248.55 46.31 248.5 46.19 248.46 46.11C248.28 45.61 247.92 45.36 247.41 45.24C247.16 45.18 246.78 45.07 246.73 44.9C246.6 44.48 246.26 44.38 245.95 44.21C245.71 44.08 245.47 43.94 245.24 43.82C245.37 43.33 245.71 43.18 246.09 43.09C246.53 42.98 246.97 42.89 247.4 42.78C247.76 42.68 248.03 42.44 247.91 42.06C247.76 41.55 247.5 41.06 247.29 40.56C247.32 40.56 247.36 40.57 247.39 40.57C247.41 40.25 247.43 39.93 247.45 39.6C248.15 39.16 248.17 39.01 247.52 38.44C247.33 38.28 247.13 38.12 246.97 37.94C246.88 37.84 246.82 37.69 246.8 37.56C246.73 37.27 246.76 36.95 246.64 36.69C246.39 36.12 246.06 35.59 245.76 35.02C246.37 34.24 246.36 33.48 245.68 32.77C245.52 32.59 245.17 32.56 244.91 32.66C244.61 32.77 244.3 32.85 243.91 32.97C243.85 33.16 243.7 33.33 243.33 33.21C243.12 33.15 242.86 33.15 242.64 33.2C242.25 33.28 241.88 33.44 241.5 33.56C241 33.71 240.44 33.75 240.11 34.24C240.08 34.29 239.97 34.34 239.95 34.33C239.62 34.06 239.56 34.44 239.45 34.57C239.28 34.78 239.15 35.03 239.02 35.27L238.52 35.27C238.64 35.45 238.72 35.57 238.81 35.71C238.36 35.99 238.01 36.31 238.32 36.87C238.36 36.93 238.29 37.03 238.29 37.11C238.32 37.58 238.27 38.07 238.39 38.51C238.73 39.66 239.3 40.69 240.06 41.62C240.22 41.81 240.28 42.06 240.44 42.43C239.61 42.21 239.61 42.71 239.45 43.16C239.32 43.52 239.02 43.83 238.77 44.15C238.71 44.22 238.53 44.26 238.45 44.23C237.95 44.03 237.55 44.28 237.13 44.49C236.91 44.6 236.69 44.74 236.45 44.79C235.61 44.96 235.08 45.56 234.54 46.14C234.36 46.34 234.29 46.67 234.26 46.95C234.14 47.98 234.11 49.01 233.95 50.03C233.86 50.62 233.96 51.13 234.25 51.63C234.35 51.79 234.49 51.99 234.47 52.16C234.35 52.89 234.74 53.45 235.06 54.04C235.16 54.21 235.3 54.41 235.28 54.58C235.21 55.18 235.47 55.66 235.68 56.18C235.78 56.42 235.77 56.71 235.78 56.98C235.82 57.57 235.84 58.17 235.86 58.76C235.87 58.97 235.88 59.19 235.86 59.39C235.71 60.45 235.47 61.5 235.4 62.55C235.24 64.9 235.17 67.24 235.07 69.59C235.06 69.67 235.09 69.74 235.11 69.82C235.34 69.78 235.54 69.74 235.84 69.68C235.8 69.94 235.78 70.1 235.74 70.26C235.61 70.77 235.57 71.26 236.04 71.66C236.11 71.71 236.13 71.85 236.14 71.96C236.17 72.38 236.13 72.82 236.23 73.22C236.38 73.75 236.53 74.23 236.14 74.71C236.08 74.79 236.07 74.95 236.11 75.04C236.43 75.7 236.2 76.37 236.17 77.03C236.13 77.84 236.04 78.65 235.99 79.46C235.98 79.61 236.02 79.75 236.02 79.9C236.04 80.27 236.12 80.65 236.07 81.01C236 81.46 235.49 81.78 235.66 82.34C235.72 82.54 235.55 82.82 235.44 83.19C235.42 83.23 235.36 83.42 235.27 83.58C235.04 83.98 234.83 84.39 234.87 84.87C234.87 84.89 234.83 84.92 234.8 84.94C234.19 85.38 234.02 86.03 233.86 86.71C233.5 88.19 233.01 89.65 232.75 91.15C232.4 93.22 232.05 95.3 232.43 97.42C232.44 97.51 232.37 97.69 232.28 97.72C231.59 98.05 231.63 98.65 232.14 99.18C232.57 99.61 232.58 99.98 232.25 100.47C231.99 100.88 231.82 101.34 232.33 101.74C232.4 101.79 232.41 101.99 232.39 102.1C232.2 103.12 232.02 104.14 231.82 105.15C231.64 106.01 231.93 106.66 232.79 106.79C233.66 106.93 234.57 106.88 235.46 106.82C235.66 106.81 235.97 106.44 235.98 106.22C236.03 105.71 235.92 105.19 235.88 104.67C235.85 104.25 235.81 103.82 235.81 103.4C235.82 102.88 235.86 102.36 235.9 101.77C236.3 101.73 236.23 101.35 236.28 101.01C236.35 100.53 236.07 99.99 236.5 99.57C236.9 99.17 237.06 98.76 236.57 98.31C236.98 97.7 237.18 97.07 236.77 96.44C236.5 96.04 236.58 95.72 236.68 95.31C237.23 93.11 237.75 90.9 238.28 88.69C238.29 88.64 238.23 88.57 238.25 88.51C238.27 88.32 238.26 88.1 238.37 87.96C238.64 87.61 238.97 87.32 239.26 87C239.31 86.94 239.37 86.82 239.34 86.78C239.11 86.37 239.43 86.24 239.67 86.04C239.79 85.96 239.86 85.81 239.91 85.68C240.14 85.12 240.37 84.56 240.57 83.99C241.14 82.37 241.7 80.74 242.26 79.11C242.32 78.94 242.4 78.79 242.52 78.5C242.86 79.7 242.82 80.77 242.68 81.84C242.57 82.66 242.26 83.48 242.64 84.31C242.68 84.39 242.6 84.52 242.6 84.63C242.6 84.86 242.53 85.13 242.63 85.32C242.76 85.58 242.83 85.75 242.61 86.01C242.5 86.15 242.51 86.41 242.47 86.61C242.43 86.82 242.41 87.02 242.37 87.22C242.34 87.36 242.27 87.49 242.25 87.64C242.18 88.05 242.12 88.46 242.07 88.87C241.87 90.53 241.61 92.18 241.5 93.85C241.41 95.23 241.48 96.62 241.48 98C240.79 98.26 240.35 99.47 240.75 100.03C241.2 100.66 241.12 101.38 240.94 101.96C240.59 103.05 240.52 104.14 240.52 105.25C240.52 105.61 240.67 105.75 241.01 105.77C241.69 105.82 242.37 105.89 243.05 105.94C243.48 105.97 243.96 106.06 243.95 105.38C244.52 105.47 245.08 105.43 245.53 105.62C246.75 106.13 248 106.14 249.26 106.07C249.95 106.02 250.64 105.89 251.32 105.74C251.79 105.65 251.87 105.41 251.69 104.98C251.63 104.83 251.58 104.67 251.53 104.51C251.42 104.18 251.18 104 250.83 103.99C250.61 103.98 250.39 104 250.18 103.98C249.11 103.82 248.09 103.57 247.43 102.59C247.55 102.66 247.68 102.73 247.79 102.8C247.81 102.76 247.84 102.72 247.87 102.69C247.81 102.65 247.77 102.61 247.72 102.57C257.11 101.77 266.43 98.51 275.68 92.81C286.45 86.16 294.31 77.94 299.27 68.16C303.72 59.54 305.95 52.34 305.95 46.56C305.95 37.11 303.28 30.33 297.93 26.2C293.15 22.58 285.8 20.77 275.89 20.77L195.15 20.77L208 0L288.83 0C302.8 0 314.43 2.91 323.73 8.73C334.68 15.61 340.17 25.54 340.17 38.5ZM91.51 115.89C70.64 115.89 56 118.85 47.6 124.79C40.64 129.73 37.16 134.98 37.16 140.53C37.16 145.26 39.67 147.62 44.68 147.62C51.58 147.62 60.21 143.77 70.56 136.08C79.63 129.43 86.62 122.7 91.51 115.89ZM159.73 56.46L123.16 102.7L141.78 102.7L159.73 56.46ZM262.26 44.25C262.22 44.15 262.1 44.02 261.99 43.99C261.28 43.85 260.57 43.74 259.86 43.59C259.4 43.5 259.22 43.86 259 44.11C258.77 44.37 258.83 44.64 259.08 44.88C259.3 44.77 259.49 44.6 259.7 44.56C259.87 44.54 260.22 44.64 260.23 44.73C260.29 45.08 260.42 45.32 260.79 45.41C260.84 45.42 260.88 45.5 260.9 45.56C261.04 45.95 261.16 46.35 261.29 46.74C261.31 46.81 261.42 46.85 261.44 46.92C261.51 47.13 261.66 47.38 261.6 47.55C261.47 47.88 261.21 48.15 261.04 48.46C260.78 48.65 260.54 48.94 260.37 49.22C260.36 49.2 260.35 49.18 260.34 49.16C259.95 49.74 259.61 50.21 259.3 50.71C259.25 50.78 259.3 50.95 259.36 51.05C259.58 51.37 259.81 51.69 260.06 52.02C259.6 52.52 259.16 52.98 258.74 53.47C257.43 54.99 256.1 56.51 254.83 58.07C254.4 58.59 253.93 58.8 253.31 58.63C252.67 58.45 252.05 58.22 251.43 58C251.32 57.97 251.23 57.92 251.07 57.86C251.1 58.3 251.13 58.69 251.17 59.08C251.23 59.92 251.28 60.75 251.37 61.59C251.42 62.08 251.52 62.59 251.65 63.07C251.76 63.5 251.75 63.89 251.7 64.33C251.64 64.89 251.83 65.47 251.88 66.04C251.98 67.3 252.07 68.56 252.15 69.82C252.17 69.98 252.13 70.14 252.12 70.33C251.65 70.33 251.19 70.51 250.92 69.92C250.85 69.76 250.48 69.73 250.16 69.6C250.16 71.33 250.29 72.92 250.13 74.47C249.9 76.78 249.43 79.05 248.72 81.26C248.46 82.08 248.16 82.89 248.31 83.8C248.44 84.57 248.28 85.34 247.83 86.02C247.77 86.12 247.78 86.3 247.82 86.42C247.93 86.76 247.85 87.02 247.52 87.15C247.23 87.26 247.23 87.43 247.28 87.69C247.31 87.88 247.23 88.09 247.23 88.28C247.22 88.55 247.28 88.83 247.23 89.09C246.98 90.5 246.72 91.9 246.46 93.3C246.45 93.33 246.45 93.36 246.44 93.39L262.95 47.41C262.93 47.11 262.92 46.81 262.89 46.51C262.82 45.74 262.48 45 262.26 44.25ZM262.95 47.41C263 47.28 263.05 47.11 263.12 46.99C263.12 46.97 263.14 46.9 263.14 46.88L262.95 47.41ZM247.43 102.59C247.52 102.59 247.63 102.58 247.72 102.57C247.35 102.27 246.98 101.94 246.56 101.78C246.25 101.65 246.14 101.5 246.04 101.25C245.91 100.91 245.83 100.47 245.57 100.27C245.16 99.96 245.31 99.81 245.57 99.55C245.84 99.27 246.13 98.98 246.29 98.63C246.63 97.84 246.48 97.57 245.71 97.31C245.95 96 246.2 94.69 246.44 93.39L243.06 102.8C244.51 102.79 245.98 102.71 247.43 102.59ZM198.37 148.73L201.35 158.67L199.97 158.67L199.29 156.43L195.54 156.43L194.87 158.67L193.49 158.67L196.46 148.73L198.37 148.73ZM198.88 155.08L197.4 150.17L195.94 155.08L198.88 155.08ZM208.71 150.24C208.68 150.78 208.64 151.35 208.6 151.93C208.55 152.51 208.5 153.1 208.44 153.69C208.38 154.28 208.29 154.85 208.2 155.4C208.14 155.84 208.07 156.2 208 156.48C207.93 156.75 207.84 156.96 207.75 157.11C207.65 157.26 207.53 157.35 207.39 157.4C207.25 157.45 207.07 157.46 206.85 157.44L206.85 158.68C207.32 158.78 207.7 158.8 208 158.71C208.3 158.63 208.55 158.46 208.74 158.21C208.92 157.96 209.07 157.65 209.18 157.27C209.29 156.89 209.38 156.47 209.46 156C209.55 155.45 209.63 154.91 209.69 154.37C209.75 153.82 209.8 153.29 209.84 152.78C209.89 152.27 209.92 151.79 209.95 151.33C209.98 150.88 210.01 150.47 210.03 150.1L213.46 150.1L213.46 158.69L214.79 158.69L214.79 148.74L208.78 148.74C208.76 149.2 208.74 149.7 208.71 150.24ZM227.57 154.02C227.74 154.46 227.82 154.95 227.82 155.49C227.82 156.03 227.74 156.52 227.57 156.96C227.39 157.4 227.14 157.77 226.8 158.06C226.46 158.35 226.03 158.53 225.52 158.62C225.41 158.64 225.28 158.65 225.15 158.67C225.02 158.68 224.91 158.68 224.82 158.68L221.12 158.68L221.12 148.74L222.45 148.74L222.45 152.31L224.82 152.31C224.9 152.31 225.01 152.31 225.14 152.32C225.28 152.32 225.4 152.34 225.52 152.36C226.03 152.45 226.45 152.64 226.79 152.93C227.14 153.21 227.39 153.58 227.57 154.02ZM226.47 155.49C226.47 155.25 226.43 155 226.36 154.76C226.29 154.51 226.16 154.3 226 154.11C225.84 153.93 225.62 153.8 225.34 153.73C225.25 153.7 225.15 153.69 225.05 153.68C224.94 153.68 224.86 153.67 224.77 153.67L222.45 153.67L222.45 157.32L224.77 157.32C224.86 157.32 224.94 157.31 225.05 157.3C225.16 157.29 225.26 157.28 225.34 157.25C225.62 157.18 225.84 157.05 226 156.87C226.16 156.68 226.29 156.47 226.36 156.23C226.43 155.98 226.47 155.73 226.47 155.49ZM236.58 148.73L240.28 148.73L240.28 158.67L238.94 158.67L238.94 155.1L236.52 155.1L234.93 158.67L233.41 158.67L235.14 154.81C234.73 154.62 234.39 154.34 234.14 153.96C233.77 153.39 233.58 152.7 233.58 151.91C233.58 151.38 233.66 150.89 233.83 150.45C234.01 150 234.25 149.64 234.6 149.35C234.94 149.06 235.36 148.87 235.88 148.78C236 148.76 236.12 148.74 236.26 148.74C236.38 148.73 236.49 148.73 236.58 148.73ZM236.63 150.09C236.54 150.09 236.45 150.09 236.34 150.1C236.24 150.11 236.14 150.13 236.05 150.16C235.78 150.23 235.56 150.36 235.4 150.54C235.23 150.73 235.11 150.94 235.04 151.18C234.96 151.42 234.93 151.67 234.93 151.91C234.93 152.16 234.96 152.4 235.04 152.64C235.11 152.89 235.23 153.1 235.4 153.29C235.56 153.47 235.78 153.6 236.05 153.67C236.14 153.69 236.24 153.71 236.34 153.72C236.45 153.73 236.54 153.74 236.63 153.74L238.94 153.74L238.94 150.09L236.63 150.09ZM252.53 153.02L247.95 153.02L247.95 148.73L246.62 148.73L246.62 158.68L247.95 158.68L247.95 154.38L252.53 154.38L252.53 158.68L253.86 158.68L253.86 148.73L252.53 148.73L252.53 153.02ZM262.4 150.37C262.83 150.05 263.38 149.9 264.02 149.9C264.75 149.9 265.34 150.09 265.79 150.49C266.25 150.89 266.56 151.43 266.75 152.13L268.09 151.73C267.82 150.75 267.34 149.97 266.65 149.39C265.95 148.81 265.08 148.52 264.02 148.52C263.11 148.52 262.33 148.74 261.69 149.17C261.04 149.61 260.55 150.21 260.21 151C259.86 151.77 259.7 152.67 259.7 153.7C259.7 154.73 259.87 155.63 260.21 156.41C260.55 157.19 261.04 157.8 261.69 158.23C262.33 158.67 263.11 158.88 264.02 158.88C265.08 158.88 265.95 158.59 266.65 158.01C267.34 157.43 267.82 156.65 268.09 155.67L266.75 155.28C266.57 155.97 266.25 156.52 265.79 156.91C265.34 157.31 264.74 157.51 264.02 157.51C263.38 157.51 262.83 157.35 262.4 157.03C261.97 156.72 261.64 156.27 261.42 155.7C261.2 155.13 261.09 154.46 261.1 153.7C261.1 152.94 261.21 152.28 261.43 151.71C261.64 151.13 261.97 150.69 262.4 150.37ZM288.58 157.31L289.27 157.31L289.27 160.33L287.93 160.33L287.93 158.68L282.02 158.68L282.02 160.33L280.69 160.33L280.69 157.31C281.01 157.31 281.26 157.23 281.47 157.06C281.67 156.88 281.83 156.65 281.96 156.35C282.08 156.04 282.17 155.7 282.23 155.31C282.29 154.92 282.35 154.52 282.38 154.09C282.43 153.51 282.48 152.94 282.52 152.39C282.55 151.84 282.59 151.26 282.62 150.67C282.65 150.07 282.68 149.42 282.72 148.73L288.58 148.73L288.58 157.31ZM287.25 150.09L283.95 150.08C283.92 150.59 283.9 151.07 283.87 151.53C283.85 151.98 283.82 152.44 283.8 152.9C283.76 153.37 283.72 153.86 283.68 154.39C283.64 154.9 283.59 155.33 283.54 155.68C283.49 156.03 283.41 156.34 283.31 156.6C283.21 156.85 283.06 157.1 282.88 157.31L287.26 157.31L287.25 150.09ZM302.86 151C303.2 151.77 303.37 152.67 303.37 153.7C303.37 154.73 303.2 155.63 302.86 156.41C302.52 157.19 302.03 157.8 301.38 158.23C300.73 158.67 299.96 158.88 299.04 158.88C298.13 158.88 297.35 158.67 296.7 158.23C296.06 157.8 295.57 157.19 295.22 156.41C294.88 155.63 294.71 154.73 294.71 153.7C294.71 152.67 294.89 151.77 295.22 151C295.57 150.22 296.05 149.61 296.7 149.17C297.35 148.74 298.13 148.52 299.04 148.52C299.95 148.52 300.73 148.74 301.38 149.17C302.03 149.61 302.52 150.21 302.86 151ZM301.96 153.7C301.96 152.94 301.85 152.28 301.63 151.71C301.41 151.14 301.09 150.7 300.66 150.38C300.23 150.07 299.69 149.9 299.04 149.9C298.39 149.89 297.85 150.05 297.42 150.37C296.99 150.68 296.67 151.13 296.45 151.71C296.24 152.28 296.13 152.95 296.12 153.71C296.12 154.47 296.22 155.13 296.44 155.7C296.65 156.27 296.98 156.71 297.41 157.03C297.84 157.35 298.39 157.5 299.04 157.51C299.68 157.52 300.22 157.36 300.65 157.05C301.09 156.73 301.41 156.28 301.62 155.71C301.85 155.13 301.96 154.46 301.96 153.7ZM315.11 153.02L310.53 153.02L310.53 148.73L309.2 148.73L309.2 158.68L310.53 158.68L310.53 154.38L315.11 154.38L315.11 158.68L316.44 158.68L316.44 148.73L315.11 148.73L315.11 153.02ZM322.79 158.68L328.63 158.68L328.63 157.31L324.11 157.31L324.11 154.24L327.87 154.24L327.87 152.88L324.11 152.88L324.11 150.09L328.63 150.09L328.63 148.73L322.79 148.73L322.79 158.68ZM342.09 148.92L340.76 148.92L340.76 157.38L336.05 157.38L336.05 148.73L334.72 148.73L334.72 158.68L341.76 158.68L341.76 160.15L343.09 160.15L343.09 157.38L342.09 157.38L342.09 148.92ZM355.49 148.73L353.84 148.73L350 153.37L350 148.73L348.67 148.73L348.67 158.67L350 158.67L350 153.92L354.08 158.67L355.78 158.67L351.43 153.58L355.49 148.73ZM362.59 156.12L362.59 148.73L361.24 148.73L361.24 158.68L362.59 158.68L367.09 151.28L367.09 158.68L368.44 158.68L368.44 148.73L367.09 148.73L362.59 156.12ZM381.82 148.73L380.18 148.73L377.96 152.41L375.73 148.73L374.1 148.73L377.14 153.64L374.02 158.68L375.65 158.68L377.96 154.87L380.26 158.68L381.89 158.68L378.77 153.64L381.82 148.73ZM401.39 148.73L399.74 148.73L395.91 153.37L395.91 148.73L394.58 148.73L394.58 158.67L395.91 158.67L395.91 153.92L399.99 158.67L401.69 158.67L397.34 153.58L401.39 148.73ZM414.32 151C414.66 151.77 414.83 152.67 414.83 153.7C414.83 154.73 414.66 155.63 414.32 156.41C413.98 157.19 413.49 157.8 412.84 158.23C412.19 158.67 411.41 158.88 410.5 158.88C409.59 158.88 408.81 158.67 408.17 158.23C407.52 157.8 407.03 157.19 406.69 156.41C406.34 155.63 406.18 154.73 406.18 153.7C406.18 152.67 406.35 151.77 406.69 151C407.03 150.22 407.52 149.61 408.17 149.17C408.81 148.74 409.59 148.52 410.5 148.52C411.41 148.52 412.2 148.74 412.84 149.17C413.49 149.61 413.98 150.21 414.32 151ZM413.41 153.7C413.41 152.94 413.31 152.28 413.09 151.71C412.88 151.14 412.56 150.7 412.12 150.38C411.69 150.07 411.15 149.9 410.5 149.9C409.86 149.89 409.32 150.05 408.89 150.37C408.45 150.68 408.13 151.13 407.92 151.71C407.7 152.28 407.59 152.95 407.58 153.71C407.58 154.47 407.68 155.13 407.9 155.7C408.12 156.27 408.44 156.71 408.88 157.03C409.31 157.35 409.85 157.5 410.5 157.51C411.15 157.52 411.69 157.36 412.12 157.05C412.55 156.73 412.87 156.28 413.09 155.71C413.31 155.13 413.41 154.46 413.41 153.7ZM425.18 156.21L421.86 148.73L420.66 148.73L420.66 158.67L421.91 158.67L421.91 151.86L424.87 158.67L425.48 158.67L428.43 151.86L428.43 158.67L429.69 158.67L429.69 148.73L428.48 148.73L425.18 156.21ZM437.39 156.12L437.39 148.73L436.04 148.73L436.04 158.68L437.39 158.68L441.89 151.28L441.89 158.68L443.24 158.68L443.24 148.73L441.89 148.73L437.39 156.12ZM456.39 148.73L454.74 148.73L450.91 153.37L450.91 148.73L449.58 148.73L449.58 158.67L450.91 158.67L450.91 153.92L454.99 158.67L456.69 158.67L452.34 153.58L456.39 148.73ZM469.32 151C469.66 151.77 469.83 152.67 469.83 153.7C469.83 154.73 469.66 155.63 469.32 156.41C468.98 157.19 468.49 157.8 467.84 158.23C467.19 158.67 466.41 158.88 465.51 158.88C464.59 158.88 463.81 158.67 463.17 158.23C462.52 157.8 462.03 157.19 461.69 156.41C461.34 155.63 461.18 154.73 461.18 153.7C461.18 152.67 461.35 151.77 461.69 151C462.03 150.22 462.52 149.61 463.17 149.17C463.81 148.74 464.59 148.52 465.51 148.52C466.41 148.52 467.2 148.74 467.84 149.17C468.49 149.61 468.98 150.21 469.32 151ZM468.41 153.7C468.41 152.94 468.31 152.28 468.09 151.71C467.88 151.14 467.56 150.7 467.12 150.38C466.69 150.07 466.15 149.9 465.51 149.9C464.86 149.89 464.32 150.05 463.89 150.37C463.45 150.68 463.13 151.13 462.92 151.71C462.7 152.28 462.59 152.95 462.58 153.71C462.58 154.47 462.68 155.13 462.9 155.7C463.12 156.27 463.44 156.71 463.88 157.03C464.31 157.35 464.85 157.5 465.5 157.51C466.15 157.52 466.69 157.36 467.12 157.05C467.55 156.73 467.87 156.28 468.09 155.71C468.31 155.13 468.41 154.46 468.41 153.7ZM481.87 154.19C482.19 154.64 482.34 155.17 482.34 155.78C482.34 156.36 482.24 156.87 482.02 157.3C481.8 157.74 481.49 158.07 481.08 158.32C480.67 158.56 480.18 158.68 479.6 158.68L475.66 158.68L475.66 148.73L479.25 148.73C479.84 148.73 480.32 148.86 480.72 149.12C481.11 149.38 481.41 149.71 481.61 150.12C481.81 150.53 481.91 150.96 481.91 151.41C481.91 151.95 481.79 152.42 481.54 152.82C481.37 153.07 481.17 153.27 480.93 153.42C481.32 153.59 481.64 153.85 481.87 154.19ZM477.01 152.79L479.24 152.79C479.49 152.79 479.71 152.74 479.91 152.63C480.11 152.52 480.26 152.36 480.38 152.16C480.5 151.95 480.56 151.7 480.56 151.41C480.56 151.02 480.44 150.71 480.2 150.46C479.96 150.21 479.65 150.09 479.25 150.09L477.02 150.09L477.01 152.79ZM480.98 155.74C480.98 155.44 480.92 155.17 480.8 154.93C480.68 154.69 480.51 154.5 480.28 154.36C480.05 154.22 479.79 154.15 479.48 154.15L477.01 154.15L477.01 157.3L479.4 157.3C479.7 157.3 479.97 157.24 480.21 157.11C480.45 156.99 480.63 156.81 480.77 156.58C480.91 156.35 480.98 156.07 480.98 155.74Z" fill="#FFFFFF" fill-opacity="1.000000" fill-rule="nonzero"/>
</svg>
