<svg width="206" height="28" viewBox="0 0 206 28" fill="none" xmlns="http://www.w3.org/2000/svg">
<path d="M15.4406 2.89273C15.4406 0.577937 13.3149 0 11.6362 0V0.347372C12.6431 0.347372 13.4259 0.693728 13.4259 1.50426C13.4259 1.96641 13.091 2.66115 12.0841 2.66115C11.3003 2.66115 9.62153 2.19799 8.39072 1.73584C6.93693 1.15689 5.59512 0.693728 4.47531 0.693728C2.23766 0.693728 0.670904 2.42957 0.670904 4.397C0.670904 6.13182 1.90171 6.71078 2.34964 6.94236L2.46162 6.71078C2.23766 6.4792 1.90171 6.24761 1.90171 5.55287C1.90171 5.09072 2.34964 4.28121 3.46847 4.28121C4.47531 4.28121 5.8181 4.74335 7.60882 5.32231C9.17557 5.78445 10.8533 6.13182 11.7492 6.24761V9.83509L10.0704 11.3394V11.4551L11.7492 12.9594V17.9354C10.8533 18.5133 9.84648 18.6291 8.95161 18.6291C7.27288 18.6291 5.8181 18.1659 4.5873 16.7775L9.17459 14.4637V6.48021L3.58045 9.02557C4.02837 7.52233 5.25918 6.48021 6.48999 5.78547L6.37801 5.43911C3.02152 6.36442 0 9.60351 0 13.5384C0 18.1659 3.69243 21.6376 7.83278 21.6376C12.3081 21.6376 15.2176 17.9354 15.2176 14.1163H14.9937C14.3228 15.6206 13.3159 17.009 12.0851 17.7038V12.9604L13.8748 11.4551V11.3394L12.0851 9.83611V6.2466C13.7629 6.2466 15.4416 5.08971 15.4416 2.89172L15.4406 2.89273ZM5.70612 15.6195L4.36235 16.3143C3.57947 15.2722 3.13154 13.8837 3.13154 11.9163C3.13154 11.1078 3.13154 10.1814 3.3555 9.48772L5.70514 8.44662V15.6195H5.70612ZM17.5663 18.2807L16.1125 19.4386L16.3355 19.6692L17.0074 19.0902L19.469 21.405L22.8255 19.0912L22.7135 18.8597L21.8196 19.4386L20.6998 18.2807V10.414L21.5947 9.72032L23.4974 11.3394V18.3985C23.4974 22.7945 22.6015 23.4882 20.6998 24.183V24.5303C23.8333 24.6451 26.7419 23.604 26.7419 17.9343V10.2983L27.7497 9.48874L27.5257 9.25716L26.6299 9.95088L23.8323 7.52131L20.6988 9.95088V0.464178H20.4758L16.5594 3.24011V3.47169C17.0074 3.70327 17.6793 3.93485 17.6793 5.20753L17.5663 18.2807ZM38.0441 17.008L35.2465 19.207L32.449 16.8922V15.5038L37.7082 11.8015V11.6857L35.0226 7.52131L29.2035 10.7604V18.3965L28.0847 19.3218L28.3086 19.5534L29.3155 18.7439L33.1199 21.6366L38.1561 17.4712L38.0441 17.008ZM32.449 15.0416V9.37193L32.6729 9.25614L35.1346 13.3058L32.449 15.0416ZM59.4148 1.85062C59.4148 1.50426 59.3028 1.15689 59.1908 0.809519H58.9679C58.6319 1.73584 58.184 2.19799 57.0652 2.19799C56.0583 2.19799 55.3864 1.61904 54.9395 1.15689L51.694 4.97595L51.918 5.20651L53.0368 4.16541C53.7087 4.74437 54.2676 5.20651 55.8344 5.32231V14.9258L49.2334 3.23909C48.6735 2.3148 47.8906 1.0411 46.3238 1.0411C44.5341 1.0411 42.9673 2.66115 43.1903 5.2055H43.5263C43.6382 4.51177 43.9742 3.70225 44.7571 3.70225C45.317 3.70225 45.8769 4.28121 46.2118 4.86016V8.67719C44.1981 8.67719 42.8554 9.60351 42.8554 11.3383C42.8554 12.2647 43.3033 13.6531 44.6451 13.9995V13.7689C44.4221 13.5373 44.3101 13.3058 44.3101 12.9584C44.3101 12.3794 44.7571 11.9173 45.5409 11.9173H46.1008V16.7764C43.7502 16.7764 41.8475 18.1649 41.8475 20.4797C41.8475 22.6777 43.6382 23.7198 45.6529 23.603V23.3714C44.4221 23.2556 43.8622 22.6777 43.8622 21.8682C43.8622 20.8261 44.5341 20.3639 45.429 20.3639C46.3238 20.3639 47.1077 20.9429 47.6666 21.6366L50.9121 17.9343L50.6881 17.7028L49.9043 18.6281C48.6735 17.4702 48.0026 17.1248 46.5478 16.8922V5.32231L55.4994 21.5208H56.1713V5.32231C57.849 5.20651 59.4148 3.81804 59.4148 1.85062ZM67.5835 17.008L64.786 19.207L61.9884 16.8922V15.5038L67.2476 11.8015V11.6857L64.562 7.52131L58.7439 10.7604V18.3965L57.6241 19.3218L57.848 19.5534L58.8559 18.7439L62.6603 21.6366L67.6955 17.4712L67.5835 17.008ZM61.9884 15.0416V9.37193L62.2124 9.25614L64.674 13.3058L61.9884 15.0416ZM85.8227 8.79298L85.0388 9.37193L82.9131 7.5203L80.4515 9.83408L81.4584 10.8762V19.5534L78.7728 17.8186V10.6446L79.6686 10.0657L77.095 7.5203L74.6324 9.83408L75.6403 10.8762V19.206L75.3043 19.4376L72.9547 17.7028V10.7594C72.9547 9.13933 72.1708 8.67719 71.276 8.09823C70.4931 7.51928 70.0451 7.17191 70.0451 6.36239C70.0451 5.66866 70.716 5.32129 71.052 5.08971V4.85813C70.1571 4.85813 67.8075 5.78344 67.8075 7.98244C67.8075 9.13933 68.3674 9.6025 68.9263 10.1804C69.4862 10.7594 70.0451 11.2225 70.0451 12.2626V18.9765L68.8143 19.9018L69.0383 20.1333L70.1571 19.207L72.7307 21.5218L75.5283 19.5544L78.6618 21.5218L84.5919 17.9343V10.1825L86.0457 9.02557L85.8227 8.79399V8.79298ZM106.635 2.42957L105.517 3.47067L103.055 1.15689L99.3616 3.93383V1.38847H99.0266L99.1386 20.1323C98.8027 20.1323 97.7958 19.9008 97.0119 19.6692L96.788 4.04962C96.788 2.89172 96.0051 1.27268 93.9914 1.27268C91.9777 1.27268 90.6339 2.89273 90.6339 4.51279H90.9699C91.0819 3.81804 91.4178 3.23909 92.0887 3.23909C92.7596 3.23909 93.3195 3.70225 93.3195 5.20651V9.7193C91.3058 9.83509 90.075 10.992 90.075 12.4962C90.075 13.4205 90.522 14.81 91.8648 14.81V14.5784C91.4168 14.3469 91.3048 13.9995 91.3048 13.7689C91.3048 13.0742 91.8648 12.8426 92.7596 12.8426H93.2075V20.0165C91.5288 20.5955 90.8579 21.8682 90.8579 23.2566C90.8579 25.2231 92.3117 26.6115 94.5513 26.6115C96.1171 26.6115 97.4589 26.3799 98.8027 26.0326C99.9215 25.802 101.376 25.4536 102.047 25.4536C102.943 25.4536 103.278 25.9168 103.278 26.4957C103.278 27.3053 102.943 27.6536 102.495 27.7684V28C104.286 27.6526 105.405 26.4968 105.405 24.7599C105.405 23.0251 103.726 21.983 101.935 21.983C101.04 21.983 99.1386 22.3303 97.7958 22.5619C96.2291 22.9093 94.6623 23.1409 94.2144 23.1409C93.4315 23.1409 92.5366 22.7935 92.5366 21.6366C92.5366 20.7103 93.3195 19.9007 95.2222 19.9007C96.2291 19.9007 97.4599 20.0165 98.6907 20.3639C100.033 20.7103 101.264 21.0576 102.383 21.0576C104.062 21.0576 105.517 20.4787 105.517 18.0491V3.81804L106.859 2.66014L106.635 2.42957ZM102.047 9.48772C101.712 9.83408 101.264 10.1814 100.704 10.1814C100.145 10.1814 99.5856 9.83509 99.3616 9.48772V4.397L100.481 3.58646L102.047 5.09072V9.48772ZM102.047 12.9584C101.824 12.7268 101.264 12.3794 100.704 12.3794C100.145 12.3794 99.5856 12.7268 99.3616 12.9584V9.94987C99.5856 10.1814 100.145 10.5288 100.704 10.5288C101.264 10.5288 101.824 10.1814 102.047 9.94987V12.9584ZM102.047 18.3965C102.047 19.3218 101.488 20.2481 100.257 20.2481H99.3616V13.4205C99.5856 13.189 100.145 12.8416 100.704 12.8416C101.264 12.8416 101.712 13.189 102.047 13.4205V18.3965ZM117.378 10.1814L113.796 7.5203L108.314 10.7604V18.2807L107.194 19.207L107.306 19.4376L108.202 18.7439L111.783 21.5208L117.378 18.0491V10.1814ZM111.335 17.4712V9.14035L114.132 11.2225V19.4376L111.335 17.4712ZM128.007 7.75188H127.784C127.448 7.98346 127.112 8.21504 126.776 8.21504C126.329 8.21504 125.769 7.98346 125.546 7.63609H125.322L123.421 9.83509L121.518 7.63609L118.162 9.94987L118.274 10.1814L119.168 9.6025L120.287 10.8762V18.1639L118.833 19.3218L119.057 19.5524L119.728 18.9734L122.414 21.2882L125.882 18.8586L125.77 18.6271L124.764 19.206L123.421 18.0481V9.94885C123.98 10.5278 124.652 11.1068 125.435 11.1068C127.001 11.2225 127.896 9.6025 128.008 7.75086L128.007 7.75188ZM141.435 18.8597L137.631 21.5208L132.483 13.4216L136.176 7.5203H136.4C136.848 7.98346 137.519 8.44662 138.302 8.44662C139.085 8.44662 139.644 7.98346 139.98 7.5203H140.204C140.092 9.83408 138.526 11.2236 137.407 11.2236C136.288 11.2236 135.728 10.6446 135.057 10.2972L134.721 10.8762L140.316 19.4386L141.435 18.7439V18.8597ZM129.127 18.2807L127.672 19.4386L127.895 19.6692L128.567 19.0902L131.029 21.405L134.385 19.0912L134.162 18.8597L133.266 19.4386L132.147 18.2807V0.462147H132.036L128.007 3.23909V3.47067C128.455 3.70225 129.127 3.81804 129.127 5.20651V18.2807ZM160.01 2.89273C160.01 0.577937 157.883 0 156.206 0V0.347372C157.213 0.347372 157.995 0.693728 157.995 1.50426C157.995 1.96641 157.661 2.66115 156.653 2.66115C155.87 2.66115 154.191 2.19799 152.96 1.73584C151.505 1.27268 150.163 0.809519 149.044 0.809519C146.806 0.809519 145.239 2.54536 145.239 4.51177C145.239 6.24863 146.47 6.82657 146.918 7.05815L147.03 6.82657C146.694 6.59499 146.358 6.36341 146.358 5.66866C146.358 5.20651 146.806 4.397 147.925 4.397C148.932 4.397 150.275 4.85914 152.065 5.4381C153.632 5.90024 155.31 6.24761 156.206 6.36341V9.94987L154.527 11.4541V11.5699L156.206 13.0742V18.0491C155.31 18.6281 154.303 18.7439 153.408 18.7439C151.729 18.7439 150.275 18.2807 149.044 16.8922L153.632 14.5784V6.4792L148.037 9.02456C148.597 7.52131 149.828 6.4792 150.947 5.66968L150.835 5.4381C147.477 6.36341 144.457 9.48772 144.457 13.4216C144.457 18.0491 148.149 21.5208 152.289 21.5208C156.765 21.5208 159.674 17.8186 159.674 13.9995H159.451C158.78 15.5038 157.772 16.8922 156.542 17.587V12.8436L158.332 11.3383V11.2225L156.654 9.7193V6.24761C158.332 6.24761 160.011 5.09072 160.011 2.89273H160.01ZM150.275 15.6195L148.932 16.3143C148.149 15.2722 147.701 13.8837 147.701 11.9163C147.701 11.1078 147.813 10.1814 148.037 9.48772L150.387 8.44662L150.275 15.6195ZM163.927 1.73483H163.815L161.577 3.70225V3.81804L163.479 6.01603H163.703L165.94 4.04962V3.93383L163.927 1.73584V1.73483ZM167.283 18.8597L166.388 19.4386L165.269 18.2807V10.2972L166.388 9.48772L166.164 9.25614L165.381 9.94987L163.367 7.5203L160.122 9.83408L160.346 10.1814L161.129 9.6025L162.136 10.8762V18.3965L160.681 19.5544L160.793 19.785L161.577 19.206L164.039 21.5208L167.395 19.206L167.283 18.8597ZM185.97 18.7439L185.186 19.3228L183.955 18.1649V10.2972L185.074 9.37193L184.851 9.14035L183.955 9.94987L181.382 7.5203L178.025 9.94987L175.452 7.5203L172.318 9.94987L170.305 7.5203L167.059 9.83408L167.171 10.1814L167.955 9.6025L169.074 10.8762V18.3965L168.178 19.3218L170.751 21.5208L173.214 19.206L172.206 18.1649V10.2972L173.214 9.60351L174.892 11.2236V18.1639L173.997 19.0902L176.571 21.2882L179.032 18.9744L178.025 17.9323V10.2962L178.92 9.71727L180.711 11.3373V18.2797L179.927 19.0902L182.501 21.5198L185.97 19.0902V18.7439ZM195.705 17.008L192.907 19.207L190.11 16.8922V15.5038L195.37 11.8015V11.6857L192.684 7.52131L186.865 10.7604V18.6281L190.781 21.5208L195.817 17.3554L195.705 17.008ZM190.11 15.0416V9.37193L190.333 9.25614L192.796 13.3058L190.11 15.0416ZM205.888 13.9995L203.762 12.2647C205.217 10.992 205.777 9.25614 205.777 8.09925V7.4045H205.553C205.329 7.98346 204.881 8.56241 203.986 8.56241C203.091 8.56241 202.532 8.09925 201.972 7.4045L196.936 10.2972V14.4627L198.839 15.9659C196.936 17.7028 196.601 18.8596 196.601 19.785C196.601 20.9429 197.16 21.7524 198.055 22.0987L198.167 21.8682C197.944 21.6366 197.72 21.5208 197.72 20.9419C197.72 20.5955 198.167 20.0165 199.063 20.0165C200.182 20.0165 200.853 20.8261 201.189 21.1744L206 18.1649V14.0005L205.888 13.9995ZM204.657 10.5288C203.874 11.9173 202.196 13.3058 201.189 13.9995L199.958 12.9584V8.90877C200.406 10.0667 201.637 10.991 202.867 10.991C203.65 10.991 204.098 10.8762 204.657 10.5288ZM202.756 19.785C202.196 18.5123 200.853 17.587 199.51 17.587C199.175 17.587 198.279 17.587 197.384 18.1659C197.944 17.2396 199.398 15.6195 201.301 14.4627L202.644 15.6206L202.756 19.785Z" fill="white"/>
</svg>
