<svg width="398" height="155" viewBox="0 0 398 155" fill="none" xmlns="http://www.w3.org/2000/svg">
<rect width="396.557" height="155" transform="translate(0.458984)" fill="black"/>
<path d="M111.86 81.8584C113.347 80.4583 114.835 79.0409 116.306 77.6407C116.704 77.2604 116.756 76.7764 116.773 76.2579C116.773 75.8084 116.946 75.48 117.413 75.3244C118.659 74.8923 119.921 74.7022 121.219 74.875C121.357 74.8923 121.496 74.9614 121.721 75.0306C120.908 75.722 119.921 75.8257 119.039 76.2233C119.991 76.1023 120.959 75.9813 121.946 75.843C122.205 76.5517 122.447 77.2086 122.724 77.9173C122.932 77.8136 123.105 77.7444 123.26 77.6234C124.662 76.6036 126.063 75.5837 127.43 74.5293C129.073 73.2674 130.89 72.455 132.896 72.0056C133.069 71.971 133.225 71.9192 133.467 71.8673C133.312 71.5389 133.191 71.245 133.035 70.8993C133.346 70.3116 133.675 69.672 134.038 68.946C133.554 68.8596 133.173 68.7904 132.775 68.704C131.461 68.3929 130.924 67.3039 131.512 66.0939C132.343 64.4172 133.191 62.7404 134.09 61.081C134.402 60.5106 134.367 60.0957 134.021 59.5426C133.658 58.9549 133.433 58.2807 133.173 57.6239C132.948 57.088 133.069 56.6386 133.415 56.1546C134.332 54.8754 134.575 53.3716 134.834 51.8159C134.471 51.7122 134.159 51.6084 133.865 51.522C132.17 51.038 130.647 50.2602 129.436 48.9464C129.142 48.618 128.866 48.2723 128.658 47.892C128.225 47.1314 128.416 46.4919 129.229 46.1807C129.99 45.8696 130.786 45.6449 131.582 45.4547C134.748 44.746 137.931 44.6942 141.131 45.1263C146.148 45.8177 151.044 46.9586 155.767 48.8082C155.871 48.8427 155.992 48.86 156.096 48.8946C156.113 48.8946 156.148 48.86 156.234 48.8082C150.352 46.0424 144.038 44.988 137.792 43.5187C137.792 43.3632 137.792 43.2422 137.827 43.1557C139.228 39.7159 140.024 36.1032 140.768 32.4904C141.079 30.9174 141.373 29.3272 141.65 27.7369C141.754 27.0973 142.048 26.7516 142.706 26.6306C143.588 26.475 144.47 26.2849 145.456 26.0947C144.92 31.2977 144.228 36.3624 143.363 41.5482C143.951 40.7357 144.799 37.8144 145.543 34.0462C146.044 31.5224 146.512 28.9814 146.996 26.3886H148.086C147.792 30.0532 147.082 33.5967 146.477 37.1576C147.619 33.6659 148.345 30.0877 149.003 26.4059C149.297 26.4577 149.539 26.4923 149.781 26.5442C153.068 27.2702 156.355 28.0307 159.538 29.1889C162.549 30.2779 165.317 31.7817 167.704 33.9424C168.171 34.3746 168.534 34.9104 168.915 35.429C169.226 35.8612 169.088 36.3279 168.95 36.7773C168.344 38.7652 167.669 40.7357 167.15 42.7582C166.424 45.593 165.801 48.4624 165.109 51.3146C164.884 52.2653 165.109 52.974 165.784 53.7C166.856 54.8236 167.842 56.0336 168.829 57.2263C169.434 57.9523 169.832 58.7993 170.04 59.7327C170.316 60.9946 169.728 61.8243 168.448 61.928C167.099 62.049 165.749 62.0836 164.331 62.17C164.607 63.1207 165.403 63.6393 166.147 64.2443C165.593 64.6073 165.109 64.2789 164.538 64.1579C164.798 65.0394 165.576 65.3333 166.147 65.9383C165.507 66.163 164.936 66.3532 164.331 66.5779C164.209 67.4422 164.261 68.341 163.552 69.0843C163.396 68.7386 163.258 68.4274 163.12 68.1163C163.068 68.1163 163.033 68.1163 162.981 68.099C162.929 68.5657 162.86 69.0324 162.808 69.4992C162.722 70.1387 162.635 70.7783 162.566 71.4179C162.462 72.334 161.978 72.7834 161.078 73.0082C159.296 73.4749 157.497 73.9416 155.767 74.5639C153.155 75.5146 150.577 76.569 147.999 77.658C145.871 78.5569 143.761 79.5249 141.46 79.9397C141.304 79.9743 141.149 80.078 140.889 80.2163C142.014 83.6734 143.155 87.1133 144.28 90.5532C144.28 87.1306 143.398 83.9327 141.841 80.8904C142.031 80.7694 142.135 80.683 142.273 80.6312C147.325 78.4359 152.394 76.2579 157.705 74.7194C159.452 74.2182 161.217 73.7687 163.033 73.6304C163.171 73.6304 163.327 73.5959 163.466 73.5959C164.071 73.5959 164.244 73.7514 164.054 74.3219C163.604 75.7047 163.777 77.0357 164.279 78.3667C164.59 79.1619 164.867 79.957 165.161 80.7522C165.357 81.2592 165.23 81.6971 164.78 82.0659C164.78 82.0659 164.659 82.1869 164.538 82.3252C164.677 82.6363 164.832 82.982 165.005 83.3104C165.732 84.6933 166.701 85.9033 167.739 87.0787C168.656 88.1159 169.572 89.153 170.472 90.1902C170.714 90.4667 170.922 90.7779 171.216 91.1754C163.673 93.0596 156.459 95.5142 149.85 99.4553C148.034 100.544 146.339 101.789 144.574 102.964C144.47 103.033 144.384 103.137 144.332 103.31C152.601 97.744 161.874 94.9092 171.683 93.3534C171.891 93.9757 172.15 94.5289 172.289 95.1166C173.188 98.9367 174.122 102.757 174.901 106.594C175.576 109.896 176.077 113.232 176.614 116.568C176.769 117.571 176.821 118.608 176.908 119.628C176.925 119.852 176.89 120.077 176.873 120.371C176.648 120.302 176.475 120.267 176.319 120.198C173.327 118.781 170.126 118.02 166.874 117.467C162.722 116.776 158.535 116.499 154.331 116.585C150.473 116.655 146.667 117.208 142.896 117.986C137.913 118.988 133 120.215 128.225 122.013C125.06 123.206 122.032 124.675 119.108 126.386C118.78 126.577 118.451 126.732 118.036 126.94C117.569 123.033 116.531 119.334 115.423 115.635C118.901 113.284 122.119 110.795 124.437 107.338C121.738 110.242 118.728 112.765 115.337 115.064C114.351 112.696 113.486 110.345 112.517 107.908C117.828 106.975 122.482 104.779 126.513 101.011C126.79 102.705 127.084 104.261 126.703 105.816C125.89 108.98 125.388 112.195 125.129 115.445C125.077 115.998 125.129 116.551 125.146 117.121C126.53 104.676 130.613 93.0596 135.837 81.5819C136.426 82.3943 136.927 83.0684 137.394 83.7599C138.813 85.9206 140.37 87.9776 142.169 89.8444C142.757 90.4494 143.398 91.0199 144.038 91.6422C143.052 92.5756 142.083 93.4572 141.131 94.3733C137.031 98.3663 133.571 102.878 130.751 107.856C130.647 108.046 130.596 108.288 130.509 108.496C130.353 108.703 130.18 108.911 130.025 109.118C130.077 109.153 130.128 109.17 130.18 109.204C130.284 108.962 130.388 108.72 130.492 108.478C130.665 108.288 130.855 108.133 130.993 107.925C138.173 96.8452 147.688 88.3233 159.4 82.256C159.642 82.135 159.884 81.9794 160.04 81.7029C158.933 82.2214 157.826 82.7054 156.719 83.2586C152.636 85.2983 148.812 87.7356 145.266 90.6223C144.955 90.8816 144.609 91.0717 144.211 91.331C141.979 88.8937 139.886 86.4564 138.069 83.708C138.45 83.345 138.796 82.982 139.176 82.6536C139.54 82.3424 139.643 82.014 139.436 81.5819C139.28 81.2707 139.176 80.925 139.021 80.5102C138.761 80.5102 138.467 80.5274 138.19 80.562C137.775 80.5966 137.36 80.6139 136.962 80.6657C135.197 80.9423 133.934 78.7297 134.523 77.3814C134.678 77.0357 134.834 76.69 135.024 76.3616C135.44 75.601 135.336 75.1343 134.609 74.6676C134.067 74.3103 133.819 73.8091 133.865 73.1637C133.242 73.2674 132.689 73.4576 132.153 73.7687C129.627 75.2726 127.43 77.1394 125.492 79.3347C125.457 79.3693 125.44 79.4384 125.423 79.4903C126.322 80.5793 126.271 80.8732 125.008 81.6164C124.523 81.893 124.022 82.1523 123.52 82.3943C123.157 82.5672 122.914 82.8092 122.845 83.2413C122.741 83.8463 122.603 84.434 122.465 85.0909C122.62 85.1254 122.724 85.1773 122.828 85.1773C123.866 85.1427 124.61 85.6613 125.181 86.491C125.406 86.8194 125.596 87.1652 126.08 87.2516C126.322 87.3034 126.565 87.6664 126.668 87.943C126.928 88.5999 127.118 89.274 127.291 89.9482C127.482 90.6569 127.153 91.0026 126.409 90.8816C126.288 90.8643 126.167 90.8297 126.08 90.7779C125.44 90.363 124.973 90.6914 124.541 91.1236C124.004 91.6422 123.779 92.3163 123.797 93.0423C123.831 94.7363 124.16 96.3784 125.267 97.7267C125.855 98.4354 126.063 99.196 125.786 100.095C125.717 100.337 125.855 100.631 126.08 100.942C125.925 101.115 125.803 101.305 125.63 101.443C125.336 101.685 125.025 101.91 124.679 102.083C121.34 103.898 117.828 105.281 114.109 106.093C113.711 106.179 113.313 106.179 112.759 106.249C113.78 103.742 115.216 101.72 117.205 99.922C117.845 100.786 118.468 101.616 119.074 102.446C119.108 102.428 119.143 102.411 119.178 102.394C119.108 102.186 119.039 101.979 118.953 101.772C117.257 98.2626 115.545 94.7536 113.832 91.2446C113.642 90.847 113.434 90.4494 113.157 90.121C112.69 89.5506 112.621 88.9283 112.673 88.2196C112.725 87.5282 112.725 86.8194 112.621 86.128C112.5 85.1773 112.275 84.2266 112.067 83.2759C112.015 83.0339 111.86 82.8092 111.756 82.5672C111.756 82.3252 111.756 82.1004 111.756 81.8584H111.86ZM117.292 80.8732C116.583 81.8584 115.96 82.6882 115.337 83.5524C115.545 83.9673 115.718 84.3476 115.925 84.7624C116.531 84.1402 117.413 82.4116 117.482 81.6856C117.499 81.4782 117.396 81.2534 117.309 80.8559L117.292 80.8732Z" fill="white"/>
<path d="M238.652 82.7574H240.745V89.0148C239.897 89.205 239.067 89.084 238.115 89.1012V84.9181H229.638V89.0494H227.095C226.922 88.4271 226.87 83.9328 227.043 82.792C227.251 82.7747 227.476 82.7401 227.701 82.7228C228.912 82.6364 229.448 82.1524 229.534 80.9251C229.604 80.0781 229.604 79.2311 229.621 78.3841C229.794 68.4794 229.95 58.5574 230.123 48.6527C230.123 48.3934 230.157 48.1341 230.174 47.8057H238.652C238.652 50.7097 238.652 53.5964 238.652 56.4831C238.652 59.3871 238.652 62.2911 238.652 65.1951V82.7401V82.7574ZM235.901 82.7055V49.9491C234.828 49.9491 233.825 49.88 232.787 49.9837C232.787 50.2775 232.752 50.4849 232.752 50.6751C232.7 53.6655 232.648 56.656 232.596 59.6464C232.51 65.7137 232.441 71.781 232.32 77.8655C232.285 79.4385 232.389 81.0461 231.749 82.55C231.749 82.5845 231.783 82.6364 231.818 82.7055H235.901Z" fill="white"/>
<path d="M278.701 47.7538C279.825 47.7538 280.829 47.7538 281.832 47.7538C282.005 47.7538 282.178 47.7884 282.438 47.8057C283.666 60.1304 284.912 72.4378 286.14 84.7971H283.372C283.043 80.8041 282.697 76.7938 282.351 72.7317H278.77C278.424 76.742 278.095 80.7695 277.749 84.7971H274.981C276.227 72.4378 277.455 60.1304 278.684 47.7192L278.701 47.7538ZM282.144 70.5191C281.642 64.4864 281.14 58.5401 280.639 52.5938C279.981 58.5401 279.479 64.5037 279.012 70.5191H282.144Z" fill="white"/>
<path d="M222.442 84.8317H219.674C219.345 80.8041 218.999 76.8111 218.671 72.7662H215.107C214.692 76.742 214.467 80.7522 214.051 84.8144H211.301C212.546 72.4551 213.775 60.1477 215.003 47.8057H218.74C219.968 60.1477 221.214 72.4378 222.442 84.849V84.8317ZM216.785 52.7148C216.283 58.6784 215.799 64.5728 215.297 70.5537C216.249 70.5537 217.062 70.5537 217.875 70.5537C218.048 70.5537 218.221 70.5191 218.376 70.4845C218.446 69.0498 217.044 53.3371 216.785 52.6975V52.7148Z" fill="white"/>
<path d="M246.16 84.8317V47.8057H248.738V58.8858C249.17 58.8858 249.516 58.8858 249.845 58.9204C250.519 58.955 251.211 58.9204 251.852 59.0414C253.841 59.4562 255.277 61.1848 255.363 63.2245C255.398 63.8468 255.363 64.4518 255.363 65.0741C255.363 70.0351 255.363 74.9788 255.363 79.9398C255.363 80.372 255.363 80.8214 255.312 81.2535C255.104 83.3278 253.893 84.6588 251.834 84.7971C249.966 84.9354 248.097 84.8317 246.143 84.8317H246.16ZM248.807 82.7574C249.222 82.7574 249.551 82.7574 249.862 82.7574C250.208 82.7574 250.571 82.7574 250.917 82.7574C251.696 82.6882 252.44 82.1351 252.613 81.4437C252.699 81.1325 252.699 80.8041 252.699 80.4757C252.699 74.7541 252.699 69.0498 252.699 63.3282C252.699 63.1554 252.699 62.9825 252.699 62.8097C252.63 61.9972 252.042 61.2712 251.246 61.1502C250.45 61.0292 249.637 61.0638 248.824 61.133V82.7747L248.807 82.7574Z" fill="white"/>
<path d="M260.969 47.8056H269.065V49.9144H263.564C263.564 54.7026 263.564 59.4043 263.564 64.227C264.342 64.227 265.034 64.227 265.744 64.227C267.214 64.2616 268.39 64.9011 269.307 66.042C269.913 66.8026 270.19 67.6841 270.19 68.6521C270.19 72.6106 270.19 76.569 270.19 80.5274C270.19 80.5793 270.19 80.6484 270.19 80.7003C270.034 83.4314 268.598 84.8143 265.865 84.8489C264.256 84.8661 262.647 84.8489 260.969 84.8489V47.771V47.8056ZM263.633 66.3704V82.74C264.394 82.74 265.103 82.7746 265.795 82.74C266.764 82.6709 267.439 81.9103 267.508 80.9423C267.508 80.683 267.508 80.4237 267.508 80.1471C267.508 76.5171 267.508 72.8871 267.508 69.2571C267.508 68.9287 267.508 68.6176 267.508 68.2891C267.456 67.2174 266.764 66.4569 265.709 66.3877C265.034 66.3359 264.377 66.3877 263.633 66.3877V66.3704Z" fill="white"/>
<path d="M189.191 47.8057H191.855C191.717 48.7737 191.613 49.6552 191.474 50.5541C190.419 57.6067 189.381 64.6419 188.308 71.6772C187.859 74.6331 187.409 77.589 186.924 80.5448C186.838 81.1152 186.63 81.6857 186.423 82.2215C185.61 84.2094 184.105 85.1082 181.856 84.9872V82.9821C183.516 82.5672 184.139 81.2708 184.416 79.767C184.693 78.3322 184.866 76.8629 185.056 75.4109C185.091 75.1517 185.056 74.8924 185.021 74.6331C184.399 70.7265 183.776 66.82 183.153 62.9134C182.375 58.0561 181.579 53.1988 180.8 48.3242C180.783 48.186 180.8 48.0304 180.766 47.8402C181.631 47.6155 182.461 47.7884 183.378 47.7192C184.381 54.4607 185.367 61.1157 186.336 67.7707C187.288 61.133 188.239 54.478 189.191 47.8057Z" fill="white"/>
<path d="M203.896 75.7912H206.439C206.473 75.9295 206.525 76.0678 206.525 76.2061C206.525 77.8137 206.56 79.4385 206.491 81.0461C206.387 83.5352 204.986 84.9354 202.477 85.0218C201.664 85.0564 200.816 85.0045 200.038 84.8144C198.515 84.4687 197.616 83.4488 197.304 81.9277C197.218 81.4437 197.166 80.9424 197.166 80.4411C197.166 71.0204 197.166 61.5997 197.166 52.1789C197.166 49.2231 198.515 47.7884 201.456 47.6328C202.148 47.5982 202.875 47.6501 203.55 47.8057C205.245 48.1859 206.318 49.3095 206.422 51.0381C206.543 52.9395 206.456 54.8409 206.456 56.8115H203.896C203.896 56.5522 203.844 56.2929 203.844 56.0509C203.844 54.6508 203.775 53.2334 203.844 51.8332C203.913 50.6405 202.823 49.7589 201.906 49.7589C200.678 49.7589 199.865 50.5022 199.813 51.7641C199.813 51.9715 199.813 52.1789 199.813 52.3864C199.813 61.6861 199.813 70.9858 199.813 80.2855C199.813 80.5448 199.813 80.8214 199.813 81.0807C199.917 82.2042 200.764 82.9302 201.906 82.9129C202.962 82.9129 203.878 81.9277 203.844 80.9251C203.775 79.5249 203.827 78.1075 203.844 76.7074C203.844 76.4308 203.861 76.1369 203.878 75.8085L203.896 75.7912Z" fill="white"/>
<path d="M236.282 105.177C236.282 103.708 236.282 102.256 236.282 100.786C236.282 99.6973 236.784 99.2478 237.856 99.2651C238.773 99.2824 239.223 99.6973 239.258 100.596C239.292 101.27 239.258 101.944 239.258 102.619C239.258 104.779 239.258 106.957 239.258 109.118C239.258 109.291 239.258 109.464 239.258 109.654C239.223 110.95 238.064 111.624 236.922 111.002C236.386 110.708 236.265 110.207 236.265 109.654C236.265 108.167 236.265 106.663 236.265 105.177H236.282ZM238.393 105.229C238.393 103.846 238.393 102.48 238.393 101.097C238.393 100.89 238.444 100.648 238.358 100.492C238.254 100.285 238.047 100.06 237.856 99.9911C237.545 99.8874 237.285 100.095 237.199 100.406C237.147 100.596 237.164 100.804 237.164 101.011C237.164 103.829 237.164 106.629 237.164 109.446C237.164 109.619 237.164 109.809 237.199 109.965C237.285 110.293 237.528 110.501 237.839 110.414C238.047 110.363 238.271 110.138 238.375 109.948C238.462 109.792 238.41 109.55 238.41 109.343C238.41 107.96 238.41 106.594 238.41 105.211L238.393 105.229Z" fill="white"/>
<path d="M270.311 111.071H269.532V105.315H268.269V111.037C267.958 111.071 267.733 111.089 267.456 111.106V99.3518H268.235V104.468C268.494 104.503 268.667 104.537 268.823 104.537C268.996 104.537 269.169 104.537 269.446 104.503C269.584 102.792 269.411 101.08 269.532 99.3345H270.293V111.054L270.311 111.071Z" fill="white"/>
<path d="M260.207 111.054C259.896 111.072 259.671 111.089 259.342 111.123C259.221 109.862 259.1 108.617 258.979 107.321H257.889C257.785 108.548 257.664 109.758 257.543 111.054C257.283 111.089 257.041 111.106 256.678 111.141C257.024 107.165 257.439 103.293 257.837 99.3691H259.031C259.428 103.241 259.809 107.096 260.207 111.072V111.054ZM258.909 106.508C258.771 104.849 258.633 103.276 258.494 101.703H258.339C258.2 103.293 258.079 104.866 257.941 106.474C258.114 106.508 258.235 106.543 258.339 106.56C258.477 106.56 258.633 106.543 258.909 106.525V106.508Z" fill="white"/>
<path d="M247.544 106.491V111.037H246.714V99.317C247.337 99.317 247.942 99.2651 248.548 99.317C249.222 99.3861 249.62 99.8183 249.638 100.492C249.672 102.048 249.672 103.604 249.638 105.142C249.62 105.886 249.222 106.231 248.478 106.335C248.184 106.387 247.908 106.404 247.544 106.439V106.491ZM247.596 105.626C248.617 105.747 248.79 105.626 248.79 104.745C248.79 103.483 248.79 102.238 248.79 100.976C248.79 100.095 248.617 99.9739 247.596 100.095V105.626Z" fill="white"/>
<path d="M197.426 106.474V111.037C197.132 111.054 196.907 111.072 196.63 111.089V99.3C197.218 99.3 197.772 99.2655 198.325 99.3C199.069 99.3692 199.484 99.7495 199.502 100.493C199.554 102.048 199.554 103.604 199.502 105.16C199.484 105.92 199.121 106.249 198.36 106.37C198.1 106.404 197.841 106.422 197.426 106.474ZM197.478 105.575C198.446 105.748 198.671 105.592 198.689 104.728C198.706 103.466 198.706 102.204 198.689 100.942C198.689 100.095 198.446 99.9396 197.478 100.095V105.557V105.575Z" fill="white"/>
<path d="M218.307 108.271H219.085C219.12 108.375 219.172 108.444 219.172 108.53C219.172 109.032 219.206 109.533 219.172 110.017C219.102 110.778 218.601 111.158 217.77 111.175C216.905 111.192 216.352 110.795 216.231 110.052C216.196 109.844 216.213 109.637 216.213 109.429C216.213 106.612 216.213 103.794 216.213 100.977C216.213 100.856 216.213 100.735 216.213 100.631C216.265 99.6629 216.732 99.2308 217.753 99.2481C218.705 99.2481 219.154 99.6802 219.206 100.631C219.224 101.115 219.206 101.616 219.206 102.169C218.912 102.187 218.687 102.204 218.359 102.221C218.359 101.685 218.359 101.201 218.324 100.717C218.307 100.493 218.237 100.233 218.099 100.095C217.788 99.7839 217.251 99.9741 217.13 100.406C217.078 100.596 217.096 100.821 217.096 101.011C217.096 103.794 217.096 106.577 217.096 109.36C217.096 109.533 217.096 109.706 217.096 109.879C217.148 110.224 217.372 110.415 217.701 110.415C218.064 110.415 218.324 110.224 218.324 109.827C218.324 109.326 218.324 108.842 218.324 108.237L218.307 108.271Z" fill="white"/>
<path d="M206.854 99.3345H208.913C208.913 99.5419 208.93 99.6975 208.948 99.9395C208.55 99.974 208.186 100.009 207.823 100.043C207.598 100.631 207.546 103.448 207.754 104.503C208.1 104.537 208.48 104.572 208.896 104.607V105.212C208.48 105.246 208.117 105.263 207.685 105.298V110.363C208.083 110.415 208.48 110.449 208.896 110.501C208.896 110.691 208.913 110.864 208.93 111.071H206.837V99.3518L206.854 99.3345Z" fill="white"/>
<path d="M228.081 111.071H227.251V100.095C226.87 100.043 226.593 100.008 226.247 99.9566C226.247 99.7837 226.213 99.5936 226.195 99.3516H229.015C229.05 99.5071 229.084 99.68 229.119 99.922C228.79 99.9738 228.514 100.008 228.098 100.06C228.029 101.875 228.081 103.708 228.064 105.54C228.064 107.355 228.064 109.17 228.064 111.071H228.081Z" fill="white"/>
</svg>
