<svg width="394" height="155" viewBox="0 0 394 155" fill="none" xmlns="http://www.w3.org/2000/svg">
<rect width="393.538" height="155" fill="black"/>
<path d="M28.2959 44.6626H51.8585C51.938 44.6626 51.9645 44.6891 51.9645 44.7686V92.5033C51.9645 92.5828 51.938 92.6093 51.8585 92.6093H47.1142C47.0346 92.6093 47.0081 92.5828 47.0081 92.5033V88.9517C43.7746 91.8672 40.1965 93.3249 36.2738 93.3249H35.7172C31.8475 93.3249 28.2959 91.8937 25.0359 89.0047C21.6698 85.6386 20 81.8485 20 77.6077V77.0511C20 73.1815 21.4312 69.6299 24.3202 66.3698C27.6863 63.0037 31.4765 61.3339 35.7172 61.3339H36.2738C40.17 61.3339 43.7481 62.7917 47.0081 65.7072V49.6189H28.3224C28.2429 49.6189 28.2164 49.5924 28.2164 49.5129V44.7686C28.1899 44.7156 28.2164 44.6626 28.2959 44.6626ZM24.9829 77.3692C24.9829 80.6028 26.2816 83.4122 28.9055 85.7711C31.0524 87.4939 33.4113 88.3686 35.9822 88.3686C39.2158 88.3686 42.0253 87.0699 44.3842 84.4459C46.107 82.2991 46.9816 79.9402 46.9816 77.3692C46.9816 74.4272 45.8684 71.7767 43.6156 69.4708C41.3627 67.4035 38.7917 66.3698 35.9292 66.3698C32.7222 66.3698 29.9392 67.6685 27.5803 70.2925C25.831 72.4129 24.9829 74.7718 24.9829 77.3692Z" fill="white"/>
<path d="M57.9793 44.6626H88.9101C88.9896 44.6626 89.0161 44.6891 89.0161 44.7686V49.4599C89.0161 49.5394 88.9896 49.5659 88.9101 49.5659H75.9228V92.1057C75.9228 92.1852 75.8963 92.2118 75.8168 92.2118H71.1255C71.046 92.2118 71.0195 92.1852 71.0195 92.1057V49.5924H58.0323C57.9528 49.5924 57.9263 49.5659 57.9263 49.4864V44.7951C57.8732 44.7156 57.9263 44.6626 57.9793 44.6626Z" fill="white"/>
<path d="M93.2838 44.6096H101.977C102.083 44.7686 102.613 46.73 103.594 50.5201C103.965 51.6333 105.582 57.5704 108.471 68.3842H110.565C113.454 57.5704 115.601 49.6455 117.032 44.6096H125.725C125.805 44.6096 125.831 44.6361 125.831 44.7156V92.1058C125.831 92.1853 125.805 92.2118 125.725 92.2118H121.034C120.955 92.2118 120.928 92.1853 120.928 92.1058V52.0309H120.159C120.159 52.1104 118.251 59.2136 114.408 73.3936H104.734C104.654 73.3936 104.23 71.8563 103.461 68.8083C102.587 65.6012 101.076 60.0088 98.9292 52.0574H98.0811V92.1588C98.0811 92.2383 98.0546 92.2648 97.9751 92.2648H93.2838C93.2042 92.2648 93.1777 92.2383 93.1777 92.1588V44.7156C93.1777 44.6626 93.2042 44.6096 93.2838 44.6096Z" fill="white"/>
<path d="M155.12 44H155.676C162.461 44 168.451 46.7035 173.646 52.0839C177.808 56.9872 179.901 62.3677 179.901 68.2252V68.7818C179.901 75.5669 177.198 81.5569 171.818 86.7518C166.914 90.9131 161.534 93.0069 155.676 93.0069H155.12C148.335 93.0069 142.344 90.3034 137.15 84.923C132.988 80.0197 130.895 74.6393 130.895 68.7818V68.2252C130.895 61.44 133.598 55.4499 138.978 50.2551C143.882 46.0938 149.262 44 155.12 44ZM135.877 68.5697C135.877 74.2947 138.183 79.2511 142.795 83.4388C146.585 86.4868 150.826 88.024 155.464 88.024C161.189 88.024 166.146 85.7182 170.333 81.1064C173.381 77.3162 174.919 73.0755 174.919 68.4372C174.919 62.7122 172.613 57.7558 168.001 53.5681C164.211 50.5201 159.97 48.9828 155.332 48.9828C149.607 48.9828 144.65 51.2887 140.463 55.9005C137.388 59.6907 135.877 63.9049 135.877 68.5697Z" fill="white"/>
<path d="M197.926 81.1331C196.68 81.9283 194.798 82.2994 194.401 83.9426C192.333 89.9857 188.676 95.5781 183.613 99.5008C181.996 100.694 179.929 101.886 177.862 101.171C176.298 100.481 175.874 98.5201 176.245 97.0094C177.12 93.1397 179.664 89.8797 182.633 87.3352C185.575 84.9498 188.941 83.174 192.148 81.2126C192.996 80.7091 192.651 79.5429 192.89 78.7212C190.08 78.7477 187.35 79.3573 184.673 80.126C182.871 80.6561 180.936 78.9333 181.201 77.0779C181.625 74.613 183.666 72.9167 185.389 71.2469C187.615 69.3386 189.974 67.3773 192.837 66.6351C194.189 66.052 195.832 68.1989 194.374 69.0471C192.81 69.1796 191.353 69.7097 190.133 70.7168C187.668 72.6252 185.044 74.6395 183.719 77.555C186.847 76.7599 190.054 75.7527 193.314 76.2033C194.878 76.3623 195.593 77.8731 195.726 79.2778C197.157 78.4297 198.668 77.5815 200.364 77.4225C201.663 79.3043 199.33 80.444 197.926 81.1331ZM191.194 84.8703C188.199 86.6726 185.071 88.4219 182.633 90.9663C180.645 93.1397 178.895 95.7902 178.789 98.8382C180.989 98.3876 182.712 96.8769 184.276 95.3661C187.271 92.3711 189.577 88.7665 191.194 84.8703Z" fill="white"/>
<path d="M217.539 84.0747C215.074 84.3927 212.609 83.5976 210.171 83.9687C207.944 84.1542 205.877 85.2409 203.651 85.3734C202.193 85.3204 201.954 83.0675 203.359 82.723C206.619 81.3977 210.356 80.2846 212.238 77.0245C211.655 76.5209 211.019 75.9643 210.171 76.1498C207.202 76.3354 204.552 77.8991 202.087 79.4364C199.913 88.4744 198.138 97.6185 196.547 106.763C196.309 107.717 196.256 109.095 195.063 109.36C194.348 109.546 193.817 108.83 193.526 108.3C193.155 104.775 194.904 101.568 195.355 98.1486C196.335 92.7152 197.555 87.3613 198.694 81.9543C198.323 81.2387 197.74 80.311 198.456 79.5954C200.974 76.7594 200.417 72.5452 202.352 69.4177C202.909 68.6225 204.472 69.2586 204.287 70.2393C204.101 72.2006 203.253 74.003 202.855 75.9378C205.294 74.6921 207.891 73.4464 210.701 73.4464C212.344 73.5259 214.173 74.4005 214.571 76.1233C215.101 78.1377 213.537 79.8075 212.318 81.2122C214.04 81.3182 215.763 81.2652 217.459 81.6363C218.679 81.9013 218.705 83.7301 217.539 84.0747Z" fill="white"/>
<path d="M216.399 44.6626H221.329C221.408 44.6891 221.832 46.1468 222.601 49.0358L227.08 65.9722H245.103C242.585 56.6691 240.704 49.5924 239.405 44.7421L239.511 44.6891H244.441C244.52 44.7156 244.891 46.0408 245.607 48.6648C253.028 76.2825 256.898 90.807 257.269 92.2383H252.233C252.154 92.2383 251.73 90.7275 250.961 87.706C250.033 84.4724 248.523 78.88 246.429 70.9551H228.459C231.878 83.5978 233.786 90.701 234.157 92.2383H229.121C229.042 92.2383 228.591 90.648 227.796 87.4939C226.921 84.4724 223.078 70.213 216.293 44.7421L216.399 44.6626Z" fill="white"/>
<path d="M261.8 44.6096H289.127C289.206 44.6361 289.233 44.6891 289.233 44.7156V49.46C289.233 49.5395 289.206 49.566 289.127 49.566H269.169C270.308 50.6792 274.099 54.2573 280.566 60.3003C280.566 60.4593 280.592 60.5654 280.672 60.6449V65.5747H280.619C279.479 65.3097 278.498 65.1772 277.677 65.1772C273.94 65.1772 270.892 66.8204 268.506 70.107C267.26 72.0683 266.624 74.1092 266.624 76.2561C266.624 79.9932 268.268 83.0412 271.554 85.4266C273.516 86.6724 275.583 87.3085 277.756 87.3085C281.44 87.3085 284.515 85.6387 286.927 82.3256C288.146 80.2583 288.756 78.3499 288.756 76.5741H288.809C291.83 77.7668 293.394 78.4294 293.5 78.615C293.208 80.4703 292.678 82.0871 291.883 83.5448C289.895 87.282 286.953 89.8529 283.084 91.2841C281.361 91.9203 279.612 92.2118 277.889 92.2118H277.544C273.012 92.2118 269.036 90.436 265.644 86.8579C262.993 83.7303 261.668 80.2317 261.668 76.3356V75.991C261.668 71.5648 263.444 67.6686 266.969 64.276C269.169 62.3942 271.422 61.228 273.675 60.7244V60.6714C266.147 53.5947 262.145 49.8575 261.668 49.4334V44.6891C261.694 44.6626 261.747 44.6096 261.8 44.6096Z" fill="white"/>
<path d="M296.099 44.6626H301.029C301.188 44.8746 301.506 46.0408 302.036 48.1347C302.328 49.0889 302.619 50.1225 302.858 51.2357C304.077 49.4599 305.614 48.0022 307.443 46.8095C309.961 45.3782 312.479 44.6626 315.023 44.6626H315.527C319.211 44.6626 322.551 46.0143 325.546 48.6913C328.488 51.7128 329.972 55.0789 329.972 58.763V59.3196C329.972 62.6857 328.7 65.8132 326.155 68.7287C323.028 71.8298 319.529 73.367 315.659 73.367V73.42C327.799 82.4051 336.147 88.6602 340.759 92.1588V92.2118H332.516L309.351 74.9043H309.298C312.293 86.0362 313.804 91.8142 313.884 92.2118H308.848C308.768 92.2118 308.344 90.6215 307.522 87.4674C306.648 84.4459 302.805 70.1865 296.02 44.7156L296.099 44.6626ZM305.455 59.1076C305.455 62.2086 306.939 64.7795 309.881 66.8469C311.578 67.9071 313.38 68.4637 315.315 68.4637C318.495 68.4637 321.119 67.1384 323.213 64.488C324.432 62.7917 325.042 60.9629 325.042 59.0016C325.042 55.874 323.584 53.2766 320.669 51.2092C318.972 50.149 317.17 49.5924 315.235 49.5924C312.055 49.5924 309.404 50.9177 307.284 53.5681C306.065 55.2644 305.455 57.1197 305.455 59.1076Z" fill="white"/>
<path d="M342.72 44.6096H370.047C370.126 44.6361 370.153 44.6891 370.153 44.7156V49.46C370.153 49.5395 370.126 49.566 370.047 49.566H350.089C351.228 50.6792 355.018 54.2573 361.486 60.3003C361.486 60.4593 361.512 60.5654 361.592 60.6449V65.5747H361.539C360.399 65.3097 359.418 65.1772 358.597 65.1772C354.859 65.1772 351.811 66.8204 349.426 70.107C348.18 72.0683 347.544 74.1092 347.544 76.2561C347.544 79.9932 349.188 83.0412 352.474 85.4266C354.435 86.6724 356.503 87.3085 358.676 87.3085C362.36 87.3085 365.435 85.6387 367.847 82.3256C369.066 80.2583 369.676 78.3499 369.676 76.5741H369.729C372.75 77.7668 374.314 78.4294 374.42 78.615C374.128 80.4703 373.598 82.0871 372.803 83.5448C370.815 87.282 367.873 89.8529 364.004 91.2841C362.281 91.9203 360.531 92.2118 358.809 92.2118H358.464C353.932 92.2118 349.956 90.436 346.564 86.8579C343.913 83.7303 342.588 80.2317 342.588 76.3356V75.991C342.588 71.5648 344.364 67.6686 347.889 64.276C350.089 62.3942 352.342 61.228 354.594 60.7244V60.6714C347.067 53.5947 343.065 49.8575 342.588 49.4334V44.6891C342.614 44.6626 342.667 44.6096 342.72 44.6096Z" fill="white"/>
</svg>
