<svg width="395" height="157" viewBox="0 0 395 157" fill="none" xmlns="http://www.w3.org/2000/svg">
<rect width="394.544" height="156.006" transform="translate(0 0.810547)" fill="black"/>
<path d="M34.4043 75.2237C34.4043 71.1198 37.7421 67.782 41.8459 67.782V75.2237H86.4959V82.6653H41.8459V97.5486H34.4043V75.2237ZM41.8459 67.782V60.3403H86.4959V67.782H41.8459Z" fill="white"/>
<path d="M133.693 67.7818H96.4846V75.2234H133.693V82.6651H96.4846V97.5484H89.043V60.3401H126.251C130.355 60.3401 133.693 63.6779 133.693 67.7818ZM133.693 67.7818H141.135V75.2234H133.693V67.7818ZM133.693 82.6651C137.797 82.6651 141.135 86.0029 141.135 90.1067V97.5484H133.693V82.6651Z" fill="white"/>
<path d="M143.646 75.2234C143.646 71.1196 146.984 67.7818 151.088 67.7818V75.2234H195.738V82.6651H151.088V90.1067C146.984 90.1067 143.646 86.7689 143.646 82.6651V75.2234ZM151.088 67.7818V60.3401H195.738V67.7818H151.088ZM151.088 90.1067H195.738V97.5484H151.088V90.1067Z" fill="white"/>
<path d="M198.287 67.7818H205.647C205.647 63.6779 208.985 60.3401 213.088 60.3401H250.297V67.7818H205.701V75.2234H242.91C247.014 75.2234 250.351 78.5612 250.351 82.6651V90.1067H242.91V82.6651H205.701C201.598 82.6651 198.26 79.3273 198.26 75.2234V67.7818H198.287ZM235.495 97.5484H198.287V90.1067H242.937C242.964 94.2106 239.599 97.5484 235.495 97.5484Z" fill="white"/>
<path d="M252.92 75.2234C252.92 71.1196 256.258 67.7818 260.362 67.7818V90.1067C256.258 90.1067 252.92 86.7689 252.92 82.6651V75.2234ZM260.362 67.7818V60.3401H305.012V67.7818H260.362ZM260.362 90.1067H305.012V97.5484H260.362V90.1067Z" fill="white"/>
<path d="M307.557 75.2234C307.557 71.1196 310.894 67.7818 314.998 67.7818V90.1067C310.894 90.1067 307.557 86.7689 307.557 82.6651V75.2234ZM314.998 67.7818V60.3401H352.207V67.7818H314.998ZM314.998 90.1067H352.207V97.5484H314.998V90.1067ZM352.207 67.7818C356.31 67.7818 359.648 71.1196 359.648 75.2234V82.6651C359.648 86.7689 356.31 90.1067 352.207 90.1067V67.7818Z" fill="white"/>
<path d="M382.058 138.887H12V19H382.086V138.887H382.058ZM19.2228 131.665H374.836V26.2228H19.2228V131.665Z" fill="white"/>
</svg>
