<svg width="396" height="156" viewBox="0 0 396 156" fill="none" xmlns="http://www.w3.org/2000/svg">
<rect width="395.551" height="155" transform="translate(0.296875 0.438477)" fill="black"/>
<path d="M145 58H151.1V92.19C147.74 92.19 145 89.46 145 86.09V58ZM169.39 97.88V92.18H151.1V97.88H169.39ZM175.48 58H169.38V92.19H169.44C172.8 92.19 175.48 89.46 175.48 86.09V58Z" fill="white"/>
<path d="M182.32 58H188.42V75.09C185.06 75.09 182.32 72.36 182.32 68.99V58ZM188.42 75.09H206.71V80.73C210.07 80.73 212.81 83.46 212.81 86.83V97.88H206.71V80.79H188.42V97.88H182.32V86.83C182.32 83.47 185.05 80.73 188.42 80.73V75.09ZM212.8 68.99C212.8 72.35 210.07 75.09 206.7 75.09V58H212.8V68.99Z" fill="white"/>
<path d="M219.641 58H225.741V92.19C222.381 92.19 219.641 89.46 219.641 86.09V58ZM244.021 97.88V92.18H225.731V97.88H244.021ZM250.121 58H244.021V92.19H244.081C247.441 92.19 250.121 89.46 250.121 86.09V58Z" fill="white"/>
</svg>
