<svg width="396" height="157" viewBox="0 0 396 157" fill="none" xmlns="http://www.w3.org/2000/svg">
<g clip-path="url(#clip0_960_6331)">
<rect width="395.551" height="156.006" transform="translate(0.214844 0.719727)" fill="black"/>
<path d="M182.96 141.056V136.298H183.397V141.056H182.96ZM182.96 140.146C182.768 140.146 182.593 140.111 182.435 140.042C182.277 139.972 182.141 139.873 182.028 139.744C181.914 139.615 181.827 139.46 181.765 139.28C181.703 139.1 181.673 138.9 181.673 138.681C181.673 138.459 181.703 138.258 181.765 138.078C181.827 137.896 181.914 137.741 182.028 137.611C182.141 137.482 182.277 137.383 182.435 137.314C182.593 137.243 182.768 137.208 182.96 137.208H183.093V140.146H182.96ZM182.96 139.754H183.034V137.6H182.96C182.815 137.6 182.688 137.63 182.581 137.689C182.474 137.747 182.385 137.827 182.315 137.928C182.246 138.028 182.194 138.142 182.159 138.272C182.126 138.401 182.109 138.538 182.109 138.681C182.109 138.871 182.139 139.047 182.2 139.21C182.26 139.373 182.353 139.504 182.479 139.604C182.605 139.704 182.765 139.754 182.96 139.754ZM183.397 140.146H183.264V137.208H183.397C183.589 137.208 183.764 137.243 183.922 137.314C184.08 137.383 184.216 137.482 184.329 137.611C184.443 137.741 184.53 137.896 184.592 138.078C184.654 138.258 184.684 138.459 184.684 138.681C184.684 138.9 184.654 139.1 184.592 139.28C184.53 139.46 184.443 139.615 184.329 139.744C184.216 139.873 184.08 139.972 183.922 140.042C183.764 140.111 183.589 140.146 183.397 140.146ZM183.397 139.754C183.544 139.754 183.67 139.725 183.776 139.669C183.883 139.611 183.972 139.532 184.041 139.432C184.111 139.331 184.163 139.216 184.196 139.088C184.231 138.958 184.248 138.823 184.248 138.681C184.248 138.491 184.218 138.314 184.157 138.15C184.097 137.986 184.004 137.853 183.878 137.752C183.752 137.651 183.592 137.6 183.397 137.6H183.323V139.754H183.397ZM186.506 140.146C186.25 140.146 186.025 140.085 185.831 139.963C185.639 139.841 185.488 139.67 185.38 139.45C185.272 139.231 185.219 138.974 185.219 138.681C185.219 138.385 185.272 138.126 185.38 137.906C185.488 137.685 185.639 137.513 185.831 137.391C186.025 137.269 186.25 137.208 186.506 137.208C186.763 137.208 186.987 137.269 187.18 137.391C187.373 137.513 187.524 137.685 187.631 137.906C187.739 138.126 187.794 138.385 187.794 138.681C187.794 138.974 187.739 139.231 187.631 139.45C187.524 139.67 187.373 139.841 187.18 139.963C186.987 140.085 186.763 140.146 186.506 140.146ZM186.506 139.754C186.701 139.754 186.861 139.704 186.987 139.604C187.113 139.504 187.206 139.373 187.266 139.21C187.327 139.047 187.357 138.871 187.357 138.681C187.357 138.491 187.327 138.314 187.266 138.15C187.206 137.986 187.113 137.853 186.987 137.752C186.861 137.651 186.701 137.6 186.506 137.6C186.311 137.6 186.151 137.651 186.025 137.752C185.899 137.853 185.806 137.986 185.746 138.15C185.685 138.314 185.655 138.491 185.655 138.681C185.655 138.871 185.685 139.047 185.746 139.21C185.806 139.373 185.899 139.504 186.025 139.604C186.151 139.704 186.311 139.754 186.506 139.754ZM188.089 137.652V137.245H190.398V137.652H189.465V140.087H189.029V137.652H188.089ZM192.041 140.146C191.785 140.146 191.56 140.085 191.366 139.963C191.174 139.841 191.023 139.67 190.915 139.45C190.807 139.231 190.754 138.974 190.754 138.681C190.754 138.385 190.807 138.126 190.915 137.906C191.023 137.685 191.174 137.513 191.366 137.391C191.56 137.269 191.785 137.208 192.041 137.208C192.298 137.208 192.522 137.269 192.715 137.391C192.908 137.513 193.059 137.685 193.166 137.906C193.275 138.126 193.329 138.385 193.329 138.681C193.329 138.974 193.275 139.231 193.166 139.45C193.059 139.67 192.908 139.841 192.715 139.963C192.522 140.085 192.298 140.146 192.041 140.146ZM192.041 139.754C192.236 139.754 192.396 139.704 192.522 139.604C192.648 139.504 192.741 139.373 192.802 139.21C192.862 139.047 192.892 138.871 192.892 138.681C192.892 138.491 192.862 138.314 192.802 138.15C192.741 137.986 192.648 137.853 192.522 137.752C192.396 137.651 192.236 137.6 192.041 137.6C191.846 137.6 191.686 137.651 191.56 137.752C191.434 137.853 191.341 137.986 191.281 138.15C191.22 138.314 191.19 138.491 191.19 138.681C191.19 138.871 191.22 139.047 191.281 139.21C191.341 139.373 191.434 139.504 191.56 139.604C191.686 139.704 191.846 139.754 192.041 139.754ZM195.749 137.245V137.652H194.432V140.087H193.995V137.245H195.749ZM196.386 141.152V137.245H196.808V137.697H196.86C196.892 137.647 196.936 137.584 196.993 137.508C197.051 137.43 197.134 137.361 197.241 137.301C197.35 137.239 197.496 137.208 197.681 137.208C197.921 137.208 198.131 137.268 198.314 137.388C198.497 137.507 198.639 137.677 198.741 137.896C198.844 138.116 198.895 138.375 198.895 138.673C198.895 138.974 198.844 139.235 198.741 139.456C198.639 139.675 198.497 139.846 198.316 139.966C198.135 140.086 197.926 140.146 197.689 140.146C197.506 140.146 197.36 140.116 197.25 140.055C197.141 139.994 197.056 139.924 196.997 139.846C196.938 139.767 196.892 139.702 196.86 139.65H196.823V141.152H196.386ZM196.816 138.666C196.816 138.88 196.847 139.07 196.91 139.234C196.973 139.397 197.065 139.524 197.186 139.617C197.306 139.708 197.454 139.754 197.63 139.754C197.812 139.754 197.964 139.706 198.086 139.609C198.21 139.512 198.302 139.381 198.364 139.217C198.427 139.052 198.458 138.868 198.458 138.666C198.458 138.466 198.427 138.286 198.366 138.126C198.305 137.964 198.213 137.836 198.09 137.743C197.968 137.648 197.815 137.6 197.63 137.6C197.452 137.6 197.303 137.645 197.182 137.735C197.061 137.824 196.97 137.949 196.908 138.109C196.846 138.268 196.816 138.454 196.816 138.666ZM200.397 140.153C200.217 140.153 200.054 140.119 199.907 140.052C199.76 139.982 199.644 139.883 199.557 139.754C199.471 139.623 199.428 139.465 199.428 139.28C199.428 139.117 199.46 138.985 199.524 138.884C199.588 138.782 199.674 138.702 199.781 138.644C199.888 138.586 200.007 138.543 200.136 138.514C200.267 138.485 200.398 138.461 200.53 138.444C200.703 138.422 200.843 138.405 200.95 138.394C201.059 138.382 201.138 138.361 201.187 138.333C201.238 138.305 201.263 138.255 201.263 138.185V138.17C201.263 137.988 201.213 137.846 201.113 137.745C201.014 137.643 200.864 137.593 200.663 137.593C200.455 137.593 200.292 137.639 200.173 137.73C200.055 137.821 199.972 137.919 199.923 138.022L199.509 137.874C199.583 137.701 199.682 137.567 199.805 137.471C199.93 137.373 200.065 137.306 200.212 137.267C200.36 137.228 200.506 137.208 200.649 137.208C200.74 137.208 200.845 137.219 200.963 137.241C201.083 137.262 201.198 137.306 201.309 137.373C201.421 137.439 201.514 137.54 201.588 137.674C201.662 137.809 201.699 137.989 201.699 138.215V140.087H201.263V139.702H201.241C201.211 139.764 201.162 139.83 201.093 139.9C201.024 139.97 200.932 140.03 200.817 140.079C200.702 140.129 200.562 140.153 200.397 140.153ZM200.464 139.761C200.636 139.761 200.782 139.727 200.9 139.659C201.02 139.591 201.11 139.504 201.17 139.397C201.232 139.289 201.263 139.176 201.263 139.058V138.658C201.244 138.681 201.204 138.701 201.141 138.72C201.079 138.737 201.008 138.752 200.926 138.766C200.846 138.778 200.768 138.789 200.691 138.799C200.616 138.808 200.555 138.815 200.508 138.821C200.395 138.836 200.289 138.86 200.19 138.893C200.092 138.926 200.014 138.974 199.953 139.04C199.894 139.104 199.864 139.191 199.864 139.302C199.864 139.454 199.92 139.569 200.033 139.646C200.146 139.723 200.29 139.761 200.464 139.761ZM203.651 141.056V136.298H204.087V141.056H203.651ZM203.651 140.146C203.458 140.146 203.283 140.111 203.125 140.042C202.967 139.972 202.832 139.873 202.718 139.744C202.605 139.615 202.517 139.46 202.456 139.28C202.394 139.1 202.363 138.9 202.363 138.681C202.363 138.459 202.394 138.258 202.456 138.078C202.517 137.896 202.605 137.741 202.718 137.611C202.832 137.482 202.967 137.383 203.125 137.314C203.283 137.243 203.458 137.208 203.651 137.208H203.784V140.146H203.651ZM203.651 139.754H203.725V137.6H203.651C203.505 137.6 203.379 137.63 203.271 137.689C203.164 137.747 203.075 137.827 203.005 137.928C202.936 138.028 202.884 138.142 202.85 138.272C202.816 138.401 202.8 138.538 202.8 138.681C202.8 138.871 202.83 139.047 202.89 139.21C202.951 139.373 203.044 139.504 203.17 139.604C203.295 139.704 203.456 139.754 203.651 139.754ZM204.087 140.146H203.954V137.208H204.087C204.28 137.208 204.455 137.243 204.613 137.314C204.771 137.383 204.906 137.482 205.02 137.611C205.133 137.741 205.221 137.896 205.282 138.078C205.344 138.258 205.375 138.459 205.375 138.681C205.375 138.9 205.344 139.1 205.282 139.28C205.221 139.46 205.133 139.615 205.02 139.744C204.906 139.873 204.771 139.972 204.613 140.042C204.455 140.111 204.28 140.146 204.087 140.146ZM204.087 139.754C204.234 139.754 204.36 139.725 204.467 139.669C204.574 139.611 204.662 139.532 204.731 139.432C204.801 139.331 204.853 139.216 204.886 139.088C204.921 138.958 204.938 138.823 204.938 138.681C204.938 138.491 204.908 138.314 204.848 138.15C204.787 137.986 204.694 137.853 204.568 137.752C204.442 137.651 204.282 137.6 204.087 137.6H204.013V139.754H204.087Z" fill="white"/>
<path d="M282.36 10H261.059V16.0921H282.36V10Z" fill="white"/>
<path d="M96 15.3154V146.152H174.338V138.547H103.605V22.9203H292.255V138.547H283.893V146.152H299.859V15.3154H96Z" fill="white"/>
<path d="M174.77 54.1981C175.649 53.9528 176.344 54.0141 176.855 54.4025C177.366 54.7909 177.591 55.302 177.489 55.8949C177.387 56.5082 176.917 57.1215 176.038 57.7552C175.158 58.389 173.789 58.7774 171.908 58.9818C170.722 61.1079 169.659 63.4997 168.719 66.1778C167.778 68.8558 166.797 71.5952 165.795 74.4368C164.773 77.258 163.649 80.0587 162.402 82.839C161.155 85.5988 159.622 88.1338 157.823 90.4439C156.024 92.7335 153.857 94.696 151.342 96.311C148.828 97.926 145.802 98.9891 142.265 99.5206C140.487 99.7659 138.708 99.8273 136.909 99.6637C135.131 99.5002 133.434 99.1322 131.839 98.5598C130.245 97.9874 128.793 97.231 127.444 96.2906C126.115 95.3502 125.032 94.2258 124.214 92.9175C123.376 91.6091 122.844 90.1372 122.579 88.4813C122.313 86.8459 122.436 85.0264 122.926 83.0639C123.151 82.2257 123.499 81.4693 123.989 80.7947C124.48 80.12 124.991 79.5476 125.522 79.057C126.054 78.5664 126.585 78.1984 127.097 77.9122C127.608 77.626 128.016 77.4829 128.344 77.442C128.712 77.3807 128.916 77.442 128.936 77.6464C128.957 77.8508 128.875 77.994 128.671 78.0962C128.446 78.1984 128.119 78.4233 127.669 78.7708C127.219 79.1388 126.749 79.609 126.238 80.2018C125.747 80.7947 125.277 81.5102 124.827 82.3279C124.398 83.1456 124.112 84.1065 123.989 85.1695C123.764 86.8663 123.867 88.3586 124.296 89.667C124.725 90.9754 125.359 92.1202 126.217 93.0606C127.076 94.0214 128.098 94.7982 129.264 95.4115C130.429 96.0248 131.676 96.4746 132.964 96.8017C134.252 97.1083 135.56 97.2719 136.848 97.2923C138.136 97.3128 139.342 97.1901 140.446 96.9448C143.799 96.1884 146.702 94.9822 149.175 93.3059C151.649 91.6296 153.795 89.7488 155.594 87.6431C157.414 85.5579 158.927 83.3501 160.174 81.0604C161.4 78.7708 162.484 76.6038 163.383 74.6208C163.547 74.2733 163.772 73.7213 164.119 72.9854C164.446 72.229 164.835 71.3704 165.264 70.4095C165.693 69.4487 166.163 68.4061 166.675 67.3226C167.165 66.2391 167.676 65.1556 168.146 64.113C168.637 63.0704 169.066 62.1096 169.475 61.2305C169.884 60.3515 170.232 59.6564 170.518 59.1249C169.475 59.2476 168.392 59.3498 167.267 59.452C166.123 59.5542 164.957 59.6564 163.792 59.7791C162.627 59.9017 161.462 60.0653 160.296 60.2493C159.131 60.4333 158.007 60.6786 156.923 61.0057C154.613 61.6599 152.712 62.6002 151.22 63.7859C149.727 64.9921 148.603 66.3005 147.826 67.7315C147.049 69.1625 146.599 70.5731 146.518 71.9837C146.415 73.3942 146.62 74.6004 147.11 75.6225C147.601 76.6447 148.337 77.3807 149.339 77.8304C150.34 78.2802 151.567 78.2393 153.039 77.7077C153.816 77.4215 154.49 76.9514 155.063 76.2767C155.615 75.6021 156.065 74.8457 156.392 74.0075C156.719 73.1694 156.923 72.2903 157.005 71.4113C157.087 70.5118 157.066 69.694 156.944 68.9581C156.882 68.7127 156.964 68.6105 157.209 68.6719C157.434 68.7332 157.639 68.9376 157.802 69.2852C158.109 70.1029 158.232 70.9819 158.129 71.9428C158.027 72.9036 157.782 73.8235 157.352 74.7026C156.923 75.6021 156.371 76.3789 155.697 77.074C155.022 77.7691 154.245 78.2597 153.407 78.5664C151.649 79.2205 150.075 79.3023 148.644 78.7912C147.213 78.3006 146.088 77.4624 145.25 76.2972C144.412 75.1319 143.921 73.7622 143.778 72.1472C143.635 70.5322 143.983 68.9172 144.78 67.3022C145.598 65.6667 146.947 64.1744 148.807 62.7842C150.668 61.3941 153.223 60.331 156.412 59.6155C157.7 59.3293 158.988 59.1044 160.296 58.9409C161.605 58.7774 162.913 58.6343 164.18 58.532C165.468 58.4298 166.695 58.3481 167.881 58.2663C169.066 58.1845 170.17 58.1027 171.213 58.0005C171.315 57.8779 171.479 57.6326 171.704 57.2441C171.928 56.8762 172.235 56.4673 172.583 56.0789C172.93 55.67 173.298 55.302 173.687 54.9545C173.993 54.5456 174.382 54.3207 174.77 54.1981ZM198.77 53.4417C197.523 55.5065 196.072 57.5508 194.416 59.5542C192.76 61.5781 191.002 63.4793 189.142 65.2987C187.281 67.1182 185.36 68.815 183.377 70.3891C181.394 71.9632 179.452 73.3942 177.53 74.6413C175.629 75.8883 173.809 76.9309 172.092 77.7895C170.375 78.6277 168.842 79.2205 167.492 79.5681C167.329 79.5068 167.288 79.8134 167.349 80.5085C167.411 81.2035 167.554 82.103 167.799 83.207C168.024 84.3109 168.371 85.5579 168.78 86.9276C169.209 88.2973 169.7 89.667 170.313 91.0163C171.315 93.3059 172.501 95.0844 173.871 96.3928C175.24 97.6807 176.855 98.3349 178.695 98.3349C179.595 98.3349 180.535 98.2327 181.516 98.0283C182.477 97.8238 183.418 97.5376 184.276 97.1288C185.155 96.7403 185.952 96.2293 186.668 95.5955C187.383 94.9618 187.956 94.2258 188.406 93.3877C188.508 93.1628 188.61 92.9993 188.753 92.8766C188.896 92.7539 189.019 92.713 189.101 92.7335C189.203 92.7539 189.244 92.8561 189.244 93.0401C189.244 93.2037 189.162 93.449 189.019 93.7761C188.59 94.6143 187.976 95.432 187.22 96.2293C186.443 97.0266 185.584 97.7216 184.624 98.3349C183.663 98.9482 182.641 99.4184 181.578 99.7864C180.515 100.154 179.492 100.318 178.491 100.318C177.203 100.318 175.997 100.093 174.852 99.6433C173.707 99.1935 172.664 98.5802 171.683 97.7829C170.722 97.0061 169.843 96.0657 169.087 94.9822C168.31 93.8988 167.656 92.7539 167.083 91.5273C166.429 90.0963 165.898 88.6244 165.489 87.1116C165.08 85.6193 164.794 84.2291 164.61 82.9821C164.446 81.7351 164.364 80.6924 164.405 79.8952C164.446 79.0774 164.569 78.6277 164.773 78.5255C165.346 78.5664 166.307 78.3006 167.697 77.7486C169.087 77.1967 170.722 76.3789 172.624 75.2954C174.525 74.1915 176.589 72.8832 178.818 71.3499C181.046 69.8167 183.295 68.079 185.523 66.1369C187.751 64.1948 189.918 62.1096 192.024 59.8813C194.109 57.653 195.99 55.2816 197.605 52.7671C197.891 52.3582 198.137 52.1129 198.361 51.9902C198.586 51.888 198.75 51.8676 198.893 51.9698C199.036 52.072 199.097 52.2356 199.077 52.5013C199.077 52.8488 198.975 53.1351 198.77 53.4417ZM174.811 57.2441C175.302 56.9988 175.649 56.7126 175.833 56.4264C176.017 56.1198 176.078 55.8949 176.017 55.6904C175.956 55.5065 175.792 55.4042 175.526 55.3838C175.261 55.3634 174.934 55.5269 174.566 55.8335C174.259 56.0789 173.932 56.406 173.605 56.7944C173.278 57.1828 172.991 57.5303 172.726 57.7961C173.646 57.6734 174.341 57.4895 174.811 57.2441Z" fill="white"/>
<path d="M198.401 83.1864C197.583 84.8219 196.868 86.1711 196.234 87.2955C195.6 88.3994 194.905 89.3603 194.149 90.1575C193.372 90.9548 192.452 91.6499 191.389 92.2632C190.305 92.8765 188.936 93.4693 187.239 94.0622C186.483 95.3705 185.644 96.7607 184.684 98.2326C183.723 99.7045 182.66 101.054 181.474 102.28C180.288 103.507 178.96 104.529 177.488 105.326C176.016 106.124 174.421 106.533 172.704 106.533C171.518 106.533 170.598 106.369 169.944 106.021C169.29 105.674 168.82 105.224 168.554 104.652C168.288 104.079 168.206 103.466 168.288 102.791C168.39 102.117 168.595 101.463 168.942 100.788C169.372 99.9089 170.005 99.1525 170.803 98.5392C171.6 97.9055 172.459 97.374 173.358 96.9447C174.953 96.1883 176.772 95.575 178.816 95.0843C180.861 94.5937 182.844 94.0826 184.745 93.5511C185.174 92.7743 185.604 91.8952 186.012 90.9344C186.421 89.9735 186.789 88.9923 187.137 88.0314C187.484 87.0706 187.791 86.1302 188.077 85.2716C188.363 84.3926 188.588 83.6362 188.772 83.0229C188.363 83.7384 187.873 84.597 187.321 85.5783C186.748 86.5595 186.115 87.4999 185.42 88.3994C184.724 89.2989 183.948 90.0553 183.13 90.6891C182.292 91.3228 181.433 91.6499 180.534 91.6499C180.288 91.6499 180.002 91.6294 179.716 91.5886C179.409 91.5477 179.123 91.4455 178.857 91.2819C178.571 91.1184 178.326 90.9139 178.08 90.6277C177.856 90.3415 177.672 89.994 177.59 89.5442C177.488 89.0536 177.488 88.563 177.549 88.0928C177.61 87.6226 177.733 87.1728 177.896 86.7026C178.06 86.2529 178.264 85.8031 178.51 85.3943C178.735 84.965 178.98 84.5357 179.184 84.1064C179.021 84.1064 178.878 84.0655 178.735 83.9633C178.592 83.861 178.592 83.677 178.755 83.35C178.919 83.1046 179.041 82.8389 179.184 82.5527C179.307 82.2665 179.45 81.9803 179.614 81.7145C180.084 80.815 180.554 79.8951 181.024 78.9956C181.494 78.0961 181.903 77.2783 182.251 76.5628C182.435 76.1948 182.68 75.9291 182.987 75.786C183.273 75.6429 183.641 75.5815 184.091 75.5815H186.953C186.728 75.7655 186.462 75.97 186.135 76.1948C185.808 76.4197 185.501 76.7673 185.215 77.2783C184.397 78.648 183.661 80.0382 182.987 81.4079C182.312 82.7776 181.658 84.1677 180.983 85.5783C180.411 86.8048 180.104 87.8066 180.043 88.6243C179.982 89.442 180.104 90.0144 180.391 90.3415C180.677 90.6686 181.126 90.7095 181.719 90.4846C182.312 90.2597 182.987 89.6873 183.743 88.8287C184.397 88.0723 185.072 87.1933 185.767 86.1507C186.462 85.1081 187.116 84.045 187.771 82.9411C188.404 81.8372 189.018 80.7332 189.59 79.6293C190.162 78.5254 190.673 77.5237 191.123 76.5833C191.307 76.2153 191.553 75.9495 191.859 75.8064C192.166 75.6633 192.513 75.602 192.963 75.602H195.498C195.069 75.9086 194.68 76.2562 194.353 76.665C194.026 77.0535 193.719 77.5032 193.433 77.9938C193.147 78.4845 192.881 79.0569 192.636 79.7111C192.391 80.3448 192.125 81.0603 191.839 81.8372C191.246 83.4317 190.633 85.149 190.04 86.9888C189.426 88.8287 188.772 90.6891 188.098 92.5698C188.588 92.4063 189.161 92.2019 189.754 91.9565C190.367 91.7112 190.96 91.3841 191.552 91.0161C192.145 90.6482 192.718 90.1984 193.29 89.6873C193.863 89.1763 194.374 88.5834 194.844 87.9292C195.559 86.8662 196.173 85.844 196.663 84.8832C197.154 83.9224 197.542 83.2069 197.788 82.7776C198.013 82.3687 198.217 82.2256 198.442 82.3278C198.626 82.43 198.626 82.7162 198.401 83.1864ZM183.907 95.1048C183.15 95.2888 182.353 95.4932 181.494 95.7181C180.636 95.943 179.757 96.1678 178.898 96.4131C178.019 96.6585 177.181 96.9242 176.363 97.19C175.545 97.4557 174.81 97.7215 174.155 98.0077C172.97 98.5392 171.968 99.2343 171.171 100.072C170.373 100.911 169.842 101.749 169.576 102.587C169.31 103.425 169.331 104.12 169.637 104.713C169.944 105.306 170.598 105.613 171.6 105.613C172.643 105.613 173.706 105.285 174.789 104.652C175.893 104.018 176.936 103.241 177.958 102.321C178.98 101.422 179.92 100.461 180.779 99.4592C181.638 98.4575 182.333 97.5784 182.864 96.8425C183.028 96.5971 183.191 96.3109 183.355 96.0247C183.539 95.7181 183.723 95.4114 183.907 95.1048Z" fill="white"/>
<path d="M205.577 85.6805C205.168 86.396 204.718 87.1116 204.248 87.8066C203.757 88.5017 203.246 89.1559 202.694 89.7283C202.142 90.3007 201.57 90.7709 200.977 91.1389C200.384 91.5068 199.812 91.6704 199.239 91.6704C198.994 91.6704 198.708 91.6499 198.422 91.6091C198.115 91.5682 197.829 91.466 197.563 91.3024C197.277 91.1389 197.032 90.9344 196.786 90.6482C196.561 90.362 196.377 90.0145 196.296 89.5647C196.193 89.0741 196.193 88.5835 196.255 88.1133C196.316 87.6431 196.439 87.1933 196.602 86.7231C196.766 86.2734 196.97 85.8236 197.216 85.4148C197.44 84.9855 197.686 84.5562 197.89 84.1269C197.727 84.1269 197.584 84.086 197.44 83.9838C197.297 83.8815 197.297 83.6976 197.461 83.3705C197.624 83.1251 197.747 82.8594 197.89 82.5732C198.013 82.287 198.156 82.0008 198.32 81.735C198.79 80.8355 199.26 79.9156 199.73 79.0161C200.2 78.1166 200.609 77.2988 200.957 76.5833C201.141 76.2154 201.386 75.9496 201.693 75.8065C201.979 75.6634 202.347 75.6021 202.797 75.6021H205.659C205.372 75.786 205.127 75.9905 204.902 76.1949C204.677 76.3993 204.452 76.6447 204.228 76.9309C204.003 77.2171 203.757 77.5646 203.492 77.953C203.246 78.3619 202.96 78.8934 202.653 79.5476C202.224 80.3653 201.815 81.1422 201.488 81.8986C201.141 82.5527 200.814 83.2274 200.507 83.9224C200.2 84.6175 199.935 85.1695 199.71 85.6192C199.137 86.8458 198.831 87.8475 198.769 88.6652C198.708 89.483 198.831 90.0554 199.117 90.3825C199.403 90.7096 199.853 90.7505 200.446 90.5256C201.038 90.3007 201.713 89.7283 202.469 88.8697C203.124 88.1133 203.778 87.2342 204.412 86.1916C205.045 85.149 205.679 84.086 206.272 82.982C206.865 81.8781 207.437 80.7742 207.989 79.6702C208.541 78.5663 209.032 77.5646 209.461 76.6242C209.645 76.2562 209.89 75.9905 210.197 75.8474C210.504 75.7043 210.851 75.6429 211.301 75.6429H213.836C213.488 75.9292 213.202 76.1745 212.936 76.4198C212.691 76.6447 212.446 76.9309 212.2 77.2579C211.976 77.585 211.73 77.9939 211.464 78.4845C211.219 78.9752 210.913 79.568 210.565 80.304C210.217 80.9582 209.89 81.6532 209.563 82.3483C209.236 83.0638 208.93 83.7384 208.623 84.4131C208.316 85.0877 208.071 85.7214 207.846 86.2938C207.621 86.8662 207.478 87.3773 207.417 87.7658C207.192 88.7675 207.212 89.483 207.437 89.9123C207.662 90.3416 207.969 90.5665 208.296 90.5869C208.725 90.5869 209.175 90.4234 209.604 90.1167C210.033 89.8101 210.483 89.4012 210.913 88.8901C211.567 88.1337 212.221 87.2342 212.855 86.2121C213.488 85.1695 214.122 84.1064 214.715 82.982C215.308 81.8577 215.88 80.7537 216.432 79.6702C216.984 78.5663 217.475 77.5441 217.904 76.6038C218.088 76.2358 218.333 75.97 218.64 75.8269C218.947 75.6838 219.294 75.6225 219.744 75.6225H222.279C221.931 75.9087 221.645 76.154 221.379 76.3993C221.134 76.6242 220.889 76.9104 220.643 77.2375C220.419 77.5646 220.173 77.9735 219.908 78.4641C219.662 78.9547 219.356 79.5476 219.008 80.2835C218.66 80.9377 218.333 81.6328 218.006 82.3279C217.679 83.0229 217.373 83.718 217.066 84.3926C216.759 85.0672 216.514 85.701 216.289 86.2734C216.064 86.8458 215.921 87.3569 215.86 87.7453C215.635 88.747 215.655 89.4625 215.88 89.8918C216.105 90.3211 216.412 90.546 216.739 90.5665C217.311 90.5665 217.863 90.3211 218.456 89.8101C219.028 89.3194 219.58 88.6857 220.112 87.9089C220.643 87.132 221.155 86.2938 221.645 85.3739C222.136 84.4539 222.565 83.5749 222.974 82.7163C223.158 82.3074 223.383 82.1643 223.608 82.2665C223.833 82.3687 223.853 82.6549 223.628 83.1251C223.26 83.9429 222.81 84.8424 222.32 85.8236C221.829 86.8049 221.257 87.7453 220.623 88.6039C219.989 89.483 219.315 90.1985 218.558 90.7913C217.802 91.3637 217.005 91.6499 216.166 91.6499C215.635 91.6499 215.165 91.5273 214.756 91.2615C214.347 90.9958 214.04 90.6074 213.836 90.0963C213.631 89.5852 213.529 88.9515 213.529 88.1951C213.529 87.4387 213.693 86.6005 213.999 85.6601C213.713 86.1916 213.345 86.8049 212.895 87.4795C212.446 88.1746 211.935 88.8083 211.362 89.4216C210.79 90.0349 210.197 90.546 209.584 90.9958C208.95 91.4251 208.316 91.6499 207.662 91.6499C207.131 91.6499 206.66 91.5273 206.251 91.2615C205.843 90.9958 205.536 90.6074 205.332 90.0963C205.127 89.5852 205.025 88.9515 205.025 88.1951C205.107 87.4591 205.27 86.6005 205.577 85.6805ZM214.49 93.7352C214.245 94.1031 213.938 94.4915 213.57 94.88C213.202 95.2684 212.793 95.6159 212.323 95.943C211.853 96.2497 211.321 96.5154 210.749 96.6994C210.177 96.8834 209.543 96.9652 208.889 96.9243C208.255 96.8834 207.662 96.8016 207.09 96.6381C206.517 96.4745 205.945 96.311 205.372 96.1475C204.8 95.9839 204.248 95.8204 203.676 95.6773C203.103 95.5341 202.551 95.4524 201.979 95.4115C201.263 95.3502 200.65 95.4524 200.18 95.7181C199.689 95.9839 199.321 96.311 199.035 96.679C198.994 96.7403 198.912 96.7812 198.749 96.8016C198.585 96.8221 198.442 96.8221 198.279 96.8016C198.115 96.7812 197.972 96.7607 197.849 96.7403C197.727 96.6994 197.665 96.6585 197.665 96.5972C198.197 95.9021 198.933 95.2275 199.894 94.5529C200.854 93.8783 201.979 93.5716 203.287 93.6329C203.88 93.6534 204.473 93.7351 205.045 93.8578C205.618 93.9805 206.211 94.1236 206.783 94.3076C207.355 94.4711 207.928 94.6346 208.48 94.7777C209.032 94.9208 209.584 95.0026 210.136 95.0435C210.913 95.1048 211.567 95.0026 212.057 94.7369C212.548 94.4711 212.977 94.1236 213.325 93.6738C213.325 93.6329 213.386 93.6125 213.529 93.6125C213.672 93.592 213.815 93.5921 213.959 93.5921C214.102 93.5921 214.224 93.6125 214.327 93.6329C214.49 93.6738 214.531 93.7147 214.49 93.7352Z" fill="white"/>
<path d="M224.633 84.9653C224.449 85.3741 224.286 85.7012 224.163 85.9465C224.04 86.1918 223.897 86.5189 223.734 86.8869C223.57 87.2549 223.366 87.766 223.079 88.3793C222.793 89.013 222.405 89.8921 221.914 91.0573C221.73 91.4048 221.505 91.6093 221.26 91.6706C221.015 91.7319 220.626 91.7728 220.136 91.7728C219.788 91.7933 219.502 91.8137 219.277 91.8137C219.052 91.8137 218.807 91.8955 218.541 92.0386C219.665 89.7898 220.728 87.5615 221.751 85.3741C222.773 83.1867 223.856 81.0197 225.021 78.8936C225.614 77.7693 226.125 76.9924 226.575 76.5427C227.004 76.1134 227.597 75.9089 228.354 75.9294C228.66 75.9703 228.987 76.0111 229.315 76.0929C229.642 76.1747 229.969 76.1747 230.316 76.1134C229.969 76.2973 229.56 76.7062 229.069 77.3399C228.579 77.9737 228.088 78.7096 227.577 79.5478C227.066 80.386 226.534 81.2855 226.023 82.2463C225.492 83.2276 225.042 84.1271 224.633 84.9653ZM232.136 82.3894C231.952 82.9209 231.625 83.432 231.154 83.9226C230.684 84.4133 230.132 84.6177 229.519 84.5564C228.947 84.5359 228.395 84.352 227.863 84.0657C227.311 83.7591 226.78 83.5956 226.248 83.5751C225.941 83.5342 225.655 83.616 225.41 83.7795C225.165 83.9431 224.981 84.168 224.838 84.4133C224.797 84.4746 224.674 84.5155 224.47 84.5155C224.245 84.5155 224.163 84.4746 224.245 84.3724C224.49 83.9022 224.838 83.432 225.308 82.9618C225.757 82.4916 226.309 82.2872 226.923 82.3485C227.516 82.3894 228.068 82.5325 228.579 82.7983C229.09 83.064 229.621 83.2276 230.153 83.2889C230.521 83.3502 230.827 83.2889 231.052 83.1049C231.277 82.9209 231.461 82.6756 231.625 82.4099C231.686 82.3485 231.809 82.3076 231.993 82.3076C232.136 82.2872 232.197 82.3281 232.136 82.3894ZM232.933 84.9653C232.708 85.3946 232.483 85.9465 232.258 86.5803C232.034 87.214 231.87 87.8477 231.768 88.461C231.666 89.0743 231.706 89.5854 231.829 90.0352C231.972 90.4645 232.32 90.6893 232.892 90.6893C233.485 90.6893 234.098 90.3623 234.752 89.7081C235.386 89.0539 235.999 88.277 236.551 87.4184C237.124 86.5394 237.614 85.6603 238.085 84.7608C238.534 83.8613 238.882 83.1662 239.148 82.6756C239.332 82.2667 239.557 82.1236 239.781 82.2259C240.006 82.3281 240.027 82.6347 239.802 83.0845C239.454 83.8 239.025 84.6586 238.514 85.6603C238.003 86.662 237.41 87.6229 236.756 88.5428C236.102 89.4628 235.386 90.26 234.589 90.9142C233.812 91.5684 232.953 91.8955 232.054 91.8955C231.686 91.8955 231.318 91.7933 230.95 91.5888C230.582 91.3844 230.255 91.0573 229.948 90.628C229.703 90.2191 229.499 89.6059 229.335 88.7881C229.171 87.9704 229.233 87.214 229.519 86.4985C229.887 85.7217 230.214 85.0266 230.5 84.4133C230.786 83.8 231.073 83.2071 231.338 82.6552C231.625 82.0828 231.911 81.5103 232.238 80.9175C232.545 80.3246 232.913 79.65 233.321 78.8936C233.914 77.7693 234.425 76.9924 234.875 76.5427C235.304 76.1134 235.918 75.9089 236.654 75.9294C236.96 75.9703 237.287 76.0111 237.615 76.0929C237.942 76.1747 238.269 76.1747 238.616 76.1134C238.269 76.2973 237.86 76.7062 237.369 77.3399C236.879 77.9737 236.388 78.7096 235.877 79.5478C235.366 80.386 234.834 81.2855 234.323 82.2463C233.792 83.2276 233.342 84.1271 232.933 84.9653Z" fill="white"/>
<path d="M256.379 83.1456C256.011 83.9633 255.562 84.8628 255.071 85.8441C254.58 86.8254 254.008 87.7657 253.374 88.6244C252.741 89.5034 252.066 90.2189 251.309 90.8118C250.553 91.3842 249.756 91.6704 248.918 91.6704C248.386 91.6704 247.916 91.5477 247.507 91.282C247.098 91.0162 246.792 90.6278 246.587 90.1167C246.383 89.6056 246.28 88.9719 246.28 88.2155C246.28 87.4591 246.444 86.6209 246.751 85.6805C246.342 86.3961 245.892 87.1116 245.422 87.8066C244.931 88.5017 244.42 89.1559 243.868 89.7283C243.316 90.3007 242.744 90.7709 242.151 91.1389C241.558 91.5068 240.986 91.6704 240.413 91.6704C240.168 91.6704 239.882 91.65 239.596 91.6091C239.289 91.5682 239.003 91.466 238.737 91.3024C238.451 91.1389 238.205 90.9344 237.96 90.6482C237.735 90.362 237.551 90.0145 237.469 89.5647C237.367 89.0741 237.367 88.5835 237.429 88.1133C237.49 87.6431 237.613 87.1933 237.776 86.7231C237.94 86.2734 238.144 85.8236 238.389 85.4148C238.614 84.9855 238.86 84.5562 239.064 84.1269C238.9 84.1269 238.757 84.086 238.614 83.9838C238.471 83.8815 238.471 83.6976 238.635 83.3705C238.798 83.1251 238.921 82.8594 239.064 82.5732C239.187 82.287 239.33 82.0008 239.493 81.735C239.964 80.8355 240.434 79.9156 240.904 79.0161C241.374 78.1166 241.783 77.2988 242.131 76.5833C242.315 76.2154 242.56 75.9496 242.866 75.8065C243.153 75.6634 243.521 75.6021 243.97 75.6021H246.832C246.546 75.786 246.301 75.9905 246.076 76.1949C245.851 76.3993 245.626 76.6447 245.401 76.9309C245.177 77.2171 244.931 77.5646 244.665 77.953C244.42 78.3619 244.134 78.8934 243.827 79.5476C243.398 80.3653 242.989 81.1422 242.662 81.8986C242.314 82.5527 241.987 83.2274 241.681 83.9224C241.374 84.6175 241.108 85.1695 240.883 85.6192C240.311 86.8458 240.004 87.8475 239.943 88.6652C239.882 89.483 240.004 90.0554 240.291 90.3825C240.597 90.7096 241.027 90.7505 241.619 90.5256C242.212 90.3007 242.887 89.7283 243.643 88.8697C244.297 88.1133 244.952 87.2342 245.585 86.1916C246.219 85.149 246.853 84.086 247.446 82.982C248.039 81.8781 248.611 80.7742 249.163 79.6702C249.715 78.5663 250.206 77.5646 250.635 76.6242C250.819 76.2562 251.064 75.9905 251.371 75.8474C251.677 75.7043 252.025 75.6429 252.475 75.6429H255.01C254.662 75.9292 254.376 76.1745 254.11 76.4198C253.865 76.6447 253.62 76.9309 253.374 77.2579C253.149 77.585 252.904 77.9939 252.638 78.4845C252.393 78.9752 252.086 79.568 251.739 80.304C251.391 80.9582 251.064 81.6532 250.737 82.3483C250.41 83.0638 250.103 83.7384 249.797 84.4131C249.49 85.0877 249.245 85.7214 249.02 86.2938C248.795 86.8662 248.652 87.3773 248.591 87.7658C248.366 88.7675 248.386 89.483 248.611 89.9123C248.836 90.3416 249.143 90.5665 249.47 90.5869C250.042 90.5869 250.594 90.3416 251.187 89.8305C251.759 89.3399 252.311 88.7061 252.843 87.9293C253.374 87.1524 253.885 86.3143 254.376 85.3943C254.867 84.4744 255.296 83.5953 255.705 82.7367C255.889 82.3279 256.114 82.1848 256.339 82.287C256.604 82.3892 256.604 82.6754 256.379 83.1456Z" fill="white"/>
<path d="M251.37 101.994C250.899 102.996 250.45 103.671 250.041 104.018C249.612 104.366 249.019 104.509 248.242 104.447C247.935 104.406 247.608 104.345 247.281 104.263C246.954 104.182 246.627 104.161 246.279 104.222C246.463 104.038 246.831 103.487 247.363 102.607C247.894 101.708 248.508 100.624 249.182 99.3161C249.877 98.0078 250.613 96.5972 251.39 95.0639C252.167 93.5307 252.903 92.0383 253.578 90.5664C254.252 89.0945 254.825 87.7453 255.315 86.5187C255.806 85.2921 256.112 84.3108 256.276 83.5953C256.031 84.0042 255.744 84.2699 255.438 84.3722C255.131 84.4744 255.049 84.3722 255.213 84.0246C255.336 83.7793 255.499 83.4318 255.683 83.0025C255.867 82.5732 256.031 82.2052 256.153 81.919C256.378 81.4283 256.562 80.8355 256.746 80.1813C256.91 79.5271 257.032 78.8934 257.073 78.3005C257.114 77.7077 257.094 77.1966 257.012 76.7673C256.91 76.338 256.726 76.1131 256.44 76.0313C256.787 75.97 257.114 75.9087 257.421 75.8474C257.666 75.786 257.932 75.7451 258.198 75.7247C258.463 75.7042 258.647 75.6838 258.729 75.6634C259.077 75.6429 259.363 75.602 259.567 75.602C259.792 75.5816 259.956 75.6225 260.078 75.7247C260.201 75.8269 260.283 76.0109 260.344 76.3175C260.385 76.6242 260.406 77.0535 260.406 77.6055C260.406 78.0757 260.344 78.6276 260.201 79.2614C260.058 79.8951 259.894 80.5697 259.71 81.2648C259.526 81.9599 259.322 82.6345 259.097 83.2887C258.872 83.9429 258.668 84.5153 258.484 85.0263C258.954 84.4335 259.547 83.7384 260.262 82.9411C260.978 82.1439 261.693 81.4283 262.429 80.8151C263.002 80.3244 263.697 79.7724 264.515 79.2C265.353 78.6276 266.171 78.1165 267.029 77.6464C267.867 77.1966 268.665 76.8491 269.401 76.5833C270.136 76.338 270.709 76.2767 271.118 76.3993C270.177 78.0961 269.319 79.6907 268.542 81.2239C268.194 81.8781 267.867 82.5527 267.54 83.2478C267.213 83.9428 266.906 84.597 266.62 85.2308C266.334 85.8645 266.089 86.4778 265.884 87.0298C265.68 87.6022 265.557 88.0724 265.475 88.4812C265.291 89.4421 265.291 90.0758 265.475 90.3825C265.659 90.6891 265.905 90.8322 266.232 90.8322C266.825 90.8322 267.458 90.5051 268.113 89.8509C268.767 89.1968 269.401 88.4199 269.993 87.5204C270.586 86.6209 271.118 85.7214 271.588 84.8219C272.058 83.9224 272.406 83.2069 272.671 82.7163C272.855 82.3074 273.08 82.1643 273.305 82.2665C273.53 82.3687 273.551 82.6754 273.326 83.1251C272.978 83.8406 272.549 84.6993 272.038 85.701C271.527 86.7027 270.934 87.6635 270.28 88.5834C269.625 89.5034 268.91 90.3007 268.113 90.9549C267.336 91.609 266.477 91.9361 265.578 91.9361C265.169 91.9361 264.739 91.8544 264.31 91.7113C263.881 91.5477 263.513 91.2615 263.206 90.8526C262.9 90.4233 262.736 89.8714 262.675 89.1559C262.613 88.4608 262.757 87.5613 263.104 86.4574C263.288 85.8236 263.595 85.1286 264.044 84.3313C264.474 83.534 265.026 82.5936 265.68 81.5306C265.966 81.0604 266.109 80.6515 266.15 80.304C266.191 79.9564 266.068 79.752 265.803 79.6907C265.537 79.6293 265.128 79.752 264.555 80.0586C263.983 80.3653 263.247 80.9581 262.348 81.7963C261.939 82.1643 261.489 82.614 260.958 83.1047C260.446 83.5953 259.894 84.2291 259.322 84.965C258.75 85.701 258.157 86.5596 257.564 87.5613C256.971 88.563 256.399 89.7283 255.826 91.0775L251.37 101.994Z" fill="white"/>
</g>
<defs>
<clipPath id="clip0_960_6331">
<rect width="395.551" height="156.006" fill="white" transform="translate(0.214844 0.719727)"/>
</clipPath>
</defs>
</svg>
