<svg width="199" height="49" viewBox="0 0 199 49" fill="none" xmlns="http://www.w3.org/2000/svg">
<path d="M46.8413 42.7521V40.9235H38.833V48.6952H40.7973V45.7999H45.3303V43.9712H40.7973V42.7521H46.8413ZM65.4267 40.9235H63.4624V48.6952H65.4267V40.9235ZM82.0478 42.7521H85.6743V48.6952H87.6386V42.7521H91.265V40.9235H82.1989V42.7521H82.0478ZM114.535 45.4951L108.339 40.9235H107.735V48.8476H109.699V44.276L116.046 49H116.65V41.0759H114.686V45.4951H114.535ZM135.689 45.6475H139.92V43.8188H135.689V42.7521H141.582V40.9235H133.724V48.6952H141.884V46.8666H135.689V45.6475ZM163.642 43.8188L161.527 43.6665C160.167 43.6665 160.167 43.3617 160.167 43.2093C160.167 42.7521 160.923 42.5998 162.282 42.5998C164.096 42.5998 164.851 42.9045 165.607 43.3617L166.06 43.5141L166.967 41.8378L166.513 41.6854C165.456 41.0759 164.247 40.7711 162.434 40.7711C159.714 40.7711 158.203 41.6854 158.203 43.3617C158.203 45.3427 160.469 45.4951 161.376 45.6475L163.491 45.7999C165.153 45.7999 165.153 46.1046 165.153 46.4094C165.153 46.8666 164.247 47.1714 162.736 47.1714C160.923 47.1714 159.865 46.7142 159.26 46.257L158.958 45.9523L157.901 47.4761L158.203 47.7809C159.26 48.5428 160.771 48.8476 162.736 48.8476C165.607 48.8476 167.118 47.9333 167.118 46.1047C166.967 43.9712 164.7 43.8188 163.642 43.8188ZM188.725 43.8188L186.61 43.6665C185.25 43.6665 185.25 43.3617 185.25 43.2093C185.25 42.7521 186.005 42.5998 187.365 42.5998C189.178 42.5998 189.934 42.9045 190.689 43.3617L191.143 43.5141L192.049 41.8378L191.596 41.6854C190.538 41.0759 189.33 40.7711 187.516 40.7711C184.797 40.7711 183.286 41.6854 183.286 43.3617C183.286 45.3427 185.552 45.4951 186.459 45.6475L188.574 45.7999C190.236 45.9523 190.236 46.1046 190.236 46.4094C190.236 46.8666 189.33 47.1714 187.819 47.1714C186.005 47.1714 184.948 46.7142 184.343 46.257L184.041 45.9523L182.983 47.4761L183.286 47.7809C184.343 48.5428 185.854 48.8476 187.819 48.8476C190.689 48.8476 192.2 47.9333 192.2 46.1047C192.049 43.9712 189.783 43.8188 188.725 43.8188ZM34.7532 16.8464H38.6819V18.5226L38.833 18.2178L39.1352 17.9131C39.8907 16.9987 41.0995 16.3892 42.3083 16.3892H42.7616V20.0465C42.6105 20.0465 42.3083 19.8941 42.1572 19.8941C39.8907 19.7417 38.833 20.8084 38.833 23.0942V31.4755H34.7532V16.8464ZM47.5968 22.6371C48.2012 22.4847 48.9567 22.4847 49.5611 22.6371C50.921 22.7894 51.8276 23.0942 52.5831 23.7038V22.6371C52.5831 21.1132 51.6765 20.1989 49.2589 19.8941C48.3523 19.7417 46.9924 19.7417 45.3303 20.0465C45.0281 20.0465 44.877 20.0465 44.7259 20.1989V16.9987C45.6325 16.8464 46.2369 16.8464 47.1435 16.694C53.9431 16.3892 56.6629 18.675 56.6629 22.9418V31.6279H52.5831V30.2564C52.432 30.4088 52.2809 30.5612 52.1298 30.5612C51.0721 31.3231 49.8633 31.7803 48.2012 31.7803C44.7259 31.7803 42.6105 29.6469 42.7616 27.2087C42.7616 24.9229 44.4237 23.0942 47.5968 22.6371ZM49.2589 29.1897H50.3166C50.921 29.0373 51.3743 28.8849 51.8276 28.7325C52.8853 28.123 53.0364 26.7515 52.1298 25.9896C51.6765 25.6848 51.0721 25.38 50.3166 25.2276C48.2012 24.9229 46.8413 25.9896 46.8413 27.2087C46.8413 28.2754 47.5968 29.1897 49.2589 29.1897ZM59.6849 16.8464H63.6135V18.3702C63.7646 18.2178 63.9157 18.2178 63.9157 18.0654C65.1245 16.9987 66.1822 16.5416 67.6932 16.5416C71.3197 16.3892 73.4351 18.8274 73.4351 23.0942V31.6279H69.3554V23.7038C69.3554 21.5703 68.5999 20.5036 67.0888 20.0465C64.9734 19.5893 63.7646 20.656 63.7646 22.9418V31.6279H59.6849V16.8464ZM76.0038 22.9418C76.306 20.9608 77.3637 19.2845 78.8747 18.0654C81.7456 16.0844 85.3721 16.3892 87.1853 18.5226V16.8464H91.1139V31.4755C91.1139 35.59 88.3941 38.1805 82.8033 38.1805C81.8967 38.1805 81.1412 38.1805 80.2346 38.0281V34.3709C80.9901 34.5232 81.7456 34.6756 82.6522 34.6756C85.6743 34.6756 87.0342 33.3041 87.0342 31.1707V30.104C85.5232 31.7803 82.6522 32.5422 79.9324 31.1707C77.6659 30.104 76.306 28.123 76.0038 25.5324C76.0038 25.0753 75.8527 24.6181 75.8527 24.1609C75.8527 23.8562 75.8527 23.399 76.0038 22.9418ZM80.0835 24.9229C80.3857 27.3611 82.0478 28.7325 84.3144 28.4278C85.8254 28.123 86.8831 26.9039 87.1853 24.9229V23.5514C86.8831 21.2656 85.5232 20.0465 83.5588 20.0465C81.5945 20.0465 80.2346 21.2656 79.9324 23.5514V24.1609C80.0835 24.4657 80.0835 24.6181 80.0835 24.9229ZM109.397 16.8464H111.059V13.1891L113.175 12.2747V16.8464H117.103L116.65 18.3702H113.175V27.5134C113.175 29.1897 114.232 30.2564 116.499 30.104H116.952V31.7803H116.499C112.268 32.085 111.059 30.5612 111.059 26.2943V18.3702H109.095L109.397 16.8464ZM118.765 11.0556L120.881 10.5985V19.1322C121.183 18.8274 121.485 18.3702 121.787 18.0654C122.543 17.3035 123.601 16.8464 124.658 16.5416C128.889 15.6273 132.062 18.3702 132.062 22.7894V31.3231H129.947V23.5514C129.947 19.8941 128.285 18.0654 125.414 18.2178C122.543 18.2178 120.881 20.1989 120.881 23.2466V31.4755H118.765V11.0556ZM135.084 21.2656C136.142 18.8274 138.257 17.1511 140.826 16.694C145.359 15.932 149.288 19.2845 149.439 23.8562V24.7705H136.746V25.2276C136.898 27.0563 137.955 28.7325 139.617 29.6469C141.884 30.866 144.453 30.4088 146.417 28.4278L146.719 28.123L148.381 29.1897C147.928 29.7992 147.475 30.2564 146.87 30.7136C144.906 32.085 142.639 32.5422 140.222 31.9327C135.991 30.7136 133.875 27.0563 134.631 22.9418C134.782 22.1799 134.933 21.7227 135.084 21.2656ZM147.323 23.0942V22.4847C147.323 22.1799 147.323 22.1799 147.172 21.8751C146.568 19.7417 144.604 18.2178 142.337 18.2178C139.92 18.2178 137.955 19.5893 137.049 22.0275C136.897 22.3323 136.897 22.7894 136.897 23.0942H147.323ZM160.923 16.5416C164.851 17.1511 167.42 20.1989 167.42 24.3133C167.42 28.4278 165.002 31.4755 160.923 32.085C155.634 32.847 151.705 29.3421 151.705 24.3133C151.705 19.1322 155.634 15.7796 160.923 16.5416ZM158.656 29.9516C159.26 30.104 159.865 30.104 160.62 29.9516C163.793 29.3421 165.758 26.5991 165.153 22.9418C165.002 21.7227 164.398 20.656 163.491 19.7417C162.434 18.8274 161.225 18.2178 159.563 18.2178C158.052 18.2178 156.692 18.675 155.634 19.7417C154.576 20.8084 153.821 22.3323 153.821 24.1609C153.972 27.2087 155.785 29.4945 158.656 29.9516ZM170.291 16.8464H172.406V18.9798L172.708 18.675C173.766 17.3035 174.975 16.5416 176.637 16.5416H177.241V18.5226H176.637C175.277 18.5226 174.219 18.9798 173.464 19.7417C172.86 20.5036 172.557 21.2656 172.557 22.6371V31.6279H170.442L170.291 16.8464ZM178.904 16.8464H181.019V24.9229C181.019 27.9706 182.077 29.4945 184.494 29.9516C185.099 30.104 185.854 30.104 186.459 29.9516C188.876 29.4945 190.085 27.9706 190.085 25.38V16.8464H192.2V31.0183C192.2 35.1328 189.33 37.7234 183.286 37.4186C182.983 37.4186 182.53 37.4186 182.228 37.2662V35.4376C182.53 35.4376 182.832 35.5899 183.286 35.5899C187.97 35.8947 190.085 33.9137 190.085 30.7136V29.3421C189.934 29.4945 189.783 29.6469 189.783 29.7992C188.574 31.1707 187.063 31.9327 184.948 31.9327C181.472 31.9327 179.206 29.7992 179.055 26.5991V25.38L178.904 16.8464ZM196.28 11.5128C197.791 11.5128 199 12.7319 199 14.1034C199 15.6273 197.791 16.8464 196.28 16.8464C194.769 16.8464 193.56 15.6273 193.56 14.1034C193.56 12.5795 194.769 11.5128 196.28 11.5128ZM196.129 11.97C194.92 11.97 194.165 12.8843 194.165 14.1034C194.165 15.3225 195.071 16.2368 196.28 16.2368C197.489 16.2368 198.244 15.3225 198.244 14.1034C198.244 12.8843 197.338 11.97 196.129 11.97ZM195.827 15.4749H195.222V12.8843C195.525 12.8843 195.827 12.7319 196.28 12.7319C196.733 12.7319 197.036 12.8843 197.187 12.8843C197.338 13.0367 197.489 13.1891 197.489 13.4938C197.489 13.7986 197.187 14.1034 196.885 14.1034C197.187 14.2558 197.338 14.4082 197.338 14.7129C197.489 15.1701 197.489 15.3225 197.489 15.3225H196.885C196.734 15.1701 196.733 15.0177 196.733 14.7129C196.733 14.4082 196.582 14.2558 196.129 14.2558H195.827V15.4749ZM195.827 13.951H196.129C196.431 13.951 196.733 13.7986 196.733 13.4938C196.733 13.1891 196.582 13.0367 196.129 13.0367H195.827V13.951ZM108.491 25.38V24.1609C108.339 19.8941 105.468 16.8464 101.238 16.5416C100.18 16.5416 99.2734 16.5416 98.2156 16.9987C95.6469 17.9131 93.8337 20.0465 93.3804 22.6371C92.4738 26.5991 94.5892 30.5612 98.9712 31.7803C101.993 32.6946 104.713 31.7803 106.828 29.4945C106.979 29.3421 106.98 29.1897 107.131 29.0373L103.957 26.9039L103.806 27.0563C103.202 27.6658 102.598 28.123 101.993 28.2754C100.935 28.5802 99.8778 28.5801 99.1222 28.123C97.9134 27.5134 97.309 26.4467 97.4601 25.38H108.491ZM101.54 19.5893C103.353 19.5893 104.713 20.8084 104.864 22.6371V22.7894H97.7623C97.7623 22.6371 97.9134 22.3323 97.9134 22.1799C98.5179 20.5036 99.8778 19.4369 101.54 19.5893ZM33.9977 33.3041C31.2779 33.7613 29.918 31.3231 30.8246 29.3421C31.5801 27.6658 31.8823 25.8372 31.8823 24.0085C31.8823 22.1799 31.5801 20.3513 30.8246 18.675C30.2202 16.9987 31.2779 14.4082 33.9977 14.7129C35.5087 14.8653 36.5664 13.4938 36.5664 11.6652C36.5664 9.68417 35.3576 7.85552 33.9977 7.55075C32.4867 7.09359 31.1268 8.46507 31.1268 10.5985C31.1268 14.2558 29.1625 15.7796 27.5004 14.4082C26.1405 13.1891 24.4784 12.4271 22.514 12.1224C20.5497 11.8176 18.5854 12.1224 16.9233 12.8843C16.7722 13.0367 16.6211 13.0367 16.3189 13.0367C14.3546 13.3415 11.3326 11.0557 11.3326 6.63643C11.3326 3.89346 9.06606 1.1505 6.04404 0.236176C2.87092 -0.678145 0 1.1505 0 4.19824C0 7.24598 2.87092 10.1413 6.04404 10.5985C10.5771 11.208 12.8436 13.951 12.3903 16.0844C12.3903 16.3892 12.2392 16.5416 12.0881 16.8464C10.8793 18.8274 10.1238 21.2656 10.1238 24.0085C10.1238 26.5991 10.8793 28.8849 11.937 30.866C12.0881 31.0183 12.0881 31.3231 12.2392 31.6279C12.5414 33.6089 10.7282 36.809 6.04404 37.4186C2.87092 37.8758 0 40.7711 0 43.8188C0 46.8666 2.87092 48.6952 6.04404 47.7809C9.06606 47.019 11.3326 44.1236 11.3326 41.3807C11.3326 36.9614 13.9013 34.5232 16.1678 34.9804C16.3189 34.9804 16.47 35.1328 16.6211 35.1328C18.4343 36.0471 20.3986 36.3519 22.514 36.0471C24.4784 35.7423 25.9894 34.9804 27.5004 33.7613C28.8603 32.6946 31.1268 33.7613 31.1268 37.4186C31.1268 39.552 32.4867 40.9235 33.9977 40.4663C35.5087 40.0092 36.5664 38.1805 36.5664 36.3519C36.5664 34.5232 35.5087 33.1518 33.9977 33.3041ZM22.514 31.6279C18.5854 32.0851 15.1101 28.7325 15.1101 24.1609C15.1101 19.5893 18.5854 16.2368 22.514 16.694C25.9894 17.1511 28.5581 20.5036 28.5581 24.1609C28.5581 27.8182 25.9894 31.1707 22.514 31.6279Z" fill="white"/>
</svg>
