<svg width="396" height="156" viewBox="0 0 396 156" fill="none" xmlns="http://www.w3.org/2000/svg">
<rect width="394.544" height="155" transform="translate(0.509766 0.438477)" fill="black"/>
<path d="M84.4972 56.7141C97.6665 56.7141 108.71 64.7774 112.615 77.0918H103.188C99.792 69.7909 93.4153 64.8698 84.4972 64.8698C72.2752 64.8698 62.9181 74.6428 62.9181 87.3038C62.9181 99.9647 72.2521 109.738 84.4972 109.738C93.4153 109.738 99.792 104.817 103.188 97.5157H112.615C108.71 109.83 97.6665 117.893 84.4972 117.893C67.2617 117.893 54 104.562 54 87.3038C54 70.0451 67.2617 56.7141 84.4972 56.7141Z" fill="white"/>
<path d="M165.386 117.015L159.009 103.338C152.563 111.332 143.298 117.87 133.872 117.87C123.082 117.87 115.943 111.17 115.943 101.305C115.943 93.2415 121.812 87.8814 128.858 83.122C136.598 77.6001 140.919 73.0024 142.698 68.4279L137.684 57.5459H146.602L174.72 117.015H165.386ZM155.359 95.4364L146.533 76.4911C144.246 80.5574 140.249 83.7227 134.311 88.2973C128.535 92.7101 124.885 96.1064 124.885 101.12C124.885 106.134 128.535 109.692 134.057 109.692C141.935 109.715 149.675 103.846 155.359 95.4364Z" fill="white"/>
<path d="M215.845 73.6955V65.7016H190.869V83.2837H219.749V91.2776H190.869V117.015H182.367V57.569H224V73.7186H215.845V73.6955Z" fill="white"/>
<path d="M268.519 73.6955V65.7016H243.543V83.2837H272.423V91.2776H243.543V117.015H235.041V57.569H276.674V73.7186H268.519V73.6955Z" fill="white"/>
<path d="M331.965 97.4927H341.392C337.487 109.807 326.444 117.87 313.274 117.87C296.201 117.87 283.031 104.539 283.031 87.2807C283.031 70.0452 296.201 56.6911 313.274 56.6911C326.444 56.6911 337.487 64.7544 341.392 77.0688H331.965C328.569 69.7679 322.192 64.8468 313.274 64.8468C302.392 64.8468 293.728 72.5866 292.042 83.2837H317.941V91.2777H292.042C293.752 101.975 302.415 109.715 313.274 109.715C322.216 109.715 328.569 104.794 331.965 97.4927ZM308.607 50.7534L301.815 38H311.149L317.086 50.7534H308.607Z" fill="white"/>
</svg>
