<svg width="395" height="155" viewBox="0 0 395 155" fill="none" xmlns="http://www.w3.org/2000/svg">
<rect width="394.544" height="155" transform="translate(0.253906)" fill="black"/>
<path d="M157.25 67.39C151.46 61.6 145.66 55.8 139.86 50C138.9 50.96 137.96 51.9 137 52.86C142.8 58.66 148.59 64.45 154.38 70.24C149.05 70.24 143.74 70.24 138.45 70.24C138.45 71.63 138.45 72.95 138.46 74.24C146.03 74.24 153.65 74.24 161.23 74.24C161.23 66.68 161.23 59.06 161.23 51.47C159.95 51.47 158.63 51.47 157.3 51.47C157.3 56.75 157.3 62.06 157.3 67.38C157.29 67.38 157.27 67.38 157.25 67.39Z" fill="white"/>
<path d="M157.25 85.7499C151.46 91.5399 145.66 97.3399 139.86 103.14C138.9 102.18 137.96 101.24 137 100.28C142.8 94.4799 148.59 88.6899 154.38 82.8999C149.05 82.8999 143.74 82.8999 138.45 82.8999C138.45 81.5099 138.45 80.1899 138.46 78.8999C146.03 78.8999 153.65 78.8999 161.23 78.8999C161.23 86.4599 161.23 94.0799 161.23 101.67C159.95 101.67 158.63 101.67 157.3 101.67C157.3 96.3899 157.3 91.0799 157.3 85.7599C157.29 85.7599 157.27 85.7599 157.25 85.7499Z" fill="white"/>
<path d="M178.404 57.8326L179.291 58.8964C178.946 59.2313 178.547 59.4652 178.094 59.5982C177.641 59.7311 177.129 59.8124 176.557 59.8419C175.986 59.8715 175.351 59.901 174.651 59.9306C173.863 59.9601 173.211 60.1522 172.694 60.5068C172.176 60.8614 171.778 61.3736 171.497 62.0434C171.216 62.7132 171.036 63.5357 170.958 64.5108H171.105C171.489 63.8016 172.021 63.2796 172.701 62.9447C173.381 62.6098 174.11 62.4423 174.888 62.4423C175.774 62.4423 176.572 62.6492 177.281 63.0629C177.99 63.4766 178.552 64.0897 178.966 64.9023C179.379 65.715 179.586 66.7172 179.586 67.909C179.586 69.0959 179.374 70.1203 178.951 70.9822C178.532 71.8441 177.944 72.5089 177.185 72.9768C176.432 73.4397 175.548 73.6712 174.533 73.6712C173.519 73.6712 172.63 73.4324 171.866 72.9546C171.103 72.472 170.509 71.7579 170.086 70.8123C169.662 69.8618 169.451 68.6872 169.451 67.2885V66.0769C169.451 63.5504 169.879 61.6346 170.736 60.3295C171.598 59.0244 172.893 58.3497 174.622 58.3054C175.232 58.2857 175.777 58.2807 176.254 58.2906C176.732 58.3004 177.148 58.2783 177.503 58.2241C177.857 58.1699 178.158 58.0394 178.404 57.8326ZM174.533 72.1051C175.218 72.1051 175.806 71.9327 176.299 71.588C176.796 71.2432 177.178 70.7581 177.444 70.1326C177.71 69.5022 177.843 68.761 177.843 67.909C177.843 67.0816 177.707 66.3774 177.436 65.7962C177.17 65.2151 176.789 64.7718 176.291 64.4665C175.794 64.1611 175.198 64.0085 174.504 64.0085C173.996 64.0085 173.541 64.0946 173.137 64.267C172.733 64.4394 172.388 64.693 172.103 65.0279C171.817 65.3628 171.595 65.7716 171.438 66.2542C171.285 66.7369 171.204 67.2885 171.194 67.909C171.194 69.1797 171.492 70.1967 172.088 70.96C172.684 71.7234 173.499 72.1051 174.533 72.1051ZM186.863 73.6712C185.838 73.6712 184.939 73.4274 184.166 72.9399C183.398 72.4523 182.797 71.7702 182.364 70.8935C181.935 70.0169 181.721 68.9925 181.721 67.8204C181.721 66.6384 181.935 65.6066 182.364 64.725C182.797 63.8435 183.398 63.1589 184.166 62.6713C184.939 62.1838 185.838 61.94 186.863 61.94C187.887 61.94 188.783 62.1838 189.552 62.6713C190.325 63.1589 190.926 63.8435 191.354 64.725C191.788 65.6066 192.004 66.6384 192.004 67.8204C192.004 68.9925 191.788 70.0169 191.354 70.8935C190.926 71.7702 190.325 72.4523 189.552 72.9399C188.783 73.4274 187.887 73.6712 186.863 73.6712ZM186.863 72.1051C187.641 72.1051 188.281 71.9056 188.783 71.5067C189.286 71.1078 189.658 70.5833 189.899 69.9332C190.14 69.2831 190.261 68.5788 190.261 67.8204C190.261 67.0619 190.14 66.3552 189.899 65.7002C189.658 65.0452 189.286 64.5157 188.783 64.1119C188.281 63.708 187.641 63.5061 186.863 63.5061C186.085 63.5061 185.444 63.708 184.942 64.1119C184.44 64.5157 184.068 65.0452 183.826 65.7002C183.585 66.3552 183.464 67.0619 183.464 67.8204C183.464 68.5788 183.585 69.2831 183.826 69.9332C184.068 70.5833 184.44 71.1078 184.942 71.5067C185.444 71.9056 186.085 72.1051 186.863 72.1051ZM193.661 73.4348V71.8096H194.075C194.414 71.8096 194.698 71.7431 194.924 71.6101C195.151 71.4722 195.333 71.2334 195.471 70.8935C195.614 70.5488 195.722 70.0711 195.796 69.4604C195.875 68.8448 195.931 68.0617 195.966 67.1112L196.173 62.0877H203.737V73.4348H201.994V63.713H197.827L197.65 67.7613C197.611 68.6921 197.527 69.5121 197.399 70.2213C197.276 70.9256 197.086 71.5165 196.83 71.9943C196.579 72.472 196.244 72.8315 195.825 73.0728C195.407 73.3142 194.882 73.4348 194.252 73.4348H193.661ZM208.443 66.1951H211.694C213.023 66.1951 214.04 66.5325 214.745 67.2072C215.449 67.8819 215.801 68.7364 215.801 69.7706C215.801 70.4503 215.643 71.0684 215.328 71.6249C215.013 72.1765 214.55 72.6173 213.939 72.9472C213.329 73.2723 212.58 73.4348 211.694 73.4348H206.936V62.0877H208.68V71.8096H211.694C212.383 71.8096 212.95 71.6274 213.393 71.2629C213.836 70.8985 214.058 70.4306 214.058 69.8593C214.058 69.2585 213.836 68.7684 213.393 68.3892C212.95 68.01 212.383 67.8204 211.694 67.8204H208.443V66.1951ZM218.455 62.0877H220.198V71.8096H224.483V62.0877H226.227V71.8096H230.511V62.0877H232.255V73.4348H218.455V62.0877ZM240.048 73.6712C239.024 73.6712 238.125 73.4274 237.352 72.9399C236.584 72.4523 235.983 71.7702 235.55 70.8935C235.121 70.0169 234.907 68.9925 234.907 67.8204C234.907 66.6384 235.121 65.6066 235.55 64.725C235.983 63.8435 236.584 63.1589 237.352 62.6713C238.125 62.1838 239.024 61.94 240.048 61.94C241.073 61.94 241.969 62.1838 242.737 62.6713C243.511 63.1589 244.112 63.8435 244.54 64.725C244.973 65.6066 245.19 66.6384 245.19 67.8204C245.19 68.9925 244.973 70.0169 244.54 70.8935C244.112 71.7702 243.511 72.4523 242.737 72.9399C241.969 73.4274 241.073 73.6712 240.048 73.6712ZM240.048 72.1051C240.827 72.1051 241.467 71.9056 241.969 71.5067C242.472 71.1078 242.843 70.5833 243.085 69.9332C243.326 69.2831 243.447 68.5788 243.447 67.8204C243.447 67.0619 243.326 66.3552 243.085 65.7002C242.843 65.0452 242.472 64.5157 241.969 64.1119C241.467 63.708 240.827 63.5061 240.048 63.5061C239.27 63.5061 238.63 63.708 238.128 64.1119C237.625 64.5157 237.254 65.0452 237.012 65.7002C236.771 66.3552 236.65 67.0619 236.65 67.8204C236.65 68.5788 236.771 69.2831 237.012 69.9332C237.254 70.5833 237.625 71.1078 238.128 71.5067C238.63 71.9056 239.27 72.1051 240.048 72.1051ZM252.609 73.6712C251.516 73.6712 250.572 73.4299 249.78 72.9472C248.992 72.4597 248.383 71.78 247.955 70.9083C247.531 70.0317 247.32 69.0122 247.32 67.8499C247.32 66.6876 247.531 65.6632 247.955 64.7767C248.383 63.8853 248.979 63.1909 249.743 62.6935C250.511 62.1911 251.407 61.94 252.432 61.94C253.023 61.94 253.606 62.0385 254.182 62.2355C254.759 62.4325 255.283 62.7526 255.756 63.1958C256.229 63.6342 256.606 64.2153 256.886 64.9393C257.167 65.6632 257.307 66.5547 257.307 67.6135V68.3523H248.561V66.8452H255.534C255.534 66.205 255.406 65.6337 255.15 65.1313C254.899 64.629 254.54 64.2325 254.072 63.942C253.609 63.6514 253.062 63.5061 252.432 63.5061C251.737 63.5061 251.136 63.6785 250.629 64.0232C250.127 64.3631 249.74 64.8063 249.469 65.353C249.198 65.8996 249.063 66.4857 249.063 67.1112V68.1159C249.063 68.9728 249.211 69.6992 249.506 70.2952C249.807 70.8862 250.223 71.3368 250.755 71.6471C251.287 71.9524 251.905 72.1051 252.609 72.1051C253.067 72.1051 253.481 72.0411 253.85 71.913C254.224 71.78 254.547 71.583 254.818 71.322C255.089 71.0561 255.298 70.7261 255.446 70.3321L257.13 70.8049C256.953 71.3762 256.655 71.8785 256.236 72.3119C255.818 72.7404 255.3 73.0753 254.685 73.3166C254.069 73.553 253.377 73.6712 252.609 73.6712Z" fill="white"/>
<path d="M168.771 94.3054V89.4297H169.716C169.948 89.1884 170.147 88.9274 170.315 88.6466C170.482 88.3659 170.628 88.0335 170.751 87.6493C170.879 87.2603 170.987 86.7875 171.076 86.2309C171.164 85.6695 171.243 84.9923 171.312 84.1994L171.696 79.7078H178.906V89.4297H180.65V94.3054H178.906V91.0549H170.514V94.3054H168.771ZM171.696 89.4297H177.163V81.3331H173.322L173.026 84.1994C172.903 85.3863 172.75 86.423 172.568 87.3095C172.386 88.196 172.095 88.9027 171.696 89.4297ZM187.721 91.2913C186.628 91.2913 185.685 91.05 184.892 90.5674C184.104 90.0798 183.496 89.4001 183.067 88.5284C182.644 87.6518 182.432 86.6323 182.432 85.47C182.432 84.3077 182.644 83.2834 183.067 82.3969C183.496 81.5054 184.092 80.811 184.855 80.3136C185.623 79.8113 186.52 79.5601 187.544 79.5601C188.135 79.5601 188.719 79.6586 189.295 79.8556C189.871 80.0526 190.396 80.3727 190.869 80.816C191.341 81.2543 191.718 81.8354 191.999 82.5594C192.28 83.2834 192.42 84.1748 192.42 85.2336V85.9724H183.673V84.4653H190.647C190.647 83.8251 190.519 83.2538 190.263 82.7515C190.012 82.2491 189.652 81.8527 189.184 81.5621C188.721 81.2715 188.175 81.1262 187.544 81.1262C186.85 81.1262 186.249 81.2986 185.742 81.6433C185.239 81.9832 184.853 82.4264 184.582 82.9731C184.311 83.5198 184.176 84.1058 184.176 84.7313V85.736C184.176 86.5929 184.323 87.3194 184.619 87.9153C184.919 88.5063 185.335 88.9569 185.867 89.2672C186.399 89.5725 187.017 89.7252 187.721 89.7252C188.179 89.7252 188.593 89.6612 188.963 89.5331C189.337 89.4001 189.659 89.2031 189.93 88.9421C190.201 88.6762 190.41 88.3462 190.558 87.9522L192.243 88.425C192.065 88.9963 191.767 89.4986 191.349 89.932C190.93 90.3605 190.413 90.6954 189.797 90.9367C189.182 91.1731 188.49 91.2913 187.721 91.2913ZM194.067 91.0549V89.4297H194.481C194.821 89.4297 195.104 89.3632 195.331 89.2302C195.557 89.0923 195.739 88.8535 195.877 88.5137C196.02 88.1689 196.128 87.6912 196.202 87.0805C196.281 86.4649 196.338 85.6818 196.372 84.7313L196.579 79.7078H204.144V91.0549H202.4V81.3331H198.234L198.056 85.3814C198.017 86.3122 197.933 87.1322 197.805 87.8414C197.682 88.5457 197.493 89.1367 197.236 89.6144C196.985 90.0921 196.65 90.4516 196.232 90.6929C195.813 90.9343 195.289 91.0549 194.658 91.0549H194.067ZM211.952 91.2913C210.928 91.2913 210.029 91.0475 209.256 90.56C208.488 90.0724 207.887 89.3903 207.453 88.5137C207.025 87.637 206.811 86.6126 206.811 85.4405C206.811 84.2585 207.025 83.2267 207.453 82.3452C207.887 81.4636 208.488 80.779 209.256 80.2914C210.029 79.8039 210.928 79.5601 211.952 79.5601C212.977 79.5601 213.873 79.8039 214.641 80.2914C215.414 80.779 216.015 81.4636 216.444 82.3452C216.877 83.2267 217.094 84.2585 217.094 85.4405C217.094 86.6126 216.877 87.637 216.444 88.5137C216.015 89.3903 215.414 90.0724 214.641 90.56C213.873 91.0475 212.977 91.2913 211.952 91.2913ZM211.952 89.7252C212.73 89.7252 213.371 89.5257 213.873 89.1268C214.375 88.7279 214.747 88.2034 214.988 87.5533C215.23 86.9032 215.35 86.1989 215.35 85.4405C215.35 84.682 215.23 83.9753 214.988 83.3203C214.747 82.6653 214.375 82.1358 213.873 81.732C213.371 81.3281 212.73 81.1262 211.952 81.1262C211.174 81.1262 210.534 81.3281 210.032 81.732C209.529 82.1358 209.157 82.6653 208.916 83.3203C208.675 83.9753 208.554 84.682 208.554 85.4405C208.554 86.1989 208.675 86.9032 208.916 87.5533C209.157 88.2034 209.529 88.7279 210.032 89.1268C210.534 89.5257 211.174 89.7252 211.952 89.7252Z" fill="white"/>
</svg>
