<svg width="396" height="156" viewBox="0 0 396 156" fill="none" xmlns="http://www.w3.org/2000/svg">
<rect width="395.551" height="155" transform="translate(0.296875 0.438477)" fill="black"/>
<path d="M149.645 97.3476C149.645 107.848 144.395 113.098 133.621 113.098C122.992 113.098 118 107.976 118 97.3476V61.4027C118 50.7739 122.976 45.6527 133.75 45.6527C144.379 45.6527 149.629 50.7739 149.629 61.4027V83.0792H130.658V97.6214C130.658 100.311 131.737 101.664 133.621 101.664C135.634 101.664 136.713 100.311 136.713 97.6214V90.0846H149.629V97.3476H149.645ZM136.713 61.129C136.713 58.2946 135.763 57.0868 133.75 57.0868C131.737 57.0868 130.658 58.2946 130.658 61.129V73.787H136.713V61.129Z" fill="white"/>
<path d="M173.206 112.421V60.3237C173.206 58.1658 172.256 56.9579 170.516 56.9579C168.906 56.9579 167.827 57.9081 167.279 59.9211V112.421H154.219V46.1841H166.474L166.748 51.9656H167.279C169.437 47.392 172.529 45.6366 176.298 45.6366C182.224 45.6366 186.395 50.0814 186.395 57.6182V112.405H173.206V112.421Z" fill="white"/>
<path d="M173.206 116.061H185.719V128.042C185.719 130.732 186.669 132.084 188.682 132.084C190.695 132.084 191.774 130.732 191.774 128.042V46.184H204.834V128.026C204.834 138.655 199.584 143.776 188.811 143.776C178.182 143.776 173.189 138.655 173.189 128.026V116.061H173.206Z" fill="white"/>
<path d="M241.037 97.3476C241.037 108.121 235.916 113.098 225.287 113.098C214.513 113.098 209.537 108.121 209.537 97.3476V61.4027C209.537 50.6289 214.513 45.6527 225.287 45.6527C235.916 45.6527 241.037 50.6289 241.037 61.4027V97.3476ZM228.25 61.4027C228.25 58.7133 227.171 57.3606 225.287 57.3606C223.403 57.3606 222.195 58.7133 222.195 61.4027V97.3476C222.195 100.037 223.403 101.39 225.287 101.39C227.171 101.39 228.25 100.037 228.25 97.3476V61.4027Z" fill="white"/>
<path d="M258.817 96.5422C258.817 99.3766 259.896 100.584 261.78 100.584C263.535 100.584 264.743 99.3766 264.872 96.5422V46.184H277.53V128.026C277.53 138.655 272.28 143.776 261.506 143.776C250.877 143.776 245.885 138.655 245.885 128.026V116.447H258.398V128.026C258.398 130.716 259.477 132.068 261.49 132.068C263.503 132.068 264.453 130.716 264.453 128.026V107.558H263.922C261.909 111.326 259.203 112.405 255.58 112.405C247.914 112.405 245.611 107.284 245.611 99.4893V46.184H258.801V96.5422H258.817Z" fill="white"/>
<path d="M213.387 19.2738C213.387 19.8696 213.387 20.4816 213.387 21.0774C213.306 21.4156 213.226 21.7377 213.145 22.0759C212.727 23.8796 211.68 25.3451 210.553 26.7462C208.04 29.8865 205.19 32.7048 202.323 35.5069C200.971 36.8114 199.602 38.0997 198.233 39.4042C198.136 39.3236 198.072 39.2592 198.007 39.1948C196.638 37.8904 195.253 36.602 193.885 35.2815C191.002 32.4632 188.135 29.6288 185.655 26.4563C184.753 25.3129 183.9 24.1373 183.481 22.7201C183.304 22.1564 183.191 21.5606 183.062 20.9808C183.062 20.385 183.062 19.773 183.062 19.1771C183.095 19.1288 183.127 19.0644 183.143 19.0161C183.546 16.4555 184.947 14.5874 187.121 13.2507C189.939 11.5115 193.418 11.5759 195.882 13.5084C196.767 14.2009 197.508 15.0705 198.329 15.8757C198.362 15.8274 198.458 15.6986 198.555 15.5859C199.682 14.1043 201.003 12.8803 202.823 12.365C206.446 11.3182 210.359 12.9125 212.324 16.1334C212.872 17.0997 213.161 18.1787 213.387 19.2738Z" fill="white"/>
</svg>
