<svg width="217" height="40" viewBox="0 0 217 40" fill="none" xmlns="http://www.w3.org/2000/svg">
<path d="M4.45783 31.5702C3.64036 31.5702 2.82289 31.405 2.16891 30.9091C1.51493 30.5785 0.860957 29.9174 0.533969 29.2562C0.206981 28.595 -0.120007 27.7686 0.0434872 26.9421C0.0434872 26.1157 0.370475 25.2893 0.697463 24.6281L8.87216 11.7355C9.36264 11.0744 9.85313 10.4132 10.5071 10.0826C11.1611 9.75207 11.9785 9.58678 12.796 9.58678C13.6135 9.58678 14.431 9.91736 15.0849 10.2479C15.7389 10.7438 16.3929 11.2397 16.7199 12.0661C17.5373 13.5537 17.3739 15.2066 16.5564 16.5289L8.38168 29.4215C7.8912 30.0826 7.40072 30.5785 6.74674 30.9091C5.92927 31.405 5.1118 31.5702 4.45783 31.5702ZM18.3548 31.5702C16.7199 31.5702 15.2484 30.7438 14.431 29.2562C14.104 28.595 13.777 27.7686 13.9405 26.9421C13.9405 26.1157 14.2675 25.2893 14.5945 24.6281L22.7692 11.7355C23.2596 11.0744 23.7501 10.4132 24.4041 10.0826C25.0581 9.75207 25.8755 9.42149 26.693 9.58678C28.3279 9.58678 29.7994 10.5785 30.6169 12.0661C31.4343 13.5537 31.2708 15.2066 30.2899 16.6942L22.1152 29.5868C21.6247 30.2479 21.1342 30.7438 20.4802 31.0744C19.8263 31.405 19.0088 31.5702 18.3548 31.5702ZM31.9248 31.7355C34.2137 31.7355 36.1757 29.9174 36.1757 27.6033C36.1757 25.2893 34.3772 23.4711 31.9248 23.4711C29.6359 23.4711 27.674 25.2893 27.674 27.6033C27.674 29.9174 29.6359 31.7355 31.9248 31.7355ZM213.403 23.6364C214.711 23.6364 215.365 24.4628 215.365 25.9504V31.0744H217V25.7851C217 23.3058 215.856 21.8182 213.567 21.8182C212.749 21.8182 211.278 21.9835 210.46 23.6364C210.297 23.1405 209.97 22.8099 209.479 22.4793C209.152 22.1488 208.662 21.9835 208.171 21.9835H207.19C206.536 21.9835 205.228 22.4793 204.738 23.4711V22.1488H203.103V31.2397H204.738V26.4463C204.738 24.6281 205.882 23.8017 207.19 23.8017C208.335 23.8017 209.152 24.6281 209.152 26.1157V31.2397H210.787V26.4463C211.114 24.7934 211.932 23.6364 213.403 23.6364ZM196.89 29.5868C197.708 29.5868 198.362 29.2562 199.016 28.7603C199.506 28.2645 199.833 27.438 199.833 26.6116C199.833 24.7934 198.525 23.6364 196.89 23.6364C195.255 23.6364 193.947 24.7934 193.947 26.6116C193.947 27.438 194.274 28.2645 194.765 28.7603C195.419 29.4215 196.236 29.7521 196.89 29.5868ZM196.89 31.405C194.438 31.405 192.312 29.5868 192.312 26.6116C192.312 23.8017 194.438 21.9835 196.89 21.9835C199.343 21.9835 201.468 23.8017 201.468 26.6116C201.632 29.4215 199.506 31.405 196.89 31.405ZM183.484 26.6116C183.484 23.8017 185.609 21.9835 188.062 21.9835C188.716 21.9835 189.37 22.1488 189.86 22.314C190.514 22.6446 191.004 22.9752 191.331 23.4711L190.023 24.6281C189.697 24.2975 189.37 24.1322 189.043 23.9669C188.716 23.8017 188.225 23.8017 187.898 23.8017C186.263 23.8017 184.955 24.9587 184.955 26.7769C184.955 27.9339 185.609 29.0909 186.754 29.5868C187.898 30.0826 189.206 29.7521 190.023 28.9256L191.331 30.0826C190.841 30.5785 190.35 30.9091 189.86 31.2397C189.206 31.5702 188.716 31.5702 188.062 31.5702C185.773 31.405 183.484 29.4215 183.484 26.6116ZM178.088 29.4215C178.088 29.2562 178.088 29.0909 178.252 28.9256C178.252 28.7603 178.415 28.595 178.579 28.595L178.906 28.2645C179.069 28.2645 179.233 28.0992 179.396 28.0992C179.56 28.0992 179.723 28.0992 179.887 28.2645C180.05 28.2645 180.214 28.4298 180.214 28.595L180.541 28.9256C180.541 29.0909 180.704 29.2562 180.704 29.4215C180.704 29.7521 180.541 30.0826 180.377 30.2479C180.214 30.4132 179.887 30.5785 179.56 30.5785C179.233 30.5785 178.906 30.4132 178.742 30.2479C178.252 30.0826 178.088 29.7521 178.088 29.4215ZM182.666 10.7438H176.617L172.366 21.8182L168.115 10.7438H162.066L169.423 28.4298L164.845 40H170.895L182.666 10.7438ZM145.553 20.4959C145.553 23.3058 148.006 25.124 150.458 25.124C152.747 25.124 155.036 23.4711 155.036 20.4959C155.036 17.5207 152.747 15.8678 150.458 15.8678C148.006 15.8678 145.553 17.6859 145.553 20.4959ZM155.036 30.4132V28.2645C153.728 30.0826 150.948 30.9091 149.477 30.9091C144.572 30.9091 139.667 26.9421 139.667 20.6612C139.667 14.3802 144.572 10.4132 149.477 10.4132C150.785 10.4132 153.564 10.9091 155.036 13.0579V10.9091H160.758V30.5785L155.036 30.4132ZM138.032 30.4132H132.31V27.9339C131.329 29.7521 129.04 30.7438 126.588 30.7438C121.683 30.7438 117.269 26.7769 117.269 20.4959C117.269 14.2149 121.683 10.2479 126.588 10.2479C129.04 10.2479 131.329 11.2397 132.31 13.0579V0H138.032V30.4132ZM132.31 20.4959C132.31 17.5207 130.185 15.8678 127.896 15.8678C125.443 15.8678 123.481 17.6859 123.481 20.4959C123.481 23.4711 125.443 25.2893 127.896 25.2893C130.185 25.2893 132.31 23.3058 132.31 20.4959ZM103.372 20C103.372 17.0248 104.843 16.0331 106.969 16.0331C108.93 16.0331 110.238 17.3554 110.238 20V30.4132H115.961V18.6777C115.961 13.0578 113.181 10.4132 108.93 10.4132C106.642 10.4132 104.353 11.7355 103.372 13.719V10.9091H97.6494V30.5785H103.372V20ZM86.0413 30.7438C80.646 30.7438 76.0682 26.7769 76.0682 20.4959C76.0682 14.3802 80.646 10.2479 86.0413 10.2479C91.4366 10.2479 96.0145 14.2149 96.0145 20.4959C96.0145 26.6116 91.4366 30.7438 86.0413 30.7438ZM86.0413 24.9587C88.4937 24.9587 90.4557 23.1405 90.4557 20.4959C90.4557 17.8512 88.4937 16.0331 86.0413 16.0331C85.3874 16.0331 84.8969 16.1983 84.4064 16.3636C83.9159 16.5289 83.4254 16.8595 82.9349 17.3554L81.954 18.843C81.7905 19.3388 81.627 20 81.627 20.4959C81.627 23.1405 83.5889 24.9587 86.0413 24.9587ZM65.7681 16.0331C67.403 16.0331 68.8745 17.3554 68.8745 20V30.4132H74.5967V19.3388C74.5967 13.3884 71.8174 10.4132 67.2395 10.4132C65.9316 10.4132 63.3157 10.9091 61.5172 13.8843C60.3728 11.5702 58.4108 10.4132 55.3045 10.4132C54.3235 10.4132 53.179 10.7438 52.3616 11.2397C51.5441 11.7355 50.7266 12.562 50.2361 13.5537V10.7438H44.5139V30.4132H50.2361V20C50.2361 17.0248 51.8711 16.0331 53.506 16.0331C55.141 16.0331 56.6124 17.3554 56.6124 19.8347V30.4132H62.3347V20C62.3347 17.0248 63.9696 16.0331 65.7681 16.0331Z" fill="white"/>
</svg>
