<svg width="510.000000" height="212.000000" viewBox="0 0 510 212" fill="none" xmlns="http://www.w3.org/2000/svg" xmlns:xlink="http://www.w3.org/1999/xlink">
	<desc>
			Created with Pixso.
	</desc>
	<defs/>
	<path id="path" d="M46.11 21.59C46.11 22.53 46.11 23.52 46.11 24.46C46.22 48.62 46.32 72.82 46.48 96.98C46.48 98.23 46.16 98.96 45.11 99.64C43.28 100.79 41.54 102.15 39.49 103.62L39.49 101.37C39.49 72.77 39.49 44.12 39.49 15.52C39.49 14.22 39.13 13.27 38.23 12.33C34.92 8.78 31.67 5.12 28.41 1.51C28.04 1.09 27.73 0.67 27.15 0C27.99 0 28.52 0 29.04 0C36.81 0 44.54 0.05 52.31 0C54.09 0 55.2 0.52 56.35 1.82C90.28 39.52 124.27 77.16 158.2 114.8C158.67 115.33 159.14 115.85 159.82 116.63C159.82 115.8 159.93 115.38 159.88 114.91C159.46 79.98 159.04 45.11 158.56 10.19C158.56 8.1 157.93 6.01 157.62 3.76L170.59 3.76C168.54 17.14 169.44 30.68 168.96 44.17C168.49 57.61 168.44 71.1 168.18 84.53C167.81 102.52 167.49 120.5 167.13 138.54C167.13 139.06 167.07 139.58 167.02 140.26C162.66 140.26 158.41 140.26 154.2 140.26C153.68 140.26 153.1 139.64 152.68 139.22C140.23 125.47 127.84 111.72 115.39 97.97C92.7 72.87 70.06 47.78 47.37 22.68C47.06 22.32 46.37 22.01 46.11 21.59Z" fill="#FFFFFF" fill-opacity="1.000000" fill-rule="nonzero"/>
	<path id="path" d="M327.53 136.81C324.64 137.65 322.91 135.72 321.02 133.21C315.13 125.42 310.51 117.1 307.89 107.69C307.73 107.17 307.52 106.65 307.26 106.18C293.49 79.3 278.16 53.37 262.72 27.49C260.77 24.2 259.67 20.91 259.77 17.14C259.88 13.9 259.88 10.71 260.25 7.52C260.56 4.8 262.24 2.77 265.03 2.09C265.87 1.88 267.02 2.09 267.76 2.5C268.91 3.18 269.91 4.23 270.8 5.22C274.9 9.67 278.53 14.42 280.94 20.07C282.1 22.84 283.41 25.56 284.78 28.23C285.41 29.48 286.35 30.58 287.19 31.68C288.66 33.56 290.4 35.28 291.71 37.27C295.49 43.02 299.06 48.93 302.9 54.68C307.83 62 311.61 69.79 314.29 78.21C315.61 82.23 317.29 86.21 319.02 90.07C320.81 94.1 323.22 97.71 326.32 100.9C331.15 105.86 333.36 111.98 334.36 118.67C334.99 122.96 335.62 127.19 334.72 131.53C333.62 136.66 333.36 136.97 327.53 136.81Z" fill="#FFFFFF" fill-opacity="1.000000" fill-rule="nonzero"/>
	<path id="path" d="M222.69 56.82C226.11 55.1 229.36 53.48 232.57 51.86C234.88 60.48 239.61 68.43 243.39 76.43C252.42 95.46 261.51 114.44 270.7 133.36C272.43 137.02 274.53 140.47 276.48 144.03C276.74 144.55 277.05 145.07 277.47 145.86L270.65 145.86C268.81 145.86 267.02 145.81 265.18 145.86C264.03 145.91 263.45 145.55 262.98 144.45C259.41 136.55 255.78 128.76 252.21 120.87C251.69 119.77 251.11 119.35 249.9 119.35C238.03 119.35 226.16 119.35 214.29 119.35C213.13 119.35 212.56 119.72 212.14 120.76C208.3 129.97 204.36 139.06 200.53 148.26C200.06 149.47 199.48 149.94 198.16 149.88C193.49 149.78 188.82 149.88 184.14 149.88C183.67 149.88 183.14 149.52 182.67 149.31C183.09 149.05 183.51 148.63 183.98 148.58C187.45 147.95 190.92 147.37 194.38 146.85C195.59 146.64 196.22 146.07 196.75 144.92C204.78 126.67 212.87 108.43 220.96 90.18C223.53 84.32 226.21 78.52 228.89 72.72C229.31 71.78 229.31 71.04 228.89 70.1C226.84 65.71 224.79 61.42 222.69 56.82ZM250.27 116.84C243.91 103.09 237.71 89.55 231.31 75.7C225.42 89.6 219.65 103.15 213.87 116.84L250.27 116.84Z" fill="#FFFFFF" fill-opacity="1.000000" fill-rule="nonzero"/>
	<path id="path" d="M421.55 56.82C424.91 55.15 428.16 53.48 431.42 51.86C433.89 61.06 438.98 69.58 443.03 78.1C451.9 96.87 460.94 115.59 469.97 134.3C471.71 137.86 473.75 141.21 475.65 144.66C475.8 144.97 475.96 145.34 476.22 145.91C473.28 145.91 470.55 145.6 467.87 145.96C463.72 146.54 461.73 145.02 460.2 141.1C457.47 134.2 454.06 127.56 451.01 120.76C450.54 119.77 450.01 119.4 448.91 119.4C436.99 119.4 425.07 119.4 413.14 119.4C411.99 119.4 411.41 119.77 410.99 120.82C407.16 129.97 403.27 139.01 399.43 148.16C398.91 149.47 398.28 149.99 396.81 149.94C392.19 149.83 387.56 149.94 382.94 149.94C382.47 149.94 381.94 149.57 381.47 149.36C381.94 149.1 382.31 148.68 382.84 148.63C386.46 147.95 390.09 147.43 393.71 146.7C394.34 146.59 395.08 145.96 395.34 145.39C406.21 121.13 416.98 96.87 427.74 72.56C428.01 71.93 427.95 70.94 427.74 70.31C425.75 65.82 423.7 61.43 421.55 56.82ZM449.12 116.79C442.82 103.09 436.57 89.5 430.21 75.7C424.33 89.6 418.55 103.15 412.78 116.79L449.12 116.79Z" fill="#FFFFFF" fill-opacity="1.000000" fill-rule="nonzero"/>
	<path id="path" d="M388.56 13.54C392.34 14.01 396.91 13.17 401.48 12.07C404.48 11.34 405.58 12.07 406.58 15C407.37 17.35 407.52 19.7 406.95 22.11C406.68 23.16 406.21 23.78 405 23.68C401.43 23.31 399.12 24.99 397.07 27.81C393.03 33.56 388.67 39.05 384.57 44.75C383.31 46.52 382.42 48.56 381.52 50.55C378.53 57.24 375.59 63.93 372.6 70.63C372.18 71.57 371.6 72.46 371.02 73.29C366.19 79.62 361.46 86 356.47 92.11C354.9 94.05 352.58 95.46 350.48 96.98C349.33 97.81 348.75 96.87 348.54 95.88C347.86 92.9 347.96 90.02 349.28 87.2C349.96 85.79 350.64 84.32 351.53 83.02C356.26 76.38 359.41 68.9 362.56 61.42C367.87 48.93 373.07 36.43 376.95 23.42C377.59 21.38 377.64 19.13 377.85 16.99C378.11 13.9 378.37 13.54 381.47 13.48C383.52 13.48 385.57 13.54 388.56 13.54Z" fill="#FFFFFF" fill-opacity="1.000000" fill-rule="nonzero"/>
	<path id="path" d="M350.17 204.99C350.17 197.04 350.17 189.15 350.17 181.2C350.17 180.73 350.01 180.1 350.22 179.74C350.59 179.16 351.17 178.48 351.74 178.43C352.16 178.38 352.79 179.16 353.16 179.68C353.37 180 353.21 180.52 353.21 180.99C353.21 190.4 353.21 199.81 353.21 209.22C353.21 210.32 353.37 211.52 351.9 211.89C350.43 212.26 349.85 211.21 349.27 210.16C345.07 202.37 340.82 194.58 336.56 186.79C336.3 186.27 335.99 185.8 335.36 185.33L335.36 186.85C335.36 194.27 335.36 201.75 335.36 209.17C335.36 209.59 335.51 210.16 335.36 210.48C334.99 211.05 334.41 211.84 333.88 211.84C333.36 211.84 332.78 211.05 332.36 210.48C332.15 210.22 332.31 209.75 332.31 209.33C332.31 199.86 332.31 190.4 332.31 180.94C332.31 180.73 332.26 180.47 332.31 180.31C332.73 179.63 333.1 178.53 333.67 178.43C334.31 178.27 335.3 178.9 335.78 179.48C336.62 180.52 337.14 181.83 337.77 183.03C341.5 189.93 345.23 196.78 348.96 203.68C349.22 204.15 349.9 204.52 350.17 204.99Z" fill="#FFFFFF" fill-opacity="1.000000" fill-rule="nonzero"/>
	<path id="path" d="M299.06 196.83C299.06 201.01 299.06 204.94 299.06 208.86C299.06 209.33 299.22 209.95 299.06 210.32C298.69 210.95 298.12 211.73 297.49 211.84C297.07 211.89 296.38 211.05 295.96 210.48C295.75 210.11 295.86 209.54 295.86 209.01C295.86 199.97 295.86 190.98 295.86 181.93C295.86 179.27 296.38 178.74 299.01 178.74C301.85 178.74 304.73 178.74 307.57 178.85C312.45 179.11 315.34 181.83 315.97 186.48C316.6 191.34 314.45 194.79 309.83 196.36C309.46 196.47 309.15 196.62 308.67 196.78C311.04 200.65 313.35 204.41 315.66 208.18C315.92 208.65 316.45 209.12 316.39 209.59C316.39 210.27 316.13 211.31 315.71 211.47C315.13 211.68 314.03 211.47 313.61 211.05C312.72 210.01 312.14 208.75 311.46 207.6C309.57 204.41 307.62 201.22 305.78 197.98C305.26 197.09 304.68 196.78 303.68 196.83C302.21 196.88 300.79 196.83 299.06 196.83ZM299.11 193.59C302.32 193.59 305.42 193.8 308.41 193.54C311.14 193.28 312.77 191.19 312.93 188.52C313.09 185.12 311.82 182.77 308.94 182.3C305.73 181.78 302.48 181.88 299.17 181.72L299.11 193.59Z" fill="#FFFFFF" fill-opacity="1.000000" fill-rule="nonzero"/>
	<path id="path" d="M47.58 196.78C49.89 200.6 52.2 204.36 54.51 208.18C55.14 209.28 56.35 210.53 54.67 211.58C52.99 212.62 52.41 211 51.73 209.9C49.37 205.93 47 202.01 44.74 198.04C44.27 197.2 43.69 196.78 42.7 196.83C41.17 196.94 39.65 196.83 37.97 196.83C37.97 200.96 37.97 204.88 37.97 208.81C37.97 209.38 38.13 210.11 37.92 210.58C37.65 211.16 37.02 211.84 36.5 211.84C35.97 211.84 35.34 211.21 34.98 210.69C34.71 210.32 34.87 209.75 34.87 209.22C34.87 200.07 34.87 190.98 34.87 181.83C34.87 179.16 35.29 178.74 37.92 178.8C40.7 178.8 43.54 178.74 46.32 178.9C51.31 179.16 54.41 181.88 54.99 186.48C55.62 191.34 53.41 194.85 48.68 196.41C48.37 196.52 48 196.62 47.58 196.78ZM38.02 181.88L38.02 193.7C40.91 193.7 43.69 193.85 46.48 193.7C49.94 193.49 51.73 191.45 51.78 188.05C51.78 184.44 50.05 182.25 46.53 181.93C43.75 181.72 40.96 181.88 38.02 181.88Z" fill="#FFFFFF" fill-opacity="1.000000" fill-rule="nonzero"/>
	<path id="path" d="M91.7 195.05C91.7 197.46 91.86 199.86 91.7 202.27C91.28 208.07 87.18 211.89 81.46 211.99C75.84 212.1 71.43 208.54 70.95 202.79C70.53 197.62 70.53 192.39 70.95 187.26C71.37 181.46 75.52 178.27 81.56 178.32C87.24 178.38 91.12 181.83 91.65 187.53C91.86 190.04 91.7 192.54 91.7 195.05ZM73.63 195C73.63 197.25 73.74 199.5 73.84 201.75C74.11 206.14 76.73 208.75 80.88 208.96C84.98 209.17 87.71 206.92 88.39 202.53C88.71 200.44 88.65 198.3 88.6 196.15C88.6 193.07 88.6 189.88 88.23 186.85C87.76 183.29 85.14 181.41 81.35 181.3C77.52 181.2 74.79 183.08 74.16 186.69C73.69 189.41 73.79 192.23 73.63 195Z" fill="#FFFFFF" fill-opacity="1.000000" fill-rule="nonzero"/>
	<path id="path" d="M186.61 210.69C186.24 211 185.72 211.84 185.19 211.84C184.56 211.84 183.62 211.21 183.35 210.63C182.62 208.91 182.15 207.13 181.62 205.35C181.36 204.36 180.94 203.94 179.84 203.94C176.53 203.99 173.22 203.99 169.96 203.94C169.02 203.94 168.6 204.2 168.33 205.14C167.91 206.82 167.34 208.49 166.81 210.16C166.5 211.21 165.92 212.2 164.6 211.84C163.24 211.47 163.34 210.37 163.66 209.33C166.7 199.71 169.75 190.04 172.85 180.42C173.11 179.58 174.06 178.64 174.85 178.43C176.05 178.12 176.63 179.27 176.95 180.31C180.05 190.04 183.14 199.81 186.24 209.54C186.35 209.8 186.45 210.01 186.61 210.69ZM169.7 200.86L180.31 200.86C178.58 195.11 176.84 189.57 175 183.55C173.17 189.62 171.43 195.16 169.7 200.86Z" fill="#FFFFFF" fill-opacity="1.000000" fill-rule="nonzero"/>
	<path id="path" d="M391.66 210.58C391.24 211 390.77 211.78 390.35 211.78C389.67 211.78 388.72 211.26 388.46 210.74C387.67 208.96 387.14 207.03 386.62 205.14C386.36 204.26 385.94 203.94 385.04 203.94C381.68 203.94 378.32 203.99 375.01 203.94C374.01 203.94 373.65 204.36 373.44 205.2C372.96 206.87 372.49 208.54 371.91 210.22C371.6 211.26 371.02 212.2 369.71 211.84C368.29 211.42 368.5 210.32 368.81 209.27C371.86 199.71 374.91 190.09 377.95 180.52C378.27 179.42 378.69 178.32 380.05 178.32C381.52 178.32 381.94 179.47 382.31 180.57C385.15 189.46 387.99 198.4 390.82 207.29C391.14 208.28 391.29 209.27 391.66 210.58ZM380 183.5C378.16 189.56 376.43 195.16 374.64 200.86L385.25 200.86C383.52 195.16 381.89 189.56 380 183.5Z" fill="#FFFFFF" fill-opacity="1.000000" fill-rule="nonzero"/>
	<path id="path" d="M3.15 199.18C3.15 202.64 3.15 205.93 3.15 209.17C3.15 210.37 3.36 211.89 1.62 211.89C-0.06 211.89 0 210.43 0 209.22C0 200.07 0 190.98 0 181.83C0 179.27 0.52 178.8 3.09 178.8C5.19 178.8 7.24 178.74 9.34 178.8C15.7 179 19.17 182.51 19.27 188.78C19.38 195.26 15.75 198.98 9.19 199.13C7.24 199.13 5.25 199.18 3.15 199.18ZM3.25 196.31C6.04 196.2 8.71 196.26 11.39 195.89C13.76 195.58 15.49 194.06 15.8 191.66C16.07 189.83 16.01 187.84 15.7 186.01C15.33 184.02 13.86 182.51 11.81 182.25C9.03 181.88 6.19 181.88 3.25 181.72L3.25 196.31Z" fill="#FFFFFF" fill-opacity="1.000000" fill-rule="nonzero"/>
	<path id="path" d="M496.34 196.62L496.34 208.33C496.92 208.33 497.5 208.39 498.07 208.39C501.33 208.39 504.53 208.39 507.79 208.39C508.84 208.39 509.94 208.54 510 209.8C510 211.16 509 211.37 507.79 211.37C503.85 211.37 499.86 211.37 495.92 211.37C493.61 211.37 493.14 210.84 493.14 208.54C493.14 199.6 493.14 190.61 493.14 181.67C493.14 179.27 493.66 178.74 496.02 178.74C499.75 178.74 503.48 178.74 507.21 178.74C508.31 178.74 509.42 178.85 509.42 180.26C509.42 181.72 508.26 181.78 507.16 181.78C503.59 181.78 500.02 181.78 496.34 181.78L496.34 193.54C498.91 193.54 501.49 193.54 504.06 193.54C504.85 193.54 505.58 193.54 506.37 193.54C507.42 193.54 508.42 193.64 508.47 195C508.47 196.36 507.53 196.52 506.42 196.52C503.64 196.52 500.8 196.52 498.02 196.52C497.5 196.52 497.02 196.57 496.34 196.62Z" fill="#FFFFFF" fill-opacity="1.000000" fill-rule="nonzero"/>
	<path id="path" d="M266.29 181.83L266.29 193.59C268.44 193.59 270.59 193.59 272.7 193.59C274.01 193.59 275.32 193.59 276.63 193.59C277.74 193.59 278.53 194.01 278.47 195.16C278.47 196.26 277.63 196.57 276.63 196.57C273.22 196.57 269.81 196.57 266.29 196.57L266.29 208.44C266.92 208.44 267.5 208.44 268.07 208.44C271.43 208.44 274.8 208.44 278.1 208.44C279.1 208.44 280 208.86 279.84 209.95C279.73 210.53 278.95 211.37 278.42 211.37C273.9 211.47 269.39 211.42 264.92 211.37C263.71 211.37 263.08 210.58 263.08 209.33C263.08 199.86 263.08 190.4 263.08 180.94C263.08 179.53 263.82 178.8 265.24 178.8C269.33 178.8 273.48 178.8 277.58 178.8C278.63 178.8 279.31 179.21 279.37 180.31C279.37 181.46 278.63 181.83 277.63 181.83C274.53 181.83 271.49 181.83 268.39 181.83C267.76 181.83 267.13 181.83 266.29 181.83Z" fill="#FFFFFF" fill-opacity="1.000000" fill-rule="nonzero"/>
	<path id="path" d="M466.87 206.19C469.34 198.09 471.81 189.98 474.28 181.88C474.54 180.99 474.7 180 475.22 179.27C475.59 178.8 476.54 178.38 477.12 178.48C477.59 178.59 477.96 179.42 478.17 180.05C478.27 180.42 478.06 180.89 477.9 181.3C474.96 190.56 472.02 199.86 469.08 209.12C468.97 209.38 468.97 209.69 468.82 209.9C468.13 210.63 467.5 211.68 466.72 211.89C465.46 212.15 464.93 210.95 464.56 209.85C462.3 202.64 459.99 195.47 457.73 188.31C457 185.96 456.26 183.6 455.48 181.3C455.11 180.15 454.79 178.9 456.37 178.48C457.79 178.12 458.26 179.27 458.58 180.36C460.83 187.74 463.09 195.11 465.3 202.48C465.67 203.79 466.45 204.88 466.87 206.19Z" fill="#FFFFFF" fill-opacity="1.000000" fill-rule="nonzero"/>
	<path id="path" d="M111.29 181.83L111.29 193.59C113.18 193.59 115.02 193.59 116.86 193.59C118.38 193.59 119.96 193.59 121.48 193.59C122.59 193.59 123.53 193.85 123.48 195.16C123.48 196.36 122.53 196.62 121.48 196.62C118.12 196.62 114.81 196.62 111.19 196.62C111.19 197.62 111.19 198.56 111.19 199.45C111.19 202.95 111.19 206.45 111.19 209.95C111.19 211.05 110.93 212.05 109.66 211.99C108.46 211.99 108.14 211 108.14 209.9C108.14 200.39 108.14 190.87 108.14 181.36C108.14 179.47 108.72 178.9 110.61 178.9C114.5 178.9 118.44 178.9 122.32 178.9C123.43 178.9 124.37 179.06 124.42 180.42C124.42 181.78 123.43 181.93 122.38 181.93C118.75 181.93 115.13 181.83 111.29 181.83Z" fill="#FFFFFF" fill-opacity="1.000000" fill-rule="nonzero"/>
	<path id="path" d="M409.68 181.83C407.52 181.83 405.58 181.83 403.58 181.83C402.53 181.83 401.43 181.72 401.38 180.42C401.38 179.06 402.38 178.8 403.53 178.8C408.68 178.8 413.83 178.8 419.03 178.8C420.08 178.8 421.13 178.9 421.13 180.26C421.13 181.72 420.02 181.83 418.92 181.83C416.98 181.83 414.98 181.83 412.77 181.83L412.77 183.87C412.77 192.34 412.77 200.81 412.77 209.27C412.77 209.75 412.93 210.37 412.67 210.74C412.35 211.26 411.83 211.89 411.3 211.89C410.83 211.89 410.1 211.42 409.83 210.95C409.52 210.43 409.62 209.69 409.62 209.01C409.62 200.6 409.62 192.18 409.62 183.76L409.68 181.83Z" fill="#FFFFFF" fill-opacity="1.000000" fill-rule="nonzero"/>
	<path id="path" d="M236.4 181.83C234.2 181.83 232.25 181.83 230.26 181.83C229.21 181.83 228.1 181.72 228.1 180.42C228.1 179.01 229.15 178.8 230.31 178.8C235.46 178.8 240.66 178.8 245.8 178.8C246.85 178.8 247.9 179.01 247.9 180.31C247.9 181.62 246.85 181.83 245.8 181.83C243.76 181.83 241.76 181.83 239.45 181.83C239.45 182.56 239.45 183.24 239.45 183.87C239.45 192.55 239.45 201.28 239.45 209.96C239.45 211 239.24 211.89 238.03 211.94C236.82 211.94 236.35 211.16 236.35 210.01C236.35 209.59 236.35 209.12 236.35 208.7C236.35 200.44 236.35 192.18 236.35 183.92C236.35 183.34 236.4 182.66 236.4 181.83Z" fill="#FFFFFF" fill-opacity="1.000000" fill-rule="nonzero"/>
	<path id="path" d="M204.78 208.49C208.56 208.49 212.08 208.49 215.65 208.49C216.13 208.49 216.76 208.33 217.13 208.6C217.65 208.96 218.28 209.59 218.28 210.06C218.28 210.53 217.49 211.37 217.02 211.37C212.45 211.47 207.88 211.47 203.36 211.37C202.84 211.37 202.26 210.43 201.79 209.8C201.58 209.54 201.74 209.07 201.74 208.65C201.74 199.39 201.74 190.19 201.74 180.94C201.74 180.47 201.63 179.84 201.84 179.48C202.21 178.95 202.89 178.32 203.36 178.38C203.84 178.38 204.41 179.11 204.73 179.68C204.94 180 204.78 180.52 204.78 180.99C204.78 189.46 204.78 197.93 204.78 206.4L204.78 208.49Z" fill="#FFFFFF" fill-opacity="1.000000" fill-rule="nonzero"/>
	<path id="path" d="M439.88 195.21C439.88 200.02 439.88 204.83 439.88 209.64C439.88 210.79 439.72 211.89 438.35 211.89C436.94 211.89 436.67 210.79 436.67 209.59C436.67 199.92 436.67 190.24 436.67 180.57C436.67 179.42 436.88 178.38 438.25 178.32C439.72 178.32 439.88 179.42 439.88 180.62C439.88 185.49 439.88 190.35 439.88 195.21Z" fill="#FFFFFF" fill-opacity="1.000000" fill-rule="nonzero"/>
</svg>
