<svg width="394" height="155" viewBox="0 0 394 155" fill="none" xmlns="http://www.w3.org/2000/svg">
<rect width="393.538" height="155" fill="black"/>
<path d="M330.117 41.0585C330.323 41.3804 330.235 41.7315 330.235 42.0826C330.235 46.2374 330.235 50.3923 330.235 54.5471C330.235 56.566 330.235 58.5849 330.235 60.6038C330.235 60.9256 330.235 61.2182 330.235 61.5108C330.587 61.7449 330.91 61.6571 331.233 61.6571C333.639 61.6571 336.045 61.6571 338.422 61.6571C338.745 61.6571 339.038 61.6571 339.39 61.6864C339.508 62.2423 339.449 62.7397 339.39 63.2956C338.334 63.4127 337.336 63.3249 336.309 63.3542C335.311 63.3542 334.343 63.3542 333.345 63.3542H330.382C330.088 63.5882 330.176 63.8223 330.176 64.0564C330.176 65.3145 330.176 66.602 330.176 67.8601C330.176 70.1716 330.176 72.4831 330.176 74.7946C330.176 76.2283 330.47 77.6035 331.056 78.8909C331.497 79.8272 332.054 80.6465 332.846 81.3194C333.844 82.1972 334.989 82.6654 336.309 82.6654C339.537 82.6654 342.618 82.0217 345.641 80.9976C348.223 80.1198 350.688 78.9787 353.094 77.7205C355.911 76.2283 358.67 74.6776 361.487 73.1853C363.922 71.8687 366.416 70.6105 368.969 69.5572C371.816 68.3868 374.721 67.4505 377.773 66.9531C379.299 66.719 380.824 66.5727 382.35 66.5434C382.526 66.5434 382.702 66.5434 382.908 66.5727C383.055 67.0994 382.996 67.5968 382.937 68.1527C382.791 68.182 382.644 68.2405 382.526 68.2405C377.567 68.299 372.96 69.6449 368.47 71.6346C365.683 72.8635 363.042 74.2972 360.371 75.7601C357.76 77.1646 355.148 78.5983 352.507 79.9442C349.896 81.2609 347.196 82.3728 344.379 83.192C340.946 84.1869 337.454 84.5672 333.903 84.3039C330.205 84.0113 326.684 83.075 323.427 81.2024C321.666 80.1783 320.082 78.9494 318.791 77.3402C317.587 75.8479 316.736 74.2094 316.443 72.3075C316.355 71.7516 316.326 71.1664 316.326 70.5812C316.326 67.0701 316.326 63.5297 316.326 60.0186C316.326 59.6967 316.384 59.3749 316.208 59.0238C315.973 58.9945 315.68 58.936 315.387 58.9067C311.19 58.7604 307.141 59.4627 303.355 61.306C302.152 61.8912 301.037 62.6227 300.01 63.4419C299.629 63.7345 299.482 64.0564 299.482 64.5538C299.482 66.7775 299.482 69.0012 299.482 71.2249C299.482 73.9461 299.482 76.6379 299.482 79.3591C299.482 79.5639 299.482 79.7687 299.482 79.9735C299.511 81.4365 300.48 82.4605 301.918 82.6361C302.123 82.6361 302.299 82.6654 302.475 82.6946C302.622 83.4261 302.622 83.5432 302.475 84.3039C302.328 84.3039 302.152 84.3624 302.006 84.3624C298.044 84.3624 294.083 84.3624 290.121 84.3624C289.534 84.3624 288.977 84.2746 288.419 84.0698C287.069 83.6017 286.189 82.6361 285.807 81.2609C285.69 80.7928 285.602 80.2954 285.602 79.7979C285.602 76.3746 285.602 72.922 285.602 69.4986C285.602 68.4746 285.808 67.4505 285.925 66.3971C285.954 66.1045 286.072 65.8705 286.365 65.6949C287.451 65.0805 288.038 64.1442 288.214 62.9153C288.214 62.8568 288.272 62.8275 288.302 62.7105C288.947 62.5934 289.622 62.4764 290.297 62.3301C291.882 61.979 293.408 61.4523 294.816 60.6038C296.166 59.8138 297.281 58.7897 298.044 57.4145C298.073 57.3267 298.132 57.2682 298.22 57.1804H299.365C299.365 57.3853 299.453 57.5608 299.453 57.7656C299.453 58.7019 299.453 59.609 299.453 60.5453C299.453 60.8379 299.453 61.1012 299.453 61.3645C299.775 61.5401 299.922 61.306 300.098 61.189C302.24 59.726 304.617 58.7312 307.111 58.0582C309.694 57.3853 312.335 57.0927 315.005 57.1512C315.387 57.1512 315.739 57.239 316.15 57.0927C316.15 56.9756 316.238 56.8293 316.238 56.683C316.326 55.0738 316.238 47.993 316.15 47.2908C315.211 47.1152 314.213 47.3785 313.274 47.203C313.068 46.5885 313.068 46.2959 313.274 45.5645C313.479 45.5645 313.714 45.5352 313.949 45.5352C315.416 45.5352 316.913 45.5352 318.38 45.3304C321.314 44.9793 324.131 44.3063 326.684 42.7848C327.535 42.2874 328.357 41.7607 328.973 41H330L330.117 41.0585ZM193.96 58.4093C191.583 60.1064 188.942 61.1012 186.095 61.6864C184.305 62.0668 182.486 62.2423 180.667 62.2131C180.373 62.2131 180.05 62.1545 179.757 62.2716C179.61 63.0616 179.61 63.2371 179.786 63.8808C180.755 63.9686 181.723 63.8808 182.662 63.8808C182.868 64.2612 182.809 64.6123 182.809 64.9634C182.809 70.4935 182.809 76.0527 182.809 81.5828C182.809 81.7583 182.809 81.9339 182.809 82.1094C182.809 82.285 182.75 82.4313 182.691 82.6361C182.163 82.6361 181.694 82.6361 181.195 82.6361C180.725 82.6361 180.227 82.5776 179.669 82.6946C179.669 83.2213 179.552 83.748 179.728 84.2454C180.08 84.3624 180.432 84.3331 180.784 84.3331C186.741 84.3331 192.698 84.3331 198.655 84.3331C198.86 84.3331 199.066 84.3331 199.271 84.3331C199.447 84.3331 199.594 84.2746 199.799 84.2454C199.829 83.6894 199.917 83.192 199.741 82.6654C198.801 82.6654 197.951 82.4313 197.305 81.6998C196.63 80.9391 196.601 80.0613 196.777 79.0957C197.657 78.9787 198.479 79.0957 199.3 79.3005C201.413 79.8565 203.056 81.0268 203.966 83.075C205.111 85.6498 204.7 88.9854 202.558 91.2091C201.765 92.0284 200.856 92.6721 199.829 93.1695C198.244 93.9302 196.571 94.3399 194.84 94.5447C192.052 94.8665 189.294 94.6032 186.565 93.9595C184.012 93.345 181.606 92.4087 179.258 91.2676C174.651 89.0732 170.396 86.2935 166.024 83.6894C165.936 83.6309 165.906 83.5431 165.818 83.3968C166.024 83.3383 166.171 83.2798 166.288 83.2506C167.168 82.958 168.049 82.7239 168.929 82.402C171.188 81.5828 173.301 80.4709 175.179 78.9202C176.617 77.7498 177.82 76.4039 178.642 74.7653C179.845 72.3368 179.933 69.8205 178.877 67.3042C178.407 66.1631 177.732 65.1682 176.911 64.2612C175.473 62.6812 173.771 61.4523 171.893 60.4575C171.629 60.3112 171.335 60.1649 171.042 59.9893C170.954 59.5212 170.895 59.053 170.778 58.6141C170.66 58.146 170.778 57.6193 170.484 57.1512C170.161 57.1512 169.809 57.1512 169.457 57.1512C165.818 57.1512 162.18 57.1512 158.512 57.1512C157.191 57.1512 155.841 57.1512 154.521 57.2682C152.173 57.4438 149.884 57.8534 147.625 58.5556C144.955 59.3749 142.431 60.516 140.201 62.2131C138.704 63.3542 137.413 64.6416 136.503 66.2801C135.359 68.299 135.007 70.4349 135.506 72.7172C135.799 74.0631 136.415 75.2627 137.237 76.3746C138.205 77.662 139.379 78.7154 140.67 79.6517C140.905 79.8272 141.199 79.915 141.287 80.2661C141.081 80.4417 140.876 80.6465 140.641 80.822C137.266 83.8943 136.709 88.7513 139.321 92.438C140.582 94.2228 142.284 95.3932 144.368 96.0662C147.126 96.9439 149.884 97.8217 152.643 98.6703C158.688 100.572 164.703 102.474 170.719 104.405C171.394 104.61 172.098 104.902 172.714 105.224C176.353 107.185 178.26 111.457 176.559 115.67C175.179 119.181 172.978 122.048 169.897 124.243C165.085 127.666 159.715 128.924 153.875 127.959C149.327 127.227 145.453 125.209 142.255 121.902C140.494 120.088 139.174 118.011 138.264 115.67C138.176 115.465 138.147 115.26 138.088 115.026C138.176 115.026 138.205 115.026 138.235 115.026C138.47 115.173 138.675 115.29 138.91 115.436C142.05 117.221 145.16 117.221 148.153 115.231C152.203 112.51 152.731 106.98 149.122 103.557C146.275 100.835 141.785 100.514 138.558 102.796C136.386 104.347 135.242 106.424 135.242 109.116C135.242 110.55 135.388 111.925 135.711 113.329C137.061 119.035 140.289 123.424 145.219 126.525C149.914 129.48 155.108 130.504 160.595 129.773C164.821 129.217 168.636 127.608 171.893 124.857C176.735 120.79 179.405 115.641 179.522 109.291C179.61 105.224 178.495 101.479 176.294 98.0558C173.507 93.7547 169.604 90.8287 164.762 89.1902C160.126 87.6395 155.489 86.1472 150.824 84.655C149.18 84.1283 147.508 83.6017 145.864 83.075C145.424 82.9287 145.013 82.7239 144.603 82.4898C144.338 82.3435 144.192 82.1094 144.162 81.7876C144.104 81.1146 144.573 80.2954 145.219 80.0613C146.099 79.7394 146.979 79.5346 147.918 79.4176C149.914 79.1542 151.851 79.4176 153.758 79.8857C156.017 80.4709 158.13 81.3779 160.184 82.4313C162.649 83.6894 165.026 85.1231 167.403 86.5569C169.78 87.9906 172.157 89.4243 174.563 90.7995C176.999 92.1747 179.522 93.4036 182.163 94.3984C184.452 95.2469 186.8 95.8613 189.206 96.1832C191.612 96.5051 193.989 96.4465 196.366 96.0076C198.039 95.7151 199.682 95.1884 201.178 94.3399C202.44 93.6084 203.585 92.7306 204.436 91.531C205.697 89.8339 206.226 87.9028 206.196 85.7669C206.108 81.9339 203.761 78.8324 200.093 77.7498C199.212 77.4865 198.273 77.3694 197.364 77.3109C197.129 77.3109 196.835 77.3694 196.601 77.1061C196.601 76.9305 196.571 76.7257 196.571 76.5502C196.571 71.5175 196.571 66.5142 196.571 61.4816C196.571 61.2475 196.601 61.0427 196.63 60.8086C196.923 60.6916 197.188 60.5453 197.452 60.4575C200.298 59.4042 203.262 58.9067 206.284 58.8775C207.81 58.8775 209.101 59.4627 210.158 60.5453C211.713 62.1545 212.447 64.1442 212.476 66.3679C212.535 70.9031 212.476 75.4383 212.476 79.9442C212.476 80.2368 212.476 80.5294 212.359 80.7928C212.006 81.8461 211.214 82.4313 210.128 82.6068C209.894 82.6361 209.6 82.5483 209.336 82.8117C209.395 83.2798 209.219 83.7772 209.483 84.3331C209.835 84.3331 210.187 84.3331 210.51 84.3331C216.437 84.3331 222.365 84.3331 228.293 84.3331C228.498 84.3331 228.703 84.3331 228.909 84.3331C229.085 84.3331 229.232 84.2746 229.408 84.2454C229.466 83.6894 229.525 83.192 229.378 82.6654C228.351 82.5483 227.383 82.7239 226.356 82.5483C226.356 82.1972 226.327 81.8754 226.327 81.5535C226.327 78.0716 226.327 74.5605 226.327 71.0786C226.327 70.4642 226.327 69.879 226.209 69.2646C225.945 67.5383 225.241 66.0168 224.214 64.6123C222.717 62.5934 220.78 61.1305 218.58 59.9601C215.205 58.1753 211.537 57.356 207.752 57.1512C204.201 56.9756 200.709 57.473 197.334 58.6434C197.129 58.7312 196.894 58.7604 196.659 58.819C196.395 58.263 196.659 57.6778 196.425 57.1512H195.368C194.84 57.5608 194.341 57.9704 193.813 58.3508L193.96 58.4093ZM156.164 78.8324C154.315 78.1887 152.437 77.8083 150.471 77.662C150.325 77.3694 150.178 77.1061 150.09 76.8427C149.532 75.409 149.21 73.9168 149.18 72.3661C149.18 71.2542 149.151 70.1131 149.18 69.0012C149.268 66.8946 149.826 64.9049 150.912 63.0908C151.528 62.0668 152.291 61.1597 153.23 60.4282C156.164 58.1753 159.685 58.5264 162.238 60.9256C163.823 62.4179 164.791 64.2612 165.32 66.3386C165.584 67.392 165.73 68.4746 165.73 69.5864C165.73 70.552 165.73 71.4883 165.73 72.4538C165.642 74.9701 164.938 77.2816 163.471 79.3298C162.972 80.032 162.385 80.6757 161.593 81.2317C159.803 80.3539 158.013 79.5054 156.164 78.8616V78.8324ZM90.8143 78.4813C92.7511 80.1783 94.9519 81.4072 97.3581 82.3435C100.615 83.6017 104.019 84.2454 107.511 84.3624C111.267 84.5087 114.965 84.1576 118.574 83.1335C121.332 82.3435 123.944 81.1731 126.262 79.4468C127.7 78.3642 128.991 77.1061 129.901 75.5553C131.72 72.4538 131.75 69.3231 129.96 66.1923C129.314 65.0805 128.492 64.1149 127.524 63.2664C126.028 61.8912 124.296 60.8379 122.448 59.9601C118.633 58.2045 114.613 57.4145 110.446 57.239C109.037 57.1804 107.629 57.239 106.191 57.356C103.462 57.5608 100.821 58.0875 98.2384 58.9653C95.9496 59.7553 93.8075 60.8086 91.8707 62.2716C90.3742 63.4127 89.083 64.7001 88.1733 66.3386C86.9702 68.4746 86.5887 70.7275 87.2637 73.0975C87.5571 74.1801 88.056 75.2042 88.7015 76.1405C88.8483 76.3746 89.083 76.5501 89.1123 76.9013C88.9363 76.989 88.7602 77.0768 88.5548 77.1646C87.7038 77.545 86.8528 77.9253 86.0019 78.2765C83.1261 79.5054 80.221 80.6465 77.2279 81.5243C74.0294 82.4606 70.7721 83.075 67.4269 83.192C66.4585 83.2213 65.5195 83.0457 64.6392 82.6654C64.0229 82.3728 63.3774 82.0802 62.7905 81.6998C60.9124 80.4709 59.5332 78.7739 58.4475 76.8427C56.9216 74.0924 56.1586 71.1079 56.0413 67.9772C55.9826 66.2801 56.0119 64.5831 56.0119 62.886C56.0119 61.2475 56.2173 59.609 56.5988 57.9997C57.2444 55.3956 58.3008 52.9671 60.0908 50.9482C61.646 49.1634 63.5534 47.9052 65.901 47.4078C67.3095 47.1152 68.718 47.1152 70.1266 47.203C71.8285 47.32 73.5305 47.5248 75.2031 47.8467C79.0766 48.5782 82.7153 49.8949 86.0605 51.9723C86.2659 52.0893 86.442 52.2356 86.6474 52.3819C86.6474 52.6745 86.6474 52.9671 86.6474 53.2597C86.6474 54.3423 86.6474 55.4541 86.6474 56.5367C86.6474 56.7415 86.7061 56.9171 86.7355 57.1219C87.293 57.1804 87.7919 57.1804 88.3787 57.1219C88.3787 56.8293 88.4374 56.566 88.4374 56.3319C88.4374 55.5127 88.4374 54.7227 88.4374 53.9034C88.4374 51.7382 88.4374 49.573 88.4374 47.4078C88.4374 47.0859 88.4961 46.7641 88.2907 46.4715C87.7625 46.3837 87.2343 46.3252 86.6768 46.5593C86.6768 47.8467 86.354 48.9 85.0628 49.3974C84.8574 49.3097 84.652 49.2219 84.4759 49.1341C80.221 47.0274 75.702 45.8571 71.0069 45.5059C67.9844 45.2719 64.9326 45.3596 61.9101 45.7693C58.741 46.2082 55.6891 47.0274 52.7254 48.2271C49.028 49.7778 45.7121 51.9138 43.0124 54.8689C41.3984 56.6245 40.1073 58.6141 39.3737 60.8964C38.7281 62.9153 38.552 64.9634 38.8748 67.0409C39.227 69.3523 40.166 71.4005 41.5158 73.2731C42.3081 74.385 43.2178 75.3798 44.2155 76.3161C44.3622 76.4624 44.5676 76.5794 44.597 76.9013C44.2155 76.755 43.8927 76.6087 43.5699 76.4916C40.8116 75.2627 38.0532 74.0924 35.2655 73.039C29.8661 71.0201 24.3494 69.6742 18.5685 69.4109C15.9862 69.2938 13.4333 69.4401 10.851 69.6742C10.5575 69.6742 10.2641 69.7035 10 69.9375C10.1174 70.4057 10.0587 70.9031 10.3228 71.3712C10.6749 71.3712 11.027 71.342 11.3498 71.3127C12.3475 71.2249 13.3746 71.1079 14.3723 71.0494C17.4828 70.9031 20.564 71.0786 23.6158 71.5761C27.0491 72.132 30.3943 73.039 33.6515 74.2094C37.0261 75.4383 40.3127 76.872 43.5699 78.3057C46.2403 79.4761 48.9106 80.6757 51.6396 81.6705C55.249 83.0165 58.9464 84.0406 62.7611 84.538C65.6956 84.9183 68.6007 84.8598 71.5057 84.4209C74.4402 83.982 77.2866 83.2505 80.0743 82.285C83.0968 81.2317 86.0605 79.9735 88.995 78.6861C89.4058 78.5105 89.846 78.335 90.3155 78.1302C90.4915 78.2765 90.6089 78.3642 90.7263 78.452L90.8143 78.4813ZM111.796 69.7035C109.917 69.879 108.069 70.2009 106.249 70.669C104.401 71.1372 102.581 71.6346 100.703 72.1612C100.674 72.0149 100.615 71.8979 100.615 71.7516C100.615 70.4642 100.557 69.1475 100.733 67.8601C101.055 65.6657 101.818 63.676 103.198 61.9497C104.195 60.7208 105.428 59.7553 106.954 59.2579C109.155 58.5264 111.238 58.9067 113.145 60.1942C114.29 60.9549 115.17 61.979 115.874 63.1494C116.901 64.8464 117.43 66.719 117.606 68.7086C117.606 68.8257 117.606 68.9427 117.606 69.0598C117.606 69.1183 117.576 69.1768 117.518 69.2646C115.581 69.3816 113.674 69.4694 111.796 69.6742V69.7035ZM107.306 72.0735C110.974 71.2835 115.757 70.8738 117.488 71.0786C117.518 71.1664 117.606 71.2542 117.606 71.3712C117.694 74.385 116.96 77.1353 115.111 79.5639C114.378 80.5002 113.498 81.2902 112.412 81.8461C110.211 82.9872 108.039 82.9872 105.839 81.8461C104.841 81.3487 104.019 80.6172 103.315 79.7687C101.936 78.1009 101.144 76.199 100.791 74.0338C101.672 73.5364 104.929 72.5709 107.306 72.0735ZM265.824 61.1305C265.296 60.8086 264.797 60.4867 264.269 60.1942C260.777 58.2923 256.991 57.4438 253.059 57.239C250.565 57.1219 248.1 57.356 245.664 57.9119C242.73 58.5849 239.972 59.6675 237.536 61.4231C235.805 62.6519 234.308 64.1442 233.281 66.0168C232.049 68.2405 231.697 70.5812 232.283 73.039C232.636 74.5898 233.369 75.965 234.338 77.1939C235.599 78.7739 237.125 80.032 238.857 81.0561C242.231 83.0457 245.929 84.0406 249.802 84.3331C252.091 84.4794 254.35 84.4209 256.639 84.0406C259.926 83.4846 263.007 82.4313 265.824 80.588C266 80.4709 266.176 80.4124 266.382 80.2954C266.382 80.4416 266.44 80.5294 266.44 80.588C266.205 81.6998 265.325 82.5191 264.181 82.6654C263.946 82.6946 263.682 82.7239 263.418 82.7531C263.359 83.3091 263.3 83.8065 263.447 84.3624C263.741 84.3624 264.005 84.3917 264.269 84.3917C268.025 84.3917 271.781 84.3917 275.537 84.3917C275.83 84.3917 276.124 84.3917 276.417 84.3624C278.589 84.1283 279.939 82.7824 280.232 80.9391C280.291 80.5002 280.349 80.0905 280.349 79.6517C280.349 76.6087 280.349 73.5364 280.349 70.4935C280.349 69.2353 280.232 67.9479 280.027 66.719C279.968 66.2508 279.821 65.929 279.381 65.6949C278.471 65.1682 277.973 64.349 277.767 63.3249C277.738 63.1494 277.708 63.0031 277.65 62.7982C277.239 62.7397 276.887 62.6812 276.505 62.5934C274.627 62.2716 272.867 61.7156 271.223 60.7501C269.815 59.9308 268.641 58.8775 267.878 57.4438C267.849 57.3853 267.761 57.3267 267.702 57.239C267.321 57.239 266.91 57.1512 266.528 57.3267C266.411 58.6727 266.558 59.9893 266.44 61.3938C266.205 61.2768 266.059 61.2182 265.912 61.1597L265.824 61.1305ZM265.677 78.5105C263.682 80.032 261.422 81.0561 259.016 81.7583C256.786 82.402 254.497 82.6946 252.179 82.7239C251.005 82.7239 250.037 82.3143 249.215 81.5243C248.364 80.7342 247.777 79.7979 247.278 78.7739C246.486 77.0768 246.017 75.292 245.929 73.4487C245.84 71.7224 245.84 69.9961 245.929 68.2697C246.017 66.3971 246.486 64.5831 247.308 62.8568C247.719 61.9497 248.247 61.1305 248.951 60.4282C249.89 59.4334 251.005 58.9067 252.414 58.9653C256.052 59.1116 259.515 59.7845 262.802 61.3938C263.946 61.9497 265.032 62.6227 266.029 63.4419C266.323 63.676 266.44 63.9686 266.44 64.3197C266.44 68.7379 266.44 73.1561 266.44 77.5742C266.44 77.6913 266.44 77.8083 266.411 77.9839C266.205 78.1594 265.971 78.3642 265.707 78.569L265.677 78.5105Z" fill="white"/>
</svg>
