<svg width="397" height="157" viewBox="0 0 397 157" fill="none" xmlns="http://www.w3.org/2000/svg">
<rect width="396.557" height="156.006" transform="translate(0.417969 0.719727)" fill="black"/>
<path d="M225.87 68.7426C224.797 73.2426 223.739 77.7569 222.667 82.2569C221.609 86.7284 220.536 91.2141 219.506 95.6855C219.349 96.3855 219.035 96.6141 218.32 96.5998C215.774 96.5569 213.229 96.5569 210.669 96.5998C209.925 96.5998 209.668 96.3569 209.511 95.6569C207.494 87.0141 205.435 78.3855 203.39 69.7426C203.305 69.3712 203.19 68.9998 202.904 68.6284C202.575 70.0284 202.232 71.4284 201.903 72.8284C200.116 80.3855 198.314 87.9426 196.541 95.4998C196.355 96.2998 196.083 96.6141 195.196 96.5998C192.422 96.5284 189.648 96.5712 186.759 96.5712C186.845 96.1284 186.874 95.7855 186.96 95.4426C189.319 85.9141 191.664 76.3712 194.067 66.8569C194.381 65.6141 194.968 64.4141 195.597 63.2855C196.269 62.0855 197.37 61.3712 198.814 61.3712C201.617 61.3712 204.42 61.3712 207.223 61.3712C208.538 61.3712 209.611 61.9998 210.24 63.0855C210.926 64.2855 211.527 65.5855 211.913 66.9141C212.771 69.9284 213.458 72.9855 214.215 76.0284C214.273 76.2712 214.373 76.4998 214.53 76.9855C215.317 73.7712 216.003 70.7855 216.818 67.8426C217.233 66.3426 217.776 64.8712 218.477 63.4712C219.135 62.1426 220.307 61.3569 221.866 61.3569C224.669 61.3569 227.472 61.3569 230.274 61.3712C231.518 61.3712 232.548 61.9426 233.149 62.9712C233.849 64.1712 234.536 65.4426 234.865 66.7712C237.324 76.4141 239.684 86.0855 242.086 95.7427C242.143 95.9569 242.172 96.1712 242.243 96.5569H241.128C238.64 96.5569 236.166 96.5284 233.678 96.5712C232.891 96.5855 232.62 96.3141 232.448 95.5855C230.417 86.9141 228.358 78.2426 226.299 69.5855C226.227 69.2855 226.127 68.9855 226.042 68.6855C225.97 68.6855 225.899 68.6998 225.841 68.7141L225.87 68.7426ZM112.643 90.9284H139.77V84.1855C139.426 84.1712 139.126 84.0998 138.854 84.1569C137.825 84.3426 137.41 83.8855 137.096 82.8998C135.279 77.3855 133.349 71.9141 131.519 66.4141C130.918 64.5998 129.745 63.5141 127.915 63.2712C126.771 63.1141 125.555 63.1426 124.411 63.2998C122.638 63.5284 121.494 64.5855 120.908 66.3141C119.135 71.5712 117.333 76.7998 115.545 82.0569C115.097 83.3712 114.197 84.0855 112.843 84.1998C112.843 84.1998 112.786 84.2284 112.643 84.2855V90.9427V90.9284ZM122.252 84.0998C123.525 79.8998 124.783 75.7569 126.042 71.6141C126.142 71.6141 126.242 71.6141 126.328 71.5998C127.586 75.7426 128.844 79.8855 130.131 84.1141H122.238L122.252 84.0998ZM255.843 77.8569C253.455 77.8569 251.067 77.8569 248.693 77.8855C247.148 77.8998 246.004 78.6712 245.547 80.0998C244.617 82.9998 244.646 85.9569 245.675 88.8426C246.162 90.2141 247.248 90.9855 248.764 90.9998C252.625 90.9998 256.472 91.0284 260.333 90.9998C261.892 90.9855 262.95 90.0141 263.25 88.4712C263.365 87.8284 263.436 87.1712 263.436 86.5284C263.436 83.3284 263.493 80.1284 263.379 76.9284C263.336 75.7141 263.036 74.4569 262.592 73.3284C261.849 71.3998 260.29 70.2569 258.231 70.2141C254.284 70.1141 250.323 70.1998 246.376 70.2141C246.319 70.2141 246.262 70.2712 246.205 70.3141V75.3712C246.662 75.3712 247.005 75.3712 247.363 75.3712C249.808 75.3712 252.268 75.3427 254.713 75.3855C256.429 75.4141 257.015 76.0712 256.958 77.8855C256.558 77.8855 256.2 77.8855 255.843 77.8855V77.8569ZM257.015 84.0712C257.015 84.9569 256.615 85.3998 255.714 85.3855C254.67 85.3855 253.626 85.3855 252.597 85.3855C251.739 85.3855 251.324 84.9426 251.338 84.1284C251.338 83.3141 251.724 82.8569 252.597 82.8569C254.027 82.8569 255.442 82.8569 257.03 82.8569C257.03 83.3569 257.03 83.7141 257.03 84.0569L257.015 84.0712ZM146.448 70.2569C144.145 70.6569 142.487 71.9712 141.743 74.2141C140.37 78.3998 140.385 82.6284 141.7 86.8141C142.458 89.2284 144.246 90.7141 146.691 90.9284C149.365 91.1569 152.096 91.1426 154.785 90.9284C156.944 90.7569 158.717 89.5426 159.504 87.4426C161.22 82.9141 161.191 78.3141 159.518 73.7569C158.96 72.2141 157.816 71.0426 156.215 70.6426C154.456 70.1855 152.64 69.9998 151.238 69.7569C149.351 69.9426 147.863 70.0141 146.433 70.2569H146.448ZM147.749 77.3998C148.107 76.1427 149.208 75.4998 150.738 75.4998C152.239 75.4998 153.398 76.1569 153.755 77.3712C154.356 79.4141 154.341 81.5141 153.784 83.5569C153.412 84.9141 152.196 85.6569 150.695 85.6284C149.179 85.5998 148.006 84.8427 147.663 83.4712C147.42 82.4998 147.363 81.4855 147.206 80.3998C147.377 79.4284 147.463 78.3855 147.749 77.3855V77.3998ZM168.985 83.1712H174.633V90.9427H180.911V70.1998H174.576V77.3712H168.97V70.2141H162.664V90.9712H168.985V83.1855V83.1712ZM277.993 70.1569C277.75 70.1569 277.421 70.4426 277.278 70.6855C275.848 73.1712 274.461 75.6855 273.017 78.1569C272.13 79.6712 272.202 81.0855 273.131 82.5712C274.376 84.5569 275.705 86.5141 276.721 88.6284C277.636 90.5427 278.851 91.3284 280.968 91.0284C282.355 90.8284 283.785 90.9855 285.358 90.9855C285.129 90.6141 285.029 90.4284 284.9 90.2426C283.099 87.5712 281.325 84.8569 279.466 82.2284C278.523 80.8998 278.422 79.6855 279.381 78.3855C279.509 78.1998 279.624 77.9998 279.752 77.8141C281.354 75.3141 282.941 72.8141 284.672 70.1284C282.298 70.1284 280.153 70.1141 278.008 70.1569H277.993ZM265.409 90.9141H271.687V70.1855H265.409V90.9141Z" fill="white"/>
</svg>
