<svg width="379.000000" height="312.000000" viewBox="0 0 379 312" fill="none" xmlns="http://www.w3.org/2000/svg" xmlns:xlink="http://www.w3.org/1999/xlink">
	<desc>
			Created with Pixso.
	</desc>
	<defs/>
	<path id="path" d="M75.16 202.05C75.16 226.9 62.69 239.33 37.1 239.33C11.83 239.33 0 227.22 0 202.05L0 116.95C0 91.77 11.83 79.67 37.42 79.67C62.68 79.67 75.16 91.78 75.16 116.95L75.16 168.26L30.06 168.26L30.06 202.68C30.06 209.06 32.62 212.24 37.1 212.24C41.9 212.24 44.45 209.06 44.45 202.68L44.45 184.84L75.15 184.84L75.16 202.05ZM44.46 116.31C44.46 109.62 42.22 106.76 37.42 106.76C32.63 106.76 30.07 109.62 30.07 116.31L30.07 146.27L44.46 146.27L44.46 116.31ZM131.13 237.74L131.13 114.4C131.13 109.31 128.89 106.44 124.74 106.44C120.9 106.44 118.34 108.67 117.06 113.45L117.06 237.74L86.04 237.74L86.04 80.94L115.14 80.94L115.78 94.65L117.06 94.65C122.17 83.81 129.53 79.67 138.49 79.67C152.56 79.67 162.47 90.19 162.47 108.04L162.47 237.75L131.13 237.74ZM131.14 274.7C131.14 299.88 142.97 311.99 168.24 311.99C193.82 311.99 206.3 299.88 206.3 274.7L206.3 80.93L175.27 80.93L175.27 274.7C175.27 281.08 172.71 284.27 167.92 284.27C163.12 284.27 160.88 281.08 160.88 274.7L160.88 246.34L131.14 246.34L131.14 274.7ZM292.33 202.05C292.33 227.54 280.18 239.33 254.91 239.33C229.33 239.33 217.49 227.54 217.49 202.05L217.49 116.95C217.49 91.45 229.32 79.67 254.91 79.67C280.18 79.67 292.33 91.46 292.33 116.95L292.33 202.05ZM261.94 116.95C261.94 110.58 259.38 107.39 254.91 107.39C250.43 107.39 247.55 110.58 247.55 116.95L247.55 202.05C247.55 208.42 250.44 211.6 254.91 211.6C259.39 211.6 261.94 208.42 261.94 202.05L261.94 116.95ZM334.54 200.14C334.54 206.83 337.1 209.69 341.58 209.69C345.74 209.69 348.61 206.83 348.93 200.14L348.93 80.94L379 80.94L379 274.71C379 299.89 366.52 312 340.93 312C315.67 312 303.84 299.89 303.84 274.71L303.84 247.3L333.58 247.3L333.58 274.71C333.58 281.08 336.14 284.27 340.93 284.27C345.73 284.27 347.97 281.08 347.97 274.71L347.97 226.27L346.69 226.27C341.89 235.19 335.5 237.74 326.86 237.74C308.63 237.74 303.19 225.63 303.19 207.15L303.19 80.94L334.54 80.94L334.54 200.14ZM223.98 9.77C219.33 2.12 210.01 -1.63 201.41 0.83C197.09 2.07 193.93 4.98 191.28 8.47C191.06 8.76 190.83 9.05 190.75 9.16C188.8 7.26 187.04 5.19 184.93 3.55C179.08 -1 170.83 -1.16 164.13 2.95C158.97 6.11 155.65 10.55 154.7 16.6C154.67 16.74 154.57 16.86 154.51 17C154.51 18.42 154.51 19.84 154.51 21.26C154.85 22.64 155.11 24.03 155.52 25.38C156.53 28.73 158.56 31.53 160.7 34.23C166.61 41.76 173.41 48.47 180.26 55.13C183.48 58.26 186.78 61.32 190.04 64.41C190.2 64.56 190.37 64.7 190.59 64.9C193.86 61.79 197.11 58.76 200.32 55.67C207.15 49.05 213.92 42.36 219.88 34.93C222.57 31.59 225.07 28.15 226.06 23.86C226.24 23.07 226.43 22.27 226.62 21.49C226.62 20.07 226.62 18.64 226.62 17.22C226.1 14.61 225.38 12.08 223.98 9.77Z" fill="#FFFFFF" fill-opacity="1.000000" fill-rule="nonzero"/>
</svg>
