<svg width="663.000000" height="87.000000" viewBox="0 0 663 87" fill="none" xmlns="http://www.w3.org/2000/svg" xmlns:xlink="http://www.w3.org/1999/xlink">
	<desc>
			Created with Pixso.
	</desc>
	<defs/>
	<path id="path" d="M87.27 46.65L87.26 56.54L9.93 25.44L9.93 56.54L0 56.54L0 1.6L9.93 1.6L9.93 15.42L10.03 15.4L31.41 11.78L87.18 2.35L87.18 6.73L41.2 14.52L18.98 18.28L17.63 18.51L87.27 46.65ZM182.37 1.24L182.37 38.36C182.37 48.4 162.85 56.53 138.78 56.53C114.7 56.53 95.18 48.39 95.18 38.36L95.18 1.24L105.11 1.24L105.11 38.36C105.11 46.1 120.19 52.39 138.78 52.39C157.37 52.39 172.43 46.11 172.43 38.36L172.43 1.24L182.37 1.24ZM278.42 28.64C278.42 43.85 259.26 56.28 235.48 56.5L193.89 56.5L193.89 0.9L236.6 0.9C249.44 1.22 260.84 5.12 268.49 11.04C274.67 15.82 278.4 21.95 278.42 28.64ZM268.48 28.64C268.43 17.06 253.82 5.44 235.8 4.97L203.83 4.97L203.83 52.36L235.48 52.36C253.78 52.09 268.48 40.43 268.48 28.7L268.48 28.64ZM287.59 56.54L287.59 1.6L297.52 1.6L297.52 56.54L287.59 56.54ZM397.26 52.2L397.26 56.35L310.07 56.35L310.07 1L320 1L320 52.2L397.26 52.2ZM480.69 28.22C480.69 43.85 461.17 56.58 437.1 56.58C413.02 56.58 393.51 43.91 393.51 28.29C393.53 21.49 397.25 15.19 403.44 10.31C411.44 4.01 423.55 0 437.1 0C461.14 0 480.64 12.63 480.69 28.22ZM470.76 28.22C470.7 16.19 455.65 4.14 437.1 4.14C418.54 4.14 403.49 16.19 403.43 28.22C403.43 40.29 418.5 52.44 437.1 52.44C455.69 52.44 470.76 40.29 470.76 28.22ZM568.83 1.05L568.83 11.67L527.08 56.53L481.65 9.1L481.65 4.96L481.65 0.82L515.94 0.82L515.94 4.96L490.47 4.96L530.95 46.54L558.9 17.14L558.9 1.05L568.83 1.05ZM663 37.91L663 42.05L663 56.82L653.06 56.82L653.06 42.05L585.74 42.05L585.74 56.82L575.81 56.82L575.81 42.05L575.81 37.91L575.81 13.76C575.86 6.45 595.36 0.49 619.4 0.49C632.95 0.49 645.06 2.37 653.06 5.32C659.25 7.6 662.97 10.53 663 13.72C663 13.73 663 37.91 663 37.91ZM653.06 13.73C653.01 8.09 637.96 4.68 619.4 4.68C600.85 4.68 585.8 8.09 585.74 13.73C585.74 13.73 585.74 37.91 585.74 37.92L653.06 37.92L653.06 13.73ZM331.5 81.78C149.11 81.78 1.26 82.95 1.26 84.39C1.26 85.83 149.12 87 331.5 87C513.87 87 661.73 85.83 661.73 84.39C661.73 82.95 513.88 81.78 331.5 81.78Z" fill="#FFFFFF" fill-opacity="1.000000" fill-rule="nonzero"/>
</svg>
