<svg width="642.000000" height="155.000000" viewBox="0 0 642 155" fill="none" xmlns="http://www.w3.org/2000/svg" xmlns:xlink="http://www.w3.org/1999/xlink">
	<desc>
			Created with Pixso.
	</desc>
	<defs/>
	<path id="path" d="M550.98 0.1C551.33 0.66 551.18 1.27 551.18 1.88C551.18 9.12 551.18 16.35 551.18 23.59C551.18 27.1 551.18 30.62 551.18 34.14C551.18 34.7 551.18 35.21 551.18 35.72C551.78 36.12 552.34 35.97 552.89 35.97C557.04 35.97 561.18 35.97 565.27 35.97C565.82 35.97 566.33 35.97 566.94 36.02C567.14 36.99 567.04 37.86 566.94 38.82C565.12 39.03 563.4 38.88 561.63 38.93C559.91 38.93 558.25 38.93 556.53 38.93L551.43 38.93C550.92 39.33 551.08 39.74 551.08 40.15C551.08 42.34 551.08 44.58 551.08 46.77C551.08 50.8 551.08 54.83 551.08 58.85C551.08 61.35 551.58 63.74 552.59 65.98C553.35 67.62 554.31 69.04 555.67 70.21C557.39 71.74 559.36 72.56 561.63 72.56C567.19 72.56 572.49 71.44 577.69 69.65C582.14 68.12 586.38 66.14 590.52 63.95C595.37 61.35 600.12 58.65 604.97 56.05C609.16 53.76 613.45 51.56 617.85 49.73C622.75 47.69 627.75 46.06 633 45.19C635.62 44.79 638.25 44.53 640.88 44.48C641.18 44.48 641.48 44.48 641.84 44.53C642.09 45.45 641.99 46.32 641.89 47.28C641.63 47.33 641.38 47.44 641.18 47.44C632.64 47.54 624.71 49.88 616.99 53.35C612.19 55.49 607.64 57.98 603.05 60.53C598.55 62.98 594.06 65.48 589.51 67.82C585.02 70.11 580.37 72.05 575.52 73.48C569.61 75.21 563.6 75.87 557.49 75.41C551.13 74.9 545.07 73.27 539.46 70.01C536.43 68.23 533.7 66.09 531.48 63.28C529.41 60.69 527.94 57.83 527.44 54.52C527.29 53.55 527.24 52.53 527.24 51.51C527.24 45.4 527.24 39.23 527.24 33.12C527.24 32.56 527.34 32 527.03 31.38C526.63 31.33 526.13 31.23 525.62 31.18C518.4 30.93 511.43 32.15 504.91 35.36C502.84 36.38 500.92 37.65 499.15 39.08C498.5 39.59 498.25 40.15 498.25 41.02C498.25 44.89 498.25 48.76 498.25 52.63C498.25 57.37 498.25 62.06 498.25 66.8C498.25 67.16 498.25 67.51 498.25 67.87C498.3 70.42 499.96 72.2 502.44 72.51C502.79 72.51 503.09 72.56 503.4 72.61C503.65 73.88 503.65 74.09 503.4 75.41C503.15 75.41 502.84 75.51 502.59 75.51C495.77 75.51 488.95 75.51 482.13 75.51C481.12 75.51 480.16 75.36 479.2 75C476.88 74.19 475.37 72.51 474.71 70.11C474.51 69.3 474.36 68.43 474.36 67.56C474.36 61.6 474.36 55.59 474.36 49.63C474.36 47.84 474.71 46.06 474.91 44.23C474.96 43.72 475.16 43.31 475.67 43C477.54 41.93 478.55 40.3 478.85 38.16C479.96 37.96 481.28 37.4 482.44 37.14C485.16 36.53 487.79 35.61 490.22 34.14C492.54 32.76 494.46 30.98 495.77 28.58L498.04 28.17C498.04 28.53 498.2 28.84 498.2 29.19C498.2 30.82 498.2 32.4 498.2 34.03C498.2 34.54 498.2 35 498.2 35.46C498.75 35.77 499 35.36 499.31 35.16C502.99 32.61 507.08 30.88 511.38 29.7C515.82 28.53 520.37 28.02 524.96 28.12C525.62 28.12 526.23 28.28 526.93 28.02C526.93 27.82 527.09 27.56 527.09 27.31C527.24 24.51 527.09 12.17 526.93 10.95C525.32 10.65 523.6 11.1 521.98 10.8C521.63 9.73 521.63 9.22 521.98 7.94C522.34 7.94 522.74 7.89 523.15 7.89C525.67 7.89 528.25 7.89 530.77 7.54C535.82 6.93 540.67 5.75 545.07 3.1C546.53 2.24 547.94 1.32 549.01 0L550.98 0.1ZM316.62 30.31C312.53 33.27 307.99 35 303.09 36.02C300.01 36.68 296.87 36.99 293.74 36.94C293.24 36.94 292.68 36.84 292.18 37.04C291.93 38.42 291.93 38.72 292.23 39.84C293.9 40 295.56 39.84 297.18 39.84C297.53 40.51 297.43 41.12 297.43 41.73C297.43 51.36 297.43 61.04 297.43 70.67C297.43 70.98 297.43 71.28 297.43 71.59C297.43 71.9 297.33 72.15 297.23 72.51C296.32 72.51 295.51 72.51 294.65 72.51C293.84 72.51 292.99 72.41 292.03 72.61C292.03 73.53 291.82 74.44 292.13 75.31C292.73 75.51 293.34 75.46 293.95 75.46C304.2 75.46 314.45 75.46 324.7 75.46C325.06 75.46 325.41 75.46 325.76 75.46C326.07 75.46 326.32 75.36 326.67 75.31C326.72 74.34 326.88 73.48 326.57 72.56C324.96 72.56 323.49 72.15 322.38 70.88C321.22 69.55 321.17 68.02 321.47 66.34C322.99 66.14 324.4 66.34 325.82 66.7C329.45 67.67 332.28 69.7 333.85 73.27C335.82 77.76 335.11 83.57 331.42 87.44C330.06 88.86 328.49 89.99 326.72 90.85C324 92.18 321.12 92.89 318.14 93.25C313.34 93.81 308.59 93.35 303.9 92.23C299.5 91.16 295.36 89.53 291.32 87.54C283.39 83.72 276.07 78.88 268.54 74.34C268.89 74.24 268.79 73.63 269 73.58C270.51 73.07 272.03 72.66 273.54 72.1C277.43 70.67 281.07 68.74 284.3 66.04C286.77 64 288.84 61.65 290.26 58.8C292.33 54.57 292.48 50.19 290.66 45.81C289.85 43.82 288.69 42.09 287.28 40.51C284.8 37.75 281.87 35.61 278.64 33.88C278.19 33.63 277.68 33.37 277.18 33.07C277.03 32.25 276.92 31.44 276.72 30.67C276.52 29.86 276.72 28.94 276.22 28.12C275.66 28.12 275.06 28.12 274.45 28.12C268.19 28.12 261.92 28.12 255.61 28.12C253.34 28.12 251.01 28.12 248.74 28.33C244.7 28.63 240.76 29.35 236.87 30.57C232.28 32 227.93 33.98 224.09 36.94C221.52 38.93 219.3 41.17 217.73 44.02C215.76 47.54 215.15 51.26 216.01 55.23C216.52 57.58 217.58 59.67 218.99 61.6C220.66 63.84 222.68 65.68 224.9 67.31C225.31 67.62 225.81 67.77 225.96 68.38C225.61 68.69 225.26 69.04 224.85 69.35C219.04 74.7 218.08 83.16 222.58 89.58C224.75 92.69 227.68 94.72 231.27 95.9C236.01 97.43 240.76 98.95 245.51 100.43C255.91 103.74 266.27 107.06 276.62 110.42C277.78 110.78 279 111.29 280.06 111.85C286.32 115.26 289.6 122.7 286.67 130.04C284.3 136.15 280.51 141.15 275.21 144.97C266.92 150.93 257.68 153.12 247.63 151.44C239.8 150.17 233.14 146.65 227.63 140.89C224.6 137.73 222.33 134.12 220.76 130.04C220.61 129.68 220.56 129.33 220.46 128.92C220.86 129.17 221.47 129.38 221.87 129.63C227.28 132.74 232.63 132.74 237.78 129.27C244.75 124.54 245.66 114.9 239.45 108.94C234.55 104.2 226.82 103.64 221.27 107.62C217.53 110.32 215.56 113.94 215.56 118.62C215.56 121.12 215.81 123.52 216.37 125.96C218.69 135.9 224.25 143.54 232.73 148.94C240.81 154.09 249.75 155.87 259.2 154.6C266.47 153.63 273.04 150.83 278.64 146.04C286.98 138.96 291.57 129.99 291.77 118.93C291.93 111.85 290.01 105.32 286.22 99.36C281.42 91.87 274.7 86.78 266.37 83.92C258.39 81.22 250.41 78.62 242.38 76.02C239.55 75.11 236.67 74.19 233.84 73.27C233.09 73.02 232.38 72.66 231.67 72.25C231.22 72 230.96 71.59 230.91 71.03C230.81 69.86 231.62 68.43 232.73 68.02C234.25 67.46 235.76 67.11 237.38 66.9C240.81 66.44 244.15 66.9 247.43 67.72C251.32 68.74 254.95 70.32 258.49 72.15C262.73 74.34 266.82 76.84 270.91 79.34C275.01 81.83 279.1 84.33 283.24 86.72C287.43 89.12 291.77 91.26 296.32 92.99C300.26 94.47 304.3 95.54 308.44 96.1C312.58 96.66 316.67 96.56 320.76 95.79C323.64 95.29 326.47 94.37 329.05 92.89C331.22 91.62 333.19 90.09 334.65 88C336.83 85.04 337.74 81.68 337.68 77.96C337.53 71.28 333.49 65.88 327.18 64C325.66 63.54 324.05 63.34 322.48 63.23C322.08 63.23 321.57 63.34 321.17 62.88C321.17 62.57 321.12 62.21 321.12 61.91C321.12 53.14 321.12 44.43 321.12 35.67C321.12 35.26 321.17 34.9 321.22 34.49C321.72 34.29 322.18 34.03 322.63 33.88C327.53 32.05 332.63 31.18 337.84 31.13C340.46 31.13 342.68 32.15 344.5 34.03C347.18 36.84 348.44 40.3 348.49 44.18C348.59 52.07 348.49 59.97 348.49 67.82C348.49 68.33 348.49 68.84 348.29 69.3C347.68 71.13 346.32 72.15 344.45 72.46C344.05 72.51 343.54 72.35 343.09 72.81C343.19 73.63 342.89 74.49 343.34 75.46C343.95 75.46 344.55 75.46 345.11 75.46C355.31 75.46 365.51 75.46 375.72 75.46C376.07 75.46 376.42 75.46 376.78 75.46C377.08 75.46 377.33 75.36 377.64 75.31C377.74 74.34 377.84 73.48 377.59 72.56C375.82 72.35 374.15 72.66 372.38 72.35C372.38 71.74 372.33 71.18 372.33 70.62C372.33 64.56 372.33 58.44 372.33 52.38C372.33 51.31 372.33 50.29 372.13 49.22C371.68 46.21 370.46 43.56 368.7 41.12C366.12 37.6 362.79 35.05 359 33.02C353.19 29.91 346.88 28.48 340.36 28.12C334.25 27.82 328.24 28.68 322.43 30.72C322.08 30.88 321.67 30.93 321.27 31.03C320.82 30.06 321.27 29.04 320.87 28.12L319.05 28.12C318.14 28.84 317.53 29.65 316.62 30.31ZM251.57 65.88C248.39 64.76 245.16 64.1 241.77 63.84C241.52 63.34 241.27 62.88 241.12 62.42C240.16 59.92 239.6 57.32 239.55 54.62C239.55 52.68 239.5 50.7 239.55 48.76C239.7 45.09 240.66 41.63 242.53 38.47C243.59 36.68 244.9 35.1 246.52 33.83C251.57 29.91 257.63 30.52 262.03 34.7C264.75 37.3 266.42 40.51 267.33 44.12C267.78 45.96 268.04 47.84 268.04 49.78C268.04 51.46 268.04 53.09 268.04 54.77C267.88 59.16 266.67 63.18 264.15 66.75C263.29 67.97 262.28 69.09 260.91 70.06C257.83 68.53 254.75 67 251.57 65.88ZM139.09 65.27C142.42 68.23 146.21 70.37 150.35 72C155.96 74.19 161.82 75.31 167.83 75.51C174.29 75.77 180.66 75.16 186.87 73.37C191.62 72 196.11 69.96 200.1 66.95C202.58 65.07 204.8 62.88 206.37 60.18C209.5 54.77 209.55 49.32 206.47 43.87C205.36 41.93 203.94 40.25 202.28 38.77C199.7 36.38 196.72 34.54 193.54 33.02C186.97 29.96 180.05 28.58 172.88 28.28C170.46 28.17 168.03 28.28 165.56 28.48C160.86 28.84 156.31 29.75 151.87 31.28C147.93 32.66 144.24 34.49 140.91 37.04C138.33 39.03 136.11 41.27 134.55 44.12C132.47 47.84 131.82 51.77 132.98 55.9C133.49 57.78 134.34 59.56 135.45 61.19C135.71 61.6 136.11 61.91 136.16 62.52C135.86 62.67 135.56 62.83 135.2 62.98C133.74 63.64 132.27 64.3 130.81 64.91C125.86 67.05 120.86 69.04 115.71 70.57C110.2 72.2 104.6 73.27 98.84 73.48C97.17 73.53 95.55 73.22 94.04 72.56C92.98 72.05 91.87 71.54 90.86 70.88C87.62 68.74 85.25 65.78 83.38 62.42C80.76 57.63 79.44 52.43 79.24 46.98C79.14 44.02 79.19 41.07 79.19 38.11C79.19 35.26 79.54 32.4 80.2 29.6C81.31 25.07 83.13 20.84 86.21 17.32C88.89 14.21 92.17 12.02 96.21 11.15C98.63 10.65 101.06 10.65 103.48 10.8C106.41 11 109.34 11.36 112.22 11.92C118.89 13.19 125.15 15.49 130.91 19.1C131.26 19.31 131.57 19.56 131.92 19.82C131.92 20.33 131.92 20.84 131.92 21.35C131.92 23.23 131.92 25.17 131.92 27.05C131.92 27.41 132.02 27.72 132.07 28.07C133.03 28.17 133.89 28.17 134.9 28.07C134.9 27.56 135 27.1 135 26.7C135 25.27 135 23.89 135 22.47C135 18.7 135 14.93 135 11.15C135 10.59 135.1 10.03 134.75 9.52C133.84 9.37 132.93 9.27 131.97 9.68C131.97 11.92 131.41 13.75 129.19 14.62C128.84 14.47 128.49 14.31 128.18 14.16C120.86 10.49 113.08 8.45 105 7.84C99.8 7.43 94.54 7.59 89.34 8.3C83.89 9.07 78.63 10.49 73.53 12.58C67.17 15.28 61.46 19 56.82 24.15C54.04 27.21 51.82 30.67 50.55 34.65C49.44 38.16 49.14 41.73 49.69 45.35C50.3 49.37 51.92 52.94 54.24 56.2C55.6 58.14 57.17 59.87 58.89 61.5C59.14 61.76 59.49 61.96 59.54 62.52C58.89 62.26 58.33 62.01 57.77 61.81C53.03 59.67 48.28 57.63 43.48 55.79C34.19 52.28 24.69 49.93 14.74 49.47C10.3 49.27 5.9 49.53 1.46 49.93C0.95 49.93 0.45 49.98 0 50.39C0.2 51.21 0.1 52.07 0.55 52.89C1.16 52.89 1.76 52.84 2.32 52.79C4.04 52.63 5.8 52.43 7.52 52.33C12.87 52.07 18.18 52.38 23.43 53.25C29.34 54.21 35.1 55.79 40.7 57.83C46.51 59.97 52.17 62.47 57.77 64.97C62.37 67 66.97 69.09 71.66 70.83C77.88 73.17 84.24 74.95 90.81 75.82C95.86 76.48 100.86 76.38 105.86 75.62C110.91 74.85 115.81 73.58 120.61 71.9C125.81 70.06 130.91 67.87 135.96 65.63C136.67 65.32 137.42 65.02 138.23 64.66C138.54 64.91 138.89 65.12 139.09 65.27ZM175.2 49.98C171.97 50.29 168.79 50.85 165.66 51.67C162.48 52.48 159.34 53.35 156.11 54.26C156.06 54.01 155.96 53.81 155.96 53.55C155.96 51.31 155.86 49.02 156.16 46.77C156.72 42.95 158.03 39.49 160.41 36.48C162.12 34.34 164.24 32.66 166.87 31.79C170.66 30.52 174.24 31.18 177.53 33.42C179.5 34.75 181.01 36.53 182.22 38.57C183.99 41.53 184.9 44.79 185.2 48.25C185.2 48.46 185.2 48.66 185.2 48.86C181.87 49.07 178.44 49.63 175.2 49.98ZM167.48 54.11C173.79 52.74 182.02 52.02 185 52.38C185.05 52.53 185.2 52.68 185.2 52.89C185.36 58.14 184.09 62.93 180.91 67.16C179.65 68.79 178.13 70.16 176.26 71.13C172.48 73.12 168.74 73.12 164.95 71.13C163.23 70.27 161.82 68.99 160.61 67.51C158.23 64.61 156.87 61.3 156.26 57.53C157.78 56.66 163.39 54.98 167.48 54.11ZM440.31 35.05C439.41 34.49 438.55 33.93 437.64 33.42C431.63 30.11 425.11 28.63 418.34 28.28C414.05 28.07 409.81 28.48 405.62 29.45C400.57 30.62 395.82 32.51 391.63 35.56C388.65 37.7 386.07 40.3 384.3 43.56C382.18 47.44 381.58 51.51 382.59 55.79C383.19 58.49 384.45 60.89 386.12 63.03C388.29 65.78 390.92 67.97 393.9 69.76C399.71 73.22 406.07 74.95 412.74 75.46C416.68 75.72 420.57 75.62 424.51 74.95C430.16 73.99 435.47 72.15 440.31 68.94C440.62 68.74 440.92 68.63 441.27 68.43C440.87 70.37 439.46 72.3 437.49 72.56C437.08 72.61 436.63 72.66 436.17 72.71C436.07 73.68 435.97 74.55 436.22 75.51C436.73 75.51 437.18 75.56 437.64 75.56C444.1 75.56 450.57 75.56 457.03 75.56C457.54 75.56 458.04 75.56 458.55 75.51C462.29 75.11 464.61 72.76 465.11 69.55C465.21 68.79 465.32 68.07 465.32 67.31C465.32 62.01 465.32 56.66 465.32 51.36C465.32 49.17 465.11 46.93 464.76 44.79C464.66 43.97 464.41 43.41 463.65 43C462.08 42.09 461.22 40.66 460.87 38.88C460.82 38.57 460.77 38.31 460.67 37.96C459.96 37.86 459.36 37.75 458.7 37.6C455.47 37.04 452.44 36.07 449.61 34.39C447.18 32.96 445.16 31.13 443.85 28.63C443.19 28.63 442.18 28.12 441.53 28.43C441.32 30.77 441.58 33.07 441.38 35.51C440.97 35.31 440.57 35.16 440.31 35.05ZM440.06 65.32C436.63 67.97 432.74 69.76 428.6 70.98C424.76 72.1 420.82 72.61 416.83 72.66C414.81 72.66 413.14 71.95 411.73 70.57C410.26 69.2 409.25 67.56 408.39 65.78C407.03 62.83 406.22 59.72 406.07 56.51C405.92 53.5 405.92 50.49 406.07 47.49C406.22 44.23 407.03 41.07 408.44 38.06C409.15 36.48 410.06 35.05 411.27 33.83C412.89 32.1 414.81 31.18 417.23 31.28C423.5 31.54 429.46 32.71 435.11 35.51C437.08 36.48 438.95 37.65 440.67 39.08C441.17 39.49 441.38 40 441.38 40.61C441.38 48.3 441.38 56 441.38 63.69C441.38 63.9 441.38 64.1 441.32 64.41C440.97 64.71 440.52 64.97 440.06 65.32Z" fill="#FFFFFF" fill-opacity="1.000000" fill-rule="nonzero"/>
</svg>
