<svg width="514.000000" height="276.000000" viewBox="0 0 514 276" fill="none" xmlns="http://www.w3.org/2000/svg" xmlns:xlink="http://www.w3.org/1999/xlink">
	<desc>
			Created with Pixso.
	</desc>
	<defs/>
	<path id="path" d="M53.75 24.68C53.75 33.14 50.89 39.66 45.16 44.23C39.43 48.74 31.25 51.06 20.62 51.06L10.88 51.06L10.88 83.94L1.25 83.94L1.25 0.36L22.76 0.36C43.49 0.36 53.75 8.45 53.75 24.68ZM10.83 42.7L19.53 42.7C28.07 42.7 34.27 41.34 38.07 38.55C41.88 35.77 43.81 31.3 43.81 25.16C43.81 19.64 42.03 15.49 38.44 12.81C34.85 10.08 29.27 8.77 21.67 8.77L10.88 8.77L10.83 42.7ZM86.63 49.16L86.63 83.94L76.99 83.94L76.99 0.36L99.7 0.36C109.86 0.36 117.36 2.31 122.2 6.25C127.1 10.19 129.5 16.07 129.5 23.95C129.5 34.98 123.92 42.49 112.83 46.38L135.33 83.94L123.92 83.94L103.87 49.16L86.63 49.16ZM86.63 40.81L99.86 40.81C106.68 40.81 111.63 39.45 114.81 36.77C117.99 34.04 119.55 29.94 119.55 24.47C119.55 19.01 117.93 14.97 114.65 12.5C111.42 10.08 106.26 8.82 99.13 8.82L86.57 8.82L86.63 40.81ZM154.55 83.94L154.55 0.36L164.19 0.36L164.19 83.94L154.55 83.94ZM229.46 83.94L201.33 9.82C201.85 15.7 201.65 22.69 201.65 30.73L201.65 83.89L192.74 83.89L192.74 0.31L207.27 0.31L233.53 69.28L260.46 0.31L274.84 0.31L274.84 83.89L265.2 83.89L265.2 30.04C265.2 23.84 265.46 17.17 265.98 9.92L237.17 83.94L229.46 83.94ZM355.58 83.94L345.27 57.36L312.03 57.36L301.82 83.94L292.08 83.94L324.85 0L332.97 0L365.58 83.94L355.58 83.94ZM342.25 48.59L332.61 22.69C331.36 19.43 330.06 15.39 328.75 10.61C327.92 14.28 326.72 18.28 325.16 22.69L315.42 48.59L342.25 48.59ZM392.41 49.16L392.41 83.94L382.77 83.94L382.77 0.36L405.49 0.36C415.64 0.36 423.15 2.31 427.99 6.25C432.89 10.19 435.28 16.07 435.28 23.95C435.28 34.98 429.71 42.49 418.61 46.38L441.12 83.94L429.71 83.94L409.65 49.16L392.41 49.16ZM392.41 40.81L405.64 40.81C412.47 40.81 417.42 39.45 420.59 36.77C423.77 34.04 425.33 29.94 425.33 24.47C425.33 19.01 423.72 14.97 420.44 12.5C417.21 10.08 412.05 8.82 404.91 8.82L392.36 8.82L392.41 40.81ZM481.44 42.13L503.58 0.31L514 0.31L486.33 51.48L486.33 83.89L476.59 83.89L476.59 51.95L448.98 0.31L459.51 0.31L481.44 42.13Z" fill="#FFFFFF" fill-opacity="1.000000" fill-rule="nonzero"/>
	<path id="path" d="M25.31 136.32C25.31 141.94 23.85 146.24 20.88 149.13C17.97 152.02 13.64 153.44 7.97 153.44L0 153.44L0 119.82L9.01 119.82C14.32 119.82 18.38 121.24 21.14 124.02C23.91 126.81 25.31 130.9 25.31 136.32ZM22.76 136.42C22.76 131.59 21.56 127.96 19.11 125.55C16.72 123.13 13.12 121.87 8.43 121.87L2.29 121.87L2.29 151.39L7.81 151.39C17.76 151.39 22.76 146.4 22.76 136.42ZM81.52 153.49L79.18 153.49L59.43 123.6C59.64 127.17 59.49 129.85 59.49 131.64L59.49 153.44L57.25 153.44L57.25 119.82L59.59 119.82L79.33 149.66C79.18 146.87 79.28 144.3 79.28 141.78L79.28 119.82L81.52 119.82L81.52 153.49ZM99.7 153.49L97.36 153.49L97.36 122.08L86.52 122.08L86.52 119.87L110.54 119.87L110.54 122.08L99.7 122.08L99.7 153.49ZM131.58 141.62L118.04 141.62L113.4 153.49L110.8 153.49L124.24 119.72L125.7 119.72L138.82 153.49L136.22 153.49L131.58 141.62ZM118.87 139.52L130.8 139.52L126.27 127.38C125.9 126.44 125.43 125.13 124.91 123.44C124.5 124.92 124.03 126.23 123.56 127.44L118.87 139.52ZM143.56 153.49L143.56 119.87L145.91 119.87L145.91 151.29L161.8 151.29L161.8 153.49L143.56 153.49ZM193.94 121.5C189.77 121.5 186.44 122.87 184.04 125.55C181.64 128.23 180.45 131.96 180.45 136.63C180.45 141.31 181.59 145.14 183.83 147.82C186.12 150.5 189.35 151.81 193.57 151.81C196.39 151.81 198.94 151.44 201.28 150.71L201.28 152.76C199.09 153.55 196.33 153.91 193 153.91C188.31 153.91 184.61 152.39 181.96 149.34C179.25 146.3 177.89 142.04 177.89 136.53C177.89 133.11 178.52 130.06 179.82 127.49C181.12 124.86 182.95 122.87 185.34 121.45C187.74 120.03 190.55 119.29 193.78 119.29C197.01 119.29 199.93 119.93 202.53 121.13L201.59 123.23C199.15 122.03 196.59 121.5 193.94 121.5ZM208.73 153.49L208.73 119.87L211.08 119.87L211.08 151.29L226.96 151.29L226.96 153.49L208.73 153.49ZM232.75 153.49L232.75 119.87L235.09 119.87L235.09 153.49L232.75 153.49ZM268.79 153.49L266.45 153.49L246.71 123.6C246.86 127.17 246.81 129.85 246.81 131.64L246.81 153.44L244.57 153.44L244.57 119.82L246.92 119.82L266.66 149.66C266.5 146.87 266.61 144.3 266.61 141.78L266.61 119.82L268.85 119.82L268.79 153.49ZM278.28 153.49L278.28 119.87L280.62 119.87L280.62 153.49L278.28 153.49ZM304.27 121.5C300.1 121.5 296.77 122.87 294.37 125.55C291.98 128.23 290.78 131.96 290.78 136.63C290.78 141.31 291.92 145.14 294.16 147.82C296.46 150.5 299.69 151.81 303.91 151.81C306.72 151.81 309.27 151.44 311.61 150.71L311.61 152.76C309.43 153.55 306.67 153.91 303.33 153.91C298.64 153.91 294.95 152.39 292.29 149.34C289.58 146.3 288.22 142.04 288.22 136.53C288.22 133.11 288.85 130.06 290.15 127.49C291.45 124.86 293.28 122.87 295.67 121.45C298.07 120.03 300.88 119.29 304.11 119.29C307.34 119.29 310.26 119.93 312.87 121.13L311.93 123.23C309.48 122.03 306.93 121.5 304.27 121.5Z" fill="#FFFFFF" fill-opacity="1.000000" fill-rule="nonzero"/>
	<rect id="rect" x="31.620117" y="121.032593" width="19.482733" height="2.626569" fill="#FFFFFF" fill-opacity="1.000000"/>
	<rect id="rect" x="31.620117" y="136.739441" width="19.482733" height="2.626569" fill="#FFFFFF" fill-opacity="1.000000"/>
	<rect id="rect" x="31.620117" y="151.185547" width="19.482733" height="2.626569" fill="#FFFFFF" fill-opacity="1.000000"/>
	<ellipse id="circle" cx="131.325684" cy="226.620544" rx="48.967281" ry="49.379490" fill="#FFFFFF" fill-opacity="1.000000"/>
	<ellipse id="circle" cx="223.895020" cy="232.135925" rx="29.015715" ry="29.259977" fill="#FFFFFF" fill-opacity="1.000000"/>
</svg>
