<svg width="395" height="155" viewBox="0 0 395 155" fill="none" xmlns="http://www.w3.org/2000/svg">
<rect width="394.544" height="155" transform="translate(0.253906)" fill="black"/>
<path d="M171.7 108.733H170.042V114.97H171.7C173.813 114.97 174.912 113.851 174.912 111.841C174.912 109.831 173.813 108.712 171.7 108.712V108.733ZM171.7 107.407C174.849 107.407 176.362 109.272 176.362 111.841C176.362 114.411 174.829 116.275 171.7 116.275H168.592V107.386H171.7V107.407Z" fill="white"/>
<path d="M179.741 116.295V115.135L184.486 108.753H179.907V107.406H186.33V108.567L181.585 114.949H186.496V116.295H179.741Z" fill="white"/>
<path d="M192.005 116.295H190.555V107.406H192.005V116.295Z" fill="white"/>
<path d="M204.19 107.406V113.001C204.19 115.57 202.366 116.461 200.398 116.461C198.429 116.461 196.585 115.591 196.585 113.001V107.406H198.035V112.939C198.035 114.555 199.009 115.114 200.398 115.114C201.786 115.114 202.739 114.534 202.739 112.939V107.406H204.19Z" fill="white"/>
<path d="M212.666 112.318H210.262V115.012H212.458C213.453 115.012 214.51 114.887 214.51 113.665C214.51 112.442 213.474 112.297 212.666 112.297V112.318ZM212.417 108.671H210.262V111.095H212.624C213.453 111.095 214.158 110.743 214.158 109.893C214.158 109.044 213.494 108.671 212.438 108.671H212.417ZM212.562 107.407C214.406 107.407 215.608 108.153 215.608 109.645C215.608 110.722 214.966 111.365 214.22 111.593C215.028 111.82 215.981 112.421 215.981 113.81C215.981 115.82 214.012 116.275 212.603 116.275H208.812V107.386H212.562V107.407Z" fill="white"/>
<path d="M221.678 113.104H225.139L223.585 109.313C223.543 109.168 223.481 109.022 223.419 108.815C223.357 109.022 223.295 109.168 223.253 109.313L221.699 113.104H221.678ZM218.86 116.295L222.611 107.406H224.206L227.957 116.295H226.423L225.636 114.368H221.181L220.394 116.295H218.86Z" fill="white"/>
<path d="M129.45 133.37H128V124.481H129.45V133.37Z" fill="white"/>
<path d="M143.521 124.481V133.37H142.071V127.154L139.273 131.381H138.403L135.606 127.133V133.37H134.155V124.481H135.461L138.838 129.578L142.216 124.481H143.521Z" fill="white"/>
<path d="M151.476 125.807H149.673V128.998H151.476C152.698 128.998 153.714 128.687 153.714 127.403C153.714 126.118 152.698 125.807 151.476 125.807ZM151.393 124.481C153.506 124.481 155.185 125.144 155.185 127.403C155.185 129.661 153.506 130.324 151.393 130.324H149.673V133.37H148.223V124.481H151.393Z" fill="white"/>
<path d="M160.637 124.481V132.023H165.299V133.37H159.187V124.481H160.637Z" fill="white"/>
<path d="M170.912 130.199H174.372L172.818 126.407C172.777 126.262 172.715 126.138 172.652 125.91C172.59 126.117 172.528 126.262 172.487 126.407L170.933 130.199H170.912ZM168.094 133.39L171.844 124.501H173.44L177.19 133.39H175.657L174.869 131.484H170.414L169.627 133.39H168.094Z" fill="white"/>
<path d="M180.879 133.37V124.481H182.246L187.033 130.987C187.033 130.676 187.033 130.345 187.033 130.013V124.481H188.483V133.37H187.116L182.329 126.864C182.329 127.175 182.329 127.506 182.329 127.838V133.37H180.879Z" fill="white"/>
<path d="M199.59 124.481V125.828H196.648V133.37H195.218V125.828H192.255V124.481H199.59Z" fill="white"/>
<path d="M211.195 124.313C212.211 124.313 213.247 124.562 213.972 124.976V126.365C213.247 125.888 212.252 125.619 211.299 125.619C210.221 125.619 209.538 125.929 209.538 126.696C209.538 128.623 214.614 127.836 214.614 131.006C214.614 132.871 213.019 133.513 211.257 133.513C210.056 133.513 208.978 133.244 208.108 132.747V131.317C209.082 131.938 210.139 132.187 211.154 132.187C212.293 132.187 213.143 131.918 213.143 131.089C213.143 129.038 208.066 129.866 208.066 126.717C208.066 125.08 209.517 124.292 211.195 124.292V124.313Z" fill="white"/>
<path d="M224.952 124.481V125.828H222.01V133.37H220.58V125.828H217.617V124.481H224.952Z" fill="white"/>
<path d="M236.246 124.481V130.076C236.246 132.645 234.423 133.536 232.454 133.536C230.486 133.536 228.642 132.666 228.642 130.076V124.481H230.092V130.013C230.092 131.63 231.066 132.189 232.454 132.189C233.843 132.189 234.796 131.609 234.796 130.013V124.481H236.246Z" fill="white"/>
<path d="M243.956 125.805H242.298V132.042H243.956C246.069 132.042 247.168 130.923 247.168 128.913C247.168 126.904 246.069 125.785 243.956 125.785V125.805ZM243.956 124.479C247.105 124.479 248.618 126.344 248.618 128.913C248.618 131.483 247.085 133.348 243.956 133.348H240.848V124.458H243.956V124.479Z" fill="white"/>
<path d="M254.253 133.37H252.823V124.481H254.253V133.37Z" fill="white"/>
<path d="M263.058 125.683C260.903 125.683 259.867 127.237 259.867 128.936C259.867 130.635 260.923 132.189 263.058 132.189C265.192 132.189 266.249 130.635 266.249 128.936C266.249 127.237 265.213 125.683 263.058 125.683ZM263.058 124.315C266.187 124.315 267.72 126.574 267.72 128.915C267.72 131.256 266.166 133.515 263.058 133.515C259.95 133.515 258.396 131.256 258.396 128.915C258.396 126.574 259.929 124.315 263.058 124.315Z" fill="white"/>
<path d="M198.865 22.5541C182.93 22.5541 169.98 35.5046 169.98 51.4389C169.98 67.3733 182.93 80.3238 198.865 80.3238C214.799 80.3238 227.75 67.3733 227.75 51.4389C227.75 35.5046 214.799 22.5541 198.865 22.5541ZM198.865 81.8779C182.081 81.8779 168.426 68.2228 168.426 51.4389C168.426 34.655 182.081 21 198.865 21C215.649 21 229.304 34.655 229.304 51.4389C229.304 68.2228 215.649 81.8779 198.865 81.8779Z" fill="white"/>
<path d="M185.478 43.0046L204.728 52.3704L190.969 38.0108L185.499 43.0046H185.478ZM208.271 55.7479C208.147 55.7479 208.043 55.7272 207.94 55.665L183.779 43.8956C183.551 43.792 183.385 43.564 183.344 43.3154C183.303 43.0667 183.406 42.7974 183.593 42.6316L190.472 36.3532C190.783 36.0631 191.259 36.0838 191.549 36.3946L208.769 54.3596C208.955 54.5046 209.059 54.7118 209.059 54.9605C209.059 55.3956 208.706 55.7272 208.292 55.7272L208.271 55.7479Z" fill="white"/>
<path d="M206.759 38.011L193 52.3706L212.25 43.0048L206.78 38.011H206.759ZM189.436 55.7481C189.188 55.7481 188.96 55.6445 188.815 55.4373C188.587 55.1265 188.628 54.712 188.877 54.4427L206.179 36.3948C206.469 36.084 206.946 36.084 207.256 36.3534L214.136 42.6318C214.322 42.7976 214.426 43.0669 214.384 43.3156C214.343 43.5642 214.177 43.7922 213.949 43.8958L189.789 55.6652C189.685 55.7274 189.561 55.7481 189.457 55.7481H189.436Z" fill="white"/>
<path d="M204.356 39.7932C204.19 39.7932 204.045 39.7517 203.9 39.6481L198.844 36.0013L193.788 39.6481C193.436 39.8968 192.96 39.8139 192.711 39.4824C192.462 39.1301 192.545 38.6535 192.877 38.4049L198.368 34.4265C198.637 34.24 199.01 34.24 199.279 34.4265L204.771 38.4049C205.123 38.6535 205.185 39.1301 204.936 39.4824C204.791 39.6896 204.543 39.7932 204.315 39.7932H204.356Z" fill="white"/>
<path d="M205.766 68.6166C205.455 68.6166 205.165 68.4301 205.041 68.1193L198.12 50.6309C197.954 50.2372 198.161 49.7814 198.555 49.6156C198.949 49.4498 199.405 49.657 199.55 50.0507L205.497 65.0734L207.486 54.8165C207.569 54.4021 207.983 54.112 208.398 54.1949C208.812 54.2778 209.102 54.6922 209.019 55.1066L206.512 67.9743C206.45 68.3058 206.16 68.5752 205.828 68.5959C205.807 68.5959 205.787 68.5959 205.766 68.5959V68.6166Z" fill="white"/>
<path d="M191.946 68.6159C191.946 68.6159 191.904 68.6159 191.884 68.6159C191.531 68.5745 191.262 68.3258 191.2 67.9943L188.693 55.1266C188.61 54.7122 188.879 54.2978 189.314 54.2149C189.729 54.132 190.143 54.4014 190.226 54.8366L192.215 65.0934L198.162 50.0708C198.328 49.6771 198.763 49.4699 199.157 49.6356C199.55 49.8014 199.758 50.2365 199.592 50.6509L192.671 68.1393C192.547 68.4294 192.257 68.6366 191.946 68.6366V68.6159Z" fill="white"/>
<path d="M208.272 55.7498C208.169 55.7498 208.065 55.7291 207.961 55.6877C207.568 55.5012 207.402 55.0453 207.568 54.6723L212.893 42.9029C213.08 42.5092 213.535 42.3434 213.908 42.5092C214.281 42.675 214.468 43.1515 214.302 43.5245L208.977 55.294C208.852 55.5841 208.562 55.7498 208.272 55.7498Z" fill="white"/>
<path d="M189.438 55.7485C189.147 55.7485 188.857 55.5827 188.733 55.2926L183.408 43.5231C183.221 43.1294 183.408 42.6736 183.801 42.5078C184.195 42.3213 184.651 42.5078 184.817 42.9015L190.142 54.671C190.328 55.0647 190.142 55.5205 189.748 55.6863C189.645 55.7277 189.541 55.7485 189.438 55.7485Z" fill="white"/>
</svg>
