<svg width="396" height="156" viewBox="0 0 396 156" fill="none" xmlns="http://www.w3.org/2000/svg">
<g clip-path="url(#clip0_960_6313)">
<rect width="395.551" height="155" transform="translate(0 0.810547)" fill="black"/>
<path d="M88.4114 91.697C86.5608 88.127 85.1242 83.5128 83.7362 79.0442C82.4457 74.8671 81.1064 70.5442 79.5237 67.5328C78.8175 66.1971 77.4783 63.9385 76.1634 63.9385C74.8485 63.9385 73.4849 66.1971 72.8031 67.5328C71.2447 70.5442 69.9054 74.8671 68.5905 79.0442C67.2026 83.5128 65.7659 88.127 63.9153 91.697C62.9657 93.5185 60.0924 99.0799 54.2971 99.0799C48.5018 99.0799 45.6285 93.5185 44.6788 91.697C42.8282 88.127 41.3916 83.5128 40.0036 79.0442C38.7131 74.8671 37.3738 70.5442 35.7911 67.5328C35.0849 66.1971 33.7457 63.9385 32.4308 63.9385C31.1159 63.9385 29.7523 66.1971 29.0705 67.5328C27.5121 70.5442 26.1728 74.8671 24.8579 79.0442C23.47 83.5128 22.0333 88.127 20.1827 91.697C19.2331 93.5185 16.3598 99.0799 10.5645 99.0799V102.504C10.5645 113.068 19.1357 121.617 29.7279 121.617H78.8906C89.4828 121.617 98.054 113.068 98.054 102.504V99.0799C92.2587 99.0799 89.3854 93.5185 88.4358 91.697H88.4114Z" fill="white"/>
<path d="M78.8906 34.3828H29.7279C19.1357 34.3828 10.5645 42.9314 10.5645 53.4957V92.0614C11.8794 92.0614 13.243 89.8028 13.9248 88.4671C15.4832 85.4557 16.8224 81.1328 18.1373 76.9557C19.5253 72.4871 20.9619 67.8728 22.8125 64.3028C23.7622 62.4814 26.6355 56.92 32.4308 56.92C38.2261 56.92 41.0994 62.4814 42.049 64.3028C43.8996 67.8728 45.3363 72.4871 46.7242 76.9557C48.0148 81.1328 49.354 85.4557 50.9368 88.4671C51.6429 89.8028 52.9821 92.0614 54.297 92.0614C55.6119 92.0614 56.9756 89.8028 57.6574 88.4671C59.2158 85.4557 60.555 81.1328 61.8699 76.9557C63.2579 72.4871 64.6945 67.8728 66.5451 64.3028C67.4948 62.4814 70.368 56.92 76.1633 56.92C81.9586 56.92 84.8319 62.4814 85.7816 64.3028C87.6322 67.8728 89.0689 72.4871 90.4568 76.9557C91.7474 81.1328 93.0866 85.4557 94.6694 88.4671C95.3755 89.8028 96.7148 92.0614 98.0297 92.0614V53.4957C98.0297 42.9314 89.4584 34.3828 78.8662 34.3828H78.8906Z" fill="white"/>
<path d="M149.383 97.2585H145.634V91.2114H125.204V97.2585H121.43V87.4471H141.616V65.1042H139.911C138.085 65.1042 136.648 65.25 135.601 65.5171C132.412 66.3428 130.415 68.5285 129.587 72.0257C129.343 73.0457 129.222 74.26 129.222 75.6685V85.8928H125.204V75.6685C125.204 73.6042 125.326 72.0014 125.569 70.8357C126.007 68.8685 126.86 67.1442 128.126 65.6385C129.611 63.8657 131.608 62.6514 134.116 61.9714C135.699 61.5342 137.866 61.3157 140.617 61.3157H145.634V87.4228H149.383V97.2342V97.2585Z" fill="white"/>
<path d="M172.272 80.9628C172.272 83.95 171.249 86.4757 169.179 88.54C167.11 90.6042 164.577 91.6243 161.582 91.6243C158.587 91.6243 156.079 90.58 154.009 88.5157C151.94 86.4514 150.893 83.9257 150.893 80.9628C150.893 78 151.94 75.4985 154.009 73.41C156.079 71.3214 158.612 70.3014 161.582 70.3014C164.553 70.3014 167.085 71.3457 169.155 73.41C171.225 75.4743 172.272 78 172.272 80.9628ZM168.425 80.9628C168.425 78.9228 167.791 77.2471 166.55 75.9114C165.308 74.5757 163.652 73.92 161.582 73.92C159.512 73.92 157.881 74.5757 156.639 75.9114C155.397 77.2471 154.764 78.9228 154.764 80.9871C154.764 83.0514 155.373 84.7757 156.59 86.0628C157.832 87.3985 159.488 88.0542 161.582 88.0542C163.676 88.0542 165.332 87.3985 166.598 86.0628C167.816 84.7757 168.425 83.0757 168.425 80.9871V80.9628Z" fill="white"/>
<path d="M192.337 91.1871H188.588V81.8371H178.848V91.1871H175.098V70.7385H178.848V78.2671H188.588V70.7385H192.337V91.1871Z" fill="white"/>
<path d="M221.337 91.1871H217.319L214.665 75.2557L214.421 76.0328L214.251 76.7128L210.574 88.0785C210.209 89.2442 209.917 89.9971 209.698 90.3614C209.211 91.1871 208.577 91.6 207.774 91.6C207.141 91.6 206.629 91.3571 206.24 90.8957C205.753 90.2885 205.315 89.3414 204.901 88.0542L201.102 75.9114C201.053 75.7414 200.98 75.4985 200.883 75.2314L200.834 75.11L200.761 75.45L198.229 91.1871H194.211L197.644 73.41C198.058 71.3214 198.984 70.2771 200.469 70.2771C201.37 70.2771 202.052 70.5685 202.539 71.1271C202.88 71.5157 203.172 72.1471 203.44 73.0214L207.774 87.2042L207.969 86.7671L208.918 83.1485L212.157 73.0214C212.473 72.0742 212.79 71.4185 213.131 71.03C213.594 70.52 214.251 70.2771 215.103 70.2771C215.955 70.2771 216.637 70.6414 217.197 71.3942C217.514 71.8314 217.757 72.4871 217.928 73.3857L221.361 91.1628L221.337 91.1871Z" fill="white"/>
<path d="M243.983 80.9628C243.983 83.95 242.96 86.4757 240.89 88.54C238.821 90.6042 236.288 91.6243 233.293 91.6243C230.298 91.6243 227.79 90.58 225.72 88.5157C223.651 86.4514 222.604 83.9257 222.604 80.9628C222.604 78 223.651 75.4985 225.72 73.41C227.79 71.3457 230.322 70.3014 233.293 70.3014C236.264 70.3014 238.796 71.3457 240.866 73.41C242.936 75.4743 243.983 78 243.983 80.9628ZM240.136 80.9628C240.136 78.9228 239.502 77.2471 238.261 75.9114C237.019 74.5757 235.363 73.92 233.293 73.92C231.223 73.92 229.592 74.5757 228.35 75.9114C227.108 77.2471 226.475 78.9228 226.475 80.9871C226.475 83.0514 227.084 84.7757 228.301 86.0628C229.543 87.3985 231.199 88.0542 233.293 88.0542C235.387 88.0542 237.043 87.3985 238.309 86.0628C239.527 84.7757 240.136 83.0757 240.136 80.9871V80.9628Z" fill="white"/>
<path d="M263.342 91.1871H259.592V74.3085H259.007C257.717 74.3085 256.84 74.3571 256.304 74.4785C253.626 75.0614 251.946 76.6642 251.264 79.2628C251.045 80.1128 250.923 81.3271 250.923 82.8814V91.1871H244.689V87.6171H247.319V82.8814C247.319 80.7928 247.514 79.1171 247.879 77.8542C248.512 75.7657 249.73 74.09 251.556 72.8514C253.115 71.8071 255.33 71.1271 258.228 70.86C259.105 70.7871 260.006 70.7385 260.955 70.7385H263.342V91.1871Z" fill="white"/>
<path d="M287.497 80.9628C287.497 83.95 286.474 86.4757 284.404 88.54C282.334 90.6042 279.802 91.6243 276.807 91.6243C273.812 91.6243 271.304 90.58 269.234 88.5157C267.164 86.4514 266.117 83.9257 266.117 80.9628C266.117 78 267.164 75.4985 269.234 73.41C271.304 71.3457 273.836 70.3014 276.807 70.3014C279.778 70.3014 282.31 71.3457 284.38 73.41C286.449 75.4743 287.497 78 287.497 80.9628ZM283.649 80.9628C283.649 78.9228 283.016 77.2471 281.774 75.9114C280.532 74.5757 278.877 73.92 276.807 73.92C274.737 73.92 273.106 74.5757 271.864 75.9114C270.622 77.2471 269.989 78.9228 269.989 80.9871C269.989 83.0514 270.598 84.7757 271.815 86.0628C273.057 87.3985 274.713 88.0542 276.807 88.0542C278.901 88.0542 280.557 87.3985 281.823 86.0628C283.04 84.7757 283.649 83.0757 283.649 80.9871V80.9628Z" fill="white"/>
<path d="M311.383 89.1957C311.383 91.1142 311.213 92.6928 310.872 93.9557C310.434 95.5342 309.606 96.9428 308.34 98.1328C307.585 98.8857 306.635 99.5171 305.515 100.003C304.2 100.61 302.593 100.901 300.694 100.901C298.673 100.901 296.408 100.513 293.9 99.7114L294.801 96.2871L297.918 97.0157C298.04 97.04 298.502 97.1128 299.306 97.2342C299.72 97.2828 300.109 97.3071 300.499 97.3071C305.247 97.3071 307.634 94.9028 307.634 90.0699V83.0271C307.634 81.0599 307.487 79.6028 307.171 78.6314C306.562 76.6885 305.393 75.3042 303.713 74.4785C302.861 74.0657 301.863 73.8471 300.767 73.8471C298.673 73.8471 296.944 74.5271 295.629 75.8871C294.29 77.2471 293.632 78.9714 293.632 81.0842C293.632 83.0757 294.217 84.7271 295.386 85.9899C296.603 87.3014 298.186 87.9571 300.158 87.9571C302.447 87.9571 304.419 87.2042 306.1 85.6742V89.5842C304.371 90.8957 302.496 91.5514 300.475 91.5514C297.723 91.5514 295.337 90.7499 293.291 89.1471C290.929 87.2771 289.736 84.5814 289.736 81.0842C289.736 77.9999 290.783 75.4014 292.902 73.3371C295.02 71.2728 297.626 70.2285 300.743 70.2285C304.541 70.2285 307.366 71.6128 309.241 74.4057C310.677 76.5671 311.383 79.4085 311.383 82.9785V89.1228V89.1957Z" fill="white"/>
<path d="M335.49 82.1286C335.49 84.0229 334.784 85.8929 333.371 87.7143C332.544 88.7586 331.545 89.6329 330.328 90.2643C329.5 90.7257 328.623 91.0657 327.722 91.2843C326.821 91.5029 325.847 91.6243 324.8 91.6243C323.144 91.6243 321.562 91.26 320.028 90.5314C318.177 89.6329 316.74 88.3457 315.718 86.6457C314.695 84.9457 314.184 83.0514 314.184 80.9871C314.184 77.9514 315.206 75.4257 317.227 73.3857C319.248 71.3457 321.781 70.3257 324.825 70.3257C327.016 70.3257 328.94 70.86 330.644 71.9043C332.349 72.9486 333.712 74.6 334.735 76.81L320.904 84.46L319.37 81.4729L329.5 75.8386C328.794 75.0857 328.063 74.5757 327.235 74.3086C326.383 74.0414 325.555 73.8957 324.751 73.8957C322.73 73.8957 321.099 74.5514 319.881 75.8872C318.664 77.2229 318.055 78.8986 318.055 80.9386C318.055 83.7071 319.078 85.7229 321.123 87.0343C322.146 87.69 323.364 88.0057 324.751 88.0057C325.872 88.0057 326.773 87.8843 327.454 87.6657C327.771 87.5686 328.16 87.3743 328.647 87.1071C330.717 85.9657 331.74 84.12 331.74 81.6186L335.539 82.1043L335.49 82.1286ZM322.877 65.1771C322.877 65.9786 322.536 66.61 321.829 67.0714C321.489 67.3143 321.075 67.4357 320.588 67.4357C319.955 67.4357 319.419 67.2171 318.981 66.78C318.542 66.3429 318.323 65.8086 318.323 65.1771C318.323 64.5457 318.542 64.0114 318.981 63.5743C319.419 63.1371 319.955 62.9186 320.588 62.9186C321.221 62.9186 321.756 63.1371 322.195 63.5743C322.633 64.0114 322.852 64.5457 322.852 65.1771H322.877ZM331.399 65.1771C331.399 65.8086 331.18 66.3429 330.742 66.78C330.303 67.2171 329.768 67.4357 329.134 67.4357C328.501 67.4357 327.966 67.2171 327.527 66.78C327.089 66.3429 326.87 65.8086 326.87 65.1771C326.87 64.5457 327.089 64.0114 327.527 63.5743C327.966 63.1371 328.501 62.9186 329.134 62.9186C329.768 62.9186 330.303 63.1371 330.742 63.5743C331.18 64.0114 331.399 64.5457 331.399 65.1771Z" fill="white"/>
<path d="M364.199 70.7385L360.011 78.4128C359.573 78.9714 358.964 79.5542 358.209 80.1128C360.011 80.2828 361.423 81.0114 362.446 82.3228C363.25 83.3185 363.639 84.9942 363.639 87.3499V91.1871H359.889V88.0542C359.889 86.1599 359.719 84.8728 359.354 84.2171C358.696 83.0271 357.26 82.4199 355.068 82.4199H352.925V91.1628H349.175V82.4199H347.057C344.865 82.4199 343.429 83.0028 342.771 84.1685C342.406 84.8485 342.211 86.1357 342.211 88.0299V91.1628H338.461V87.2528C338.461 86.0142 338.534 84.9942 338.705 84.1685C338.973 82.8328 339.898 81.7157 341.432 80.8414C342.163 80.4285 342.966 80.1857 343.867 80.0885C343.234 79.6514 342.65 79.0928 342.114 78.4128L340.434 75.4499L337.877 70.6899H341.895L343.94 74.6485C345.401 77.4414 346.838 78.8257 348.299 78.8257H349.151V70.6899H352.901V78.8257H353.753C354.411 78.8257 355.092 78.5342 355.774 77.9271C356.553 77.2471 357.333 76.1542 358.112 74.6485L360.157 70.6899H364.175L364.199 70.7385Z" fill="white"/>
<path d="M384.434 83.4642C384.434 84.9457 384.069 86.3299 383.314 87.6171C382.559 88.9042 381.561 89.8999 380.246 90.6285C379.053 91.2842 377.543 91.5999 375.644 91.5999C374.377 91.5999 373.233 91.43 372.235 91.0657C370.067 90.2885 368.582 88.8314 367.779 86.6699C367.34 85.5042 367.121 83.9257 367.121 81.9342V70.7142H370.871V82.6871C370.871 83.8771 370.968 84.7271 371.163 85.2371C371.504 86.1114 372.137 86.8157 373.063 87.3257C373.866 87.7871 374.816 87.9814 375.887 87.9571H377.08C378.2 87.7871 379.101 87.2771 379.783 86.4757C380.343 85.7957 380.635 84.9942 380.635 84.0471C380.635 83.1 380.465 82.3957 380.124 81.7885C379.783 81.1814 379.247 80.6714 378.493 80.2585C377.762 79.8942 376.983 79.6999 376.131 79.6999C375.619 79.6999 375.254 79.7 375.035 79.7485C374.036 79.87 373.16 80.3557 372.429 81.1571V77.2228C373.647 76.4942 375.01 76.1299 376.52 76.1299C377.567 76.1299 378.614 76.3242 379.686 76.7371C380.757 77.1499 381.561 77.6114 382.145 78.1699C382.778 78.8014 383.314 79.6028 383.752 80.5742C384.19 81.57 384.41 82.5171 384.41 83.44L384.434 83.4642Z" fill="white"/>
</g>
<defs>
<clipPath id="clip0_960_6313">
<rect width="395.551" height="155" fill="white" transform="translate(0 0.810547)"/>
</clipPath>
</defs>
</svg>
