<svg width="420.000000" height="245.000000" viewBox="0 0 420 245" fill="none" xmlns="http://www.w3.org/2000/svg" xmlns:xlink="http://www.w3.org/1999/xlink">
	<desc>
			Created with Pixso.
	</desc>
	<defs/>
	<path id="path" d="M49.52 105.56L56.02 1.09L87.51 1.09L87.51 105.56L69.33 105.56C69.46 83.08 69.7 53.73 69.93 47.9L68.47 47.9L63.94 105.56L49.52 105.56ZM110.21 105.56L110.21 29.98C110.21 23.04 113.51 19.01 119.36 19.01C125.22 19.01 128.52 23.04 128.52 30.35L128.52 105.56L148.65 105.56L148.65 32.18C148.65 12.07 138.03 0 119.36 0C100.68 0 90.06 11.7 90.06 31.81L90.06 105.56L110.21 105.56ZM17.91 105.56C17.83 62.83 17.52 55.36 17.21 47.9L18.67 47.9L23.2 105.56L38.35 105.56L31.85 1.09L0 1.09L0 105.56L17.91 105.56ZM0 139.44L0 243.9L17.94 243.9L17.94 139.44L0 139.44ZM361.4 105.56L381.54 105.56L381.54 29.98C381.54 23.04 384.83 19.01 390.69 19.01C396.55 19.01 399.84 23.04 399.84 30.35L399.84 105.56L419.98 105.56L419.98 32.18C419.98 12.07 409.36 0 390.69 0C372.01 0 361.39 11.7 361.39 31.81L361.4 105.56ZM346.63 105.56L345.29 95.07L364.7 1.09L344.19 1.09L325.15 95.8L323.69 95.8L323.69 1.09L303.18 1.09L303.18 105.56L346.63 105.56ZM261.8 105.56L261.8 29.98C261.8 23.04 265.1 19.01 270.95 19.01C276.81 19.01 280.1 23.04 280.1 30.35L280.1 105.56L300.24 105.56L300.24 32.18C300.24 12.07 289.62 0 270.95 0C252.27 0 241.65 11.7 241.65 31.81L241.65 105.56L261.8 105.56ZM215.54 105.56L220.06 47.9L221.52 47.9C221.29 53.73 221.06 83.08 220.92 105.56L239.1 105.56L239.1 1.09L207.61 1.09L201.11 105.56L215.54 105.56ZM169.51 105.56C169.42 62.83 169.11 55.36 168.8 47.9L170.27 47.9L174.79 105.56L189.94 105.56L183.45 1.09L151.59 1.09L151.59 105.56L169.51 105.56ZM151.59 139.44L151.59 243.9L169.53 243.9L169.53 139.44L151.59 139.44ZM303.18 139.44L303.18 243.9L323.68 243.9L323.68 167.48L329.9 139.69L330.64 139.69L343.82 243.9L364.32 243.9L350.96 139.44L303.18 139.44ZM280.11 139.44L280.11 215.38C280.11 222.69 276.81 226.35 270.96 226.35C264.73 226.35 261.8 222.69 261.8 215.38L261.8 139.44L241.67 139.44L241.67 213.92C241.67 234.03 251.92 245 271.33 245C290 245 300.26 235.12 300.26 214.28L300.26 139.44L280.11 139.44ZM220.79 139.44L220.79 243.9L239.1 243.9L239.1 139.44L220.79 139.44ZM399.85 139.44L399.85 215.38C399.85 222.69 396.55 226.35 390.7 226.35C384.47 226.35 381.54 222.69 381.54 215.38L381.54 139.44L361.41 139.44L361.41 213.92C361.41 234.03 371.66 245 391.07 245C409.74 245 420 235.12 420 214.28L420 139.44L399.85 139.44ZM69.2 139.44L69.2 243.9L87.51 243.9L87.51 139.44L69.2 139.44ZM47.41 139.44L44.66 183.57L43.2 183.57L40.45 139.44L25.85 139.44L34.04 243.9L53.09 243.9L61.28 139.44L47.41 139.44ZM128.52 139.44L128.52 215.38C128.52 222.69 125.22 226.35 119.36 226.35C113.14 226.35 110.21 222.69 110.21 215.38L110.21 139.44L90.07 139.44L90.07 213.92C90.07 234.03 100.33 245 119.73 245C138.41 245 148.66 235.12 148.66 214.28L148.66 139.44L128.52 139.44ZM199.01 139.44L196.26 183.57L194.79 183.57L192.05 139.44L177.44 139.44L185.64 243.9L204.68 243.9L212.88 139.44L199.01 139.44ZM43.59 118.81L42.21 118.81L42.21 117.35C42.21 116.86 42.45 116.66 42.91 116.66L43.56 116.66L43.56 114.63L42.91 114.63C40.93 114.63 39.95 115.56 39.95 117.35L39.95 118.81L39 118.81L39 120.84L39.95 120.84L39.95 130.25L42.21 130.25L42.21 120.84L43.58 120.84L43.59 118.81ZM96.9 130.25L96.9 114.64L94.65 114.64L94.65 130.25L96.9 130.25ZM153.63 121.44C153.63 119.58 152.75 118.72 150.91 118.72C149.05 118.72 148.19 119.58 148.19 121.44L148.19 127.64C148.19 129.5 149.05 130.36 150.91 130.36C152.75 130.36 153.63 129.5 153.63 127.64L153.63 121.44ZM151.42 127.64C151.42 128.11 151.23 128.34 150.91 128.34C150.58 128.34 150.37 128.11 150.37 127.64L150.37 121.44C150.37 120.97 150.58 120.75 150.91 120.75C151.23 120.75 151.42 120.98 151.42 121.44L151.42 127.64ZM208.06 130.25L208.64 122.42L208.73 122.42L209.29 130.25L212.06 130.25L213.01 118.82L210.94 118.82L210.54 126.42L210.45 126.42L209.83 118.82L207.52 118.82L206.94 126.42L206.85 126.42L206.45 118.82L204.34 118.82L205.29 130.25L208.06 130.25ZM269.21 126.39L266.98 126.39L266.98 127.69C266.98 128.16 266.79 128.39 266.44 128.39C266.12 128.39 265.93 128.15 265.93 127.69L265.93 125.18L269.21 125.18L269.21 121.44C269.21 119.61 268.31 118.72 266.47 118.72C264.61 118.72 263.75 119.61 263.75 121.44L263.75 127.64C263.75 129.48 264.61 130.36 266.44 130.36C268.31 130.36 269.21 129.46 269.21 127.64L269.21 126.39ZM266.98 123.58L265.93 123.58L265.93 121.4C265.93 120.91 266.12 120.7 266.46 120.7C266.81 120.7 266.98 120.91 266.98 121.4L266.98 123.58ZM322.73 130.25L322.73 122.16C322.73 121.23 323.07 120.75 324.06 120.75C324.31 120.75 324.47 120.77 324.66 120.84L324.66 118.81C324.5 118.74 324.34 118.72 324.15 118.72C323.41 118.72 322.98 119.17 322.73 119.82L322.64 119.82L322.59 118.82L320.47 118.82L320.47 130.25L322.73 130.25ZM380.88 122.28L380.88 121.16C380.88 119.63 379.93 118.72 378.18 118.72C376.53 118.72 375.58 119.52 375.58 120.79L375.58 122.33C375.58 123 375.7 123.61 376.19 124.14C376.6 124.61 377.53 125.16 378.05 125.53C378.63 125.95 378.72 126.18 378.72 126.55L378.72 128.09C378.72 128.37 378.56 128.53 378.18 128.53C377.81 128.53 377.6 128.37 377.6 128.02L377.6 126.58L375.49 126.58L375.49 127.95C375.49 129.53 376.35 130.36 378.3 130.36C380.14 130.36 380.98 129.6 380.98 128.04L380.98 126.49C380.98 125.32 380.65 124.81 380.14 124.4C379.56 123.91 378.81 123.61 378.23 123.19C377.77 122.84 377.72 122.7 377.72 122.33L377.72 121C377.72 120.7 377.96 120.56 378.26 120.56C378.58 120.56 378.77 120.72 378.77 121.05L378.77 122.28L380.88 122.28Z" fill="#FFFFFF" fill-opacity="1.000000" fill-rule="nonzero"/>
</svg>
