<svg width="183" height="34" viewBox="0 0 183 34" fill="none" xmlns="http://www.w3.org/2000/svg">
<path fill-rule="evenodd" clip-rule="evenodd" d="M172.199 6.42877C175.486 6.42877 178.93 7.17295 181.33 8.12791V1.5959C178.877 0.800102 175.486 0.00215168 171.051 0.00215168C162.649 0.00215168 156.962 3.18965 156.962 9.8292C156.962 21.3016 173.19 18.9658 173.19 24.2783C173.19 26.3496 171.259 27.5175 167.45 27.5175C164.007 27.5175 159.988 27.4099 156.858 25.9259V32.4041C159.988 33.5204 164.529 33.9978 167.972 33.9978C176.685 33.9978 183 31.3416 183 23.1621C183 12.2188 166.667 15.4063 166.667 8.92371C166.614 6.48254 169.224 6.42877 172.199 6.42877ZM137.915 25.1301H134.993V34H124.819V0.00215168C125.027 0.00215168 132.905 0.161312 136.453 0.00215168C146.942 0.161312 153.936 3.55959 153.936 11.8467C153.936 21.5146 147.099 25.1279 137.915 25.1279V25.1301ZM136.506 5.90182H135.046V19.1809H136.506C141.62 19.1809 143.759 17.5872 143.759 11.7972C143.759 8.2376 141.359 5.95344 136.506 5.89967V5.90182ZM108.902 0H119.077V33.9957H108.902V0.00215168V0ZM84.2197 33.9978V0.00215168H94.3964V26.6141H104.571L103.109 33.9978H84.2197ZM68.2521 0.00215168H78.4289V33.9978H68.2521V0.00215168ZM52.2845 20.7188H42.1098V33.9978H31.9351V0.00215168H42.1098V13.2813H52.2845V0.00215168H62.4613V33.9978H52.2845V20.7188ZM13.0457 25.1279H10.1238V33.9978H0V0.00215168C0.20795 0.00215168 8.0867 0.161312 11.6367 0.00215168C22.1254 0.161312 29.0642 3.55959 29.0642 11.8467C29.0642 21.5146 22.2315 25.1279 13.0457 25.1279ZM11.6367 5.89967H10.1747V19.1788H11.6367C16.7506 19.1788 18.8895 17.585 18.8895 11.795C18.8895 8.23545 16.4896 5.95344 11.6367 5.89967Z" fill="white"/>
</svg>
