<svg width="395" height="157" viewBox="0 0 395 157" fill="none" xmlns="http://www.w3.org/2000/svg">
<rect width="394.544" height="156.006" transform="translate(0 0.810547)" fill="black"/>
<path d="M96.9253 70.0295C94.8698 69.3357 92.0434 69.0017 88.4205 69.0017C81.6887 69.0017 75.7019 70.6975 70.6402 74.0634C64.9361 77.8405 61.2361 83.262 59.7459 90.3792C58.5896 95.9292 59.6431 100.451 62.675 104.023C65.7069 107.569 70.1263 109.342 75.3936 109.342C79.0165 109.342 82.331 108.365 85.6456 106.387C85.2859 108.031 84.6178 111.063 84.9518 115.482C85.2602 118.412 86.1081 121.469 87.7011 124.63C84.4637 126.351 79.3505 127.225 72.3103 127.225C59.4632 127.225 46.3335 122.959 37.9829 114.403C28.9385 105.102 25.3157 92.9743 25.0073 78.046C24.7761 64.2483 30.0177 53.097 39.1648 44.5922C49.0571 35.5222 59.2577 31 74.9054 31C82.5109 31 88.3692 31.4368 92.4802 32.3361C102.372 44.8749 100.882 57.465 96.9253 70.0295Z" fill="white"/>
<path d="M191.017 32.1817C203.839 42.0482 203.967 58.1328 185.981 80.384C180.457 90.97 164.372 105.718 182.076 124.629C171.875 124.629 161.7 124.629 151.551 124.629C144.459 117.897 142.25 111.14 142.738 104.408C142.018 104.639 140.528 105.23 138.396 106.155C135.852 107.286 134.13 108.185 133.154 108.853C131.946 106.386 131.15 103.92 130.636 101.453C130.353 99.8344 129.917 97.5734 129.634 94.6442C125.549 104.639 124.906 114.634 134.233 124.629C123.082 124.629 111.956 124.629 100.882 124.629C89.1142 109.881 94.7669 95.1324 100.702 80.384C104.145 68.873 116.016 52.7884 99.5717 32.1817C113.806 32.1817 127.989 32.1817 142.147 32.1817C161.366 51.1697 142.789 70.132 132.537 89.12C135.261 89.4026 137.959 89.4797 140.657 89.3512C142.352 89.3255 144.716 89.1457 147.748 88.863C156.741 69.9521 173.622 51.0669 151.705 32.156C164.835 32.1817 177.939 32.1817 191.017 32.1817Z" fill="white"/>
<path d="M237.625 32.1819C255.38 48.5748 243.278 64.9676 232.487 81.3605C226.937 91.9465 212.651 106.387 229.378 124.63C218.046 124.63 206.741 124.63 195.487 124.63C160.697 93.8222 234.028 62.9892 195.949 32.1819C209.876 32.1819 223.776 32.1819 237.625 32.1819Z" fill="white"/>
<path d="M296.312 106.387C295.901 107.98 295.002 111.012 295.079 115.482C295.233 118.103 295.978 121.135 297.982 124.63C279.431 124.63 261.008 124.63 242.663 124.63C231.563 115.2 230.355 99.6805 244.615 78.046C249.035 66.9718 263.603 51.6838 242.56 32.1819C256.409 32.1819 270.258 32.1819 284.056 32.1819C305.947 57.7476 269.95 83.2876 270.412 108.853C274.549 108.853 280.767 108.442 289.143 107.594C290.865 107.44 293.255 107.029 296.312 106.387Z" fill="white"/>
<path d="M368.924 106.387C368.461 107.98 367.613 111.012 366.432 115.482C365.841 118.103 365.378 121.135 365.121 124.63C346.339 124.63 327.659 124.63 309.056 124.63C302.222 115.2 301.143 99.6805 309.673 78.046C312.14 66.9718 321.158 51.6838 307.335 32.1819C321.107 32.1819 334.853 32.1819 348.548 32.1819C354.638 57.7476 342.664 83.2876 341.688 108.853C346.03 108.853 352.582 108.442 361.395 107.594C363.22 107.44 365.738 107.029 368.924 106.387Z" fill="white"/>
</svg>
