<svg width="398" height="155" viewBox="0 0 398 155" fill="none" xmlns="http://www.w3.org/2000/svg">
<g clip-path="url(#clip0_960_7040)">
<rect width="396.557" height="155" transform="translate(0.458984)" fill="black"/>
<path d="M244.254 60.5628C242.428 68.2128 240.626 75.8871 238.8 83.5371C236.998 91.1385 235.172 98.7642 233.419 106.366C233.151 107.556 232.615 107.944 231.398 107.92C227.063 107.847 222.729 107.847 218.37 107.92C217.104 107.92 216.666 107.507 216.398 106.317C212.965 91.6242 209.458 76.9557 205.976 62.2628C205.83 61.6314 205.635 60.9999 205.148 60.3685C204.588 62.7485 204.004 65.1285 203.444 67.5085C200.4 80.3557 197.332 93.2028 194.313 106.05C193.996 107.41 193.533 107.944 192.024 107.92C187.3 107.799 182.576 107.871 177.657 107.871C177.803 107.119 177.852 106.536 177.998 105.953C182.016 89.7542 186.009 73.5314 190.1 57.3571C190.636 55.2442 191.634 53.2042 192.706 51.2857C193.85 49.2457 195.725 48.0314 198.184 48.0314C202.957 48.0314 207.729 48.0314 212.502 48.0314C214.742 48.0314 216.569 49.0999 217.64 50.9457C218.809 52.9857 219.831 55.1957 220.489 57.4542C221.95 62.5785 223.119 67.7756 224.409 72.9485C224.507 73.3614 224.677 73.7499 224.945 74.5757C226.284 69.1114 227.453 64.0357 228.841 59.0328C229.547 56.4828 230.472 53.9814 231.666 51.6014C232.786 49.3428 234.782 48.0071 237.436 48.0071C242.209 48.0071 246.982 48.0071 251.754 48.0314C253.873 48.0314 255.626 49.0028 256.649 50.7514C257.842 52.7914 259.011 54.9528 259.571 57.2114C263.759 73.6042 267.777 90.0457 271.867 106.463C271.965 106.827 272.013 107.191 272.135 107.847H270.236C265.999 107.847 261.786 107.799 257.55 107.871C256.21 107.896 255.748 107.434 255.455 106.196C251.998 91.4542 248.491 76.7128 244.985 61.9957C244.863 61.4857 244.693 60.9757 244.547 60.4657C244.425 60.4657 244.303 60.4899 244.206 60.5142L244.254 60.5628ZM51.4512 98.2785H97.6431V86.8157C97.0587 86.7914 96.5474 86.6699 96.0847 86.7671C94.3315 87.0828 93.6254 86.3057 93.0897 84.6299C89.9972 75.2557 86.71 65.9542 83.5932 56.6042C82.5705 53.5199 80.5738 51.6742 77.457 51.2614C75.509 50.9942 73.4392 51.0428 71.4912 51.3099C68.4718 51.6985 66.5238 53.4957 65.5255 56.4342C62.5061 65.3714 59.438 74.2599 56.3942 83.1971C55.6313 85.4314 54.0972 86.6457 51.7921 86.8399C51.7921 86.8399 51.6947 86.8885 51.4512 86.9857V98.3028V98.2785ZM67.8144 86.6699C69.9815 79.5299 72.1243 72.4871 74.2671 65.4442C74.4376 65.4442 74.608 65.4442 74.7541 65.4199C76.8969 72.4628 79.0397 79.5057 81.2312 86.6942H67.79L67.8144 86.6699ZM295.292 76.0571C291.226 76.0571 287.159 76.0571 283.117 76.1057C280.487 76.1299 278.539 77.4414 277.76 79.8699C276.177 84.7999 276.226 89.8271 277.979 94.7328C278.807 97.0642 280.658 98.3757 283.239 98.3999C289.813 98.3999 296.363 98.4485 302.938 98.3999C305.592 98.3757 307.394 96.7242 307.905 94.1014C308.1 93.0085 308.222 91.8914 308.222 90.7985C308.222 85.3585 308.319 79.9185 308.124 74.4785C308.051 72.4142 307.54 70.2771 306.785 68.3585C305.519 65.0799 302.865 63.1371 299.358 63.0642C292.638 62.8942 285.893 63.0399 279.172 63.0642C279.075 63.0642 278.978 63.1614 278.88 63.2342V71.8314C279.659 71.8314 280.244 71.8314 280.853 71.8314C285.016 71.8314 289.205 71.7828 293.368 71.8557C296.29 71.9042 297.289 73.0214 297.191 76.1057C296.51 76.1057 295.901 76.1057 295.292 76.1057V76.0571ZM297.289 86.6214C297.289 88.1271 296.607 88.8799 295.073 88.8557C293.295 88.8557 291.518 88.8557 289.765 88.8557C288.304 88.8557 287.597 88.1028 287.622 86.7185C287.622 85.3342 288.279 84.5571 289.765 84.5571C292.2 84.5571 294.61 84.5571 297.313 84.5571C297.313 85.4071 297.313 86.0142 297.313 86.5971L297.289 86.6214ZM109.015 63.1371C105.094 63.8171 102.27 66.0514 101.003 69.8642C98.6658 76.9799 98.6902 84.1685 100.93 91.2842C102.221 95.3885 105.265 97.9142 109.429 98.2785C113.982 98.6671 118.633 98.6428 123.211 98.2785C126.887 97.9871 129.907 95.9228 131.246 92.3528C134.168 84.6542 134.119 76.8342 131.27 69.0871C130.321 66.4642 128.373 64.4728 125.646 63.7928C122.651 63.0157 119.558 62.6999 117.172 62.2871C113.958 62.6028 111.425 62.7242 108.99 63.1371H109.015ZM111.23 75.2799C111.839 73.1428 113.714 72.0499 116.32 72.0499C118.876 72.0499 120.849 73.1671 121.457 75.2314C122.48 78.7042 122.456 82.2742 121.506 85.7471C120.873 88.0542 118.803 89.3171 116.247 89.2685C113.665 89.2199 111.669 87.9328 111.084 85.6014C110.67 83.9499 110.573 82.2257 110.305 80.3799C110.597 78.7285 110.743 76.9557 111.23 75.2557V75.2799ZM147.39 85.0914H157.008V98.3028H167.698V63.0399H156.911V75.2314H147.366V63.0642H136.627V98.3514H147.39V85.1157V85.0914ZM333.01 62.9671C332.596 62.9671 332.036 63.4528 331.793 63.8657C329.358 68.0914 326.996 72.3657 324.536 76.5671C323.027 79.1414 323.148 81.5457 324.731 84.0714C326.85 87.4471 329.114 90.7742 330.843 94.3685C332.401 97.6228 334.471 98.9585 338.075 98.4485C340.437 98.1085 342.872 98.3757 345.55 98.3757C345.161 97.7442 344.99 97.4285 344.771 97.1128C341.703 92.5714 338.684 87.9571 335.518 83.4885C333.911 81.2299 333.741 79.1657 335.372 76.9557C335.591 76.6399 335.786 76.2999 336.005 75.9842C338.732 71.7342 341.435 67.4842 344.382 62.9185C340.34 62.9185 336.687 62.8942 333.035 62.9671H333.01ZM311.582 98.2542H322.272V63.0157H311.582V98.2542Z" fill="white"/>
</g>
<defs>
<clipPath id="clip0_960_7040">
<rect width="396.557" height="155" fill="white" transform="translate(0.458984)"/>
</clipPath>
</defs>
</svg>
