<svg width="512.000122" height="176.000000" viewBox="0 0 512 176" fill="none" xmlns="http://www.w3.org/2000/svg" xmlns:xlink="http://www.w3.org/1999/xlink">
	<desc>
			Created with Pixso.
	</desc>
	<defs/>
	<path id="path" d="M285.21 52.77C285.74 52.53 286.15 52.35 286.85 51.99C286.21 51.88 285.8 51.88 285.32 51.76C285.32 51.34 285.21 50.87 285.21 50.39C285.21 48.43 285.21 46.53 285.21 44.57C285.21 42.73 285.32 42.62 287.21 42.62C289.62 42.62 292.1 42.73 294.51 42.62C297.51 42.44 300.57 42.2 303.51 41.67C305.34 41.31 307.17 40.54 308.87 39.65C311.58 38.22 313.23 35.79 313.64 32.7C314.05 29.67 313.88 26.71 312.7 23.92C311.4 20.71 308.99 19.11 305.57 18.52C299.69 17.51 293.74 17.98 287.86 17.86C287.33 17.86 286.8 17.86 286.27 17.86C285.56 17.86 285.21 17.45 285.15 16.73C285.15 11.81 285.15 6.52 285.15 1.6C285.15 0.35 285.44 0.05 286.74 0.05C295.63 0.17 304.51 -0.48 313.4 0.94C315.94 1.36 318.41 2.01 320.82 2.73C322.23 3.14 323.41 4.03 323.88 5.69C325.35 5.46 326.3 6.35 327.24 7.18C331.24 10.74 333.48 15.31 334.3 20.53C335.13 25.58 334.95 30.57 333.36 35.49C331.83 40.24 328.89 43.92 324.65 46.53C324.18 46.83 323.59 46.89 323.06 47.07C322.18 48.43 320.29 48.49 318.7 49.26C322.35 49.74 324.53 51.88 326.35 54.43C327.53 56.09 328.59 57.81 329.42 60.01C328.47 60.01 327.83 59.95 327.06 59.89C327 60.13 326.89 60.42 326.71 60.84C327 60.84 327.24 60.96 327.42 60.96C329.59 60.72 329.71 60.72 330.24 62.92C330.65 64.58 331.01 66.18 330.89 68.08C330.12 68.02 329.48 67.96 328.65 67.9C328.36 68.32 328 68.73 327.59 69.21C328.47 69.92 329.36 70.57 328.89 71.94C329.83 72.29 330.71 72.18 331.71 71.46C332.36 75.03 333.01 78.35 333.66 81.67C332.95 82.21 332.36 82.62 331.71 83.1C333.24 82.92 334.3 84.23 334.66 85.53C334.77 86.01 334.89 86.42 335.07 86.9C335.36 87.73 335.42 88.5 334.6 89.09C334.42 89.21 334.42 89.57 334.36 89.92C335.95 89.63 335.95 89.63 336.83 90.87C337.19 91.35 337.48 91.82 337.78 92.36C337.95 92.66 338.07 92.95 338.25 93.25C337.72 94.38 336.83 94.73 335.66 94.67C334.42 94.61 333.24 94.67 331.89 94.67C332.07 93.43 332.18 92.42 332.42 90.99C331.12 92.12 331.42 93.43 331.06 94.44C328.71 94.97 325.94 94.79 324.82 93.9L327.3 93.9C327.53 92.66 326.47 91.23 328.36 90.4L331.01 90.4C331.01 89.75 330.95 89.27 330.89 88.62C329.65 88.97 328.53 89.21 327.42 89.63C326 90.16 326 90.28 326.18 91.82C326.18 92.12 326.18 92.42 326.24 92.89C325.24 92.95 324.24 93.07 323.18 93.13C323 94.55 321.94 94.73 320.7 94.67C319.76 94.61 318.82 94.61 317.94 94.67C317 94.73 316.35 94.38 316 93.55C315.05 91.41 313.82 89.33 313.35 87.08C312.76 84.11 311.87 81.2 311.46 78.23C311.05 75.2 310.46 72.24 309.99 69.21C309.28 64.52 306.16 61.19 301.57 60.42C299.57 60.07 297.51 59.95 295.51 59.77C294.98 59.77 294.51 59.71 293.86 59.65C294.04 59.12 294.1 58.76 294.21 58.35C293.74 58.82 292.51 58.64 292.39 59.59C292.39 59.71 291.92 59.83 291.62 59.83C289.98 59.95 288.39 60.13 286.74 60.13C285.5 60.13 285.21 59.89 285.15 58.58C285.15 56.68 285.21 54.78 285.21 52.77ZM308.4 44.4C307.64 44.04 308.22 42.79 306.99 42.73C306.99 43.15 306.99 43.45 306.93 43.86C304.69 43.27 303.1 44.87 301.28 45.52C301.1 46.3 300.93 47.07 300.75 47.84C302.46 47.84 302.93 47.48 303.51 45.94C303.99 44.75 305.04 44.22 306.1 44.69C306.64 44.93 307.05 45.41 307.58 45.88C307.81 45.52 307.99 44.99 308.4 44.4ZM330.24 62.92C329.18 62.86 327.59 62.74 326.59 62.74C326.41 62.74 326.06 63.33 326.12 63.57C326.12 63.81 326.59 64.1 326.89 64.22C327.77 64.52 328.65 64.76 329.65 64.99L330.24 62.92ZM315.11 83.34C315.94 84.11 316.7 84.94 317.58 85.53C318.41 86.07 319.35 86.54 320.47 86.24C319.06 85.77 317.7 84.7 316.88 83.39C316.41 82.74 315.64 82.68 315.11 83.34ZM309.81 61.67C309.7 60.13 310.11 58.58 309.99 56.98L308.75 56.98C309.11 58.64 309.52 60.13 309.81 61.67ZM310.99 49.98C312.23 50.45 313.23 50.87 314.52 51.34C313.76 49.98 313.58 48.67 312.11 48.79C311.76 48.79 311.46 49.44 310.99 49.98ZM292.57 44.81C291.45 44.16 291.45 44.16 290.51 44.34C290.62 45.11 290.8 45.82 290.92 46.65C292.21 46.65 291.86 45.35 292.57 44.81ZM294.57 52.94C294.57 52.94 294.1 52.77 293.86 52.71C292.74 52.65 291.57 53 290.68 51.88C290.62 51.82 290.21 51.99 289.8 52.11C291.33 53.54 292.86 53.54 294.57 52.94ZM324.41 72.95C324.41 72.95 323.94 72.95 323.76 73.07C322.82 73.66 321.94 74.08 320.82 73.42C320.7 73.42 320.41 73.72 319.94 74.02C320.94 74.08 321.65 74.02 322.29 74.25C323.41 74.61 324.06 73.96 324.41 72.95ZM324.41 80.84C325.24 82.03 326 82.8 327.42 82.8C326.77 81.55 325.82 81.14 324.41 80.84ZM319 92.77C320.25 92.77 320.86 92.42 320.82 91.71C320.12 91.82 319.51 92.18 319 92.77ZM323.71 86.9C323.47 87.67 322.76 88.5 322.53 89.39C323.24 89.69 323.71 89.63 323.76 88.74C323.76 88.14 323.71 87.49 323.71 86.9ZM313.4 78.71C314.11 78.65 314.52 78.35 314.23 77.82C313.99 77.28 313.58 76.69 312.7 77.16C312.93 77.76 313.17 78.23 313.4 78.71ZM322.06 78.05L320.06 77.64C320.29 78.11 320.47 78.47 320.65 78.88C321.18 78.53 321.59 78.29 322.06 78.05ZM295.57 53.36L297.63 53.77C296.98 52.59 296.27 53.24 295.57 53.36ZM326.77 69.92C326.3 70.28 325.47 70.04 324.94 70.4C325.47 70.1 326.24 70.22 326.77 69.92ZM300.51 50.45C299.92 50.27 299.45 50.21 298.92 50.03C299.24 50.91 299.77 51.04 300.51 50.45ZM314.58 39.88C314.05 39.88 313.52 39.88 312.93 39.94C313.46 40.6 314.05 40.66 314.58 39.88ZM315.88 72.12C315.17 71.82 315.76 70.28 314.52 70.22C315.05 70.99 315.47 71.52 315.88 72.12ZM318.06 36.92C318.47 36.38 318.82 35.91 318.06 35.31L318.06 36.92ZM322.59 72C322.18 72 321.71 72 321.12 71.94C321.71 72.71 322.12 72.89 322.59 72ZM326.89 78.05C326.53 78.05 326.12 77.52 325.77 77.58C326.12 77.58 326.53 77.99 326.89 78.05ZM327.06 66.77C327.77 66.18 327.77 65.71 327.06 65.17L327.06 66.77ZM319.12 64.22C319.41 63.93 320 63.87 320.29 63.57C320 63.87 319.41 63.93 319.12 64.22ZM315.82 45.64L316.11 43.45L315.82 45.64ZM323.94 67.43C324.35 67.31 324.71 67.72 325.06 67.61C324.71 67.61 324.29 67.37 323.94 67.43ZM294.27 43.39C294.21 43.68 293.74 43.92 293.68 44.28C293.68 43.98 294.21 43.68 294.27 43.39Z" fill="#FFFFFF" fill-opacity="1.000000" fill-rule="nonzero"/>
	<path id="path" d="M469.76 94.44C469.76 94.44 470.11 94.02 470.4 93.66C469.58 93.54 469.4 93.01 469.34 92.24C469.23 90.46 469.7 88.8 470.17 87.13C471.17 86.6 472.35 88.5 473.29 86.84C473.11 86.54 472.88 86.18 472.64 85.89C470.93 83.45 471.23 81.44 473.46 79.54C473.88 79.18 474.05 78.53 474.41 77.81C473.64 77.7 473.17 77.64 472.58 77.52C473.35 77.28 474.35 76.45 475.11 76.27C475.23 76.63 475.29 76.92 475.35 77.16C476.11 75.91 477.64 75.02 478.88 74.43C481.29 73.24 483.18 71.46 484.77 69.33C485.41 69.27 486 69.21 486.59 69.15C486.3 68.97 486 68.49 485.47 68.26C486.06 67.78 486.47 67.19 487.06 66.95C488.18 66.36 488.53 65.59 488.24 64.4C488.18 64.1 488.18 63.81 488.12 63.45C489.12 63.33 490.12 62.97 491.12 63.63C491.01 63.45 490.95 63.09 490.77 63.03C488.77 62.56 488.77 62.56 489.12 60.54C489.12 60.48 489.36 59.89 489.36 59.89C489.65 59.89 489.89 59.89 490.24 59.95C490.59 59.35 490.95 58.7 491.36 57.99C489.95 57.45 490.12 56.33 490.3 55.08C491.07 54.49 492.66 54.6 492.48 52.76C491.83 53.18 491.54 54.37 490.48 53.54C490.71 52.23 490.12 50.69 491.54 49.74C491.24 48.73 490.95 47.78 490.59 46.65C491.48 46.47 492.07 46.35 493.01 46.18C491.6 45.52 490.12 45.17 490.71 43.27C491.36 43.45 491.95 43.56 492.6 43.74C492.71 44.28 492.77 44.75 492.95 45.11C493.24 45.7 493.66 46.18 494.42 46.06C494.83 46.06 495.25 46.06 495.66 46.06C497.42 45.76 499.13 45.94 500.78 46.53C501.13 46.65 501.6 46.59 501.9 46.41C502.66 45.94 503.43 45.4 504.25 44.81C504.08 44.51 503.84 44.16 503.66 43.8C502.96 44.1 502.37 44.45 501.72 44.69C500.96 44.93 500.25 45.4 499.42 44.69C499.13 44.45 498.48 44.69 497.84 44.69C497.95 43.98 498.07 43.27 498.25 42.44C495.72 43.56 493.36 42.14 490.83 42.26C490.59 41.25 490.42 40.42 490.24 39.59C489.89 37.92 490.24 37.21 491.71 36.38C490.54 35.19 489.01 33.77 488.42 31.99C487.77 30.09 486.53 28.37 485.36 26.71C483.47 23.98 480.88 21.96 478 20.35C475.94 19.23 473.82 18.4 471.46 18.04C469.29 17.68 469.29 17.62 469.29 15.43C469.29 11.21 469.29 7 469.29 2.78C469.29 0.35 469.46 0.23 471.93 0.41C478.53 0.83 484.65 2.9 490.42 6.17C496.6 9.61 501.43 14.36 505.14 20.35C505.96 21.66 506.67 23.14 507.31 24.57C507.78 25.64 508.26 26.71 507.43 27.89C507.37 28.01 507.43 28.19 507.55 28.66C507.84 28.13 508.02 27.77 508.26 27.42C508.84 27.6 509.43 29.67 509.79 32.46C509.49 32.29 509.26 32.11 508.96 31.93C508.61 33 508.26 34.07 507.78 35.37C505.55 35.37 503.13 36.14 501.25 33.71C501.07 34.48 501.01 34.9 500.96 35.31C500.48 36.08 498.84 36.26 497.31 35.67C497.42 36.26 497.6 36.8 497.54 37.33C497.54 37.81 497.19 38.28 496.89 38.82C495.72 38.52 494.48 38.16 493.07 37.81C493.24 38.28 493.24 38.58 493.36 38.76C493.6 38.93 494.01 39.11 494.3 39.17C495.72 39.17 497.01 39.47 498.19 40.36C498.72 40.77 499.72 40.6 500.48 40.66C501.31 40.66 502.19 40.66 503.02 40.6C503.19 40.6 503.37 40.36 503.6 40.18C503.31 39.59 503.02 39.05 502.72 38.46C502.13 38.46 501.49 38.34 500.78 38.28C500.6 36.92 500.78 35.91 502.25 35.31C502.49 36.08 502.66 36.74 502.84 37.39C503.49 37.15 504.25 36.86 505.02 36.56C506.08 37.75 504.13 38.22 504.84 39.41C505.43 38.58 505.96 37.81 506.55 36.98C507.61 36.5 508.78 35.97 510.02 35.43C510.37 36.8 511.2 38.46 511.38 39.88C511.55 41.19 511.2 41.49 509.84 42.14C509.14 42.5 508.43 42.97 507.78 43.56C508.61 43.5 509.31 43.62 510.08 43.8C511.26 44.04 511.61 44.51 511.73 45.52C511.9 46.83 512.26 48.13 511.67 49.5C511.02 49.2 511.08 47.84 510.02 48.67C509.9 49.38 509.73 50.21 509.61 51.1C508.84 51.28 507.9 50.51 507.43 51.81C508.43 51.93 509.37 52.11 510.37 52.23C510.49 52.74 510.92 53.12 511.67 53.36C511.9 55.85 511.43 58.34 510.85 60.78C509.08 68.14 505.84 74.91 500.9 80.54C494.48 87.96 486.24 92.77 476.47 94.49C474.23 94.91 471.99 95.03 469.76 95.27C469.7 95.09 469.81 94.61 469.76 94.44ZM493.77 49.56C493.42 49.74 492.89 50.03 492.3 50.45C493.42 51.16 494.54 51.46 495.78 51.34C495.07 50.69 494.48 50.15 493.77 49.56ZM507.61 42.85C506.49 42.97 505.67 43.03 504.78 43.15C505.31 43.15 505.9 43.56 506.43 43.56C506.72 44.1 507.02 44.57 507.31 45.11C507.31 44.51 507.73 43.8 507.61 42.85ZM503.78 30.03C504.9 30.03 505.78 29.85 506.67 28.96C505.37 28.78 504.66 29.32 503.78 30.03ZM488.06 72.47C488.85 71.68 488.85 71.03 488.06 70.51L488.06 72.47ZM508.79 45.29C508.14 47.18 508.14 47.24 509.61 47.13C509.37 46.59 509.14 46.06 508.79 45.29ZM497.25 52.76C497.89 52.94 498.54 53.3 499.25 53.48C499.25 53.06 499.19 52.71 499.13 52.29C498.42 52.47 497.84 52.59 497.25 52.76ZM490.01 69.68C490.75 68.97 490.69 68.44 489.83 68.08C489.89 68.67 489.95 69.21 490.01 69.68ZM493.77 61.43C494.54 61.49 495.07 61.37 495.42 60.72C494.44 60.52 493.89 60.76 493.77 61.43ZM492.83 59C493.01 58.29 492.83 57.93 492.13 57.63C491.95 58.34 492.13 58.76 492.83 59ZM492.3 10.92C492.71 11.45 492.95 11.81 493.3 12.34C493.54 11.39 493.6 10.8 492.3 10.92ZM500.9 54.84C501.19 54.96 501.19 55.55 501.49 55.61C501.25 55.44 501.19 55.08 500.9 54.84ZM497.72 55.38L497.72 54.19C497.84 54.55 497.6 55.02 497.72 55.38ZM510.32 47.18L511.26 46.89L510.32 47.18ZM509.49 54.66C509.49 54.66 509.2 55.14 509.26 55.26C509.31 55.08 509.43 54.84 509.49 54.66ZM504.84 52.17C504.72 52.17 504.08 52.05 504.02 52.11C504.13 52.23 504.72 52.17 504.84 52.17Z" fill="#FFFFFF" fill-opacity="1.000000" fill-rule="nonzero"/>
	<path id="path" d="M432.32 77.46C431.2 76.21 429.96 75.08 429.67 73.3C429.55 72.77 428.78 72.35 428.55 71.82C427.55 69.44 426.49 67.07 425.66 64.7C425.14 63.15 425.84 62.14 427.61 61.31L427.61 60.01C428.49 61.61 429.49 59 430.43 60.48C430.14 61.02 429.84 61.61 429.55 62.26C429.31 62.86 429.14 63.57 428.9 64.46C431.14 64.46 433.26 64.34 434.14 66.83C434.14 66.3 434.02 65.82 433.97 65.17C435.14 65.35 436.26 65.47 437.44 65.65C437.44 65.11 437.32 64.58 437.26 64.04C436.48 64.87 435.63 64.95 434.73 64.28C434.26 63.87 433.85 63.51 433.02 63.87C431.79 64.4 431.2 64.16 430.73 63.45C430.2 62.68 429.9 61.31 430.43 60.48C431.02 59.59 431.67 60.07 433.14 60.48C433.26 59.71 433.73 58.88 433.91 57.99C432.85 57.99 431.96 58.17 431.08 58.52C430.08 58.94 428.96 58.94 427.84 59.18C427.31 59.29 426.72 59.41 426.25 59.59C425.02 60.07 424.13 59.71 423.9 58.4C423.72 57.39 423.72 56.39 423.6 55.2C424.55 55.55 425.19 55.79 426.14 56.15C426.08 55.02 426.02 54.19 425.96 53.36C424.37 54.13 425.08 51.82 423.9 51.87C423.9 52.59 424.02 53.3 424.08 54.01C423.9 53.36 423.25 52.71 423.25 51.99C423.25 48.67 422.96 45.29 423.31 41.96C423.72 37.87 424.25 33.71 425.72 29.79C427.31 25.58 429.26 21.48 431.67 17.68C432.2 16.85 432.85 16.08 433.55 15.37C439.62 8.66 446.8 3.73 455.63 1.72C458.4 1.06 461.28 0.88 464.11 0.53C464.63 0.47 465.11 0.53 465.75 0.53C465.81 1.12 465.93 1.54 465.93 2.01C465.93 6.11 465.87 10.2 465.93 14.3C465.93 15.72 464.93 16.14 464.16 16.79C464.28 17.09 464.34 17.33 464.46 17.68C462.93 18.22 461.4 18.87 459.87 19.35C458.4 19.82 457.1 20.47 455.92 21.48C455.33 21.96 454.69 22.37 454.16 22.91C453.04 23.98 451.8 24.63 450.27 23.68C449.98 24.63 450.8 24.81 451.27 25.34C447.74 29.97 445.8 35.25 444.86 41.07C444.5 41.13 444.15 41.25 443.56 41.37C445.56 42.38 444.62 43.98 444.56 45.29C444.56 46 443.97 46.65 443.8 47.36C443.56 48.43 442.5 47.78 441.97 48.25C442.27 49.32 443.09 48.37 443.56 48.79C444.91 51.16 445.92 57.69 445.15 59.29C446.27 59.71 446.74 60.66 446.62 61.79C446.56 62.56 446.92 63.09 447.27 63.69C448.56 65.82 449.86 68.02 451.15 70.16C451.51 70.69 451.86 71.29 452.33 71.64C454.1 72.95 455.92 74.25 457.75 75.5C458.16 75.8 458.69 75.92 459.22 76.03C460.28 76.33 461.4 76.51 462.46 76.86C462.81 76.98 463.34 77.28 463.46 77.64C463.63 78.23 463.1 78.35 462.63 78.47C462.4 78.53 462.22 78.94 461.93 79.3C461.81 78.11 461.04 78.05 460.1 78.23C459.4 79.6 458.45 80.84 456.57 81.02C457.04 81.79 457.45 82.39 457.87 83.04C458.57 82.62 459.22 82.21 459.98 81.73L459.98 80.13C461.87 78.94 463.46 80.37 465.34 80.25L465.34 83.51C463.46 83.51 463.4 83.51 463.16 85C463.99 85.23 464.87 85.47 465.87 85.77C465.64 86.54 465.4 87.19 465.16 87.91C464.58 87.73 464.05 87.55 463.46 87.37C463.1 87.67 462.75 87.97 462.34 88.26C463.22 90.16 463.05 90.52 460.93 91.05C461.16 90.58 461.4 90.28 461.4 89.98C461.4 89.63 461.16 89.33 461.04 88.97C461.57 88.02 462.04 87.07 462.57 86.12C461.93 86.9 460.93 87.37 460.22 88.26C459.98 88.2 459.69 88.02 459.4 88.02C459.16 88.02 458.81 88.2 458.75 88.44C458.69 88.62 458.75 89.15 458.92 89.15C459.81 89.45 459.63 90.1 459.51 90.7C459.22 91.94 460.28 92.83 460.34 94.14C458.22 94.79 456.33 93.54 454.27 93.43C454.27 92.83 454.22 92.3 454.16 91.82C453.39 90.81 451.68 91.88 451.15 90.4C450.57 90.87 450.15 91.53 449.62 91.59C448.92 91.59 448.15 91.35 447.5 90.99C444.15 89.51 441.38 87.19 438.67 84.76C438.09 84.23 437.5 83.63 436.91 83.1C436.14 82.39 435.14 81.79 436.14 80.19C435.32 80.37 434.97 80.49 434.44 80.6C433.85 79.65 432.96 78.47 432.32 77.46C432.61 77.22 433.08 77.1 433.49 76.75C433.14 76.57 432.96 76.45 432.55 76.27C432.55 76.86 432.26 77.1 432.32 77.46ZM442.91 86.9L444.74 87.07C444.15 86.48 443.5 86.07 442.91 86.9C442.91 86.07 442.48 85.65 441.62 85.53C441.74 86.3 442.27 86.66 442.91 86.9ZM432.02 46.12C431.49 46.06 431.14 45.11 430.26 46C431.02 46 431.49 46.06 432.02 46.12C432.32 47.07 432.67 47.9 432.91 48.79C432.32 49.38 431.9 49.92 431.38 50.39C430.85 50.81 430.02 50.87 429.55 51.76C430.85 51.52 431.73 51.22 432.43 50.27C432.61 49.98 433.08 49.8 433.44 49.74C434.61 49.5 435.61 49.98 436.5 50.75C436.79 50.98 437.26 51.04 437.67 51.22C437.79 50.69 437.85 50.33 437.91 49.8C438.62 51.1 438.79 49.98 439.15 49.8C439.68 50.03 440.26 50.27 440.97 50.57C441.09 49.62 441.21 48.91 441.32 48.02C438.44 48.25 436.44 46.83 434.79 44.69C434.2 46 433.73 46.24 432.02 46.12ZM440.26 59.77C439.91 60.48 439.2 60.42 438.44 60.3C437.67 60.13 437.26 60.6 436.91 61.19C436.56 61.79 436.03 62.32 436.73 63.03C437.38 62.32 437.79 61.31 438.97 61.43C439.38 63.09 439.73 63.51 440.68 63.33C441.56 63.15 442.32 63.21 443.09 63.63C442.15 62.38 441.32 61.19 440.26 59.77ZM450.68 80.55C451.04 79.24 450.68 78.65 448.86 77.7C448.68 79.6 448.98 80.07 450.68 80.55ZM447.21 82.5C446.27 82.33 445.39 82.09 444.5 82.03C444.27 82.03 443.8 82.33 443.8 82.5C443.8 82.74 443.97 83.22 444.21 83.34C445.03 83.81 446.39 83.39 447.21 82.5ZM429.79 67.13C429.96 64.7 429.2 64.76 426.55 65.05C427.73 65.82 428.67 66.42 429.79 67.13ZM435.97 62.26C435.5 62.08 434.97 61.61 434.32 61.37C434.32 62.08 434.32 62.56 434.2 63.21C434.91 62.86 435.44 62.56 435.97 62.26ZM433.91 57.99C434.73 58.46 435.97 58.7 436.79 59.18C436.79 58.4 436.67 57.93 436.67 57.51C435.97 57.63 434.79 57.81 433.91 57.99ZM456.22 87.55C456.39 88.62 456.69 89.33 457.92 88.8C457.39 88.32 457.45 87.25 456.22 87.55ZM438.26 79.71C437.26 78.47 436.85 78.94 436.14 80.19L438.26 79.71ZM450.92 74.25C449.74 73.42 449.21 73.9 448.56 74.97C449.45 74.67 450.09 74.49 450.92 74.25ZM440.97 80.01C441.74 80.72 441.79 80.78 442.09 80.31C442.21 80.13 442.09 79.83 442.21 79.42C441.74 79.65 441.32 79.83 440.97 80.01ZM438.97 74.55C438.26 74.49 437.91 74.43 437.44 74.43C437.71 75.26 438.22 75.3 438.97 74.55ZM454.57 89.09C454.92 89.33 454.92 90.1 455.27 90.28C454.92 90.04 454.92 89.33 454.57 89.09ZM442.09 56.03C442.68 56.35 443.21 56.27 443.68 55.79C443.03 55.91 442.56 55.97 442.09 56.03ZM439.91 16.44C439.5 16.73 438.56 16.44 438.62 17.56C439.15 17.09 439.56 16.73 439.91 16.44ZM436.32 70.1C436.85 70.63 437.32 70.81 437.67 69.8C437.14 69.92 436.73 69.98 436.32 70.1ZM449.45 69.62L448.98 68.61C449.21 68.85 449.21 69.39 449.45 69.62ZM447.92 72.83C447.27 73.18 446.97 73.54 447.86 74.02C447.86 73.54 447.86 73.18 447.92 72.83ZM447.09 88.32C446.62 88.2 446.33 88.08 446.09 88.02C446.03 88.32 445.97 88.56 445.8 89.03C446.33 88.74 446.62 88.56 447.09 88.32ZM452.74 87.55C452.98 87.67 453.16 87.97 453.45 88.08C453.21 88.02 452.98 87.67 452.74 87.55Z" fill="#FFFFFF" fill-opacity="1.000000" fill-rule="nonzero"/>
	<path id="path" d="M279.03 94.02C278.26 94.26 277.67 94.61 277.08 94.61C274.2 94.61 271.26 94.61 268.37 94.61C267.9 94.61 267.37 94.32 266.72 94.08C266.61 94.14 266.31 94.61 265.9 94.61C264.43 94.67 263.01 94.67 261.54 94.61C260.84 94.61 260.54 94.14 260.48 93.43C260.48 93.01 260.48 92.6 260.48 92.18C260.48 62.26 260.48 32.41 260.48 2.49C260.48 0.77 260.72 0 262.37 0C265.31 0 268.31 0 271.26 0C274.08 0 276.97 0 279.79 0C281.68 0 281.79 0.11 281.79 2.19C281.79 13.89 281.79 25.52 281.79 37.21C281.79 52.47 281.79 67.78 281.79 83.04C281.79 86.24 281.79 89.51 281.79 92.71C281.79 93.43 281.97 94.26 281.09 94.5C280.26 94.73 279.44 94.85 279.03 94.02ZM276.73 54.01C276.02 54.31 275.38 54.37 275.2 55.2C276.2 55.61 276.61 55.26 276.73 54.01ZM271.73 87.55C270.94 87.43 270.16 87.39 269.61 88.26C270.49 87.97 271.08 87.73 271.73 87.55ZM273.55 51.93C272.96 52.35 272.43 52.77 271.73 53.18C272.71 53.22 273.32 52.81 273.55 51.93ZM272.2 81.02C272.61 81.44 272.9 81.73 273.38 82.21C273.38 81.34 272.98 80.94 272.2 81.02ZM280.32 51.82C279.93 51.5 279.6 51.5 279.32 51.82L280.32 51.82ZM278.67 70.63C278.79 70.45 279.26 70.34 279.26 70.16C279.26 69.92 279.26 69.74 279.14 69.5C279.09 69.86 278.73 70.22 278.67 70.63ZM275.97 72.53C276.32 72.41 276.73 72.59 277.08 72.47C276.73 72.53 276.32 72.47 275.97 72.53Z" fill="#FFFFFF" fill-opacity="1.000000" fill-rule="nonzero"/>
	<path id="path" d="M20.19 87.67C20.25 88.2 20.31 88.68 20.42 89.21C20.6 89.92 20.36 90.46 19.78 90.87C19.19 91.29 18.66 90.99 18.19 90.58C18.48 91.35 18.25 91.82 18.6 92.65C19.66 93.13 20.25 91.88 21.25 91.11C21.37 91.82 21.48 92.18 21.48 92.6C21.48 94.73 20.72 95.39 18.72 94.61C18.13 94.38 17.72 94.61 17.13 94.61C16.13 94.79 15.01 95.21 14.12 94.08C13.71 93.54 12.77 93.66 12.12 94.2C11.18 94.97 10.3 95.03 9.36 94.32C8.83 93.96 8.36 93.54 7.71 93.07C7.59 93.72 7.47 94.14 7.35 94.61C6.59 94.61 5.53 94.79 4.82 94.79C4.29 94.79 3.71 94.91 3.41 94.14C3.35 93.9 2.65 93.84 2.12 93.66L2.12 94.67C1.29 94.91 0.64 94.85 0.23 93.9C0.76 92.83 1.12 91.88 0.29 90.58C-0.18 89.75 -0.12 88.32 0.7 87.25C1 86.84 1.23 86.36 1.53 85.89C1.11 84.94 -0.18 84.64 0.11 83.28C0.41 81.97 0.23 81.91 2.23 81.32C1.94 80.66 1.7 80.01 1.41 79.36L0.59 80.84C0.53 80.55 0.17 80.25 0.11 79.95C0.11 76.39 0.11 72.77 0.11 69.21C0.11 67.66 0.7 67.19 2.06 67.84C3.76 68.73 5.41 67.96 7.41 68.08C6.35 67.25 5.59 66.71 4.53 66.83C3.76 66.89 3.18 66.54 3.29 65.59C3.29 65.35 3.29 64.99 3.18 64.76C2.76 63.75 2.35 62.8 1.76 61.49C1.41 61.37 0.17 61.61 0.17 60.42C0.17 59.65 -0.18 58.82 0.64 57.99C1.11 57.51 1.23 56.45 0.64 55.55C0.29 55.02 0.17 54.25 0.17 53.6C0.17 36.44 0.17 19.23 0.17 2.07C0.17 0.23 0.35 0.11 2.23 0.11C8 0.11 13.77 0.11 19.48 0.11C21.37 0.11 21.48 0.23 21.48 2.07C21.48 3.91 21.48 5.69 21.48 7.53C21.48 8.25 21.48 8.96 20.48 9.08C19.72 8.25 18.95 7.41 18.01 6.35C18.01 6.94 17.89 7.24 18.01 7.47C18.3 8.07 18.78 8.54 19.01 9.08C19.19 9.49 19.13 9.97 19.19 10.44C19.78 10.2 20.48 9.91 21.37 9.49L21.37 51.64C20.46 51.76 19.5 51.54 18.48 50.98C17.54 51.76 16.6 52.53 16.48 54.07C15.42 53.95 14.48 53.89 13.36 53.77C13.3 53.89 13.12 54.19 12.95 54.61C15.01 54.61 16.42 55.79 18.13 56.62C17.95 56.15 17.66 55.73 17.54 55.26C17.42 54.72 17.54 54.13 17.54 53.42C18.54 53.42 19.48 53 20.07 54.01C20.54 54.9 20.13 55.67 19.25 56.27C21.07 56.86 21.6 58.05 21.54 59.83C21.54 61.43 21.31 62.8 20.01 63.87C19.83 64.04 19.72 64.34 19.54 64.52C20.84 65.41 20.66 63.87 21.37 63.33C21.37 64.1 21.48 64.64 21.48 65.23C21.48 69.03 21.48 72.83 21.48 76.69C21.48 77.87 21.48 79.06 19.72 79.77C20.54 79.95 20.89 80.07 21.25 80.13C21.6 82.03 21.54 87.85 21.13 89.09C20.78 88.56 20.54 88.2 20.19 87.67C19.6 87.43 19.01 87.07 18.48 86.84C18.89 87.55 19.48 88.02 20.19 87.67ZM7.88 64.46C8.3 63.33 8.65 62.32 9.06 61.19C9.71 61.25 10.18 61.31 10.71 61.37C10.48 60.78 10.12 60.48 9.71 60.24C8.59 59.59 8.36 59 8.77 57.51C8.41 57.34 8.06 57.1 7.53 56.8C7.41 57.57 7.18 58.17 7.3 58.7C7.41 59.24 7.88 59.77 8.3 60.48C7.47 60.6 6.88 60.72 6.24 60.84C5.47 60.96 4.71 62.08 4.94 62.74C5.18 63.51 5.82 63.57 6.47 63.39C6.77 63.33 7 63.27 7.35 63.27C7.53 63.69 7.71 64.1 7.88 64.46ZM10.42 9.79C12.01 10.5 13.48 11.09 14.95 11.69L14.95 8.6C13.36 8.25 11.95 8.66 10.42 9.79ZM10.3 57.93C11.3 58.58 12.24 59.24 13.18 59.89C12.54 58.76 12.18 57.28 11.48 56.09C11.06 56.68 10.71 57.28 10.3 57.93ZM2.82 73.13C2.82 71.46 4.35 71.82 5.41 71.29C4.76 70.81 4.23 70.45 3.47 69.86C3.59 71.76 2.35 71.05 1.59 71.11C1.06 72.29 2.17 72.47 2.82 73.13ZM4.06 56.8C3.29 57.28 2.65 57.63 1.94 58.05C2.65 58.52 3.29 59 4.12 59.53C4.41 59.24 4.76 58.94 5.12 58.64C4.71 57.93 4.47 57.4 4.06 56.8ZM8.18 69.92C8.83 70.51 9.36 71.05 9.95 71.58C10.36 70.75 10.71 70.04 11.12 69.15C9.95 69.15 9 69.15 8.18 69.92ZM15.18 74.49C16.01 74.19 16.71 73.96 17.42 73.72C18.25 73.54 18.19 73.13 17.89 72.53C16.01 73.13 16.01 73.18 15.18 74.49ZM13.01 51.16C14.83 51.34 16.01 50.69 16.36 49.56C15.36 50.03 14.3 50.57 13.01 51.16ZM11.83 88.32C12.71 88.56 13.18 88.44 13.3 87.79C13.48 86.9 13.42 86.13 12.24 85.35C12.95 86.6 13.18 87.55 11.83 88.32ZM18.95 41.96C19.6 41.13 19.66 40.3 18.95 39.53L18.95 41.96ZM12.36 67.31C13.24 67.9 13.83 68.38 14.48 68.79C13.65 68.61 14.07 66.71 12.36 67.31ZM20.95 58.88C19.72 58.76 19.72 58.76 18.95 59.41C19.72 59.65 20.31 59.83 20.95 58.88ZM5.18 91.59C5.41 91.94 5.59 92.95 6.18 92.54C6.35 92.42 6.3 91.94 6.35 91.65C5.94 91.65 5.59 91.59 5.18 91.59ZM19.66 48.85C20.44 48.65 20.66 48.12 20.31 47.24C20.07 47.9 19.83 48.37 19.66 48.85ZM15.48 63.51C15.18 63.69 14.6 63.45 14.24 63.57C14.36 63.81 14.54 63.98 14.65 64.22C14.95 63.98 15.18 63.75 15.48 63.51ZM20.25 74.43C19.54 74.43 19.36 74.79 19.42 75.38C20.07 75.2 20.48 74.97 20.25 74.43ZM3.47 49.26C3.35 49.74 2.82 50.21 3.47 50.92L3.47 49.26ZM1.82 52.29C2.29 52.71 2.53 53.66 3.59 53.12C2.82 52.77 2.35 52.53 1.82 52.29ZM10 53.83C9.71 53.48 9.47 53.18 9.12 52.71C9.04 53.54 9.34 53.91 10 53.83ZM9.59 66.77C10.26 66.62 10.55 66.3 10.48 65.82C10.18 66.12 9.95 66.42 9.59 66.77ZM6.3 79.3C6 79.42 5.65 79.24 5.35 79.36C5.59 79.24 6.06 79.42 6.3 79.3ZM15.36 91.88L16.07 92.3C15.83 92.3 15.6 91.88 15.36 91.88Z" fill="#FFFFFF" fill-opacity="1.000000" fill-rule="nonzero"/>
	<path id="path" d="M395.58 0.47C397.88 0.47 400 0.47 402.12 0.47C402.53 0.47 402.94 0.53 403.35 0.53C407.12 0.47 410.89 0.35 414.66 0.29C416.6 0.29 416.78 0.53 416.72 2.43C416.72 2.67 416.72 2.9 416.66 3.2C416.13 3.32 415.66 3.38 415.13 3.5C416.25 3.56 416.78 4.62 416.78 5.69C416.78 12.99 416.78 20.24 416.78 27.54C416.78 28.31 416.78 28.96 415.54 29.14C416.48 29.56 416.95 30.09 416.78 30.92C416.78 31.16 416.78 31.4 416.78 31.63C416.78 49.56 416.78 67.55 416.78 85.47C416.78 86.07 416.78 86.72 416.66 87.73C416.13 87.19 415.78 87.02 415.6 86.66C412.6 81.38 409.59 76.09 406.71 70.69C406.24 69.8 405.59 69.09 405.06 68.26C402.59 64.1 400.12 59.89 397.7 55.73C396.76 54.07 396.29 52.29 396.29 50.39C396.29 44.87 396 39.35 396.17 33.83C396.17 31.99 395.82 30.09 396.17 28.13C396.94 27.89 397.7 27.66 398.53 27.42C398.7 26.59 398.82 25.7 399 24.81C398.65 24.69 398.23 24.57 397.59 24.39C397.76 24.81 397.88 25.04 397.94 25.22C398.12 26.17 397.76 26.65 397 26.77C396.29 26.83 395.82 26.41 395.76 25.64C395.76 25.34 395.64 24.98 395.76 24.75C396.35 23.92 396.06 23.09 395.76 22.25C395.64 15.49 395.53 8.25 395.47 1.48C395.47 1.12 395.47 0.88 395.58 0.47ZM413.01 17.09C413.19 18.04 413.19 18.04 414.07 18.04C413.72 17.86 413.42 17.27 413.01 17.09ZM405.89 9.85C405.47 9.85 405 9.43 404.59 9.49L405.89 9.85ZM398.41 36.2C398.82 36.5 399.12 37.09 400 36.62C399.23 36.44 398.82 36.32 398.41 36.2ZM401.88 10.62C401.88 10.8 401.77 11.51 401.88 11.63C402.06 11.45 401.88 10.8 401.88 10.62ZM411.18 8.3C410.83 8.54 410.24 8.42 409.89 8.66C410.24 8.42 410.83 8.54 411.18 8.3Z" fill="#FFFFFF" fill-opacity="1.000000" fill-rule="nonzero"/>
	<path id="path" d="M83.82 23.74C83.29 23.2 82.88 22.67 82.82 21.78C82.82 14.89 82.65 8.07 82.53 1.18C82.53 0.94 82.59 0.71 82.7 0.29C84.82 0.29 86.94 0.05 89.06 0.35C89.53 0.41 90 0.47 90.42 0.47C94.18 0.41 97.95 0.29 101.72 0.23C103.66 0.23 103.84 0.41 103.78 2.31C103.78 2.55 103.78 2.78 103.72 3.08C103.25 3.2 102.84 3.32 101.95 3.5C102.78 3.85 103.19 4.03 103.72 4.27C103.72 4.8 103.78 5.34 103.78 5.87C103.78 12.99 103.78 20.06 103.78 27.18C103.78 27.95 103.96 28.84 102.72 29.2C103.54 29.56 103.9 30.03 103.78 30.8C103.78 31.16 103.78 31.51 103.78 31.87C103.78 49.68 103.78 67.55 103.78 85.35C103.78 86.01 103.78 86.66 103.37 87.43C103.13 87.13 102.84 86.9 102.66 86.6C99.72 81.38 96.77 76.09 93.83 70.81C93.6 70.39 93.65 69.74 93.42 69.39C93.18 68.97 92.54 68.85 92.3 68.44C89.71 64.1 87.18 59.77 84.65 55.44C83.76 53.95 83.47 52.29 83.41 50.57C83.41 45.17 83.23 39.77 83.18 34.36C83.18 33.71 83.41 33 83.47 32.35C83.47 32.11 83.47 31.81 83.47 31.51C83.35 30.45 83.18 29.38 83.06 28.31C84.12 27.95 84.94 27.72 85.77 27.48C85.88 26.65 86.06 25.82 86.18 24.93C85.59 24.75 84.94 24.51 84.24 24.33C84.06 24.15 84 23.92 83.82 23.74ZM93.12 9.85C92.59 9.31 92.06 9.14 91.71 9.97L93.12 9.85ZM101.07 18.16C100.72 17.86 100.54 17.03 99.54 17.45C100.25 17.74 100.66 17.98 101.07 18.16ZM98.25 8.36C97.95 8.6 97.36 8.54 97.07 8.78C97.42 8.54 97.89 8.6 98.25 8.36ZM85.41 36.26C85.84 36.74 86.37 36.84 87 36.56C86.3 36.44 85.88 36.32 85.41 36.26ZM100.6 25.64C100.95 25.64 101.31 25.82 101.66 25.82L100.6 25.64Z" fill="#FFFFFF" fill-opacity="1.000000" fill-rule="nonzero"/>
	<path id="path" d="M416.25 94.85C413.71 94.67 411.18 95.21 408.65 94.49C408.36 94.44 408 94.26 407.83 94.32C406.12 95.33 404.3 94.67 402.53 94.85C401.23 94.97 399.94 94.79 398.7 94.85C397.53 94.97 396.76 94.55 396.11 93.49C394.17 90.34 392.17 87.25 390.29 84.11C385.28 75.68 380.28 67.19 375.27 58.76C373.04 55.02 370.8 51.34 368.5 47.72C367.09 45.52 366.03 43.09 364.5 41.01C363.32 39.47 363.32 38.93 363.15 37.63C364.09 37.57 364.91 37.33 365.91 38.04C366.56 38.52 367.68 38.28 368.74 38.4C368.92 38.04 369.15 37.69 369.39 37.21C369.8 37.21 370.15 37.33 370.57 37.39C371.8 37.57 373.04 37.63 374.04 36.68C374.69 36.09 375.27 36.26 375.98 36.8C376.86 34.6 378.81 34.66 380.69 34.36C381.69 35.25 382.57 36.32 382.87 37.75C382.24 38.62 382.16 39.33 382.63 39.88C382.87 39.53 383.1 39.05 383.4 38.93C384.16 38.76 384.28 39.53 384.58 40C391.05 50.98 397.53 61.97 404 72.95C407.89 79.54 411.77 86.13 415.66 92.77C415.95 93.31 415.95 94.26 416.25 94.85ZM384.63 44.22C383.77 44.53 383.36 45.09 383.4 45.88C383.93 45.17 384.28 44.69 384.63 44.22ZM396.11 91.82L397.41 92.3C397.06 92.24 396.53 91.88 396.11 91.82ZM387.17 50.63C387.75 50.47 387.97 50.11 387.81 49.56C387.58 49.98 387.4 50.27 387.17 50.63ZM376.92 42.38C377.33 42.44 377.69 43.03 378.1 43.09C377.69 42.97 377.33 42.44 376.92 42.38Z" fill="#FFFFFF" fill-opacity="1.000000" fill-rule="nonzero"/>
	<path id="path" d="M55.8 38.46C56.04 37.98 56.27 37.63 56.51 37.21C57.22 37.33 57.8 37.39 58.45 37.45C59.33 37.51 60.22 37.45 60.92 36.86C61.63 36.2 62.34 36.14 63.16 36.86C63.98 34.54 66.04 34.72 67.99 34.42C68.46 35.08 69.05 35.79 69.58 36.56C69.99 37.21 70.28 37.87 69.46 38.58C68.99 38.93 69.05 39.53 69.64 39.88C69.99 39.59 70.28 38.99 70.64 38.99C70.93 38.99 71.34 39.47 71.58 39.88C74.23 44.34 76.88 48.85 79.53 53.36C87.24 66.48 94.95 79.54 102.66 92.65C103.01 93.25 103.31 93.96 103.78 94.91C100.89 94.73 98.36 95.27 95.83 94.49C95.54 94.38 95.07 94.26 94.83 94.44C94.01 95.09 93.06 94.85 92.12 94.85C89.89 94.85 87.71 94.85 85.47 94.85C84.53 94.85 83.94 94.55 83.47 93.78C82.35 91.94 81.11 90.16 80 88.32C74.05 78.35 68.16 68.44 62.28 58.46C60.04 54.72 57.74 51.1 55.51 47.42C54.57 45.88 53.8 44.22 52.86 42.67C52.62 42.26 52.15 41.96 51.92 41.55C51.27 40.36 50.68 39.17 49.97 37.93C50.8 37.33 51.74 37.27 52.15 37.63C53.27 38.52 54.57 38.04 55.8 38.46ZM71.81 44.1C70.91 44.3 70.48 44.87 70.52 45.82C71.05 45.17 71.4 44.69 71.81 44.1ZM63.98 42.32C64.28 42.38 64.69 43.03 65.1 43.09L63.98 42.32ZM84.53 92.42C84.06 92 83.65 91.47 82.94 92.24C83.59 92.3 84.06 92.36 84.53 92.42ZM75.23 49.74C75.11 50.09 74.58 50.33 74.46 50.63C74.58 50.27 75.11 50.03 75.23 49.74Z" fill="#FFFFFF" fill-opacity="1.000000" fill-rule="nonzero"/>
	<path id="path" d="M47.38 42.14C48.39 44.81 48.27 45.82 46.8 46.59C47.21 46.83 47.56 47.01 48.03 47.24C48.27 62.98 48.44 78.76 48.68 94.85C41.56 94.79 34.67 94.97 27.55 94.67C27.55 94.08 27.43 93.49 27.43 92.89C27.43 88.32 27.43 83.75 27.43 79.18C27.43 67.9 27.43 56.68 27.43 45.4C27.43 44.93 27.43 44.45 27.43 43.98C27.55 42.85 28.19 42.02 29.31 41.67C30.43 41.37 31.55 40.89 32.67 40.95C33.55 40.95 34.49 41.61 35.32 42.08C35.85 42.38 36.2 42.91 37.02 42.67C37.32 42.61 37.85 43.03 38.08 43.39C38.38 43.74 38.44 44.22 38.61 44.81C39.38 44.34 39.56 43.92 39.08 43.27C38.73 42.73 38.32 42.26 37.91 41.67C36.91 41.49 35.85 41.37 34.73 41.19C35.02 39.94 35.67 39.53 36.67 39.59C38.02 39.59 39.44 39.29 40.67 40.18C40.67 39.77 41.26 39.29 41.26 38.82C41.79 38.58 42.26 38.34 42.91 37.98C43.03 38.52 43.15 38.93 43.26 39.47C43.79 39.47 44.38 39.41 45.03 39.35C45.62 40.42 45.32 42.32 47.38 42.14ZM32.26 48.79C33.02 48.25 33.67 47.78 34.37 47.24C33.43 46.12 32.37 46.12 31.08 46.35C31.49 47.13 31.84 47.96 32.26 48.79ZM39.79 47.96C38.73 48.19 37.85 48.43 36.85 48.67L36.85 50.21C37.49 49.8 37.97 49.5 38.44 49.2C38.91 48.91 39.73 49.03 39.79 47.96ZM42.03 44.04C43.68 42.67 43.73 42.2 42.38 41.49C42.26 42.26 42.2 42.97 42.03 44.04ZM42.62 50.09C41.97 49.98 41.38 49.26 40.73 50.09L42.62 50.09ZM40.09 51.87C39.38 52.11 38.91 52.29 38.08 52.59C39.14 53.06 39.61 52.88 40.09 51.87ZM31.14 57.87C31.14 57.51 31.49 57.22 31.43 56.98C31.43 57.28 31.08 57.57 31.14 57.87Z" fill="#FFFFFF" fill-opacity="1.000000" fill-rule="nonzero"/>
	<path id="path" d="M351.43 44.75C352.2 44.34 352.43 43.86 351.9 43.21C351.49 42.67 351.14 42.2 350.79 41.61C349.79 41.43 348.73 41.31 347.67 41.13C347.9 40 348.43 39.53 349.26 39.53C350.67 39.53 352.14 39.11 353.43 40.06C353.55 40.18 353.85 40.06 354.2 40.06C354.2 39.65 354.08 39.23 354.08 38.82C354.61 38.58 355.14 38.34 355.73 38.04C355.91 38.58 356.03 38.99 356.2 39.53C356.73 39.53 357.32 39.47 357.91 39.41C358.44 40.6 358.26 42.44 360.56 42.2C360.73 43.56 360.91 44.81 361.09 46.06C360.5 46.24 360.15 46.35 359.56 46.59C360.09 46.83 360.5 47.07 360.97 47.3C361.21 63.03 361.38 78.82 361.62 94.73C359.73 95.15 358.03 94.91 356.32 94.91C354.55 94.91 352.85 94.91 351.08 94.91C349.31 94.91 347.61 94.91 345.84 94.91C344.13 94.91 342.37 94.73 340.54 94.67C340.54 94.2 340.43 93.66 340.43 93.19C340.43 77.1 340.43 60.96 340.43 44.87C340.43 42.61 341.13 41.78 343.37 41.55C343.66 41.55 344.02 41.55 344.25 41.43C345.96 40.36 347.2 41.43 348.55 42.26C348.84 42.44 349.26 42.79 349.55 42.73C350.73 42.55 351.08 43.21 351.37 44.16C351.37 44.34 351.32 44.45 351.43 44.75ZM347.25 47.24C345.78 46 345.72 46 344.02 46.53C344.37 47.24 344.72 47.96 345.13 48.79C345.84 48.25 346.55 47.72 347.25 47.24ZM353.44 46.89C352.79 47.36 352.32 47.84 351.79 48.08C351.14 48.37 350.37 48.43 349.61 48.67C349.61 49.14 349.67 49.56 349.73 50.27C351.08 49.08 352.85 48.91 353.44 46.89ZM354.97 43.68C355.97 43.56 356.08 42.91 356.14 42.26C356.14 41.72 355.91 41.43 355.14 41.49C355.14 42.2 355.02 42.91 354.97 43.68ZM355.38 50.03C354.79 50.03 354.26 49.2 353.55 50.03L355.38 50.03ZM352.85 51.76C352.14 52.05 351.67 52.23 350.9 52.53C351.96 52.94 352.43 52.76 352.85 51.76ZM343.96 58.17C344.19 57.51 344.31 57.22 344.49 56.62C344.02 56.86 343.66 56.92 343.66 57.04C343.66 57.28 343.84 57.51 343.96 58.17Z" fill="#FFFFFF" fill-opacity="1.000000" fill-rule="nonzero"/>
	<path id="path" d="M115.91 82.68C115.44 83.71 114.87 84.4 114.2 84.76C114.79 85.18 115.55 85.41 115.96 85.95C116.32 86.48 116.32 87.25 116.44 87.97C115.61 88.14 114.91 88.26 114.2 88.44L114.2 90.87C114.79 91.05 115.38 91.29 116.02 91.53L116.02 93.6C113.9 94.14 113.9 94.14 113.02 92C112.32 91.82 111.61 91.65 110.84 91.47C110.84 90.93 110.78 90.52 110.73 90.1C110.73 89.33 111.02 88.5 110.2 87.91C110.02 87.79 110.08 87.37 110.08 87.08C110.08 86.36 110.08 85.65 110.08 84.94C110.08 83 110.73 81.32 112.02 79.89C111.67 79.83 111.43 79.77 111.2 79.71C110.9 79.71 110.61 79.71 110.14 79.66C110.78 78.41 110.78 77.34 110.14 76.21C109.96 75.92 110.08 75.38 110.08 75.03C110.08 69.27 110.08 63.51 110.08 57.81C110.08 57.1 110.37 56.39 110.49 55.67C110.37 55.26 110.08 54.78 110.08 54.25C110.08 52.35 110.08 50.51 110.08 48.61C110.08 47.3 110.08 47.3 111.55 46.83C111.2 46.47 110.9 46.12 110.67 45.76C110.43 45.4 110.14 44.93 110.14 44.51C110.14 40.48 110.14 36.44 110.14 32.41C111.61 31.81 110.96 33.65 112.02 33.71C112.14 33.18 112.2 32.58 112.32 31.87C112.73 31.75 113.2 31.57 113.96 31.34C113.14 30.98 112.49 30.74 111.9 30.45C111.67 28.84 112.85 28.07 113.61 26.94C114.73 27.72 114.79 29.02 115.49 29.97C116.55 29.26 115.73 28.55 115.44 27.89C116.5 27.24 117.38 27.66 118.14 28.31C118.44 28.55 118.79 28.96 118.73 29.2C118.61 29.56 118.2 29.97 117.85 30.15C117.5 30.33 117.08 30.27 116.67 30.27C116.44 30.86 116.26 31.46 115.96 31.93C115.49 32.64 115.49 33.3 115.79 34.07C115.96 34.54 116.26 35.02 115.73 35.49C115.08 35.97 114.79 35.43 114.38 35.14C113.43 35.85 112.96 36.5 113.73 37.45C114.14 37.98 114.79 38.34 115.44 38.58C116.79 39.11 116.85 39.05 116.85 40.48C116.85 40.72 116.85 40.95 116.85 41.31C116.38 41.55 115.91 41.78 115.38 42.02C115.49 43.51 115.61 43.56 117.38 43.86C117.5 43.39 117.67 42.85 117.79 42.38C118.26 42.2 118.73 41.96 119.32 41.72C119.03 41.43 118.91 41.13 118.67 41.01C117.79 40.66 117.67 40.12 118.08 39.35C118.44 38.64 118.97 38.46 119.85 38.76C121.03 39.17 121.32 40 120.85 41.19C120.73 41.49 120.73 41.78 120.62 42.02C120.44 42.44 119.85 43.03 120.03 43.27C120.26 43.8 120.85 44.16 121.32 44.57C122.32 45.46 123.26 46.41 124.27 47.24C124.8 47.66 125.44 47.9 126.09 48.19L126.09 51.58C126.86 51.28 127.5 51.04 128.39 50.75C127.8 50.27 127.44 49.98 127.03 49.62C128.09 48.91 129.15 48.97 130.21 49.5C130.5 48.97 130.74 48.49 130.98 48.02C130.98 48.43 131.45 48.85 131.45 49.26C131.39 52.05 131.21 54.9 131.21 57.69C131.21 58.94 131.45 60.13 131.45 61.37C131.45 68.44 131.45 75.44 131.45 82.5C131.45 83.69 130.86 84.82 130.5 86.07C130.62 86.07 130.92 86.18 131.45 86.36C131.45 88.2 131.45 90.1 131.45 92C131.45 92.95 130.09 94.61 129.21 94.85C127.86 95.21 127.15 94.61 127.03 93.13C125.62 92.6 124.91 95.15 123.26 94.02C122.56 92.6 124.09 92.6 124.74 91.94C124.56 91.71 124.38 91.53 124.15 91.23C122.97 92.48 121.91 94.02 119.97 92.71C120.2 90.99 120.26 91.17 121.97 90.46C123.32 89.92 124.97 89.45 125.38 87.43C125.09 87.31 124.8 87.25 124.32 87.08L124.32 85.18C125.09 85.35 125.74 85.47 126.5 85.65C126.5 85.29 126.56 84.88 126.62 84.34C127.44 83.81 128.39 83.22 129.5 82.5C129.33 81.73 129.09 80.66 128.86 79.48C127.5 80.49 127.27 81.02 127.68 82.45C126.27 83.1 125.38 84.7 123.62 84.76C123.21 85.89 121.85 86.6 120.85 86.84C120.32 86.36 119.85 85.89 119.26 85.53C118.85 85.23 118.44 85 118.61 84.46C118.79 83.81 119.26 83.51 119.97 83.63C120.26 83.69 120.56 83.63 120.85 83.69C121.03 82.92 121.26 82.21 121.44 81.32C120.97 81.32 120.62 81.32 120.38 81.44C120.09 81.61 119.91 81.97 119.61 82.21C119.32 81.85 119.03 81.55 118.73 81.2C118.56 81.79 118.2 82.21 117.85 82.5C117.44 82.8 116.55 82.62 115.91 82.68ZM112.73 72.12C113.02 71.11 113.9 70.81 114.79 70.51C115.26 70.34 115.79 70.28 116.26 70.16C115.55 70.28 114.67 70.22 113.96 70.16C113.32 70.16 112.61 69.86 111.73 69.62C112.14 70.69 112.49 71.34 112.73 72.12C112.26 72.12 111.67 71.82 111.43 72.77C111.9 72.53 112.37 72.29 112.73 72.12ZM115.85 50.98C116.49 49.68 117.14 48.43 117.73 47.13C117.32 47.3 116.44 47.07 116.2 47.42C115.73 48.19 114.73 48.79 115.32 49.92C114.91 50.09 114.55 50.27 114.43 50.27C114.61 51.58 114.79 52.71 115.02 54.01C113.73 54.25 112.61 54.43 111.55 54.61C112.79 56.09 114.32 54.31 115.55 55.44C115.67 54.61 115.73 53.95 115.79 53.3C116.32 53.18 116.73 53.12 117.14 53C117.14 52.23 117.2 51.58 117.26 50.93C120.03 50.57 120.26 50.75 120.62 52.82C121.03 52.77 121.56 52.47 121.79 52.65C122.32 53 122.97 53.42 122.91 54.31C122.91 55.02 122.91 55.79 122.91 56.62C123.97 56.03 122.91 54.31 124.44 54.19C124.27 53.6 124.09 53.06 123.91 52.59C123.38 52.29 122.91 52.05 122.38 51.76C122.79 50.75 123.15 49.8 123.5 48.79C123.15 49.2 122.26 49.56 121.68 49.2C121.09 48.85 121.26 48.31 121.32 47.78C121.32 47.54 121.2 47.3 121.03 46.77C120.38 48.85 119.38 49.98 117.44 49.68C116.91 50.09 117.26 51.76 115.85 50.98ZM124.97 70.1C125.5 70.4 125.91 70.16 126.03 69.62C126.15 68.97 126.56 68.85 127.09 68.73C128.21 68.5 128.21 68.44 127.91 67.07C126.03 66.48 124.85 66.42 123.68 66.77C124.44 67.01 125.09 67.19 125.85 67.49C125.5 68.44 125.27 69.27 124.97 70.1ZM128.62 59.53C127.27 60.84 127.21 61.49 128.21 63.33C128.92 62.62 129.56 61.97 130.45 61.14C129.86 60.6 129.27 60.13 128.62 59.53ZM116.97 57.51C118.03 57.63 118.32 56.86 118.32 56.21C118.32 55.08 119.03 55.14 119.79 55.08C119.61 53.77 118.67 54.13 117.85 54.07C117.73 54.9 117.61 55.73 116.49 55.56C116.67 56.33 116.85 56.92 116.97 57.51ZM128.92 76.09C128.27 76.81 127.74 77.34 127.15 77.99C127.86 78.11 128.56 78.17 129.33 78.29C129.45 77.4 129.68 76.75 128.92 76.09ZM113.37 88.26C113.14 87.43 112.9 86.78 112.73 86.07C111.67 86.48 111.84 87.37 111.9 88.26L113.37 88.26ZM116.08 62.32C115.32 61.25 114.49 61.91 113.61 61.85C114.2 62.84 115.02 62.99 116.08 62.32ZM130.74 72.29C130.33 71.34 130.03 70.51 129.68 69.74C128.92 70.57 129.03 70.81 130.74 72.29ZM113.37 58.64L113.37 56.39C112.79 57.04 112.43 57.45 111.96 58.05C112.49 58.29 112.79 58.35 113.37 58.64ZM123.97 61.79C123.09 61.73 122.38 61.91 121.79 62.62C122.85 63.09 123.5 62.74 123.97 61.79ZM128.39 91.05C129.39 90.81 130.21 90.93 130.56 89.92C129.56 89.51 129.03 89.92 128.39 91.05ZM111.37 37.63C111.96 37.63 112.55 37.51 112.55 36.98C112.26 37.21 111.61 37.39 111.37 37.63ZM114.91 74.73C114.49 75.2 113.26 74.97 113.67 76.21C114.14 75.62 114.55 75.2 114.91 74.73ZM125.27 59.59C124.85 59.59 124.5 59.71 123.85 59.83C124.56 60.6 124.91 60.36 125.27 59.59ZM126.86 65.11C126.86 64.82 127.27 64.58 127.33 64.28L126.86 65.11ZM115.38 78.71L114.49 78.35L115.38 78.71Z" fill="#FFFFFF" fill-opacity="1.000000" fill-rule="nonzero"/>
	<path id="path" d="M188.19 91.88C187.06 91.73 186.02 90.95 186.02 89.81C186.02 89.15 186.19 88.44 185.49 87.91C185.31 87.79 185.37 87.37 185.37 87.08C185.37 86.48 185.37 85.89 185.37 85.29C185.37 84.23 185.13 83.1 185.43 82.15C185.66 81.32 186.55 80.61 187.19 79.77C186.61 79.71 186.02 79.66 185.37 79.6C185.96 78.47 186.25 77.46 185.49 76.45C185.31 76.15 185.37 75.68 185.37 75.26C185.37 69.39 185.37 63.51 185.37 57.69C185.37 57.16 185.6 56.62 185.72 56.03C184.66 53.54 185.6 50.57 185.43 48.02C185.37 47.19 185.96 46.95 186.9 47.01C186.49 46.53 186.19 46.18 185.96 45.82C185.72 45.41 185.43 44.87 185.43 44.4C185.43 40.54 185.43 36.68 185.43 32.76C186.72 32.46 186.13 33.53 187.14 33.71C187.25 33.12 187.43 32.46 187.61 31.75C188.02 31.63 188.49 31.46 189.2 31.22C188.37 30.86 187.72 30.57 187.08 30.33C186.84 28.73 188.02 27.89 188.9 26.65C189.61 27.89 190.14 28.9 190.73 30.03C191.2 29.2 191.55 28.43 190.2 28.01C191.55 27.12 192.49 27.66 193.38 28.31C194.08 28.84 193.96 29.79 193.14 30.03C192.73 30.15 192.26 30.15 191.84 30.21C191.2 31.81 189.96 33.24 191.26 34.84C190.37 36.44 189.78 34.96 189.08 34.84C188.25 35.73 188.19 36.68 189.02 37.51C189.43 37.93 189.96 38.22 190.49 38.4C191.96 38.93 192.02 38.88 192.02 40.42C192.02 40.66 192.02 40.89 192.02 41.07C191.49 41.31 190.31 41.43 190.43 42.38C190.43 43.03 191.2 43.45 192.55 43.62C192.67 43.15 192.73 42.56 193.02 42.2C193.32 41.84 193.85 41.78 194.43 41.49C194.14 41.19 194.02 40.89 193.79 40.78C192.9 40.42 192.96 39.71 193.26 39.05C193.55 38.34 194.2 38.22 195.02 38.58C196.08 39.05 196.44 39.83 195.97 40.95C195.67 41.61 195.32 42.26 194.96 43.09C196.32 44.34 198.08 46.12 199.5 47.3C199.91 47.66 200.56 47.72 201.15 47.96L201.15 51.4C201.91 51.16 202.56 50.93 203.44 50.57C202.91 50.09 202.56 49.8 202.15 49.44C203.15 48.67 204.27 48.73 205.32 49.32C205.62 48.73 205.85 48.19 206.15 47.6C206.38 47.96 206.5 48.08 206.5 48.25C206.5 50.81 206.5 53.42 206.38 55.97C206.38 56.68 206.21 57.4 206.21 58.05C206.27 65.05 206.38 72.12 206.5 79.12C206.5 79.83 206.5 80.55 206.5 81.26C206.56 82.8 206.38 84.29 205.09 85.59C205.56 85.77 205.91 85.89 206.33 86.07C206.38 87.91 206.5 89.75 206.5 91.59C206.5 92.48 205.15 94.26 204.32 94.5C203.03 94.91 202.26 94.32 201.97 92.71C200.62 92.48 199.97 94.67 198.38 93.66C197.73 92.24 199.09 92.12 199.91 91.59C199.61 91.29 199.44 91.11 199.2 90.81C198.14 92.18 197.08 93.55 195.14 92.36C195.2 90.46 195.26 90.64 196.91 90.04C198.32 89.51 200.03 89.03 200.38 87.02C200.09 86.84 199.56 86.78 199.44 86.54C199.26 86.07 199.32 85.53 199.26 85.06C200.26 84.4 200.85 85.06 201.68 85.65C201.68 85.06 201.62 84.58 201.56 84.05C202.03 83.69 202.68 83.45 203.03 82.98C203.44 82.33 203.97 82.62 204.68 82.56C204.38 81.38 204.15 80.31 203.91 79.12C202.56 80.07 202.38 80.55 202.73 82.09C201.32 82.8 200.38 84.34 198.38 84.52C198.08 85.71 197.14 86.3 195.85 86.48C195.38 86.07 194.85 85.53 194.32 85.18C193.79 84.88 193.49 84.52 193.73 83.93C193.96 83.34 194.38 83.16 194.96 83.28C195.2 83.28 195.44 83.34 195.73 83.4C195.97 82.68 196.2 81.97 196.44 81.26C196.02 80.84 195.49 80.78 195.26 81.26C194.73 82.45 194.32 82.03 193.9 81.26C193.79 81.08 193.67 80.84 193.49 80.49C193.26 81.26 193.08 81.79 192.9 82.45L191.14 82.45C190.49 83.22 190.73 84.58 189.2 84.64C190.9 85.06 191.67 86.07 191.49 87.85C190.84 87.97 190.14 88.14 189.37 88.32L189.37 90.76C189.96 90.93 190.55 91.17 191.26 91.35L191.26 93.43C189.84 93.74 188.82 93.31 188.19 91.88ZM192.43 51.28C193.08 51.16 193.79 50.93 194.43 50.93C195.44 50.93 195.67 51.34 195.73 52.47C196.2 52.35 196.91 52.65 197.14 52.77C197.67 53.18 198.44 53.6 198.2 54.61C198.08 55.32 198.2 56.03 198.2 57.04C199.14 56.15 198.26 54.55 199.73 54.37C199.56 53.77 199.44 53.3 199.32 52.77C198.79 52.47 198.26 52.17 197.67 51.82C198.08 50.81 198.5 49.92 198.97 48.79C198.5 48.97 198.26 48.97 198.2 49.09C197.91 49.62 197.5 49.68 197.02 49.44C196.5 49.2 196.5 48.79 196.61 48.25C196.61 48.02 196.55 47.66 196.5 47.42C195.79 49.32 194.49 50.15 192.49 50.04C192.49 50.57 192.43 50.87 192.43 51.28C191.96 51.28 191.61 51.22 191.14 51.16C191.37 50.45 191.37 49.68 191.79 49.2C192.37 48.55 192.79 47.96 192.79 46.83C192.2 47.07 191.61 47.13 191.43 47.42C191.02 48.19 189.9 48.73 190.61 49.86C190.2 50.04 189.78 50.27 189.61 50.33C189.84 51.58 190.08 52.65 190.37 53.95C189.14 54.19 187.96 54.43 186.72 54.67C187.31 55.79 188.08 55.2 188.72 55.2C189.43 55.2 190.14 55.2 190.9 55.2C190.9 54.67 190.96 54.07 191.02 53.42C191.49 53.3 191.96 53.18 192.37 53.06L192.43 51.28ZM203.21 67.19C201.44 66.6 200.09 66.48 198.97 66.83C199.73 67.07 200.32 67.31 201.09 67.55C200.79 68.5 200.5 69.33 200.2 70.22C201.38 70.57 201.09 69.39 201.56 69.03C202.09 68.91 202.68 68.73 203.21 68.61C203.21 68.32 203.32 68.08 203.26 67.84C203.26 67.61 203.26 67.37 203.21 67.19ZM203.91 59.59C202.73 60.6 202.44 61.97 203.03 62.98C203.26 63.39 203.68 63.39 203.97 62.98C204.38 62.44 204.85 61.85 205.5 61.14C205.03 60.72 204.5 60.19 203.91 59.59ZM194.91 55.2C194.85 53.83 193.9 54.25 193.49 54.13C192.9 54.78 192.43 55.38 191.79 56.03C191.9 56.45 192.08 57.04 192.2 57.57C193.08 57.69 193.38 57.1 193.43 56.56C193.49 55.61 193.79 55.02 194.91 55.2ZM187.19 69.74C187.37 70.45 187.55 71.11 187.66 71.7C189.02 71.17 190.26 70.57 191.55 70.04C190.84 69.98 190.2 70.22 189.49 70.22C188.78 70.22 188.08 69.92 187.19 69.74ZM204.56 78.41C204.56 77.52 205.09 76.69 204.03 76.27C203.5 76.87 202.97 77.46 202.38 78.11C203.15 78.23 203.79 78.29 204.56 78.41ZM188.84 62.09C189.73 63.57 189.84 63.57 191.31 62.38C190.61 61.37 189.73 61.97 188.84 62.09ZM187.96 86.24C186.78 86.72 187.19 87.55 187.14 88.38L188.61 88.38C188.37 87.61 188.19 87.02 187.96 86.24ZM205.91 72.18C205.56 71.4 205.21 70.57 204.85 69.74C204.5 70.3 204.85 71.11 205.91 72.18ZM197.08 62.38C198.03 62.74 198.73 62.92 199.32 61.67C198.38 61.97 197.73 62.14 197.08 62.38ZM203.79 90.99C204.74 91.11 205.44 90.99 205.97 90.1C204.91 89.57 204.32 90.1 203.79 90.99ZM188.61 56.92C188.37 57.4 187.78 57.63 187.55 58.11C187.84 58.29 188.14 58.4 188.61 58.64L188.61 56.92ZM190.2 74.91C189.84 75.38 188.55 75.08 188.9 76.39C189.43 75.8 189.84 75.38 190.2 74.91ZM187.08 38.46C187.49 37.93 187.72 37.57 188.08 37.04C186.72 36.8 186.78 37.33 187.08 38.46ZM200.79 59.59C200.14 59.77 199.85 59.83 199.5 59.95C199.97 60.13 200.38 60.48 200.79 59.59ZM203.68 55.38C203.68 55.38 203.97 54.84 204.21 54.37C203.74 54.57 203.56 54.9 203.68 55.38ZM189.08 80.31C188.9 80.13 189.08 79.66 188.9 79.48C188.9 79.48 189.2 80.25 189.08 80.31Z" fill="#FFFFFF" fill-opacity="1.000000" fill-rule="nonzero"/>
	<path id="path" d="M210.8 2.61C210.21 1.66 210.27 0.35 211.27 0.35C213.8 0.29 216.39 0.35 218.92 0.35C218.81 0.94 219.1 1.89 218.92 2.67C220.39 2.37 219.92 1.12 220.45 0.35L230.64 0.35C230.93 0.83 231.29 1.36 231.7 2.07C231.93 1.66 232.05 1.42 232.17 1.18C232.23 0.94 232.29 0.65 232.34 0.29C234.82 0.29 237.17 0.29 239.53 0.29C239.82 0.29 240.17 0.47 240.41 0.65C240.7 0.83 240.94 1.06 241.29 1.42C241.47 1 241.59 0.71 241.7 0.29C245.35 0.29 249 0.29 252.65 0.29C253.71 0.29 254.07 0.71 254.07 1.83C254.07 6.64 254.07 11.45 254.07 16.26C254.07 17.33 253.71 17.74 252.6 17.74C250.3 17.74 247.94 17.74 245.65 17.74C245.3 17.74 244.88 17.39 244.53 17.21C244.06 17.39 243.47 17.74 242.88 17.74C237.29 17.74 231.7 17.86 226.16 17.74C224.81 17.74 223.51 17.74 222.22 17.74C218.81 17.92 215.39 17.8 211.92 17.74C210.51 17.74 210.21 17.45 210.21 15.96C210.21 12.22 210.21 8.48 210.21 4.74C210.21 4.09 210.56 3.44 210.8 2.61ZM216.16 13.17C215.51 12.22 214.98 11.45 214.45 10.74C214.63 11.63 214.57 12.64 214.74 13.59C215.16 13.47 215.45 13.41 216.16 13.17ZM238.41 7.12C239.55 7.28 240.31 6.88 240.7 5.93C239.94 6.11 239.23 6.23 238.47 6.41C238.47 6.7 238.41 6.88 238.41 7.12ZM231.34 15.55C231.93 15.13 232.76 14.83 232.11 13.65C231.76 14.48 231.58 15.01 231.34 15.55ZM224.57 6.11C224.52 6.52 224.46 6.82 224.4 7.24C225.03 6.88 225.08 6.5 224.57 6.11ZM216.86 16.08C216.75 16.14 216.22 15.72 216.27 15.78C216.27 15.96 216.75 15.96 216.86 16.08ZM214.39 5.4C214.27 4.68 214.21 4.39 214.15 4.09C213.92 4.21 213.68 4.33 213.51 4.45C213.68 4.62 213.92 4.86 214.39 5.4ZM223.93 13.47C224.16 13.47 224.4 13.77 224.63 13.71C224.4 13.71 224.16 13.47 223.93 13.47ZM213.45 10.5C213.15 10.44 213.04 9.97 212.74 9.91C212.98 9.97 213.21 10.44 213.45 10.5ZM217.22 8.13C217.1 8.13 217.51 7.47 217.33 7.41C217.33 7.65 217.22 7.89 217.22 8.13Z" fill="#FFFFFF" fill-opacity="1.000000" fill-rule="nonzero"/>
	<path id="path" d="M135.63 2.67C135.63 2.67 135.27 2.37 135.16 2.07C134.8 1.24 135.21 0.35 136.1 0.35C138.63 0.35 141.22 0.35 143.75 0.41C143.63 1 143.87 1.89 143.75 2.67C145.16 2.31 144.81 1.18 145.16 0.41L155.46 0.41C155.76 0.94 156.11 1.42 156.52 2.19C156.76 1.66 156.88 1.48 157 1.24C157.05 1 157.11 0.71 157.17 0.35C159.53 0.35 161.88 0.35 164.18 0.35C164.65 0.35 165.06 0.41 165.35 0.88C165.47 1.12 165.94 1.18 166.3 1.36C166.36 1 166.41 0.71 166.53 0.35C169.24 0.35 171.95 0.35 174.66 0.35C175.54 0.35 176.42 0.35 177.25 0.35C178.6 0.35 178.84 0.65 178.89 2.07C178.89 4.03 178.89 5.93 178.89 7.89C178.89 10.56 178.89 13.29 178.89 15.96C178.89 17.56 178.6 17.8 177.07 17.8C174.95 17.8 172.89 17.8 170.77 17.8C170.3 17.8 169.77 17.51 169.18 17.33C168.83 17.45 168.3 17.8 167.77 17.8C162.12 17.8 156.47 17.92 150.87 17.8C149.58 17.8 148.34 17.8 147.11 17.8C143.69 17.98 140.28 17.86 136.8 17.8C135.33 17.8 135.04 17.51 135.04 16.08C135.04 12.28 135.04 8.48 135.04 4.68C135.04 4.09 135.45 3.44 135.63 2.67ZM138.86 10.2C138.39 10.09 137.98 9.97 137.33 9.85C137.73 10.36 138.24 10.48 138.86 10.2C139.1 11.27 139.28 12.4 139.51 13.65C139.92 13.53 140.28 13.35 140.87 13.17C140.1 12.04 139.51 11.15 138.86 10.2ZM163.06 7.12C164.28 7.28 165.08 6.84 165.47 5.81C164.71 6.58 163.53 5.75 163.06 7.12ZM156.7 14C156.52 14.54 156.35 15.13 156.05 15.96C157.05 15.31 157.47 14.89 156.7 14ZM139.75 4.27C139.34 4.15 139.1 4.09 138.92 4.09C139.04 4.27 138.69 4.8 138.81 4.98C138.98 4.86 139.1 4.8 139.75 4.27ZM149.11 7.06C149.28 6.76 149.87 6.76 149.99 6.46C149.81 6.76 149.28 6.76 149.11 7.06ZM139.63 14.3C139.63 14.3 139.57 13.71 139.51 13.65C139.22 13.71 139.04 14.12 138.75 14.18C139.04 14.12 139.34 14.42 139.63 14.3Z" fill="#FFFFFF" fill-opacity="1.000000" fill-rule="nonzero"/>
	<path id="path" d="M313.23 155.04L313.23 146.85C313.52 146.73 313.82 146.61 314.05 146.61C316.58 146.61 319.17 146.91 321.71 146.61C323.24 146.49 324.94 146.43 326.18 145.13C327.42 143.88 327.53 142.34 327.59 140.74C327.59 140.14 327.3 139.67 326.77 139.19C325.3 137.77 323.65 137.29 321.71 137.35C319 137.35 316.23 137.35 313.58 137.35C313.11 136.11 312.99 131.06 313.35 128.63C313.64 128.63 313.93 128.45 314.29 128.45C317.82 128.45 321.35 128.45 324.94 128.45C327.18 128.45 329.3 128.98 331.36 129.87C334.83 131.48 337.01 134.21 337.78 137.89C338.19 139.67 338.19 141.57 337.54 143.41C337.07 143.23 336.6 143.11 336.19 142.87C335.95 142.75 335.54 142.52 335.54 142.28C335.42 141.39 334.71 141.51 333.95 141.51C334.24 141.98 334.54 142.46 334.83 142.87C335.6 144.06 335.66 144.42 334.48 145.48C333.6 146.32 333.77 147.38 333.42 148.33C333.01 149.52 332.42 149.82 331.3 149.17C331.01 148.99 330.65 148.93 330.3 148.81C330.89 149.17 331.36 149.82 331.95 150.23C333.24 151.12 334.54 152.07 335.83 153.02C336.13 153.2 336.36 153.5 336.54 153.8C337.66 155.75 338.6 157.65 338.95 160.03C339.31 162.46 338.6 164.48 338.07 166.74C337.07 166.56 335.95 167.51 335.07 166.2C334.87 166.68 335.11 167.23 335.77 167.86C335.24 168.16 334.71 168.46 334.13 168.81C334.77 169.35 335.3 169.82 335.95 170.36C335.07 171.66 333.95 172.67 332.54 173.26C331.95 173.5 331.36 173.74 330.77 174.04C329.06 174.81 328.71 174.69 327.59 172.97C327.47 172.79 327.24 172.73 326.83 172.49C327.12 173.5 327.3 174.21 327.59 175.11L324.53 175.11C324.53 175.11 324.18 174.45 323.94 174.1C323.59 174.27 323 174.39 322.94 174.63C322.65 175.52 321.94 175.46 321.23 175.46C318.94 175.46 316.7 175.46 314.41 175.46C313.99 175.46 313.64 175.4 313.23 175.34C312.82 173.98 312.76 168.52 313.17 166.62C315.41 166.62 317.64 166.56 319.88 166.62C322.06 166.68 324.06 166.26 326 165.25C326.35 165.07 326.59 164.6 326.94 164.18C327.42 164.72 327.83 165.19 328.24 165.67C327.77 166.44 327.24 166.32 326.65 165.84C326.83 167.33 327.18 167.63 328.71 167.63C328.71 166.97 328.24 166.26 328.24 165.67C328.24 165.61 329.18 165.61 329.48 165.55C328.89 165.07 327.89 164.48 327.65 163.89C327.42 163.29 328 162.46 328.06 161.75C328.06 160.74 328 159.67 327.89 158.66C327.89 158.13 327.77 157.65 327.65 156.88C327.65 156.88 327.18 156.88 327 156.7C325.12 154.74 322.59 154.86 320.17 154.74C318.35 154.69 316.58 154.74 314.76 154.74C314.17 154.74 313.99 155.16 313.23 155.04ZM333.36 152.31C332.18 152.55 331.95 153.5 331.65 154.51C331.95 154.86 332.24 155.28 332.48 155.52C333.36 155.22 334.07 154.98 334.77 154.8C335.3 155.28 335.72 155.64 336.01 155.87C335.66 156.82 335.36 157.71 335.07 158.6C334.95 159.02 334.3 159.26 334.24 159.49C334.24 160.74 333.18 160.68 332.42 160.98C332.36 161.99 332.3 162.94 332.24 164.06C332.01 164.18 331.59 164.36 331.12 164.54C331.42 165.79 331.95 166.79 333.36 167.15C333.6 166.56 333.77 166.02 333.95 165.61C333.6 165.25 333.18 164.95 333.18 164.72C333.18 164.12 333.71 164.06 334.19 164C334.6 164 335.01 163.89 335.42 163.83C334.89 163.71 334.36 163.29 333.89 163.17C333.71 161.51 333.77 161.22 334.36 160.98C335.07 160.68 335.3 161.27 335.48 161.87C335.77 161.04 335.95 160.27 336.3 159.67C337.19 158.25 337.25 156.7 336.89 154.98C335.66 154.74 334.54 154.51 333.13 154.27C333.24 153.62 333.24 152.96 333.36 152.31ZM333.48 140.02C332.77 139.37 332.36 139.01 331.77 138.54C331.59 139.37 331.48 139.85 331.36 140.56C332.01 140.38 332.54 140.2 333.48 140.02ZM317.88 170.65C318.41 169.35 318.35 168.87 317.64 168.69C317.41 168.93 317.11 169.29 316.82 169.64C317.17 170 317.47 170.24 317.88 170.65ZM336.42 165.55C337.36 164.9 336.42 164.18 336.72 163.59L336.01 163.59C336.19 164.3 336.3 164.84 336.42 165.55ZM328.77 146.67C329.59 147.15 330.18 147.15 330.83 146.38C330.06 146.14 329.42 145.84 328.77 146.67ZM329.18 138.89C328.59 139.19 328.47 139.61 328.77 140.14C329.18 139.73 329.71 139.31 329.18 138.89ZM327.3 136.22C327.42 136.76 327.53 137 327.65 137.47C328.06 137.12 328.36 136.82 328.83 136.46C328.18 136.4 327.89 136.28 327.3 136.22ZM333.01 138C332.77 137.71 332.83 137.17 332.6 136.88C332.83 137.17 332.77 137.71 333.01 138ZM322.18 171.07L321.18 170.53C321.53 170.59 321.82 171.01 322.18 171.07ZM332.48 158.19C331.85 158.35 331.63 158.7 331.83 159.26C332.07 158.9 332.24 158.6 332.48 158.19ZM323.82 132.42C323.53 132.42 323.12 132.25 322.82 132.31C323.12 132.31 323.53 132.49 323.82 132.42Z" fill="#FFFFFF" fill-opacity="1.000000" fill-rule="nonzero"/>
	<path id="path" d="M241.41 94.79C241.65 94.38 241.76 94.2 242 93.78C241.47 93.84 240.76 93.78 240.7 94.02C240.41 94.97 239.64 94.79 239 94.79C238.29 94.79 237.58 94.73 236.88 94.79C235.52 94.97 234.52 94.49 233.64 93.37C233.88 92.77 234.11 92.12 234.35 91.53C231.56 90.81 229.62 90.89 228.52 91.76C228.52 91.76 228.99 92.36 229.22 92.65C229.87 93.72 229.46 94.67 228.22 94.73C226.99 94.79 225.69 94.73 224.16 94.73C224.46 94.14 224.69 93.78 224.93 93.25C223.81 92.12 222.4 91.88 220.98 91.59C220.57 92.12 220.28 92.71 219.87 93.01C219.04 93.66 218.04 93.25 217.98 92.18C217.98 91.53 217.69 90.81 218.33 90.22C218.57 90.04 218.57 89.63 218.63 89.27C218.69 88.62 218.75 87.91 218.81 87.07C218.28 86.78 217.69 86.42 216.98 86.01C217.1 85.29 217.27 84.52 217.45 83.63C216.39 82.09 216.27 82.09 214.74 82.98C215.04 84.29 215.04 85.59 214.15 86.78C213.74 87.37 213.98 88.02 214.74 88.32C214.98 88.44 215.27 88.56 215.8 89.03C215.45 89.21 215.1 89.33 214.45 89.63C216.75 90.4 215.69 92.18 216.16 93.49C216.51 93.6 216.86 93.72 217.27 93.9C216.27 95.21 214.92 94.38 213.86 94.67C212.45 95.03 211.98 93.43 210.8 93.49C210.62 92.36 210.56 91.41 211.15 90.46C211.51 89.92 211.62 89.33 210.74 88.86C210.09 88.56 210.03 86.6 210.56 86.01C211.45 85.06 212.45 84.17 213.51 83.16C213.15 82.98 212.8 82.8 212.39 82.56C212.57 81.61 212.8 80.66 212.98 79.71C213.63 79.71 213.86 80.9 214.51 80.19C214.98 79.71 215.39 79.24 214.8 78.35C214.33 77.64 214.8 76.81 215.74 76.81C216.63 76.81 217.51 77.1 218.57 77.28C219.34 76.27 220.69 76.92 221.93 76.75C222.04 77.22 222.1 77.64 222.16 77.99C223.4 76.51 225.4 76.63 227.05 76.69C229.28 76.69 231.58 76.69 233.82 76.69C234.29 76.69 234.88 76.57 235.17 76.81C236.05 77.58 236.76 77.04 237.58 76.75C238.88 77.4 238.94 79.54 241 79.36C240.17 78.71 239.53 77.99 239.59 76.69C241.41 76.69 243.24 76.45 244.94 76.75C246.65 77.04 248.24 77.87 250.06 78.53C250.06 77.93 250.18 77.4 250.24 76.69C251.48 76.69 252.65 76.69 253.89 76.69C254.66 76.69 255.07 77.16 255.07 77.93C255.07 79.06 255.19 80.13 254.42 81.08C254.07 81.5 253.77 82.03 253.24 82.8C254.01 82.5 254.42 82.39 255.01 82.15C255.13 84.17 255.3 86.07 254.77 87.91C254.71 88.14 254.6 88.5 254.71 88.74C255.54 90.1 255.07 91.59 255.13 93.07C255.13 94.14 254.77 94.49 253.6 94.49C249.59 94.49 245.65 94.79 241.41 94.79ZM225.22 85.77C224.4 84.52 223.28 84.64 221.98 85.18C222.46 85.59 222.87 85.89 222.99 86.01C223.93 85.89 224.52 85.89 225.22 85.77C226.16 86.6 227.22 87.25 228.17 88.08C227.81 87.07 227.46 86.18 227.11 85.35C226.58 85.47 225.87 85.65 225.22 85.77ZM237.82 92.6C237.35 91.11 235.99 90.1 237 88.92C236.41 87.79 235.94 86.9 235.52 85.95C235.35 87.07 235.29 88.14 235.35 89.27C235.35 91.29 235.58 91.65 237.82 92.6ZM252.07 83.93C251.18 85.29 251.95 86.54 252.07 87.85C251.77 88.38 251.48 88.86 251.12 89.51C253.3 89.09 252.07 87.55 252.36 86.42C252.95 86.3 253.54 86.18 254.18 86.01C254.07 85.59 253.89 85.23 253.77 84.82C253.18 84.88 252.71 84.94 252.12 85C252.12 84.58 252.12 84.23 252.07 83.93ZM246.47 88.38C246.12 87.25 245.94 87.13 244.41 86.66C244.65 87.07 245 87.49 245.18 87.91C245.47 88.62 245.88 88.68 246.47 88.38ZM239.06 89.57C240.12 88.74 240.12 88.44 239.35 86.96C239.23 87.97 239.11 88.74 239.06 89.57ZM230.58 85.41C231.29 84.62 231.32 84.07 230.7 83.75C230.7 84.34 230.64 84.88 230.58 85.41ZM231.52 87.55C231.52 86.6 231.05 86.34 230.11 86.78C230.64 87.07 231.05 87.25 231.52 87.55ZM247.47 84.4C247.91 83.37 247.79 82.74 247.12 82.5C247.24 83.22 247.36 83.81 247.47 84.4ZM239.06 83.34C238.58 83.69 238.23 83.99 237.88 84.34C238.7 84.52 239.35 84.52 239.06 83.34ZM237.17 80.55C237.17 80.55 237.58 80.07 237.58 79.83C237.58 80.13 237.23 80.25 237.17 80.55ZM226.87 78.82C226.87 79.06 226.46 79.3 226.4 79.54C226.46 79.3 226.81 79.06 226.87 78.82Z" fill="#FFFFFF" fill-opacity="1.000000" fill-rule="nonzero"/>
	<path id="path" d="M27.66 0.23C31.08 0.23 34.08 0.23 37.02 0.23C40.14 0.23 43.32 0.23 46.44 0.23C47.38 0.23 47.97 0.47 48.44 1.3C51.21 6.05 53.98 10.74 56.8 15.49C56.98 17.33 58.39 18.34 59.33 19.7C60.28 21.13 61.16 22.55 62.1 23.98C62.63 24.81 62.98 25.64 62.28 26.47C63.1 27.42 63.81 28.37 64.93 28.9C65.34 29.08 65.57 29.67 65.75 30.15C66.28 31.51 65.87 32.17 64.4 32.17C62.45 32.17 60.75 32.82 58.98 33.35C57.1 33.89 55.1 34.07 53.21 34.36C52.68 34.42 52.21 34.54 51.68 34.66C51.39 34.66 51.03 34.84 50.86 34.72C49.86 33.95 49.09 34.48 48.21 35.43C47.21 33.65 46.32 32.11 45.44 30.51C46.5 31.57 47.86 31.45 49.09 30.68C49.21 30.62 49.56 30.68 49.74 30.8C50.45 31.34 51.03 30.92 51.92 30.68C50.03 29.56 48.38 28.55 46.74 27.6C46.15 27.77 45.56 28.07 44.97 28.07C44.62 28.07 43.97 27.66 43.97 27.36C43.85 26.41 43.2 25.99 42.67 25.4C42.09 24.75 41.56 24.03 41.14 23.26C37.44 16.97 33.67 10.68 30.02 4.39C29.31 3.14 28.55 1.83 27.66 0.23ZM56.27 29.79C57.74 30.39 58.98 30.03 59.75 29.14C60.1 28.19 60.39 27.54 60.69 26.77C58.33 26.94 55.98 26.77 54.1 24.51C54.04 25.58 54.1 26.35 53.92 26.94C53.68 27.48 53.09 27.89 52.45 28.55C53.33 28.66 53.86 28.72 54.33 28.78C54.68 29.5 55.04 30.09 55.51 30.92C55.86 30.39 56.04 30.15 56.27 29.79ZM54.51 20.95C54.68 21.42 54.39 22.14 54.62 22.79C55.68 21.78 55.1 21.36 54.51 20.95Z" fill="#FFFFFF" fill-opacity="1.000000" fill-rule="nonzero"/>
	<path id="path" d="M364.5 30.5C362.74 29.5 361.15 28.49 359.44 27.54C359.03 27.72 358.56 28.01 358.08 28.07C357.38 28.19 356.79 28.07 356.67 27.18C356.55 26.47 356.14 26.11 355.67 25.64C355.02 25.04 354.49 24.33 354.02 23.56C349.9 16.61 345.84 9.67 341.72 2.72C341.31 2.01 341.01 1.3 340.54 0.35C341.19 0.35 341.66 0.23 342.07 0.23C347.72 0.23 353.38 0.23 358.97 0.23C360.15 0.23 360.79 0.59 361.32 1.6C363.97 6.17 366.68 10.74 369.39 15.37C369.62 17.33 371.15 18.51 372.15 20C373.1 21.42 373.98 22.85 374.92 24.27C375.45 25.04 375.51 25.76 374.92 26.53C375.69 27.54 376.51 28.43 377.63 29.02C378.04 29.26 378.34 29.91 378.51 30.45C378.87 31.57 378.39 32.23 377.28 32.17C375.22 32.11 373.45 32.88 371.51 33.35C368.98 34.01 366.39 34.3 363.85 34.66C363.32 34.72 362.79 34.36 362.21 34.19C361.85 34.48 361.44 34.84 360.91 35.25C359.73 33.71 358.97 31.99 358.32 30.21C358.56 30.39 358.79 30.5 359.03 30.68C359.44 30.8 360.09 31.28 360.26 31.1C361.5 30.15 363.21 31.63 364.5 30.5ZM367.27 28.78C367.68 29.56 367.97 30.15 368.39 30.86C368.8 30.39 369.03 30.09 369.27 29.73C372.1 30.86 372.74 28.84 373.51 26.88C372.45 26.77 371.21 26.88 370.15 26.53C369.09 26.17 368.09 25.46 367.03 24.87C367.03 25.7 366.97 26.47 366.91 27.12C366.5 27.66 365.5 27.6 365.74 28.61C366.27 28.66 366.8 28.72 367.27 28.78ZM366.91 20.77C366.91 21.42 366.91 21.78 367.03 22.08C367.15 22.25 367.56 22.31 367.86 22.37C367.86 22.08 368.03 21.72 367.92 21.48C367.74 21.24 367.39 21.07 366.91 20.77Z" fill="#FFFFFF" fill-opacity="1.000000" fill-rule="nonzero"/>
	<path id="path" d="M216.57 51.7C214.8 52.35 213.68 54.13 211.68 53.66C211.45 53.6 211.21 53.48 210.56 53.24C211.39 53 211.8 52.88 212.21 52.76C212.33 52.35 212.27 51.82 212.57 51.52C212.74 51.34 213.27 51.4 213.68 51.34L213.68 48.91C213.15 48.97 212.86 49.08 212.51 49.08C211.56 49.08 211.09 49.32 211.39 50.45C211.62 51.28 211.56 52.47 210.56 53.24C210.39 49.14 210.15 44.81 210.15 40.77C211.45 41.25 211.15 42.38 211.68 43.09C211.92 42.2 212.15 41.37 212.45 40.42C211.27 39.29 209.86 38.22 210.74 36.26C212.33 36.56 212.62 36.8 213.57 39.23C214.43 39.31 215.14 39.05 215.69 38.46C215.16 37.81 214.63 37.21 213.98 36.38C215.16 36.38 216.04 36.38 216.86 36.38C217.98 36.38 219.04 36.38 220.16 36.38C221.28 36.38 222.46 36.38 223.57 36.38C224.16 36.38 224.69 36.14 225.28 36.14C227.75 36.14 230.28 35.79 232.76 36.5C233.11 36.62 233.52 36.74 233.76 36.62C234.64 36.03 235.64 36.14 236.58 36.14C240.17 36.14 243.77 36.14 247.41 36.14C248.06 36.14 248.83 35.97 249.24 36.98L246.89 36.98C247.83 37.87 248.71 37.81 249.53 38.1C249.83 37.81 250.06 37.51 250.3 37.21C250.95 37.45 250.95 50.69 250.3 53.12C248.95 52.53 247.71 53.54 246.24 53.42C244.82 53.3 243.35 53.6 241.88 53.66C239.82 53.66 237.76 53.83 235.7 53.66C234.11 53.54 232.64 53.42 231.05 53.66C230.7 53.66 230.23 53.77 230.05 53.66C228.99 52.76 227.99 53.3 226.93 53.54C226.1 53.71 225.22 53.71 224.34 53.71C222.75 53.71 221.22 53.66 219.63 53.71C218.1 53.83 216.98 53.48 216.57 51.7ZM249.77 43.56C248.71 42.97 247.89 41.78 246.77 41.55C245.12 41.19 243.53 40.77 242.23 39.65C242.59 40.48 242.29 41.66 242.88 42.32C243.41 42.97 244.3 43.39 245 43.92C246.06 42.32 246.83 42.14 248.59 43.09C248.95 43.27 249.36 43.45 249.77 43.56ZM218.92 40.95C218.45 41.13 217.8 40.95 217.45 41.07C217.1 40.77 216.69 40.48 216.16 40C215.98 41.49 216.57 42.2 217.57 42.79C218.1 42.08 218.51 41.55 218.92 40.95ZM218.98 48.02C220.1 48.85 220.81 48.73 221.93 47.54C221.51 47.19 221.1 46.77 220.63 46.41L220.28 47.3C219.92 47.48 219.51 47.72 218.98 48.02ZM239.06 38.34C238.06 37.33 237.47 37.27 236.11 38.04C236.76 38.46 237.35 38.87 238 39.23C238.35 38.93 238.64 38.7 239.06 38.34ZM215.98 47.07C217.1 45.52 216.33 44.16 214.39 43.98C214.92 44.4 215.39 44.75 215.8 45.11C215.86 45.82 215.92 46.47 215.98 47.07ZM238 47.84C237.76 49.14 238.41 49.86 238.94 50.75C239.41 49.44 238.94 48.67 238 47.84ZM235.41 46.71C234.64 46.83 233.99 46.59 233.88 47.42C233.76 48.02 233.99 48.43 234.88 48.37C235.05 47.9 235.17 47.42 235.41 46.71ZM238.82 42.97C238.7 43.45 238.58 43.92 239.23 44.16C239.41 44.16 239.82 43.92 239.88 43.8C240 43.09 239.53 42.97 238.82 42.97ZM245.53 46.95C245.59 46.65 246.18 46.29 246.12 46C246.12 45.82 245.65 45.76 245.12 45.58C245.3 46.24 245.47 46.59 245.53 46.95ZM238.94 50.75C238.59 51.28 238.29 52.11 237.88 52.71C238.7 52.39 239.06 51.42 238.94 50.75ZM215.86 48.13C215.86 48.13 216.04 47.24 215.98 47.07L214.27 48.13L215.86 48.13ZM222.51 42.97C222.1 42.73 221.81 42.61 221.22 42.26C221.45 42.85 221.57 43.09 221.69 43.39C221.93 43.27 222.16 43.15 222.51 42.97ZM223.87 37.27L223.57 36.38C223.22 36.56 222.99 37.21 222.63 37.39C222.99 37.21 223.52 37.45 223.87 37.27ZM230.34 51.99C229.99 51.99 229.64 51.52 229.34 51.52L230.34 51.99Z" fill="#FFFFFF" fill-opacity="1.000000" fill-rule="nonzero"/>
	<path id="path" d="M135.39 40.89C136.16 41.31 136.16 42.14 136.45 43.21C136.8 42.08 137.04 41.37 137.33 40.48C136.16 39.35 134.63 38.28 135.69 36.2C137.45 36.44 137.92 37.99 138.45 39.35C139.22 39.35 140.16 39.65 140.51 38.4C140.04 37.81 139.51 37.21 138.69 36.26C140.1 36.32 141.04 36.44 141.98 36.44C143.16 36.44 144.28 36.38 145.46 36.32C146.46 36.32 147.4 36.32 148.4 36.32C148.69 36.32 148.99 36.32 149.28 36.32C152.17 35.97 155.05 35.85 157.94 36.56C162.17 35.37 167 36.38 171.24 36.15C171.89 36.15 172.54 36.09 173.18 36.15C173.6 36.15 173.95 36.44 174.3 36.62L171.95 36.98C172.89 37.87 173.77 37.81 174.48 38.1C174.77 37.75 175.07 37.45 175.3 37.21C175.18 42.38 176.01 47.78 175.48 53.06C173.65 52.83 172.06 53.54 170.36 53.48C168.65 53.48 166.88 53.48 165.18 53.48C163.82 53.48 162.47 53.6 161.06 53.66C160.82 53.66 160.59 53.66 160.35 53.66C159.06 53.3 157.76 53.42 156.41 53.66C155.7 53.77 154.99 53.36 154.29 53.24C153.93 53.18 153.58 53.06 153.29 53.18C151.23 54.01 149.05 53.66 146.93 53.72C146.1 53.72 145.28 53.66 144.52 53.72C142.98 53.89 141.87 53.48 141.51 51.58C140.75 52.47 139.69 52.53 138.86 53.3C138.22 54.01 136.98 53.77 135.98 53.18C136.39 53.06 136.8 52.94 137.22 52.77C137.27 52.35 137.33 51.88 137.45 51.46L138.51 51.46C139.22 49.14 138.98 48.91 136.51 49.26C135.98 50.27 136.98 51.76 135.57 52.53C135.1 51.28 134.86 42.38 135.39 40.89ZM140.63 45.05C140.32 44.34 139.79 43.96 139.04 43.92C139.63 44.34 140.16 44.69 140.63 45.05C140.69 45.7 140.75 46.35 140.87 47.01C140.98 46.53 141.57 46.06 141.51 45.58C141.51 45.11 141.22 44.75 140.63 45.05ZM171.83 42.26C173.2 43.01 174.14 43.33 174.66 43.21C173.65 42.62 172.71 41.78 171.65 41.55C170 41.19 168.42 40.89 167.12 39.65C166.94 41.96 168.47 42.73 169.53 43.86C170.36 43.27 171.12 42.73 171.83 42.26ZM142.34 42.73C142.87 42.02 143.34 41.37 144.04 40.42C143.16 40.72 142.69 40.83 142.16 41.01C141.75 40.83 141.63 39.94 140.75 40.42C140.81 41.49 141.28 42.26 142.34 42.73ZM162.71 39.17C163.06 38.88 163.41 38.64 163.71 38.4C162.82 37.39 162.41 37.15 160.88 37.93C161.47 38.34 162.06 38.7 162.71 39.17ZM143.81 47.96C144.93 48.85 144.99 48.85 146.63 47.48C146.1 47.07 145.63 46.65 144.81 46.06C145.52 47.54 144.34 47.36 143.81 47.96ZM163.59 50.75C164.06 49.03 164 48.91 162.65 47.96C162.53 49.03 163.12 49.8 163.59 50.75ZM160.12 46.71C159.35 46.71 158.64 46.53 158.53 47.42C158.41 48.08 158.76 48.37 159.59 48.31C159.76 47.84 159.94 47.3 160.12 46.71ZM163.12 42.97C163.47 43.51 163.71 43.86 164 44.1C164 43.39 164.18 42.85 163.12 42.97ZM170.12 47.01C170.83 46.37 170.77 45.92 169.95 45.64C169.95 46.06 170.06 46.41 170.12 47.01ZM138.92 48.08C139.45 47.96 140.34 48.02 140.87 47.01C140.04 47.25 139.39 47.96 138.92 48.08ZM148.58 37.27C147.91 37.15 147.58 37.33 147.58 37.81C147.93 37.63 148.22 37.45 148.58 37.27ZM154.17 51.28C154.35 51.46 154.23 52.05 154.4 52.05C154.64 52.05 154.88 51.88 155.29 51.64C154.76 51.46 154.46 51.4 154.17 51.28ZM162.47 52.71C163.33 52.35 163.71 51.42 163.59 50.75C163.23 51.22 162.94 52.05 162.47 52.71ZM146.28 42.44C146.52 42.62 146.4 43.21 146.63 43.39C146.4 43.21 146.52 42.62 146.28 42.44ZM146.1 37.33C146.28 37.21 146.69 37.45 146.87 37.27C146.63 37.39 146.34 37.21 146.1 37.33Z" fill="#FFFFFF" fill-opacity="1.000000" fill-rule="nonzero"/>
	<path id="path" d="M192.02 32.88C193.67 33.06 193.67 35.55 195.49 34.9C194.85 34.07 193.67 33.47 194.26 32.05L196.55 32.05C196.55 31.51 196.55 30.92 196.67 30.39C196.85 29.91 197.2 29.44 197.44 29.14C196.85 28.55 196.32 28.01 195.79 27.48C195.55 27.24 195.26 27.12 194.91 27.06C193.96 26.83 192.96 26.65 192.08 26.47C192.32 25.88 192.55 25.28 192.85 24.63C191.84 24.75 191.14 24.87 190.31 24.99C190.31 25.64 190.08 26.23 189.02 25.82C189.08 25.4 189.08 24.69 189.31 24.63C190.55 24.21 189.9 23.32 189.9 22.73C190.43 21.96 190.9 21.25 191.37 20.47C192.79 20.71 192.79 20.77 192.67 21.96C192.67 22.67 192.73 23.92 192.85 24.63C193.02 24.27 193.79 23.38 194.08 22.85C194.32 23.26 194.55 23.62 194.85 24.15C195.55 23.92 196.32 23.68 197.26 23.32C195.91 22.55 194.85 21.9 193.73 21.3C192.26 20.53 193.08 18.99 192.55 17.68C192.02 18.34 191.67 19.05 191.14 19.35C190.61 19.64 189.84 19.58 189.08 19.64C188.9 20.77 190.08 22.08 188.78 23.03C187.84 23.74 187.08 24.75 185.72 24.87C185.66 24.45 185.55 24.15 185.6 23.86C185.66 22.14 185.78 20.36 185.84 18.63C186.9 19.58 187.02 19.58 188.55 18.63C187.96 18.34 187.37 18.22 186.96 17.86C186.55 17.45 185.96 16.73 186.08 16.38C186.25 15.84 186.96 15.37 187.55 15.07C187.96 14.89 188.55 15.07 189.14 15.07C189.14 15.73 189.08 16.2 189.02 16.85C189.78 16.26 189.37 15.9 189.14 15.07C188.9 14.18 189.14 13.05 189.78 12.28C189.14 11.39 187.67 11.93 187.37 10.56C188.14 10.2 189.25 10.03 188.78 8.72C189.84 8.6 190.79 8.54 191.79 8.48C191.96 9.08 192.14 9.67 192.37 10.38C193.14 9.97 193.79 9.55 194.61 9.08C194.14 8.72 193.79 8.48 193.38 8.19C193.61 7.36 193.85 6.52 194.08 5.69C193.61 4.68 192.32 3.79 193.61 2.49C194.2 2.61 194.73 2.78 195.49 2.96C195.32 2.01 195.14 1.24 194.96 0.29C195.67 0.29 196.26 0.29 196.79 0.29C199.56 0.29 202.38 0.29 205.15 0.29C206.44 0.29 206.86 0.59 206.86 1.72C206.86 4.27 206.86 6.88 206.86 9.43C206.86 9.61 206.74 9.73 206.56 10.09C206.27 9.37 206.09 8.84 205.85 8.25C205.21 8.19 204.97 8.54 204.97 9.02C204.97 10.15 206.15 10.15 206.86 10.86L206.86 20.89C206.15 20.89 205.44 20.83 204.74 20.77C205.44 21.13 206.09 21.72 206.91 22.14C206.68 23.56 207.68 25.16 206.27 26.35C206.5 27 206.91 27.66 206.91 28.37C206.91 33 206.91 37.63 206.91 42.26C206.91 42.85 206.74 43.27 206.33 43.8C205.8 44.46 205.68 45.46 205.27 46.53C204.03 47.24 203.85 47.24 202.97 45.58C202.38 46.89 201.68 47.3 200.5 46.95C199.62 46.71 199.2 45.58 199.85 45.05C200.67 44.4 200.44 43.8 200.2 42.91C200.2 43.68 199.79 44.81 198.91 44.93C198.14 45.05 197.55 44.69 197.14 44.1C196.38 43.03 196.44 41.96 197.44 41.01C197.32 40.54 197.2 40 197.08 39.65C197.55 38.99 198.03 38.4 198.61 37.63C199.14 37.63 199.85 37.57 200.67 37.51C200.79 37.15 200.97 36.74 201.09 36.38C201.79 35.97 202.85 36.62 203.5 35.49C202.85 34.9 201.62 34.66 201.91 33.18C201.79 35.08 200.14 35.25 199.14 35.91C198.32 36.44 197.97 37.04 197.67 37.93C196.2 38.04 194.73 38.22 193.08 38.34C193.08 37.63 193.02 37.09 193.02 36.62C193.02 35.97 193.2 35.43 192.61 34.9C192.26 34.6 192.14 33.71 192.02 32.88ZM201.79 24.87C202.21 25.28 202.09 26.35 203.21 25.93C202.74 25.42 202.3 25.02 201.79 24.87C200.79 23.8 199.91 23.56 198.61 23.86C198.91 24.45 199.2 24.93 200.03 24.87C200.62 24.87 201.26 24.87 201.79 24.87ZM202.26 19.52C202.97 18.4 203.74 17.98 204.85 18.04C205.74 18.04 205.86 17.51 205.5 16.73C204.21 16.73 203.38 17.68 202.38 18.22C201.32 18.81 200.38 18.93 199.26 18.46C198.14 17.92 197.91 18.16 198.08 19.64C199.73 19.88 201.38 20.18 203.03 20.41C202.68 20.24 202.68 19.7 202.26 19.52ZM199.79 6.76C199.67 7.3 199.62 7.71 199.5 8.31C198.97 7.89 198.61 7.59 198.08 7.18L198.08 9.2C199.73 8.72 201.56 8.66 202.56 6.76L199.79 6.76ZM204.27 13.29C203.38 13.05 202.44 12.52 201.62 12.34C201.44 13.05 201.26 13.71 201.03 14.78C202.32 14.18 203.27 13.77 204.27 13.29ZM203.62 3.5C203.97 4.33 204.32 5.04 204.68 5.87C205.38 5.24 205.44 4.29 204.85 3.02C204.85 3.02 203.85 3.44 203.62 3.5ZM200.44 32.35C198.32 31.99 197.55 31.81 197.55 32.94C198.56 32.76 199.5 32.52 200.44 32.35ZM192.9 11.51C192.14 11.51 191.43 11.51 190.96 12.34C191.94 12.42 192.59 12.14 192.9 11.51ZM202.09 30.21C201.79 31.04 201.62 31.51 201.38 32.29C202.26 31.75 202.79 31.4 202.09 30.21ZM202.68 39.65C202.09 39.29 201.68 39.11 201.09 38.76C201.28 39.63 201.81 39.92 202.68 39.65ZM205.21 38.93C205.03 38.28 204.91 37.93 204.74 37.33C203.79 38.22 204.21 38.52 205.21 38.93ZM199.73 3.2C199.56 3.5 198.97 3.44 198.79 3.73C199.03 3.5 199.5 3.5 199.73 3.2ZM196.67 13.65C196.97 13.47 197.44 13.59 197.73 13.35C197.5 13.53 196.91 13.47 196.67 13.65ZM196.61 15.55C196.5 15.73 196.02 15.43 195.97 15.61C195.97 15.67 196.5 15.49 196.61 15.55Z" fill="#FFFFFF" fill-opacity="1.000000" fill-rule="nonzero"/>
	<path id="path" d="M124.03 44.93C122.03 44.75 121.2 44.04 121.2 42.38C121.2 42.14 121.15 41.78 121.2 41.72C122.15 41.07 121.79 40.24 121.56 39.59C122.09 38.87 122.5 38.28 122.97 37.57C123.56 37.57 124.32 37.51 125.15 37.45C125.27 37.09 125.38 36.74 125.56 36.38C126.38 36.2 127.15 36.03 128.03 35.85C127.27 34.96 126.74 34.24 126.15 33.53C126.03 34.3 125.5 34.96 124.56 35.37C122.91 36.08 122.79 36.26 122.15 37.92C120.67 38.04 119.2 38.22 117.5 38.34C117.5 37.27 117.61 36.38 117.61 35.79C117.26 35.02 116.97 34.42 116.85 33.77C116.85 33.53 117.14 33.18 117.38 32.7C118.32 33.65 118.61 35.14 120.32 35.02C119.85 34.42 119.38 33.89 119.03 33.35C118.56 32.52 118.91 32.05 119.85 32.05C120.2 32.05 120.56 32.05 120.91 32.05C120.91 31.57 121.44 30.8 121.56 30.27C121.67 29.79 122.03 29.44 122.26 29.02C121.62 28.43 120.97 27.89 120.03 27.06C119.26 26.88 118.08 26.71 116.91 26.47C117.14 25.87 117.38 25.28 117.61 24.57C116.67 24.69 115.96 24.81 115.14 24.87C114.96 25.22 115.08 26.11 114.08 25.76C113.67 24.81 115.02 24.33 114.85 23.5C114.67 22.79 114.67 22.19 115.32 21.66C115.67 21.36 115.79 20.77 116.08 20.24C116.55 20.24 117.02 20.35 117.44 20.41L117.44 17.45C116.97 17.98 116.73 18.22 116.55 18.51C116.26 18.81 116.02 19.11 115.73 19.46L113.79 19.46C113.73 20.65 114.79 21.84 113.61 22.79C112.67 23.56 111.9 24.63 110.37 24.69C110.37 24.15 110.2 23.74 110.25 23.38C110.31 22.49 110.25 21.54 110.67 20.83C111.14 19.94 109.78 19.4 110.43 18.57C110.9 18.81 111.31 19.17 111.79 19.23C112.26 19.23 112.73 18.99 113.49 18.75C112.26 17.92 110.67 17.86 110.67 16.14C111.37 15.01 112.37 14.77 113.73 15.07L113.73 16.73C114.61 16.2 113.9 15.9 113.73 15.07C113.61 14.24 114.2 12.93 114.08 11.93C113.55 11.63 112.73 11.27 111.73 10.74C112.67 10.03 114.02 9.97 113.49 8.66C114.55 8.6 115.49 8.48 116.49 8.42C116.67 8.96 116.85 9.55 117.02 10.26C117.79 9.85 118.44 9.49 119.32 8.96C118.85 8.66 118.5 8.42 118.03 8.07C118.26 7.24 118.5 6.35 118.73 5.51C118.2 4.56 116.97 3.73 118.2 2.43C118.79 2.55 119.38 2.67 120.14 2.84C119.91 1.95 119.79 1.24 119.56 0.35C119.91 0.35 120.26 0.23 120.56 0.17C123.56 0.17 126.62 0.17 129.62 0.17C131.21 0.17 131.45 0.41 131.45 2.01C131.45 4.27 131.45 6.46 131.45 8.72C131.45 9.08 131.33 9.43 131.03 9.85C130.86 9.31 130.68 8.72 130.45 8.13C129.03 8.96 129.15 9.31 131.39 10.8L131.39 20.89C130.62 20.89 129.98 20.83 129.27 20.77C129.98 21.13 130.56 21.72 131.45 22.14C131.15 23.5 132.09 25.1 130.8 26.29C130.98 26.94 131.39 27.6 131.39 28.25C131.39 32.88 131.39 37.51 131.39 42.14C131.39 42.55 131.39 43.21 131.09 43.39C130.09 44.16 130.15 45.17 130.21 46.18C128.62 47.13 128.33 47.01 127.8 45.52C127.33 45.94 126.91 46.53 126.33 46.71C124.85 47.13 124.32 46.77 124.03 44.93C125.32 44.34 125.32 44.16 124.62 42.85C124.44 43.5 124.21 44.28 124.03 44.93ZM127.91 20.41C127.44 20.3 127.39 19.76 127.03 19.64C127.8 18.4 128.62 18.04 129.68 18.04C130.5 18.04 130.68 17.51 130.33 16.67C129.09 16.67 128.33 17.56 127.39 18.1C126.27 18.75 125.21 19.05 123.97 18.4C123.68 18.28 123.21 18.34 122.91 18.45C122.73 18.51 122.62 19.05 122.73 19.23C122.91 19.52 123.32 19.82 123.62 19.88C125.03 20.12 126.56 20.24 127.91 20.41ZM127.5 6.82L124.56 6.82C124.44 7.35 124.32 7.77 124.21 8.3C123.74 7.89 123.44 7.59 123.03 7.24C122.79 8.19 122.56 9.02 122.38 9.85C123.03 9.49 123.62 8.96 124.21 8.9C125.62 8.78 126.38 7.89 127.5 6.82ZM121.97 23.26C120.32 22.37 119.08 21.72 117.85 21.01C117.02 22.02 116.67 23.38 117.61 24.57C117.85 24.03 118.5 23.26 118.73 22.67C119.08 23.2 119.32 23.62 119.61 24.09C120.32 23.86 120.97 23.62 121.97 23.26ZM126.33 12.34C126.15 13.05 125.97 13.77 125.68 14.83C126.97 14.24 128.03 13.77 129.45 13.11C128.09 12.76 127.21 12.58 126.33 12.34ZM128.09 26.05C126.74 24.39 125.09 23.56 123.44 23.74C123.68 24.51 124.09 24.93 124.91 24.75C125.85 24.63 126.68 24.75 127.09 25.76C127.15 25.87 127.56 25.93 128.09 26.05ZM130.03 2.96C129.39 3.14 128.97 3.26 128.33 3.44C128.8 4.39 129.15 5.16 129.5 5.93C131.15 5.04 129.74 4.09 130.03 2.96ZM122.2 32.46C123.15 32.23 124.27 32.58 125.21 32.35C124.15 32.17 123.09 31.63 122.2 32.46ZM117.85 11.33C116.97 11.81 116.2 11.57 115.85 12.52C116.67 12.52 117.5 12.88 117.85 11.33ZM126.97 30.39C126.68 31.04 126.5 31.51 126.27 31.99C127.03 31.69 127.8 31.4 126.97 30.39ZM129.98 38.76C129.92 38.4 129.86 37.98 129.74 37.51C129.23 37.94 129.31 38.36 129.98 38.76ZM127.44 39.88C126.86 39.41 126.33 39.19 125.85 39.23C126.03 40.12 126.5 40.36 127.44 39.88ZM123.62 3.62C123.79 3.38 124.38 3.5 124.5 3.26C124.27 3.44 123.91 3.44 123.62 3.62Z" fill="#FFFFFF" fill-opacity="1.000000" fill-rule="nonzero"/>
	<path id="path" d="M281.21 175.82C281.15 174.33 280.79 173.15 281.85 172.14C281.62 171.78 281.15 171.43 281.15 171.07C281.09 169.23 281.15 167.33 281.15 165.55C284.44 165.43 286.97 162.94 287.03 159.43C287.03 151.48 287.03 143.47 287.03 135.51C287.03 134.39 287.27 133.2 287.33 132.07C286.56 130.88 287.21 129.52 288.03 128.75C288.56 128.21 289.03 128.21 289.39 128.75C289.92 129.58 290.04 129.64 290.74 129.99C290.74 130.47 290.68 130.88 290.62 131.36C290.98 130.76 291.51 130.17 291.86 129.52C291.62 129.28 291.33 128.92 291.04 128.63C292.45 128.63 294.33 128.27 295.75 128.27C297.51 128.27 298.28 129.58 297.45 131.18C297.28 131.48 297.04 131.71 296.81 131.95C296.98 132.54 298.04 132.54 297.57 133.44C296.98 133.38 296.45 133.26 295.75 133.14C295.75 132.78 295.69 132.37 295.63 131.89C294.98 132.19 294.33 132.49 293.69 132.78C294.45 132.96 295.27 132.78 295.57 133.85C295.69 134.33 296.1 134.33 297.57 134.21C297.57 134.62 297.69 135.1 297.69 135.51C297.69 143.53 297.81 151.6 297.69 159.61C297.57 164.18 295.98 168.34 292.8 171.72C290.27 174.39 287.21 175.88 283.44 175.52C282.79 175.52 282.09 175.7 281.21 175.82ZM289.27 154.03C289.45 154.75 289.56 155.28 289.8 156.23C290.39 155.46 290.74 155.04 291.21 154.51C290.45 154.33 289.98 154.21 289.27 154.03ZM289.62 165.73C289.74 165.13 289.8 164.72 289.86 164.06C289.21 164.24 288.74 164.42 288.21 164.6C288.68 164.96 289.03 165.25 289.62 165.73ZM290.74 137.59C289.88 137.83 289.58 138.22 289.86 138.78C290.15 138.36 290.45 137.95 290.74 137.59ZM283.44 168.52C284.09 168.64 284.44 168.69 284.85 168.75C284.5 168.4 284.15 167.63 283.44 168.52ZM288.27 130.94C288.56 130.82 289.03 131.36 289.27 131.18C288.98 131.3 288.62 130.82 288.27 130.94ZM293.27 155.46C292.68 155.4 292.04 155.22 291.8 156.11C292.39 155.81 292.8 155.64 293.27 155.46ZM291.74 159.2L292.04 158.31C292.04 158.6 291.74 158.9 291.74 159.2Z" fill="#FFFFFF" fill-opacity="1.000000" fill-rule="nonzero"/>
	<path id="path" d="M199.44 128.75C199.44 131.06 199.56 133.38 199.38 135.69C199.38 136.28 198.5 137.11 197.91 137.35C196.02 137.95 194.43 138.89 192.96 140.14C191.08 142.93 188.96 146.2 188.9 149.7C188.9 150.77 188.61 151.66 187.96 152.43C188.78 152.96 188.72 153.85 188.96 154.69C189.31 156.11 189.2 157.53 189.78 158.9C191.02 161.81 192.43 164.48 195.44 165.9C196.32 166.32 197.26 166.5 198.2 166.79C197.85 167.98 196.85 166.91 196.44 167.45C196.02 167.98 195.73 168.52 195.32 169.05C195.61 168.87 195.97 169.35 196.2 169.11C196.5 168.81 196.67 168.16 196.97 168.1C197.5 167.98 198.08 168.22 198.61 168.28C199.2 169.29 198.79 170 197.79 170.42C198.44 170.71 198.85 170.95 199.2 171.13C199.32 172.37 198.26 171.72 197.85 172.08C197.38 172.43 198.32 173.44 197.2 173.56C196.79 173.15 197.2 171.9 195.85 172.37C196.02 173.26 196.2 174.21 196.44 175.34C195.2 175.16 194.02 175.58 193.26 174.15C193.08 173.8 192.02 173.56 191.61 173.74C190.96 174.04 190.49 173.92 189.96 173.62C187.72 172.37 185.6 171.01 184.19 168.75C183.72 167.98 182.96 167.39 182.37 166.62C181.07 165.01 180.19 163.17 179.54 161.21C178.89 159.37 179.72 158.42 181.72 158.37C182.19 158.37 182.72 158.25 183.25 158.19L183.25 157.18C182.07 157.42 181.01 157.59 179.95 157.77C178.6 158.01 178.54 157.95 178.36 156.58C178.36 156.53 178.42 155.93 178.48 155.93C178.78 155.93 179.01 155.93 179.31 155.93C179.31 154.63 179.13 154.51 178.07 154.39C177.48 148.1 178.6 142.16 182.25 137.06C186.19 131.53 191.73 128.57 198.61 128.51C198.79 128.51 199.09 128.63 199.44 128.75ZM181.13 160.56C182.13 160.15 183.01 161.51 184.07 160.8C183.84 160.38 183.6 160.09 183.43 159.73C184.25 159.61 185.07 159.49 186.02 159.32C186.31 159.85 186.78 160.32 187.72 159.73C187.37 159.25 187.02 158.84 186.55 158.25C185.49 158.78 184.43 159.25 183.43 159.73C182.84 160.25 182.11 160.19 181.25 159.55C181.25 159.97 181.19 160.21 181.13 160.56C180.84 160.68 180.07 161.04 179.54 161.21C180.07 161.51 180.95 161.45 181.6 161.81C181.37 161.16 181.25 160.86 181.13 160.56ZM187.08 152.67C185.9 152.07 184.9 151.6 183.84 151.06C183.49 151.24 183.07 151.42 182.72 151.6C182.78 152.13 182.84 152.61 182.9 153.02C183.6 153.26 184.37 153.5 184.96 153.74C185.72 153.56 186.43 152.84 187.08 152.67ZM189.73 169.88C189.31 169.88 188.9 169.52 188.49 169.52C188.72 169.52 189.49 169.94 189.73 169.88ZM190.96 167.03C190.96 168.16 191.14 168.52 192.08 168.46C191.67 167.98 191.43 167.63 190.96 167.03Z" fill="#FFFFFF" fill-opacity="1.000000" fill-rule="nonzero"/>
	<path id="path" d="M269.37 128.63C269.08 128.98 268.78 129.34 268.49 129.64C268.78 130.17 269.14 130.76 269.55 131.42C270.31 130.94 269.49 130.41 269.67 129.87C270.26 129.7 271.02 129.64 271.08 128.69C271.08 128.57 271.67 128.33 271.9 128.39C272.43 128.45 273.55 130.11 273.38 130.59C273.02 131.42 273.14 132.13 273.38 132.96C273.49 133.44 273.38 134.03 273.38 134.56C273.38 142.7 273.38 150.89 273.38 159.02C273.38 161.22 274.02 162.94 275.73 164.42C276.79 165.37 277.91 165.31 279.2 165.43C279.2 167.51 279.2 169.53 279.2 171.54C279.38 172.85 279.26 174.33 279.44 175.7C276.67 176 274.2 175.88 271.79 174.81C269.73 173.92 267.96 172.55 266.67 170.71C264.25 167.39 262.84 163.59 262.84 159.43C262.84 151.48 262.84 143.47 262.84 135.51C262.84 135.16 262.84 134.8 262.9 134.33C263.96 134.5 264.84 134.5 265.37 133.32C265.49 133.08 266.25 133.14 266.96 132.96C266.19 132.6 265.6 132.31 264.84 131.95C264.78 132.72 264.96 133.79 263.66 133.14C263.49 132.49 263.66 131.71 263.07 131.12C262.78 130.82 262.9 130.11 262.9 129.58C262.9 128.75 263.31 128.27 264.19 128.27C265.84 128.27 267.72 128.63 269.37 128.63ZM277.26 168.99C276.44 169.23 275.97 169.35 275.14 169.59C275.79 170.18 276.2 170.53 276.73 171.07C276.91 170.3 277.08 169.82 277.26 168.99ZM272.67 166.44C273.2 166.08 273.55 165.79 274.14 165.37C273.49 165.25 272.96 165.13 272.32 164.96C272.49 165.55 272.49 165.96 272.67 166.44ZM267.72 131.83C267.96 131.24 267.63 130.74 266.72 130.35C267.14 130.94 267.43 131.36 267.72 131.83ZM275.79 167.51C276.38 167.15 276.73 166.91 277.08 166.74C276.44 166.44 275.73 165.96 275.79 167.51ZM272.2 131.24C271.9 131.12 271.55 130.64 271.26 130.53C271.26 130.76 271.26 131 271.26 131.3C271.55 131.3 271.9 131.3 272.2 131.24ZM274.55 170.95C274.2 170.83 273.91 170.36 273.55 170.24C273.91 170.36 274.2 170.77 274.55 170.95Z" fill="#FFFFFF" fill-opacity="1.000000" fill-rule="nonzero"/>
	<path id="path" d="M224.46 128.57L234.94 128.57L234.94 133.02C234.46 132.72 234.11 132.54 233.82 132.37C234.17 132.72 234.41 133.32 234.99 133.85L234.99 154.27C233.93 153.97 233.05 153.91 232.52 155.16C232.4 155.46 231.64 155.4 231.05 155.52C231.7 155.81 232.29 156.17 233.05 156.53C233.11 156.05 233.17 155.64 233.29 155.28C233.82 155.04 234.46 155.1 234.41 155.64C234.23 156.82 235.41 157.53 235.17 158.72C234.99 159.73 235.17 160.8 235.17 161.81C235.11 163.89 234.94 165.96 234.88 168.1C234.88 168.63 235.17 169.23 235.11 169.76C235.11 171.42 235.64 173.32 233.35 174.33C233.7 174.21 234.52 174.39 234.88 174.33C234.94 174.87 235.29 175.7 234.52 175.76C233.52 175.76 232.52 175.64 231.52 175.52C231.23 175.52 230.76 175.34 230.58 175.52C229.93 176 229.4 175.88 228.81 175.4C227.69 176.77 225.99 174.93 224.57 176C224.99 174.27 224.04 172.85 224.99 171.48C225.05 171.37 224.69 171.01 224.63 170.71C224.52 170.18 224.34 169.58 224.99 169.17C225.16 169.05 225.16 168.75 225.22 168.52C225.1 168.46 224.52 168.22 224.52 168.04C224.52 166.14 224.52 164.24 224.52 162.34C225.63 162.4 226.58 162.46 227.75 162.58C226.87 161.87 226.22 161.39 225.46 160.8C225.34 160.86 225.05 161.1 224.69 161.33C224.22 160.74 224.52 160.09 225.58 159.73C224.52 159.14 224.16 158.37 224.75 157.36C224.87 157.18 224.87 156.88 224.81 156.64C224.69 155.22 224.52 153.74 224.46 152.31C224.46 145.13 224.46 137.89 224.46 130.7L224.46 128.57ZM226.63 159.61C228.28 160.74 228.64 159.26 229.34 158.78C228.99 158.13 228.64 157.53 228.28 156.94C228.28 157.53 228.17 158.01 228.17 158.37C227.64 158.78 227.16 159.2 226.63 159.61ZM231.82 134.27C231.76 133.55 231.7 133.14 231.64 132.54C230.93 132.78 230.4 132.96 229.87 133.14C230.4 133.38 230.99 133.91 231.82 134.27ZM225.22 164.06C225.99 164.9 226.22 164.06 226.81 164.06L225.22 164.06ZM231.05 157.95C230.76 157.53 230.46 157.18 230.17 156.76C230.05 157.42 230.28 157.89 231.05 157.95ZM225.52 157.42C225.87 157.65 226.16 157.83 226.58 158.07C226.58 157.28 226.22 157.06 225.52 157.42ZM229.28 164.12C229.46 163.65 229.58 163.41 229.75 162.94C229.22 163.06 228.93 163.11 228.46 163.23C228.75 163.53 228.93 163.71 229.28 164.12Z" fill="#FFFFFF" fill-opacity="1.000000" fill-rule="nonzero"/>
	<path id="path" d="M201.32 128.63C205.97 128.51 209.86 130.05 213.45 132.48C217.1 134.92 219.63 138.24 220.92 142.46C219.51 142.75 218.28 144.06 216.98 144.59C215.57 145.19 214.27 145.9 212.86 146.55C212.04 146.02 211.39 145.42 210.92 144.48C209.15 140.74 206.44 138.12 202.26 137.35C202.15 137.35 201.62 137.06 201.38 136.94L201.32 128.63Z" fill="#FFFFFF" fill-opacity="1.000000" fill-rule="nonzero"/>
	<path id="path" d="M255.07 175.28C253.83 173.86 252.89 173.98 252.3 175.58L250.01 175.58C250.12 174.99 250.18 174.57 250.3 174.1C249.53 173.27 248.71 173.86 247.89 174.04C247.83 174.45 247.89 174.99 247.59 175.28C247.3 175.58 246.77 175.7 246.36 175.76C245 175.82 243.71 175.64 242.35 175.76C241 175.88 239.7 175.76 238.35 175.76C237.53 175.76 237.17 175.46 237.17 174.63C237.17 173.32 236.88 171.84 237.29 170.65C237.7 169.41 236.88 168.28 237.35 167.09C238.35 166.74 239.29 166.5 240.06 167.74C241.47 166.74 243.12 166.74 244.77 166.91C244.83 167.27 244.88 167.57 245 167.98C245.53 167.39 245.83 166.85 246.71 166.97C247.83 167.09 249.01 166.79 250.18 166.85C251.36 166.85 252.54 167.15 253.71 167.15C254.89 167.15 256.01 166.91 257.13 166.79C257.6 167.45 256.95 168.64 258.25 168.58C257.83 169.7 258.72 170.71 259.37 171.37C259.48 171.48 259.6 171.84 259.54 172.02C259.25 172.91 259.37 173.8 259.31 174.69C259.31 175.05 258.54 175.52 258.07 175.7C257.6 175.88 257.07 175.7 256.25 175.7C256.66 174.51 257.07 173.5 257.42 172.49C257.54 172.2 257.54 171.84 257.54 171.54C257.48 170.95 257.31 170.42 257.19 169.7C256.89 169.7 256.3 169.82 256.36 169.88C256.48 171.19 255.01 172.14 255.6 173.44C255.95 174.21 255.77 174.87 255.07 175.28ZM247.12 171.78C245.94 172.43 246.47 173.44 246 174.57C247.47 173.74 247.06 172.73 247.12 171.78ZM237.29 170.65C237.29 170.65 237.88 171.19 237.94 171.37C238.35 171.37 238.94 172.08 239.06 170.65C238.59 170.77 237.7 170.53 237.29 170.65Z" fill="#FFFFFF" fill-opacity="1.000000" fill-rule="nonzero"/>
	<path id="path" d="M201.91 175.82C200.79 174.57 201.2 173.38 201.68 172.08L203.15 172.08C202.15 170.42 201.91 168.93 203.62 167.8C203.5 167.69 203.15 167.03 203.03 166.91C204.68 166.91 206.09 165.55 207.27 164.66C208.5 163.77 209.56 162.58 210.51 161.39C210.92 160.86 210.92 159.97 211.15 159.26C211.21 159.02 211.27 158.72 211.39 158.25C214.45 159.91 217.39 161.51 220.4 163.11C216.57 171.07 210.27 175.1 201.91 175.82Z" fill="#FFFFFF" fill-opacity="1.000000" fill-rule="nonzero"/>
	<path id="path" d="M27.37 6.76C28.66 7.83 36.97 21.72 39.2 26.29C38.91 26.65 38.67 27.24 38.26 27.36C37.14 27.72 36.73 28.55 36.61 29.62C36.08 29.62 35.61 29.56 35.14 29.5C34.49 29.44 34.02 29.38 33.43 29.97C32.96 30.51 32.14 30.68 31.43 30.98C30.73 31.28 29.96 31.57 29.08 31.93C27.96 31.1 27.25 29.97 27.31 28.25C27.43 21.84 27.31 15.37 27.31 8.96L27.37 6.76Z" fill="#FFFFFF" fill-opacity="1.000000" fill-rule="nonzero"/>
	<path id="path" d="M340.84 6.82C344.6 13.29 348.31 19.7 352.08 26.11C351.85 26.82 351.43 27.3 350.79 27.66C350.14 28.01 349.79 28.78 349.14 29.61C349.02 29.61 348.67 29.61 348.25 29.61C347.49 29.5 346.9 29.38 346.25 30.15C345.84 30.68 344.96 30.8 344.25 31.1C343.55 31.4 342.9 31.63 342.01 31.99C341.01 31.16 340.25 30.15 340.25 28.49C340.37 21.96 340.25 15.37 340.25 8.78C340.25 8.19 340.07 7.53 340.84 6.82Z" fill="#FFFFFF" fill-opacity="1.000000" fill-rule="nonzero"/>
	<path id="path" d="M27.72 34.19C28.25 35.61 29.19 36.03 30.49 35.55C31.14 35.31 31.73 35.02 32.49 34.66C32.49 34.24 32.55 33.71 32.61 33.18C33.2 33.12 33.67 33 34.32 32.94C34.2 32.29 34.08 31.75 33.96 31.22C35.38 30.8 36.02 31.4 35.85 33.06C36.96 32.76 38.02 32.4 39.14 32.23C39.38 32.23 39.79 32.64 39.85 32.94C39.91 33.18 39.67 33.53 39.55 33.95C40.44 34.13 41.03 33.71 41.5 33.24C42.2 32.52 42.85 32.7 43.44 33.24C44.26 34.01 44.74 34.96 44.68 36.32C42.32 36.44 40.26 37.51 37.85 37.45C36.85 37.45 35.73 37.93 34.85 38.46C34.26 38.82 33.79 38.99 33.08 38.87C32.08 38.64 31.14 38.82 30.25 39.41C29.9 39.65 29.43 39.88 29.02 40C28.19 40.24 27.55 39.82 27.49 39.05C27.43 37.45 27.72 35.79 27.72 34.19Z" fill="#FFFFFF" fill-opacity="1.000000" fill-rule="nonzero"/>
	<path id="path" d="M345.49 34.66C345.49 34.19 345.37 33.77 345.37 33.24C345.96 33.12 346.49 33.06 347.19 32.94C347.08 32.4 346.96 31.87 346.84 31.34C348.02 30.8 348.49 31.1 349.02 32.88C349.78 32.76 350.55 32.7 351.32 32.46C351.79 32.34 352.2 31.93 352.55 32.46C352.73 32.7 352.55 33.18 352.43 33.53C353.2 33.83 353.73 33.65 354.26 33.24C355.2 32.58 355.55 32.58 356.32 33.35C357.08 34.13 357.61 35.02 357.38 36.38C355.14 36.44 353.14 37.57 350.79 37.51C349.73 37.51 348.55 37.98 347.61 38.52C347.02 38.82 346.55 39.11 345.84 38.93C344.84 38.7 343.9 38.93 343.02 39.47C342.6 39.77 342.07 40 341.6 40.06C340.9 40.18 340.31 39.88 340.31 39.05C340.31 37.51 340.31 35.97 340.31 34.36C341.31 34.36 340.9 35.85 341.9 35.61C342.43 35.49 343.02 35.55 343.54 35.37C344.13 35.19 344.78 34.9 345.49 34.66Z" fill="#FFFFFF" fill-opacity="1.000000" fill-rule="nonzero"/>
	<path id="path" d="M110.37 0.29C111.96 0.41 113.55 -0.18 115.14 0.65C115.49 0.83 116.08 0.47 116.61 0.41C116.79 0.71 117.26 1.24 117.5 1.6C116.44 2.49 115.91 4.33 113.96 3.32C113.37 4.15 112.96 5.04 111.79 4.86C111.61 4.86 111.31 5.4 110.96 5.81C111.67 6.05 112.14 6.23 112.73 6.41L112.73 8.48C111.79 8.42 111.55 10.03 110.08 9.43C110.14 6.52 110.25 3.5 110.37 0.29Z" fill="#FFFFFF" fill-opacity="1.000000" fill-rule="nonzero"/>
	<path id="path" d="M187.9 8.48C187.19 8.9 186.49 9.31 185.55 9.91L185.55 0.59C187.43 -6.11e-5 189.73 0.17 190.55 0.94C191.02 0.77 191.49 0.53 192.02 0.29C192.32 0.71 192.55 1.12 192.73 1.42C192.55 2.61 190.67 3.62 189.08 3.5C188.61 4.09 188.31 5.04 187.14 4.86C186.9 4.86 186.55 5.46 186.13 5.87C186.84 6.11 187.31 6.23 187.9 6.47L187.9 8.48Z" fill="#FFFFFF" fill-opacity="1.000000" fill-rule="nonzero"/>
	<path id="path" d="M465.64 94.44C464.75 94.55 463.99 94.67 463.34 94.73C462.75 94.14 462.16 93.66 461.46 93.01C462.4 92.36 463.34 91.71 464.58 92.06C465.28 92.3 465.4 92.54 465.64 94.44Z" fill="#FFFFFF" fill-opacity="1.000000" fill-rule="nonzero"/>
	<path id="path" d="M229.76 92.06C230.99 90.99 231.76 91.41 233.17 93.96C232.76 94.14 231.76 94.61 231.23 94.85C230.7 93.9 230.23 92.95 229.76 92.06Z" fill="#FFFFFF" fill-opacity="1.000000" fill-rule="nonzero"/>
	<path id="path" d="M83.82 23.74C84.06 24.04 84.88 24.81 85.06 25.1C85.41 25.7 85.24 26.23 84.71 26.59C84.18 26.94 83.35 26.71 83.06 26.17C82.59 25.4 82.94 24.33 83.82 23.74Z" fill="#FFFFFF" fill-opacity="1.000000" fill-rule="nonzero"/>
	<path id="path" d="M0.64 62.68C2.41 63.33 2.59 63.87 1.41 65.17C1.11 65.53 0.88 65.88 0.41 66.42C0.11 64.99 -0.12 63.81 0.64 62.68Z" fill="#FFFFFF" fill-opacity="1.000000" fill-rule="nonzero"/>
	<path id="path" d="M223.22 94.79C221.93 94.67 220.75 95.21 219.81 94.26C221.28 92.6 221.81 92.65 223.22 94.79Z" fill="#FFFFFF" fill-opacity="1.000000" fill-rule="nonzero"/>
	<path id="path" d="M352.73 31.04C353.59 30.21 354.36 30.29 355.02 31.28C353.96 32.46 353.91 32.46 352.73 31.04Z" fill="#FFFFFF" fill-opacity="1.000000" fill-rule="nonzero"/>
	<path id="path" d="M39.85 31.16C41.09 29.73 41.14 29.73 42.2 31.34C41.46 32.05 40.67 31.99 39.85 31.16Z" fill="#FFFFFF" fill-opacity="1.000000" fill-rule="nonzero"/>
	<path id="path" d="M337.89 97.4C339.07 96.45 339.54 96.45 340.48 97.34C339.6 98.29 339.19 98.29 337.89 97.4Z" fill="#FFFFFF" fill-opacity="1.000000" fill-rule="nonzero"/>
	<path id="path" d="M110.55 29.56C109.9 28.19 110.08 27.06 110.26 25.76C111.26 26.88 111.32 27.42 110.55 29.56Z" fill="#FFFFFF" fill-opacity="1.000000" fill-rule="nonzero"/>
	<path id="path" d="M185.6 25.52C186.55 27 186.31 28.13 185.78 29.32C185.19 28.19 185.31 27.06 185.6 25.52Z" fill="#FFFFFF" fill-opacity="1.000000" fill-rule="nonzero"/>
	<path id="path" d="M360.5 41.07C359.2 40.83 358.79 40.06 358.62 39.05C360.15 39.05 360.2 39.17 360.5 41.07Z" fill="#FFFFFF" fill-opacity="1.000000" fill-rule="nonzero"/>
	<path id="path" d="M47.5 41.13C46.38 40.78 45.8 40.18 45.8 39.11C47.21 39.11 47.33 39.29 47.5 41.13Z" fill="#FFFFFF" fill-opacity="1.000000" fill-rule="nonzero"/>
	<path id="path" d="M210.33 82.56L210.33 80.9C211.15 80.94 211.56 81.5 211.56 82.56L210.33 82.56Z" fill="#FFFFFF" fill-opacity="1.000000" fill-rule="nonzero"/>
	<path id="path" d="M464.58 91.47C464.75 90.64 464.99 89.81 465.16 88.92C465.52 89.63 465.87 90.4 465.69 91.11C465.69 91.35 464.81 91.29 464.58 91.47Z" fill="#FFFFFF" fill-opacity="1.000000" fill-rule="nonzero"/>
	<path id="path" d="M193.73 87.43C193.61 88.32 193.49 88.91 193.38 89.75C192.55 89.03 192.49 88.38 192.43 87.61C192.79 87.61 193.08 87.49 193.73 87.43Z" fill="#FFFFFF" fill-opacity="1.000000" fill-rule="nonzero"/>
	<path id="path" d="M21.13 55.61C20.78 54.61 20.36 53.6 21.07 52.41C21.6 53.72 21.6 54.07 21.13 55.61Z" fill="#FFFFFF" fill-opacity="1.000000" fill-rule="nonzero"/>
	<path id="path" d="M199.38 175.28C198.44 176 197.97 175.52 197.5 174.87C198.32 174.35 198.95 174.49 199.38 175.28Z" fill="#FFFFFF" fill-opacity="1.000000" fill-rule="nonzero"/>
	<path id="path" d="M117.02 87.37C117.73 87.55 118.26 87.61 118.32 87.67C118.38 88.26 118.32 88.86 118.32 89.39C118.14 88.8 117.38 88.38 117.02 87.37Z" fill="#FFFFFF" fill-opacity="1.000000" fill-rule="nonzero"/>
	<path id="path" d="" fill="#FFFFFF" fill-opacity="1.000000" fill-rule="nonzero"/>
	<path id="path" d="M424.43 60.84C425.14 61.02 425.55 61.08 426.19 61.19C425.78 61.67 425.43 62.03 425.02 62.5C424.84 61.91 424.66 61.55 424.43 60.84Z" fill="#FFFFFF" fill-opacity="1.000000" fill-rule="nonzero"/>
	<path id="path" d="M249.77 174.33C249.53 174.81 249.36 175.28 249.06 175.82C248.71 175.64 248.47 175.52 247.95 175.28C248.47 174.75 249.36 174.69 249.77 174.33Z" fill="#FFFFFF" fill-opacity="1.000000" fill-rule="nonzero"/>
	<path id="path" d="M337.84 168.69C337.42 168.99 337.13 169.17 336.54 169.59C336.42 168.99 336.25 168.58 336.36 168.34C336.72 167.8 337.13 168.16 337.84 168.69Z" fill="#FFFFFF" fill-opacity="1.000000" fill-rule="nonzero"/>
	<path id="path" d="M470.05 81.32C469.11 80.6 469.46 80.19 470.17 79.71C470.7 80.43 470.29 80.78 470.05 81.32Z" fill="#FFFFFF" fill-opacity="1.000000" fill-rule="nonzero"/>
	<path id="path" d="M336.19 145.37C336.3 145.07 336.36 144.71 336.48 144.42C336.36 144.71 336.3 145.01 336.19 145.37Z" fill="#FFFFFF" fill-opacity="1.000000" fill-rule="nonzero"/>
	<path id="path" d="M255.07 175.28C254.54 175.46 254.01 175.64 253.18 175.88C253.77 174.51 254.48 175.11 255.07 175.28Z" fill="#FFFFFF" fill-opacity="1.000000" fill-rule="nonzero"/>
	<path id="path" d="M335.24 146.97L336.07 145.84C335.77 146.26 335.48 146.55 335.24 146.97Z" fill="#FFFFFF" fill-opacity="1.000000" fill-rule="nonzero"/>
	<path id="path" d="M185.37 94.26C185.37 94.26 185.84 93.9 186.02 93.72C185.84 93.96 185.55 94.02 185.37 94.26Z" fill="#FFFFFF" fill-opacity="1.000000" fill-rule="nonzero"/>
</svg>
