<svg width="107" height="107" viewBox="0 0 107 107" fill="none" xmlns="http://www.w3.org/2000/svg">
<rect x="0.5" y="0.5" width="106" height="106" rx="7.5" stroke="white"/>
<path d="M87.3482 61.8457H83.5957V88.1873H87.3482V61.8457Z" fill="white"/>
<path d="M79.8429 95.7172H42.2191V91.9647H38.442V95.7172H34.6895V106.999H87.3479V95.7172H83.5954V88.1875H79.8429V95.7172ZM79.8429 103.247H72.3132V99.4697H79.8429V103.247Z" fill="white"/>
<path d="M83.5943 58.0938H79.8418V61.8463H83.5943V58.0938Z" fill="white"/>
<path d="M76.065 61.8457H72.3125V73.1526H76.065V61.8457Z" fill="white"/>
<path d="M79.8422 54.3418H72.3125V58.0943H79.8422V54.3418Z" fill="white"/>
<path d="M68.5357 39.2812H64.7832V43.0584H68.5357V39.2812Z" fill="white"/>
<path d="M68.5363 39.2822H72.3134V28H61.0312V31.7525H68.5363V39.2822Z" fill="white"/>
<path d="M64.7838 61.8457H61.0312V73.1526H64.7838V61.8457Z" fill="white"/>
<path d="M64.7838 43.0586H61.0312V46.8111H64.7838V43.0586Z" fill="white"/>
<path d="M64.7838 35.5293H61.0312V39.2818H64.7838V35.5293Z" fill="white"/>
<path d="M61.0311 31.752H57.2539V35.5291H61.0311V31.752Z" fill="white"/>
<path d="M57.2525 35.5293H53.5V39.2818H57.2525V35.5293Z" fill="white"/>
<path d="M53.5005 61.8457H49.748V73.1526H53.5005V61.8457Z" fill="white"/>
<path d="M49.7484 54.3406H72.3128V50.5634H61.0306V46.8109H57.2534V50.5634H53.5009V39.2812H42.2188V43.0584H49.7484V54.3406Z" fill="white"/>
<path d="M38.442 65.623H34.6895V69.3755H38.442V76.9052H42.2191V43.0586H38.442V50.5636H34.6895V54.3408H38.442V65.623Z" fill="white"/>
<path d="M38.442 88.1875H34.6895V91.9647H38.442V88.1875Z" fill="white"/>
<path d="M34.688 80.6582H30.9355V88.1879H34.688V80.6582Z" fill="white"/>
<path d="M34.688 69.377H30.9355V73.1541H34.688V69.377Z" fill="white"/>
<path d="M34.688 54.3418H30.9355V58.0943H34.688V54.3418Z" fill="white"/>
<path d="M30.9373 73.1543H27.1602V80.6593H30.9373V73.1543Z" fill="white"/>
<path d="M30.9373 58.0938H27.1602V61.8463H30.9373V58.0938Z" fill="white"/>
<path d="M27.1588 69.377H23.4062V73.1541H27.1588V69.377Z" fill="white"/>
<path d="M27.1588 61.8457H23.4062V65.6229H27.1588V61.8457Z" fill="white"/>
<path d="M23.4068 65.623H19.6543V69.3755H23.4068V65.623Z" fill="white"/>
</svg>
