<svg width="89" height="89" viewBox="0 0 89 89" fill="none" xmlns="http://www.w3.org/2000/svg">
<path d="M89 69.9341H84.7725V74.1616H89V69.9341Z" fill="white"/>
<path d="M89.0001 40.2582V31.7754H84.7726V36.0307H80.5173V27.5479H76.2898V44.5135H72.0345V40.2582H67.807V48.741H76.2898V61.4513H55.0967V65.7066H89.0001V61.4513H80.5173V40.2582H89.0001Z" fill="white"/>
<path d="M88.9999 2.12744H80.5171V6.35494H88.9999V2.12744Z" fill="white"/>
<path d="M76.2897 69.9341H72.0344V74.1616H76.2897V69.9341Z" fill="white"/>
<path d="M76.2897 10.6104H67.8069V14.8379H76.2897V10.6104Z" fill="white"/>
<path d="M59.3242 69.9341H55.0967V74.1616H59.3242V69.9341Z" fill="white"/>
<path d="M55.0965 27.5482H42.3862V31.7757H55.0965V36.031H59.324V14.8379H55.0965V27.5482Z" fill="white"/>
<path d="M38.1308 44.5138H29.6758V48.7413H38.1308V52.9688H29.6758V48.7413H25.4205V65.707H38.1308V69.9345H25.4205V74.162H12.7102V78.4312H16.9655V86.8862H25.4205V82.6587H21.193V78.4312H33.9033V74.1759H38.1308V78.4312H46.6136V74.1759H42.3861V57.238H46.6136V61.4655H50.869V52.9827H42.3861V40.2724H55.0965V36.0449H38.1308V44.5138ZM38.1308 61.4516H29.6758V57.2241H38.1308V61.4516Z" fill="white"/>
<path d="M38.131 2.12744H29.676V6.35494H38.131V2.12744Z" fill="white"/>
<path d="M29.676 19.0654H25.4207V27.5482H29.676V19.0654Z" fill="white"/>
<path d="M55.0965 10.6104H21.1931V14.8379H55.0965V10.6104Z" fill="white"/>
<path d="M25.4206 65.707H21.1931V69.9345H25.4206V65.707Z" fill="white"/>
<path d="M21.1931 14.8379H16.9656V44.5138H21.1931V14.8379Z" fill="white"/>
<path d="M16.9655 44.5137H12.7102V57.224H16.9655V44.5137Z" fill="white"/>
<path d="M12.7104 69.9341H8.48291V74.1616H12.7104V69.9341Z" fill="white"/>
<path d="M12.7104 57.2241H8.48291V61.4516H12.7104V57.2241Z" fill="white"/>
<path d="M8.48285 65.707H4.22754V69.9345H8.48285V65.707Z" fill="white"/>
<path d="M8.48281 14.8379H0V19.0654H8.48281V14.8379Z" fill="white"/>
<path d="M4.2275 57.224H8.48281V52.9687H4.2275V48.7412H0V65.7068H4.2275V57.224Z" fill="white"/>
</svg>
