<svg width="89" height="89" viewBox="0 0 89 89" fill="none" xmlns="http://www.w3.org/2000/svg">
<g clip-path="url(#clip0_668_7167)">
<path d="M89 21.1934H84.7725V25.4209H89V21.1934Z" fill="white"/>
<path d="M76.2896 42.3862V46.6137H67.8346V50.869H76.2896V76.2897H59.3518V80.5172H76.2896V84.7725H88.9999V42.3862H76.2896Z" fill="white"/>
<path d="M84.7724 25.4204H80.5449V29.6757H84.7724V25.4204Z" fill="white"/>
<path d="M80.5451 21.1934H76.2898V25.4209H80.5451V21.1934Z" fill="white"/>
<path d="M76.2898 25.4204H72.0623V29.6757H76.2898V25.4204Z" fill="white"/>
<path d="M76.2898 4.25537H72.0623V8.48287H76.2898V4.25537Z" fill="white"/>
<path d="M72.0622 21.1934H67.8347V25.4209H72.0622V21.1934Z" fill="white"/>
<path d="M67.8347 42.3862H63.5793V46.6137H67.8347V42.3862Z" fill="white"/>
<path d="M63.5793 38.1587H59.3518V42.3862H63.5793V38.1587Z" fill="white"/>
<path d="M59.3519 63.5796H55.0966V72.0624H46.6416V80.5174H50.8691V76.2899H59.3519V63.5796Z" fill="white"/>
<path d="M55.0966 59.3521H50.8691V63.5796H55.0966V59.3521Z" fill="white"/>
<path d="M55.0966 8.48291H50.8691V12.7104H55.0966V8.48291Z" fill="white"/>
<path d="M50.8691 55.0967H46.6416V59.352H50.8691V55.0967Z" fill="white"/>
<path d="M50.8691 46.6138H46.6416V50.8691H50.8691V46.6138Z" fill="white"/>
<path d="M59.3519 33.9033H42.3862V38.1586H59.3519V33.9033Z" fill="white"/>
<path d="M50.8691 12.7104H46.6416V16.9658H50.8691V12.7104Z" fill="white"/>
<path d="M50.8691 4.25537H46.6416V8.48287H50.8691V4.25537Z" fill="white"/>
<path d="M46.6415 67.8066H42.3862V72.062H46.6415V67.8066Z" fill="white"/>
<path d="M46.6415 50.8691H42.3862V55.0966H46.6415V50.8691Z" fill="white"/>
<path d="M46.6415 8.48291H42.3862V12.7104H46.6415V8.48291Z" fill="white"/>
<path d="M38.1588 84.7724H25.4485V88.9999H42.3863V84.7724H46.6416V80.5171H38.1588V84.7724Z" fill="white"/>
<path d="M42.3862 38.1587H38.1587V42.3862H42.3862V38.1587Z" fill="white"/>
<path d="M38.1586 76.2896H33.9033V80.5171H38.1586V76.2896Z" fill="white"/>
<path d="M42.3861 55.0967H33.9033V59.352H42.3861V55.0967Z" fill="white"/>
<path d="M38.1586 42.3862H33.9033V46.6137H38.1586V42.3862Z" fill="white"/>
<path d="M38.1588 33.9033H29.676V38.1586H38.1588V33.9033Z" fill="white"/>
<path d="M33.9035 72.062H29.676V76.2895H33.9035V72.062Z" fill="white"/>
<path d="M33.9035 46.6138H29.676V55.0966H33.9035V46.6138Z" fill="white"/>
<path d="M33.9035 16.9658H29.676V21.1933H33.9035V16.9658Z" fill="white"/>
<path d="M29.676 38.1587H25.4485V42.3862H29.676V38.1587Z" fill="white"/>
<path d="M25.4484 80.5171H21.1931V84.7724H25.4484V80.5171Z" fill="white"/>
<path d="M25.4484 42.3862H21.1931V46.6137H25.4484V42.3862Z" fill="white"/>
<path d="M12.7381 76.2897V50.869H21.1931V46.6137H12.7381V42.3862H0V84.7725H12.7381V80.5172H21.1931V76.2897H12.7381Z" fill="white"/>
<path d="M21.1931 0H16.9656V4.25531H21.1931V0Z" fill="white"/>
<path d="M12.7382 33.9037V29.6762H16.9657V25.4209H12.7382V21.1934H8.48287V25.4209H4.25537V29.6762H8.48287V33.9037H12.7382Z" fill="white"/>
</g>
<defs>
<clipPath id="clip0_668_7167">
<rect width="89" height="89" fill="white"/>
</clipPath>
</defs>
</svg>
