<svg width="89" height="89" viewBox="0 0 89 89" fill="none" xmlns="http://www.w3.org/2000/svg">
<path d="M84.7725 21.2069H4.25531V8.49658H0V80.531H4.25531V25.4344H84.7725V80.531H89V8.49658H84.7725V21.2069Z" fill="white"/>
<path d="M84.7726 80.5308H4.25537V84.7583H84.7726V80.5308Z" fill="white"/>
<path d="M76.2898 55.1104H72.0623V67.8207H76.2898V55.1104Z" fill="white"/>
<path d="M72.0622 67.8208H67.8069V72.0483H72.0622V67.8208Z" fill="white"/>
<path d="M72.0622 50.855H67.8069V55.1103H72.0622V50.855Z" fill="white"/>
<path d="M67.807 72.0479H55.0967V76.3032H67.807V72.0479Z" fill="white"/>
<path d="M67.8068 50.8548V46.6273H63.5793V29.6895H12.7102V55.1101H21.193V50.8548H16.9655V33.917H59.3518V46.6273H55.0965V50.8548H67.8068Z" fill="white"/>
<path d="M55.0966 67.8208H50.8691V72.0483H55.0966V67.8208Z" fill="white"/>
<path d="M55.0966 50.855H50.8691V55.1103H55.0966V50.855Z" fill="white"/>
<path d="M50.8691 55.1104H46.6138V67.8207H50.8691V55.1104Z" fill="white"/>
<path d="M29.676 12.7241H25.4207V16.9516H29.676V12.7241Z" fill="white"/>
<path d="M16.9655 59.3378V63.5931H12.7102V67.8206H42.3861V55.1103H38.1586V50.8549H33.9033V46.6274H29.6758V50.8549H25.4205V55.1103H21.193V59.3378H16.9655Z" fill="white"/>
<path d="M21.1931 12.7241H16.9656V16.9516H21.1931V12.7241Z" fill="white"/>
<path d="M12.7104 12.7241H8.48291V16.9516H12.7104V12.7241Z" fill="white"/>
<path d="M84.7726 4.24121H4.25537V8.49652H84.7726V4.24121Z" fill="white"/>
</svg>
