<svg width="89" height="89" viewBox="0 0 89 89" fill="none" xmlns="http://www.w3.org/2000/svg">
<path d="M89 44.5137H84.7725V65.7068H89V44.5137Z" fill="white"/>
<path d="M84.7724 65.707H80.5171V74.162H84.7724V65.707Z" fill="white"/>
<path d="M84.7724 36.0308H80.5171V44.5136H84.7724V36.0308Z" fill="white"/>
<path d="M80.5173 74.1616H76.2898V82.6444H80.5173V74.1616Z" fill="white"/>
<path d="M80.5173 31.7754H76.2898V36.0307H80.5173V31.7754Z" fill="white"/>
<path d="M76.2897 82.6445H72.0344V86.872H76.2897V82.6445Z" fill="white"/>
<path d="M76.2897 57.2241H72.0344V65.7069H76.2897V57.2241Z" fill="white"/>
<path d="M76.2897 44.5137H72.0344V52.9687H76.2897V44.5137Z" fill="white"/>
<path d="M76.2897 27.5479H72.0344V31.7754H76.2897V27.5479Z" fill="white"/>
<path d="M72.0344 65.707H67.8069V69.9345H72.0344V65.707Z" fill="white"/>
<path d="M72.0344 31.7754H67.8069V44.5135H72.0344V31.7754Z" fill="white"/>
<path d="M72.0344 14.8379H67.8069V19.0654H72.0344V14.8379Z" fill="white"/>
<path d="M67.8068 69.9341H63.5793V74.1616H67.8068V69.9341Z" fill="white"/>
<path d="M72.0343 52.9688H63.5793V57.2241H72.0343V52.9688Z" fill="white"/>
<path d="M67.8068 19.0654H63.5793V23.3207H67.8068V19.0654Z" fill="white"/>
<path d="M67.8068 10.6104H63.5793V14.8379H67.8068V10.6104Z" fill="white"/>
<path d="M63.5793 57.2241H59.324V61.4516H63.5793V57.2241Z" fill="white"/>
<path d="M63.5793 23.3208H59.324V27.5483H63.5793V23.3208Z" fill="white"/>
<path d="M63.5793 6.35498H59.324V10.6103H63.5793V6.35498Z" fill="white"/>
<path d="M59.3242 82.6445H55.0967V86.872H59.3242V82.6445Z" fill="white"/>
<path d="M59.3242 61.4517H55.0967V65.707H59.3242V61.4517Z" fill="white"/>
<path d="M59.3242 27.5479H55.0967V31.7754H59.3242V27.5479Z" fill="white"/>
<path d="M59.3242 2.12744H55.0967V6.35494H59.3242V2.12744Z" fill="white"/>
<path d="M55.0966 65.707H50.8691V82.6448H55.0966V65.707Z" fill="white"/>
<path d="M50.8691 2.12744H46.6138V10.6103H50.8691V2.12744Z" fill="white"/>
<path d="M46.6137 10.6104H42.3862V23.3207H46.6137V10.6104Z" fill="white"/>
<path d="M42.3862 23.3208H38.1309V31.7758H42.3862V23.3208Z" fill="white"/>
<path d="M38.1308 65.707H33.9033V82.6448H38.1308V65.707Z" fill="white"/>
<path d="M33.9035 82.6445H29.676V86.872H33.9035V82.6445Z" fill="white"/>
<path d="M33.9035 61.4517H29.676V65.707H33.9035V61.4517Z" fill="white"/>
<path d="M33.9035 27.5479H29.676V31.7754H33.9035V27.5479Z" fill="white"/>
<path d="M33.9035 2.12744H29.676V6.35494H33.9035V2.12744Z" fill="white"/>
<path d="M29.676 57.2241H25.4207V61.4516H29.676V57.2241Z" fill="white"/>
<path d="M29.676 23.3208H25.4207V27.5483H29.676V23.3208Z" fill="white"/>
<path d="M29.676 6.35498H25.4207V10.6103H29.676V6.35498Z" fill="white"/>
<path d="M25.4206 69.9341H21.1931V74.1616H25.4206V69.9341Z" fill="white"/>
<path d="M25.4206 52.9688H16.9656V57.2241H25.4206V52.9688Z" fill="white"/>
<path d="M25.4206 19.0654H21.1931V23.3207H25.4206V19.0654Z" fill="white"/>
<path d="M25.4206 10.6104H21.1931V14.8379H25.4206V10.6104Z" fill="white"/>
<path d="M21.1931 65.707H16.9656V69.9345H21.1931V65.707Z" fill="white"/>
<path d="M21.1931 31.7754H16.9656V44.5135H21.1931V31.7754Z" fill="white"/>
<path d="M21.1931 14.8379H16.9656V19.0654H21.1931V14.8379Z" fill="white"/>
<path d="M16.9655 82.6445H12.7102V86.872H16.9655V82.6445Z" fill="white"/>
<path d="M16.9655 57.2241H12.7102V65.7069H16.9655V57.2241Z" fill="white"/>
<path d="M16.9655 44.5137H12.7102V52.9687H16.9655V44.5137Z" fill="white"/>
<path d="M16.9655 27.5479H12.7102V31.7754H16.9655V27.5479Z" fill="white"/>
<path d="M12.7104 74.1616H8.48291V82.6444H12.7104V74.1616Z" fill="white"/>
<path d="M12.7104 31.7754H8.48291V36.0307H12.7104V31.7754Z" fill="white"/>
<path d="M8.48285 65.707H4.22754V74.162H8.48285V65.707Z" fill="white"/>
<path d="M8.48285 36.0308H4.22754V44.5136H8.48285V36.0308Z" fill="white"/>
<path d="M4.2275 44.5137H0V65.7068H4.2275V44.5137Z" fill="white"/>
</svg>
