<svg width="89" height="89" viewBox="0 0 89 89" fill="none" xmlns="http://www.w3.org/2000/svg">
<g clip-path="url(#clip0_668_7312)">
<path d="M67.8069 55.0966H63.5516V63.5794H55.0966V67.8069H46.6138V72.0344H59.3241V76.2897H63.5516V80.5172H67.8069V84.7725H72.0344V89H76.2897V84.7725H80.5172V80.5172H84.7447V76.2897H89V72.0344H84.7447V67.8069H80.5172V63.5794H76.2897V59.3241H72.0344V46.6138H67.8069V55.0966Z" fill="white"/>
<path d="M76.2897 29.6758H72.0344V46.6136H76.2897V29.6758Z" fill="white"/>
<path d="M72.0344 21.1934H67.8069V29.6762H72.0344V21.1934Z" fill="white"/>
<path d="M67.8068 12.7104H63.5515V21.1933H67.8068V12.7104Z" fill="white"/>
<path d="M63.5515 33.9033H59.324V42.3861H63.5515V33.9033Z" fill="white"/>
<path d="M59.3242 25.4204H55.0967V33.9032H59.3242V25.4204Z" fill="white"/>
<path d="M63.5517 8.48291H55.0967V12.7104H63.5517V8.48291Z" fill="white"/>
<path d="M55.0966 21.1934H46.6138V25.4209H55.0966V21.1934Z" fill="white"/>
<path d="M55.0966 4.22754H46.6138V8.48285H55.0966V4.22754Z" fill="white"/>
<path d="M46.6137 16.9658H38.1309V21.1933H46.6137V16.9658Z" fill="white"/>
<path d="M46.6138 72.0342H29.6482V76.2895H46.6138V72.0342Z" fill="white"/>
<path d="M46.6138 0H29.6482V4.2275H46.6138V0Z" fill="white"/>
<path d="M29.6481 67.8066H21.1931V72.0341H29.6481V67.8066Z" fill="white"/>
<path d="M29.6481 4.22754H21.1931V8.48285H29.6481V4.22754Z" fill="white"/>
<path d="M21.193 63.5796H12.7102V67.8071H21.193V63.5796Z" fill="white"/>
<path d="M21.193 8.48291H12.7102V12.7104H21.193V8.48291Z" fill="white"/>
<path d="M12.7104 55.0967H8.48291V63.5795H12.7104V55.0967Z" fill="white"/>
<path d="M12.7104 12.7104H8.48291V21.1933H12.7104V12.7104Z" fill="white"/>
<path d="M8.48285 46.6138H4.22754V55.0966H8.48285V46.6138Z" fill="white"/>
<path d="M8.48285 21.1934H4.22754V29.6762H8.48285V21.1934Z" fill="white"/>
<path d="M4.2275 29.6758H0V46.6136H4.2275V29.6758Z" fill="white"/>
</g>
<defs>
<clipPath id="clip0_668_7312">
<rect width="89" height="89" fill="white"/>
</clipPath>
</defs>
</svg>
