<svg width="89" height="89" viewBox="0 0 89 89" fill="none" xmlns="http://www.w3.org/2000/svg">
<path d="M48.7414 86.8865V82.659H57.1964V78.4036H65.6792V74.1761H74.162V69.9208H78.3895V65.6933H82.6448V23.3071H78.3895V19.0796H74.162V23.3071H65.6792V27.5624H57.1964V31.7899H48.7414V36.0174H40.2585V40.2727H44.4999V82.659H40.2724V86.8865H48.7414ZM65.6792 36.0174H74.162V40.2727H65.6792V36.0174ZM52.9689 61.4658H61.4656V69.9208H52.9828L52.9689 61.4658Z" fill="white"/>
<path d="M74.162 14.8521H65.6792V19.0796H74.162V14.8521Z" fill="white"/>
<path d="M65.6793 10.5967H57.1965V14.852H65.6793V10.5967Z" fill="white"/>
<path d="M57.1965 6.36914H48.7415V10.5966H57.1965V6.36914Z" fill="white"/>
<path d="M48.7414 19.0796H40.2585V27.5624H48.7414V19.0796Z" fill="white"/>
<path d="M48.7414 2.11377H40.2585V6.36908H48.7414V2.11377Z" fill="white"/>
<path d="M40.2587 78.4033H31.7759V82.6586H40.2587V78.4033Z" fill="white"/>
<path d="M40.2587 31.7896H31.7759V36.017H40.2587V31.7896Z" fill="white"/>
<path d="M40.2587 6.36914H31.7759V10.5966H40.2587V6.36914Z" fill="white"/>
<path d="M40.2587 61.4658H31.7759V69.9208H40.2587V61.4658Z" fill="white"/>
<path d="M40.2587 44.5H31.7759V52.9828H40.2587V44.5Z" fill="white"/>
<path d="M31.7758 74.1758H23.293V78.4033H31.7758V74.1758Z" fill="white"/>
<path d="M31.7758 27.562H23.293V31.7895H31.7758V27.562Z" fill="white"/>
<path d="M31.7758 10.5967H23.293V14.852H31.7758V10.5967Z" fill="white"/>
<path d="M23.2931 69.9204H14.8381V74.1757H23.2931V69.9204Z" fill="white"/>
<path d="M23.2931 23.3071H14.8381V27.5624H23.2931V23.3071Z" fill="white"/>
<path d="M23.2931 14.8521H14.8381V19.0796H23.2931V14.8521Z" fill="white"/>
<path d="M23.2931 52.9829H14.8381V61.4657H23.2931V52.9829Z" fill="white"/>
<path d="M23.2931 36.0171H14.8381V44.4999H23.2931V36.0171Z" fill="white"/>
<path d="M14.8381 65.6934H10.5828V69.9209H14.8381V65.6934Z" fill="white"/>
<path d="M14.8381 19.0796H10.5828V23.3071H14.8381V19.0796Z" fill="white"/>
<path d="M10.5827 23.3071H6.35522V65.6934H10.5827V23.3071Z" fill="white"/>
</svg>
