<svg width="50" height="50" viewBox="0 0 50 50" fill="none" xmlns="http://www.w3.org/2000/svg">
<rect width="50" height="50" rx="11" fill="black"/>
<path d="M17.7577 14.2275C18.8362 14.2275 19.8122 14.3202 20.7004 14.5154C21.5837 14.7009 22.3401 15.0181 22.9794 15.4476C23.6089 15.877 24.1018 16.4479 24.4532 17.1702C24.7996 17.8778 24.9704 18.766 24.9704 19.8201C24.9704 20.9571 24.7118 21.9039 24.1994 22.6652C23.6772 23.4216 22.9159 24.0462 21.896 24.5245C23.2868 24.9247 24.3165 25.6274 24.9949 26.6278C25.6781 27.6331 26.0148 28.8385 26.0148 30.2537C26.0148 31.3956 25.7952 32.3863 25.356 33.2111C24.9119 34.0504 24.3116 34.7287 23.5699 35.2558C22.8232 35.7828 21.9643 36.1732 21.0029 36.427C20.0513 36.6808 19.0656 36.8077 18.0554 36.8077H7.11426V14.2373H17.7577V14.2275ZM17.1135 23.3484C17.9919 23.3484 18.7239 23.1386 19.2998 22.714C19.8708 22.2992 20.1489 21.6062 20.1489 20.6594C20.1489 20.1324 20.0562 19.6981 19.8708 19.3614C19.6805 19.0247 19.4267 18.7611 19.1046 18.5756C18.7874 18.3853 18.4263 18.2487 18.0115 18.1804C17.6016 18.1023 17.1721 18.0682 16.7329 18.0682H12.0822V23.3435H17.1135V23.3484ZM17.3868 32.9573C17.8797 32.9573 18.3433 32.9133 18.7825 32.8157C19.2266 32.7181 19.6219 32.5669 19.9537 32.3375C20.2856 32.1179 20.5637 31.8202 20.7638 31.4347C20.9639 31.054 21.0615 30.566 21.0615 29.9707C21.0615 28.8092 20.7346 27.9796 20.0806 27.4818C19.4267 26.9889 18.558 26.7401 17.4893 26.7401H12.0871V32.9573H17.3917H17.3868Z" fill="white"/>
<path d="M33.1013 32.8785C33.7748 33.5325 34.7459 33.8643 36.005 33.8643C36.9127 33.8643 37.6935 33.6349 38.3474 33.1811C38.9965 32.7272 39.3917 32.2393 39.5479 31.7317H43.5008C42.8664 33.6984 41.9001 35.1039 40.5874 35.9481C39.2893 36.7973 37.7033 37.2218 35.8537 37.2218C34.5654 37.2218 33.4088 37.012 32.3693 36.602C31.3299 36.1872 30.4612 35.6065 29.7292 34.8452C29.0167 34.0839 28.4653 33.1811 28.07 32.1221C27.6796 31.068 27.4844 29.9017 27.4844 28.6377C27.4844 27.3738 27.6893 26.2758 28.0895 25.2168C28.4994 24.1579 29.0606 23.2452 29.8024 22.4791C30.5442 21.708 31.4275 21.1029 32.4523 20.6588C33.4771 20.2147 34.6093 19.9951 35.8586 19.9951C37.2396 19.9951 38.4548 20.2635 39.4894 20.8052C40.5239 21.3372 41.3731 22.0643 42.0368 22.972C42.7053 23.8748 43.1787 24.9142 43.4715 26.0757C43.7643 27.2323 43.8668 28.4474 43.7838 29.7114H31.9887C31.9887 31.0046 32.4279 32.2295 33.1013 32.8834V32.8785ZM38.2596 24.2896C37.7277 23.6991 36.8248 23.3819 35.7219 23.3819C35.0046 23.3819 34.4092 23.5039 33.9358 23.7479C33.4722 23.9919 33.0916 24.2945 32.7988 24.6507C32.5109 25.0119 32.3108 25.3925 32.1985 25.8024C32.0814 26.1977 32.0131 26.5588 31.9936 26.8809H39.2991C39.1917 25.739 38.8013 24.8899 38.2645 24.2945L38.2596 24.2896Z" fill="white"/>
<path d="M40.2205 15.7402H31.0703V17.9704H40.2205V15.7402Z" fill="white"/>
</svg>
