<svg width="50" height="50" viewBox="0 0 50 50" fill="none" xmlns="http://www.w3.org/2000/svg">
<g clip-path="url(#clip0_534_1748)">
<rect width="50" height="50" rx="10" fill="#222222"/>
<path d="M18.9804 18.0014H10.7453V15.0016H18.9809V18.0014H18.9804ZM8 18.0014V27.0002H10.7453V18.0014H8ZM18.9804 18.0014V27.0002H10.7453V29.9999H18.9809V35.9989H24.4711V32.9992H21.7258V18.0014H18.9804ZM24.4711 15.0021H21.7258V18.0019H24.4711V15.0021ZM38.2123 21.0022H31.3715H31.1294H31.0191V24.0072H28.2742V36H38.2118C40.2706 36 42 34.1403 42 31.8907V25.142C42.0005 22.8919 40.271 21.0022 38.2123 21.0022ZM39.2551 31.8907C39.2551 32.4904 38.7886 33.0008 38.2118 33.0008H31.0196V24.002H38.2118C38.7881 24.002 39.2551 24.5117 39.2551 25.142V31.8907ZM31.0191 15.0005V21.0022C29.5034 21.0022 28.2742 19.6596 28.2742 18.0029V15H31.0191V15.0005Z" fill="white"/>
</g>
<defs>
<clipPath id="clip0_534_1748">
<rect width="50" height="50" rx="10" fill="white"/>
</clipPath>
</defs>
</svg>
