<svg width="68" height="41" viewBox="0 0 68 41" fill="none" xmlns="http://www.w3.org/2000/svg">
<path d="M21.9608 5.85978H5.49069V0.00308127H21.9618V5.85978H21.9608ZM0 5.85978V23.4289H5.49069V5.85978H0ZM21.9608 5.85978V23.4289H5.49069V29.2856H21.9618V40.9979H32.9422V35.1412H27.4515V5.85978H21.9608ZM32.9422 0.0041094H27.4515V5.86081H32.9422V0.0041094ZM60.4245 11.7185H46.7431H46.2587H46.0382V17.5855H40.5485V41H60.4236C64.5411 41 68 37.3691 68 32.9771V19.801C68.001 15.408 64.5421 11.7185 60.4245 11.7185ZM62.5103 32.9771C62.5103 34.148 61.5772 35.1443 60.4236 35.1443H46.0392V17.5752H60.4236C61.5762 17.5752 62.5103 18.5705 62.5103 19.801V32.9771ZM46.0382 0.00102813V11.7185C43.0069 11.7185 40.5485 9.0973 40.5485 5.86286V0H46.0382V0.00102813Z" fill="black"/>
</svg>
