<svg width="50" height="50" viewBox="0 0 50 50" fill="none" xmlns="http://www.w3.org/2000/svg">
<rect width="50" height="50" rx="11" fill="black"/>
<path d="M40.9798 12.6372C40.899 12.3029 40.7759 12.203 40.5758 12.1031C40.1411 11.888 39.3485 12.0763 39.3485 12.0763C39.3485 12.0763 11.2894 19.2576 9.63506 20.1913C9.27725 20.3911 9.15414 20.5179 9.08489 20.6715C8.74247 21.4131 9.54658 21.8319 9.54658 21.8319L16.3257 24.7675C16.3257 24.7675 16.5835 24.8289 16.6835 24.779C18.3687 23.926 33.6467 16.1914 34.5085 15.9647C34.6431 15.9378 34.7355 15.9916 34.7009 16.08C34.2584 17.2135 20.6848 27.1497 20.6848 27.1497C20.6848 27.1497 20.6309 27.2035 20.5963 27.2726L20.5809 27.2611L19.2728 34.1274C19.2728 34.1274 18.7996 36.2253 21.1234 34.3003C22.7662 32.9439 24.3321 31.8258 25.117 31.2879C27.3639 33.1745 29.78 35.2532 30.8073 36.3175C31.3228 36.8516 31.7845 36.9745 32.1731 36.9976C33.2388 37.0591 33.6428 35.9217 33.6428 35.9217C33.6428 35.9217 40.4681 16.5103 40.8836 13.8629C40.9259 13.6055 40.9606 13.4403 40.9798 13.2597C41.0067 13.0099 41.0067 12.7602 40.9798 12.6372Z" fill="white"/>
</svg>
