<svg width="21" height="21" viewBox="0 0 21 21" fill="none" xmlns="http://www.w3.org/2000/svg">
<path d="M18.0765 12.0502H20.0805V0H8.03027V2.01716H16.0726V4.02114H18.0765V12.0502Z" fill="white"/>
<path d="M16.0719 4.02148H14.0547V6.02546H16.0719V4.02148Z" fill="white"/>
<path d="M14.0548 6.02539H12.0508V8.04256H14.0548V6.02539Z" fill="white"/>
<path d="M12.0504 8.04248H10.0332V10.0465H12.0504V8.04248Z" fill="white"/>
<path d="M10.0343 10.0464H8.03027V12.0504H10.0343V10.0464Z" fill="white"/>
<path d="M8.02937 12.0503H6.02539V14.0675H8.02937V12.0503Z" fill="white"/>
<path d="M6.02693 14.0679H4.00977V16.0719H6.02693V14.0679Z" fill="white"/>
<path d="M4.00886 16.0718H2.00488V18.0889H4.00886V16.0718Z" fill="white"/>
<path d="M2.00398 18.0889H0V20.0928H2.00398V18.0889Z" fill="white"/>
</svg>
