<svg width="31" height="31" viewBox="0 0 31 31" fill="none" xmlns="http://www.w3.org/2000/svg">
<rect y="26.5713" width="4.42857" height="4.42857" fill="white"/>
<rect x="4.42871" y="22.1431" width="4.42857" height="4.42857" fill="white"/>
<rect x="8.85742" y="17.7144" width="4.42857" height="4.42857" fill="white"/>
<rect x="13.2861" y="13.2856" width="4.42857" height="4.42857" fill="white"/>
<rect x="8.85742" y="8.85693" width="4.42857" height="4.42857" fill="white"/>
<rect x="4.42871" y="4.42871" width="4.42857" height="4.42857" fill="white"/>
<rect width="4.42857" height="4.42857" fill="white"/>
<rect x="31" y="4.42871" width="4.42857" height="4.42857" transform="rotate(-180 31 4.42871)" fill="white"/>
<rect x="26.5713" y="8.85693" width="4.42857" height="4.42857" transform="rotate(-180 26.5713 8.85693)" fill="white"/>
<rect x="22.1426" y="13.2856" width="4.42857" height="4.42857" transform="rotate(-180 22.1426 13.2856)" fill="white"/>
<rect x="17.7139" y="17.7144" width="4.42857" height="4.42857" transform="rotate(-180 17.7139 17.7144)" fill="white"/>
<rect x="22.1426" y="22.1431" width="4.42857" height="4.42857" transform="rotate(-180 22.1426 22.1431)" fill="white"/>
<rect x="26.5713" y="26.5713" width="4.42857" height="4.42857" transform="rotate(-180 26.5713 26.5713)" fill="white"/>
<rect x="31" y="31" width="4.42857" height="4.42857" transform="rotate(-180 31 31)" fill="white"/>
</svg>
