<svg width="59" height="59" viewBox="0 0 59 59" fill="none" xmlns="http://www.w3.org/2000/svg">
<g>
<path d="M26.944 19.5718H24.108V22.4088H21.271V25.2448H18.434V28.0818H15.598V30.9178H18.435V33.7548H21.27V36.5918H24.107V39.4278H26.943V36.5918H24.107V33.7548H21.27V30.9178H18.433L18.434 28.0818H21.27L21.271 25.2448H24.107V22.4098H26.943V19.5728L26.944 19.5718ZM41.127 19.5718H38.29V22.4088H35.454V25.2448H32.617V28.0818H29.781V30.9178H32.617V33.7548H35.454V36.5918H38.29V39.4278H41.127V36.5918H38.29V33.7548H35.454V30.9178H32.617V28.0818H35.454V25.2448H38.29V22.4088L41.127 22.4098V19.5718Z" fill="white"/>
</g>
</svg>
