<svg width="59" height="59" viewBox="0 0 59 59" fill="none" xmlns="http://www.w3.org/2000/svg">
<path d="M32.056 19.5718H34.892V22.4088H37.729V25.2448H40.566V28.0818H43.402V30.9178H40.565V33.7548H37.73V36.5918H34.893V39.4278H32.057V36.5918H34.893V33.7548H37.73V30.9178H40.567L40.566 28.0818H37.73L37.729 25.2448H34.893V22.4098H32.057V19.5728L32.056 19.5718ZM17.873 19.5718H20.71V22.4088H23.546V25.2448H26.383V28.0818H29.219V30.9178H26.383V33.7548H23.546V36.5918H20.71V39.4278H17.873V36.5918H20.71V33.7548H23.546V30.9178H26.383V28.0818H23.546V25.2448H20.71V22.4088L17.873 22.4098V19.5718Z" fill="white"/>
</svg>
