<svg width="27" height="18" viewBox="0 0 27 18" fill="none" xmlns="http://www.w3.org/2000/svg">
<path d="M8.71974 2.57259H2.18013V0.00135275H8.72012V2.57259H8.71974ZM0 2.57259V10.2858H2.18013V2.57259H0ZM8.71974 2.57259V10.2858H2.18013V12.8571H8.72012V17.9991H13.08V15.4279H10.8999V2.57259H8.71974ZM13.08 0.00180413H10.8999V2.57304H13.08V0.00180413ZM23.9921 5.14473H18.5598H18.3674H18.2799V7.72047H16.1001V18H23.9917C25.6266 18 27 16.4059 27 14.4777V8.69314C27.0004 6.76449 25.627 5.14473 23.9921 5.14473ZM24.8203 14.4777C24.8203 14.9918 24.4498 15.4292 23.9917 15.4292H18.2803V7.71596H23.9917C24.4494 7.71596 24.8203 8.15292 24.8203 8.69314V14.4777ZM18.2799 0.000451376V5.14473C17.0763 5.14473 16.1001 3.99394 16.1001 2.57394V0H18.2799V0.000451376Z" fill="white"/>
</svg>
