<svg width="181" height="33" viewBox="0 0 181 33" fill="none" xmlns="http://www.w3.org/2000/svg">
<path d="M7.0854 11.5436V21.4613H3.85254V11.5436H7.0854ZM16.784 21.4613H7.0854V24.7666H16.784V31.3772H23.2497V28.0719H20.0168V11.5436H16.784V21.4613ZM16.784 8.23832H7.0854V11.5436H16.784V8.23832ZM20.0168 11.5436H23.2497V8.23832H20.0168V11.5436ZM42.6485 8.23832H39.4157V18.156H36.1828V21.4613H39.4157V24.7666H45.8814V21.4613H42.6485V8.23832ZM29.7154 24.7666H36.1812V21.4613H29.7154V24.7666ZM26.4826 8.23832V21.4613H29.7154V8.23832H26.4826ZM65.2803 8.23832H52.3471V11.5436H65.2803V8.23832ZM68.5131 11.5436H65.2803V18.1543H62.0474V21.4596H65.2803V24.7649H71.746V21.4596H68.5131V11.5419V11.5436ZM52.3471 24.7666H62.0457V21.4613H52.3471V24.7666ZM49.1143 11.5436V21.4613H52.3471V11.5436H49.1143ZM94.3777 11.5436H91.1448V21.4613H87.912V24.7666H97.6122V21.4613H94.3794V11.5436H94.3777ZM81.4446 8.23832H74.9788V11.5436H78.2117V21.4613H74.9788V24.7666H84.6791V21.4613H81.4462V14.8507H84.6791V11.5453H81.4462V8.24004L81.4446 8.23832ZM84.6774 8.23832V11.5436H91.1432V8.23832H84.6774ZM144.748 11.5436H154.351V8.23832H147.949C146.171 8.23832 144.748 9.82501 144.748 11.5436ZM141.515 8.23832V24.7666H144.748V8.23832H141.515ZM160.945 11.5436H170.549V8.23832H164.146C162.368 8.23832 160.945 9.82501 160.945 11.5436ZM157.713 8.23832V24.7666H160.945V8.23832H157.713ZM173.91 24.7666H177.143V8.23832H173.91V24.7666ZM173.91 2.42104V5.75891H177.143V2.41933H173.91V2.42104ZM117.655 12.8013V20.2396C117.655 22.719 115.618 24.7683 113.193 24.7683H101.489V11.5522H104.721V8.24004H113.193C115.618 8.24004 117.655 10.3219 117.655 12.8013ZM114.422 12.8013C114.422 12.1074 113.872 11.5453 113.193 11.5453H104.723V21.463H113.193C113.872 21.463 114.422 20.901 114.422 20.2396V12.8013ZM137.474 12.7688V18.1577H124.444V20.2738C124.444 20.9027 124.833 21.4647 125.575 21.4647H137.472V24.77H125.736C123.279 24.77 121.209 22.6213 121.209 20.1419V12.7705C121.209 10.2911 123.279 8.24175 125.736 8.24175H133.075C135.5 8.24175 137.472 10.2911 137.472 12.7705L137.474 12.7688ZM134.241 12.8356C134.241 12.1742 133.789 11.5471 133.142 11.5471H125.577C124.833 11.5471 124.445 12.1759 124.445 12.8356V14.9175H134.241V12.8356ZM101.492 1.62256V4.9313C101.492 6.75616 102.94 8.23661 104.725 8.23661V1.62256H101.492Z" fill="white"/>
</svg>
